<?xml version="1.0" standalone="no"?>
<!DOCTYPE svg PUBLIC "-//W3C//DTD SVG 20010904//EN"
 "http://www.w3.org/TR/2001/REC-SVG-20010904/DTD/svg10.dtd">
<svg version="1.0" xmlns="http://www.w3.org/2000/svg"
 width="3295.000000pt" height="1344.000000pt" viewBox="0 0 3295.000000 1344.000000"
 preserveAspectRatio="xMidYMid meet">

<g transform="translate(0.000000,1344.000000) scale(0.100000,-0.100000)"
fill="#000000" stroke="none">
<path d="M4734 13413 c-77 -346 -169 -515 -447 -823 -57 -63 -442 -482 -857
-930 -414 -448 -782 -849 -818 -890 -387 -451 -562 -1013 -463 -1483 17 -81
33 -118 45 -106 3 3 10 59 15 125 17 208 70 368 188 561 147 244 232 342 1092
1273 389 421 746 808 793 860 282 311 419 521 469 719 17 69 19 107 17 395 -2
240 -6 320 -15 323 -7 3 -15 -8 -19 -24z"/>
<path d="M4734 12473 c-63 -278 -128 -427 -262 -605 -95 -126 -145 -181 -950
-1050 -385 -417 -731 -793 -769 -835 -428 -486 -613 -1008 -508 -1426 18 -71
102 -248 139 -292 38 -47 51 -23 25 50 -103 294 7 649 327 1050 93 115 123
149 854 940 707 765 759 822 852 935 164 198 269 379 308 534 18 71 20 112 20
403 0 279 -2 323 -15 323 -8 0 -17 -12 -21 -27z"/>
<path d="M21811 11572 l-133 -56 6 -395 c3 -218 8 -415 12 -438 3 -25 2 -43
-3 -43 -5 0 -28 22 -50 50 -127 156 -306 230 -523 217 -244 -15 -420 -135
-529 -359 -84 -172 -114 -326 -114 -578 1 -293 49 -496 159 -662 84 -127 215
-220 356 -253 75 -17 245 -20 320 -4 73 15 184 68 236 112 24 21 64 62 89 92
25 30 49 55 53 55 3 0 15 -54 25 -120 l18 -120 109 0 108 0 0 1280 c0 704 -1
1280 -2 1279 -2 0 -63 -26 -137 -57z m-466 -924 c157 -34 269 -162 310 -358
22 -103 34 -327 24 -481 -20 -325 -127 -479 -363 -520 -272 -47 -447 75 -528
366 -20 72 -22 103 -22 310 0 206 3 239 22 310 87 317 265 436 557 373z"/>
<path d="M4731 11508 c-79 -327 -163 -487 -396 -750 -55 -62 -406 -444 -780
-848 -374 -404 -708 -767 -741 -805 -158 -180 -268 -389 -315 -600 -22 -97
-16 -313 10 -410 41 -150 113 -275 218 -377 88 -85 193 -144 193 -109 0 6 -23
36 -51 68 -96 110 -139 228 -139 384 0 206 89 428 256 637 33 42 335 374 671
737 336 363 652 707 702 765 196 223 317 407 372 568 l34 97 3 343 c3 301 1
342 -12 342 -10 0 -19 -16 -25 -42z"/>
<path d="M15630 11528 c-49 -33 -70 -80 -70 -158 0 -126 62 -195 168 -187 95
7 143 68 143 180 0 74 -17 121 -55 157 -40 36 -137 41 -186 8z"/>
<path d="M28559 11527 c-49 -33 -69 -79 -69 -162 0 -117 45 -175 142 -182 106
-8 168 61 168 187 0 116 -55 180 -155 180 -37 0 -62 -6 -86 -23z"/>
<path d="M19292 11463 c-144 -400 -829 -2303 -843 -2341 l-18 -53 141 3 142 3
132 370 131 370 443 0 442 0 133 -370 133 -370 146 -3 145 -3 -25 68 c-13 38
-208 581 -433 1208 l-409 1140 -125 3 -125 3 -10 -28z m188 -488 c23 -77 97
-304 166 -504 68 -200 124 -370 124 -377 0 -12 -59 -14 -351 -14 -285 0 -350
2 -346 13 58 151 276 802 302 904 20 76 39 145 42 153 6 18 5 21 63 -175z"/>
<path d="M10070 11345 l0 -135 130 0 130 0 0 -935 0 -934 -82 -3 -83 -3 -42
-120 c-23 -66 -42 -126 -42 -132 -1 -10 85 -13 399 -13 l401 0 -3 133 -3 132
-132 3 -133 3 0 934 0 934 86 3 87 3 43 120 c24 66 43 126 43 133 1 9 -85 12
-399 12 l-400 0 0 -135z"/>
<path d="M27535 11234 l-130 -53 0 -863 c0 -787 2 -869 17 -931 47 -183 147
-288 313 -333 61 -17 234 -18 307 -3 70 15 148 48 148 64 0 7 -15 55 -34 106
-23 63 -39 93 -48 90 -111 -33 -191 -40 -261 -20 -55 15 -120 82 -148 154
l-24 60 0 570 0 570 243 3 242 2 0 115 0 115 -245 0 -245 0 -2 203 -3 203
-130 -52z"/>
<path d="M30815 11236 l-130 -52 -3 -850 c-2 -744 0 -859 13 -929 38 -190 141
-306 312 -350 120 -31 364 -9 439 40 l23 15 -36 103 -37 104 -59 -19 c-136
-42 -266 -11 -327 77 -58 85 -60 104 -60 717 l0 558 240 0 240 0 0 115 0 115
-240 0 -240 0 -2 204 -3 204 -130 -52z"/>
<path d="M11595 10895 c-213 -40 -362 -169 -425 -370 -31 -98 -39 -294 -16
-385 37 -145 116 -266 216 -330 l50 -32 -68 -63 c-72 -67 -107 -124 -121 -200
-11 -57 1 -150 23 -194 18 -34 81 -101 96 -101 6 0 10 -4 10 -10 0 -5 -5 -10
-11 -10 -6 0 -49 -18 -94 -39 -103 -48 -165 -108 -207 -198 -27 -57 -32 -81
-36 -168 -7 -170 29 -275 127 -368 113 -108 260 -156 501 -164 260 -9 490 34
640 120 70 40 157 127 193 194 59 110 83 288 57 424 -25 130 -107 242 -219
298 -106 54 -161 62 -456 70 -293 8 -321 13 -363 66 -45 57 -22 165 50 231 62
57 60 56 188 55 327 -5 552 146 615 410 33 143 11 359 -50 467 -14 24 -25 46
-25 48 0 2 48 4 108 4 l107 0 38 109 c20 59 37 111 37 115 0 3 -132 6 -293 6
-176 0 -306 4 -327 11 -60 18 -257 20 -345 4z m224 -205 c121 -20 189 -71 240
-180 24 -52 26 -64 26 -205 0 -145 -1 -152 -29 -213 -50 -107 -128 -157 -268
-169 -186 -16 -313 58 -360 210 -28 92 -22 282 10 367 41 104 122 170 233 189
75 12 76 12 148 1z m320 -1615 c100 -31 141 -96 141 -221 0 -183 -116 -301
-345 -349 -114 -24 -358 -25 -444 -2 -84 23 -145 62 -181 116 -37 55 -44 90
-38 194 8 154 75 235 223 273 80 21 572 13 644 -11z"/>
<path d="M13510 10900 c-129 -27 -273 -137 -364 -277 -26 -40 -51 -73 -55 -73
-4 0 -13 66 -20 148 -7 81 -15 155 -17 165 -5 15 -19 17 -115 17 l-109 0 0
-905 0 -905 134 0 134 0 5 543 c4 602 4 597 74 745 40 86 142 196 213 232 93
48 225 63 329 39 24 -5 46 -8 48 -5 3 2 13 63 22 134 l17 131 -20 6 c-39 11
-231 14 -276 5z"/>
<path d="M14430 10896 c-257 -54 -445 -238 -533 -521 -42 -136 -52 -216 -51
-420 0 -156 4 -206 22 -282 43 -189 108 -311 226 -428 89 -88 191 -147 316
-182 102 -28 423 -26 543 5 78 19 237 78 237 87 0 6 -72 209 -75 213 -2 2 -40
-8 -85 -22 -117 -37 -237 -56 -359 -56 -177 0 -276 36 -377 135 -97 96 -151
231 -170 423 l-7 72 577 0 576 0 0 88 c0 234 -32 408 -101 551 -34 69 -58 102
-123 166 -87 87 -161 130 -271 160 -82 23 -263 28 -345 11z m255 -241 c112
-29 195 -103 245 -219 24 -57 50 -181 50 -241 l0 -45 -425 0 c-489 0 -436 -15
-409 118 30 149 117 288 219 347 88 52 213 67 320 40z"/>
<path d="M16765 10899 c-137 -18 -346 -85 -421 -134 l-23 -15 26 -67 c14 -38
32 -86 41 -109 l15 -41 84 39 c148 68 241 91 378 92 117 1 122 0 188 -32 117
-58 157 -142 165 -344 l4 -126 -63 -6 c-35 -3 -132 -8 -214 -11 -474 -17 -719
-148 -790 -422 -20 -75 -19 -242 0 -318 49 -187 164 -303 345 -350 52 -14 93
-16 205 -12 216 8 292 40 433 184 51 53 95 94 97 91 3 -3 55 -232 55 -244 0
-2 45 -4 101 -4 l100 0 -3 693 c-4 677 -4 694 -26 770 -69 246 -223 356 -523
371 -57 2 -135 0 -174 -5z m455 -1058 c0 -199 -38 -324 -130 -424 -87 -96
-204 -141 -360 -140 -146 0 -221 37 -276 135 -27 49 -29 61 -29 158 0 95 3
111 28 162 73 149 263 211 660 217 l107 1 0 -109z"/>
<path d="M24460 10896 c-152 -32 -289 -115 -383 -231 -131 -162 -207 -420
-207 -700 0 -209 34 -367 111 -525 45 -90 64 -117 138 -190 94 -94 193 -151
321 -187 102 -28 423 -26 543 5 78 19 237 78 237 87 0 6 -72 209 -75 213 -2 2
-40 -8 -85 -22 -174 -55 -401 -73 -525 -41 -222 58 -353 243 -380 538 l-7 77
576 0 576 0 0 93 c0 229 -32 403 -101 546 -34 69 -58 102 -123 166 -87 87
-161 130 -271 160 -82 23 -263 28 -345 11z m255 -241 c112 -29 194 -103 246
-220 24 -53 49 -179 49 -241 l0 -44 -425 0 c-489 0 -436 -15 -409 118 30 149
117 288 219 347 88 52 213 67 320 40z"/>
<path d="M26295 10904 c-127 -20 -256 -85 -342 -171 -34 -35 -64 -72 -68 -83
-3 -11 -12 -20 -19 -20 -8 0 -19 42 -32 123 l-19 122 -107 3 -108 3 0 -906 0
-905 134 0 135 0 3 583 c4 558 5 585 25 659 71 253 220 358 488 346 153 -7
247 -61 299 -171 44 -96 46 -124 46 -787 l0 -630 135 0 135 0 0 658 c0 605 -2
664 -19 749 -46 221 -165 354 -368 409 -58 15 -260 27 -318 18z"/>
<path d="M29601 10895 c-150 -27 -295 -102 -361 -185 -104 -131 -125 -333 -50
-487 37 -74 121 -156 218 -210 37 -21 141 -70 231 -110 363 -162 431 -220 431
-365 -1 -152 -99 -235 -306 -259 -126 -15 -264 4 -424 57 -61 20 -112 35 -114
33 -2 -2 -20 -51 -40 -108 -25 -72 -33 -107 -26 -116 13 -16 129 -61 210 -81
89 -22 376 -30 478 -14 197 31 342 116 417 244 83 142 93 337 26 482 -36 78
-115 156 -214 212 -42 24 -164 82 -270 127 -340 147 -400 197 -401 332 0 50 5
69 27 102 95 143 417 158 715 33 l70 -29 42 116 c37 103 39 117 25 127 -32 24
-237 85 -332 99 -119 18 -252 18 -352 0z"/>
<path d="M32225 10899 c-138 -18 -346 -85 -421 -134 l-24 -15 21 -53 c12 -28
30 -77 42 -108 l20 -56 84 39 c183 84 376 117 500 85 164 -42 233 -159 233
-394 l0 -101 -62 -6 c-35 -3 -131 -8 -213 -11 -409 -15 -649 -116 -749 -316
-48 -95 -60 -161 -53 -299 8 -170 48 -272 145 -362 97 -91 208 -128 387 -128
219 0 320 41 463 187 52 52 95 93 98 91 3 -4 54 -230 54 -243 0 -3 45 -5 100
-5 l100 0 0 648 c0 689 -4 766 -49 883 -74 196 -230 289 -502 303 -57 2 -135
0 -174 -5z m455 -1058 c0 -199 -38 -324 -130 -424 -87 -96 -204 -141 -360
-140 -146 0 -221 37 -276 135 -27 49 -29 61 -29 158 0 95 3 111 28 162 73 149
263 211 660 217 l107 1 0 -109z"/>
<path d="M5350 10880 c0 -6 23 -39 52 -73 196 -236 178 -565 -50 -914 -70
-105 -111 -153 -397 -463 -352 -380 -477 -539 -565 -715 -84 -169 -90 -206
-90 -582 0 -279 2 -323 15 -323 8 0 17 10 19 23 73 333 161 501 411 782 53 59
226 248 384 419 353 381 366 396 451 523 76 115 140 253 171 370 29 106 37
321 16 418 -44 209 -156 388 -310 496 -67 47 -107 61 -107 39z"/>
<path d="M15580 9918 c0 -566 -4 -1002 -10 -1058 -18 -171 -69 -272 -168 -331
-20 -12 -38 -23 -40 -24 -2 -2 78 -236 84 -243 10 -13 141 74 200 133 110 109
169 244 194 445 6 53 10 449 10 1062 l0 978 -135 0 -135 0 0 -962z"/>
<path d="M22190 10868 c1 -7 141 -413 313 -903 l312 -890 159 0 159 0 313 890
c173 490 314 896 314 903 0 10 -32 12 -142 10 l-141 -3 -194 -580 c-169 -507
-277 -845 -297 -937 -9 -41 -22 -34 -30 15 -14 89 -106 383 -290 932 l-191
570 -142 3 c-111 2 -143 0 -143 -10z"/>
<path d="M28510 9975 l0 -905 135 0 135 0 0 905 0 905 -135 0 -135 0 0 -905z"/>
<path d="M5843 10223 c3 -16 16 -62 27 -103 18 -64 21 -93 17 -200 -8 -208
-76 -389 -234 -625 -110 -163 -187 -253 -558 -655 -446 -483 -552 -610 -658
-780 -56 -91 -90 -167 -118 -263 -20 -65 -22 -104 -26 -380 -3 -169 -2 -318 1
-332 12 -49 33 -28 51 53 42 190 106 344 202 485 91 135 142 193 712 808 140
151 290 319 334 374 427 532 561 1072 369 1478 -62 129 -134 215 -119 140z"/>
<path d="M6057 9198 c-20 -369 -195 -671 -723 -1243 -71 -78 -239 -260 -373
-405 -134 -146 -282 -311 -328 -368 -83 -100 -223 -298 -223 -314 0 -4 102 -8
228 -8 l227 0 370 401 c434 470 481 525 587 684 138 208 230 418 284 651 35
156 45 410 20 549 -21 122 -34 165 -50 165 -9 0 -15 -30 -19 -112z"/>
<path d="M16916 7993 c-31 -65 -135 -243 -207 -354 -38 -58 -69 -113 -69 -122
0 -15 13 -17 91 -17 89 0 91 1 134 36 106 86 395 434 395 474 0 19 -8 20 -163
20 l-163 0 -18 -37z"/>
<path d="M11393 7952 l-133 -56 0 -276 c0 -152 5 -348 11 -434 6 -87 8 -161 4
-164 -4 -4 -16 7 -27 23 -76 109 -219 202 -353 230 -261 55 -516 -38 -660
-240 -129 -180 -182 -412 -172 -748 8 -274 53 -445 158 -602 85 -127 206 -212
354 -250 76 -19 250 -19 333 0 122 29 247 110 316 204 21 28 41 51 45 51 5 0
17 -53 27 -117 l19 -118 113 -3 112 -3 0 1281 c0 704 -3 1280 -7 1279 -5 0
-68 -26 -140 -57z m-523 -912 c97 -13 205 -64 255 -123 45 -52 87 -141 109
-227 40 -158 45 -490 10 -657 -44 -213 -157 -332 -348 -364 -81 -14 -192 -7
-256 15 -192 67 -300 306 -300 661 0 401 135 656 367 695 66 11 78 11 163 0z"/>
<path d="M29365 7967 c-55 -22 -84 -48 -110 -100 -85 -171 46 -368 219 -328
105 24 160 99 160 216 0 80 -23 136 -74 178 -52 44 -133 58 -195 34z m117 -27
c68 -19 128 -111 128 -195 -1 -74 -65 -155 -137 -175 -112 -29 -212 57 -213
183 0 85 36 147 105 178 46 21 66 23 117 9z"/>
<path d="M29360 7754 c0 -124 2 -135 18 -132 13 2 18 15 20 56 4 69 26 67 65
-6 19 -35 35 -52 48 -52 25 0 24 8 -8 65 -21 38 -24 51 -15 64 25 34 31 60 21
89 -12 36 -45 52 -104 52 l-45 0 0 -136z m94 90 c23 -9 21 -61 -3 -74 -40 -21
-51 -13 -51 35 0 47 12 55 54 39z"/>
<path d="M19010 7923 c-24 -9 -61 -46 -78 -78 -23 -44 -21 -151 4 -200 28 -53
63 -77 122 -83 103 -9 172 64 172 184 -1 118 -57 185 -155 183 -27 0 -57 -3
-65 -6z"/>
<path d="M27302 7910 c-44 -27 -72 -89 -72 -164 0 -122 68 -194 173 -183 92 8
141 74 141 187 0 74 -17 114 -64 154 -41 34 -127 37 -178 6z"/>
<path d="M15067 7874 c-216 -39 -398 -165 -473 -329 -39 -85 -54 -162 -54
-281 0 -203 51 -335 180 -465 106 -107 172 -144 515 -289 208 -88 319 -172
368 -278 19 -40 22 -65 22 -162 0 -105 -2 -120 -28 -171 -51 -106 -151 -174
-299 -205 -157 -34 -482 -2 -654 63 l-51 20 -41 -120 c-23 -65 -40 -123 -37
-127 17 -27 221 -83 368 -101 145 -17 420 -7 522 20 133 36 239 94 326 181
121 121 179 269 179 459 -1 185 -46 314 -152 427 -96 102 -210 170 -458 274
-379 158 -469 245 -478 460 -3 80 0 104 19 155 61 164 242 243 494 216 117
-13 257 -48 358 -91 39 -16 73 -28 75 -25 3 2 24 60 48 127 31 89 39 125 31
130 -22 14 -142 57 -217 78 -174 48 -407 62 -563 34z"/>
<path d="M25130 6654 l0 -1206 418 5 c447 5 494 9 657 62 428 138 665 481 705
1020 45 599 -170 1045 -590 1226 -193 83 -326 99 -826 99 l-364 0 0 -1206z
m891 923 c335 -78 527 -301 585 -679 22 -140 14 -425 -15 -550 -69 -300 -236
-499 -491 -583 -131 -43 -233 -55 -471 -55 l-219 0 0 946 0 946 273 -5 c195
-3 291 -9 338 -20z"/>
<path d="M17965 7614 l-130 -52 0 -864 c0 -789 1 -869 17 -931 50 -194 159
-303 337 -338 96 -19 270 -7 354 24 38 14 71 28 74 31 5 5 -18 81 -58 193 l-8
21 -61 -19 c-69 -21 -155 -24 -214 -8 -55 15 -127 90 -151 159 -18 52 -20 90
-23 628 l-3 572 246 0 246 0 -3 113 -3 112 -242 3 -243 2 -2 204 -3 203 -130
-53z"/>
<path d="M12410 7271 c-330 -73 -534 -331 -580 -736 -53 -471 104 -874 403
-1031 113 -59 176 -75 323 -81 164 -7 250 10 383 74 78 37 109 59 176 127 69
69 90 98 134 186 92 188 132 426 110 671 -36 417 -233 695 -555 784 -94 26
-292 29 -394 6z m316 -245 c164 -43 269 -163 326 -371 19 -71 22 -104 22 -300
0 -196 -2 -229 -22 -300 -73 -261 -227 -395 -456 -395 -188 0 -328 86 -410
250 -111 226 -111 671 0 893 80 158 212 236 399 237 50 0 113 -6 141 -14z"/>
<path d="M16695 7276 c-147 -34 -255 -95 -349 -196 -168 -183 -246 -451 -233
-805 6 -161 29 -277 81 -404 83 -205 267 -367 481 -426 80 -22 325 -31 439
-16 134 18 352 91 343 115 -2 6 -19 54 -37 106 -19 52 -35 96 -36 98 -1 2 -39
-8 -84 -22 -171 -54 -404 -72 -525 -41 -224 59 -355 243 -380 533 l-8 82 578
0 578 0 -7 163 c-14 316 -70 485 -208 633 -118 126 -257 184 -453 190 -80 3
-140 -1 -180 -10z m260 -241 c168 -44 272 -197 291 -425 l7 -80 -428 0 -428 0
7 63 c16 141 93 301 174 365 106 84 243 111 377 77z"/>
<path d="M20300 7274 c-36 -7 -93 -28 -128 -45 -71 -35 -178 -130 -207 -183
-11 -20 -24 -35 -30 -33 -5 2 -19 57 -30 123 l-20 119 -107 3 -108 3 0 -906 0
-905 135 0 135 0 0 538 c0 575 6 667 51 788 45 122 102 185 214 236 43 20 66
23 170 23 101 0 127 -3 166 -21 58 -27 116 -85 141 -141 45 -102 48 -142 48
-800 l0 -623 135 0 135 0 0 554 c0 448 3 570 15 640 36 207 118 321 269 373
38 13 81 18 166 18 105 0 119 -2 166 -27 53 -28 103 -77 129 -128 42 -82 45
-126 45 -792 l0 -638 135 0 135 0 0 663 c0 618 -2 668 -20 757 -56 271 -206
398 -490 417 -228 14 -438 -79 -551 -246 -19 -28 -39 -51 -45 -51 -6 0 -21 23
-35 52 -32 70 -113 149 -191 187 -115 57 -290 75 -428 45z"/>
<path d="M22998 7280 c-164 -30 -275 -86 -383 -195 -95 -95 -137 -162 -181
-293 -54 -158 -67 -257 -61 -477 5 -230 28 -332 108 -495 46 -91 64 -117 143
-195 147 -146 294 -205 510 -205 186 0 331 45 458 141 88 66 148 142 208 264
84 172 117 352 106 595 -12 306 -102 533 -273 690 -73 67 -189 129 -288 156
-69 18 -278 27 -347 14z m277 -256 c155 -40 264 -159 314 -344 69 -256 47
-599 -52 -783 -83 -157 -219 -237 -403 -237 -229 0 -384 135 -455 395 -31 112
-34 457 -5 580 48 211 159 347 316 389 73 20 211 20 285 0z"/>
<path d="M28475 7284 c-86 -10 -178 -29 -250 -51 -105 -33 -225 -90 -225 -108
0 -13 67 -196 75 -203 2 -3 46 14 97 36 148 65 236 86 363 86 137 1 199 -18
260 -79 66 -65 87 -133 93 -292 l4 -131 -73 -6 c-41 -3 -141 -8 -222 -11 -230
-9 -415 -50 -540 -120 -162 -92 -247 -247 -247 -455 0 -277 128 -455 370 -516
51 -13 94 -15 200 -11 214 8 301 47 440 195 l88 94 11 -54 c6 -29 19 -88 28
-130 l16 -78 99 0 99 0 -4 698 c-3 617 -5 704 -20 760 -61 227 -194 337 -450
371 -75 11 -147 12 -212 5z m415 -1071 c0 -199 -38 -320 -129 -416 -91 -97
-204 -140 -361 -140 -77 0 -105 4 -147 22 -114 50 -170 155 -160 302 17 248
201 341 685 348 l112 1 0 -117z"/>
<path d="M18940 6355 l0 -905 135 0 135 0 0 905 0 905 -135 0 -135 0 0 -905z"/>
<path d="M27250 6355 l0 -905 135 0 135 0 0 905 0 905 -135 0 -135 0 0 -905z"/>
<path d="M3300 7243 c-123 -13 -351 -52 -1115 -194 -473 -88 -867 -163 -876
-167 -29 -13 -1309 -1407 -1306 -1422 1 -8 12 -16 24 -18 20 -3 269 41 813
143 129 24 503 94 830 155 327 61 739 139 915 172 315 61 323 62 500 62 158 1
190 -2 264 -22 264 -72 451 -226 557 -458 21 -46 39 -74 47 -71 9 3 13 120 15
518 1 283 0 524 -3 536 -5 23 -6 23 -263 25 l-257 3 0 175 0 175 260 5 260 5
-3 50 c-12 186 -123 289 -350 324 -66 10 -232 12 -312 4z"/>
<path d="M5128 6788 c-398 -432 -469 -512 -559 -628 -195 -250 -269 -426 -269
-637 0 -123 15 -136 50 -44 67 180 245 353 446 435 152 62 387 82 581 51 51
-8 501 -91 1000 -184 1578 -295 1828 -341 1856 -341 19 0 27 5 27 18 0 11
-284 327 -650 723 l-650 704 -277 52 c-645 120 -1200 223 -1205 223 -4 0 -161
-168 -350 -372z"/>
<path d="M7959 6647 c-29 -16 -54 -40 -74 -72 -27 -43 -30 -57 -30 -125 0 -68
3 -82 30 -125 42 -68 100 -98 181 -93 118 7 194 93 194 218 0 59 -32 141 -66
172 -59 52 -163 63 -235 25z m169 -21 c169 -88 113 -366 -73 -366 -70 0 -125
37 -156 105 -43 93 -10 203 76 256 36 23 114 25 153 5z"/>
<path d="M7980 6450 c0 -123 1 -130 20 -130 17 0 20 7 20 50 0 43 3 50 20 50
14 0 27 -15 45 -50 20 -39 31 -50 49 -50 l24 0 -30 55 -29 55 20 26 c27 34 27
64 0 98 -18 23 -28 26 -80 26 l-59 0 0 -130z m108 78 c28 -23 -1 -68 -44 -68
-21 0 -24 4 -24 38 0 21 3 42 7 45 8 8 42 -1 61 -15z"/>
<path d="M4300 6210 c0 -245 2 -290 14 -290 10 0 20 25 32 78 37 168 110 349
186 460 l29 42 -131 0 -130 0 0 -290z"/>
<path d="M19237 4013 c-4 -3 -7 -14 -7 -24 0 -10 -12 -31 -26 -48 -38 -45 -74
-41 -189 19 -75 40 -105 50 -143 50 -85 0 -149 -60 -177 -165 -8 -33 -15 -63
-15 -67 0 -4 20 -8 44 -8 41 0 45 2 51 29 3 16 18 42 31 56 22 24 31 27 69 23
25 -3 68 -21 105 -43 127 -77 201 -78 272 -4 36 38 68 115 68 166 0 20 -5 23
-38 23 -21 0 -42 -3 -45 -7z"/>
<path d="M11555 3649 c-183 -30 -294 -139 -311 -307 -13 -118 33 -240 117
-316 49 -44 103 -73 273 -147 122 -52 174 -91 204 -149 56 -111 8 -240 -108
-294 -66 -31 -262 -29 -373 2 -42 12 -79 22 -81 22 -5 0 -46 -119 -46 -132 0
-14 130 -47 233 -58 170 -19 320 11 415 81 43 32 94 97 112 143 21 57 30 151
19 215 -25 160 -96 223 -390 351 -111 47 -174 96 -200 154 -37 81 -15 196 46
244 35 28 116 52 172 52 57 0 182 -26 245 -51 27 -10 50 -19 52 -19 5 0 46
121 46 136 0 17 -144 61 -240 73 -94 12 -114 12 -185 0z"/>
<path d="M12497 3649 c-133 -19 -245 -104 -288 -218 -17 -46 -20 -72 -17 -146
6 -117 31 -176 107 -248 62 -60 89 -75 247 -143 58 -24 122 -55 143 -68 47
-30 99 -89 106 -121 3 -14 7 -36 10 -49 3 -14 0 -49 -6 -78 -16 -76 -72 -129
-163 -153 -78 -21 -222 -16 -321 11 -95 26 -94 27 -120 -44 l-23 -64 34 -14
c107 -45 340 -63 454 -35 126 31 227 108 272 209 18 39 22 66 22 157 0 129
-11 162 -82 237 -56 60 -89 80 -261 157 -160 72 -204 101 -237 156 -19 33 -24
56 -24 109 0 94 27 138 110 182 57 30 211 25 320 -12 47 -16 89 -28 94 -29 5
0 20 29 33 65 23 61 24 65 6 77 -30 23 -141 53 -232 63 -96 11 -103 11 -184
-1z"/>
<path d="M13591 3645 c-310 -56 -478 -356 -440 -785 21 -241 111 -422 257
-514 23 -14 77 -38 119 -52 67 -23 95 -27 193 -27 97 1 128 5 195 27 44 14
105 43 135 64 68 47 151 155 185 240 95 237 82 586 -28 797 -107 202 -345 299
-616 250z m302 -168 c163 -75 238 -236 238 -517 0 -273 -73 -435 -229 -512
-63 -31 -73 -33 -177 -33 -100 0 -116 3 -170 28 -109 51 -182 145 -220 283
-24 89 -31 300 -12 407 28 159 103 278 209 333 70 36 112 44 214 40 72 -2 103
-8 147 -29z"/>
<path d="M15015 3650 c-251 -31 -419 -181 -486 -437 -26 -101 -35 -289 -20
-408 38 -281 169 -454 396 -521 86 -26 292 -23 397 4 82 22 158 57 158 72 0 5
-9 33 -20 63 l-20 53 -69 -23 c-102 -34 -241 -49 -324 -35 -240 39 -359 218
-359 537 -1 321 127 510 370 547 81 13 197 -5 290 -43 29 -12 54 -20 55 -18 7
8 47 127 47 137 0 13 -88 46 -160 60 -81 16 -187 21 -255 12z"/>
<path d="M17875 3649 c-240 -35 -406 -193 -477 -454 -31 -115 -31 -373 1 -490
64 -241 208 -389 412 -427 l67 -12 -33 -72 -33 -71 58 -16 c65 -18 100 -52
100 -96 0 -59 -57 -86 -164 -79 l-56 3 0 -52 0 -53 85 0 c163 0 245 55 253
169 6 86 -34 147 -111 166 -36 9 -37 14 -20 57 14 35 17 37 71 43 145 15 303
65 301 95 -1 25 -35 115 -42 113 -237 -75 -379 -80 -512 -19 -107 49 -189 166
-221 316 -23 107 -15 339 15 431 43 135 131 234 249 281 86 33 230 31 332 -6
41 -15 82 -29 92 -32 24 -8 70 132 48 146 -34 22 -142 51 -221 60 -95 11 -110
11 -194 -1z"/>
<path d="M20092 3650 c-241 -44 -388 -198 -444 -466 -27 -134 -21 -379 12
-494 64 -221 191 -357 381 -406 78 -21 233 -23 309 -5 205 49 353 208 407 438
25 109 26 386 0 494 -52 221 -178 367 -367 423 -67 20 -226 28 -298 16z m231
-155 c138 -36 226 -138 273 -315 24 -91 24 -337 0 -435 -51 -210 -168 -320
-356 -332 -217 -15 -362 92 -421 313 -29 105 -31 344 -5 449 34 139 93 229
184 282 86 51 218 66 325 38z"/>
<path d="M21988 3649 c-201 -23 -354 -129 -438 -305 -105 -221 -100 -576 10
-801 101 -206 319 -305 600 -274 86 10 206 42 258 70 l20 11 -21 65 c-17 51
-25 64 -37 59 -169 -73 -377 -81 -506 -18 -147 70 -234 257 -234 499 0 188 47
331 141 430 121 128 310 157 506 79 35 -14 67 -24 70 -21 3 3 16 35 29 71 l24
66 -40 20 c-82 42 -254 64 -382 49z"/>
<path d="M31265 3654 c-229 -36 -389 -185 -450 -419 -29 -109 -39 -265 -27
-383 34 -309 155 -486 381 -560 98 -31 263 -35 356 -8 236 69 370 253 406 557
26 225 -19 458 -116 599 -68 100 -157 163 -275 196 -57 15 -223 26 -275 18z
m206 -158 c200 -47 299 -224 299 -537 0 -348 -125 -528 -380 -546 -297 -21
-454 194 -437 600 6 155 34 258 92 343 87 126 254 181 426 140z"/>
<path d="M10445 3628 c-2 -7 -112 -312 -244 -678 l-239 -665 75 -3 c42 -2 77
-1 80 1 2 3 37 96 77 208 l72 204 251 3 251 2 26 -72 c15 -40 48 -134 75 -208
l49 -135 82 -3 c46 -2 80 1 78 6 -1 5 -111 311 -243 680 l-240 672 -73 0 c-49
0 -74 -4 -77 -12z m85 -196 c0 -12 157 -491 185 -564 7 -17 -7 -18 -195 -18
-189 0 -202 1 -195 18 34 86 156 453 170 514 10 42 22 75 27 72 4 -3 8 -13 8
-22z"/>
<path d="M15610 3565 l0 -75 70 0 70 0 0 -529 0 -530 -46 -3 -46 -3 -24 -64
c-13 -35 -24 -67 -24 -72 0 -5 101 -9 225 -9 l225 0 0 75 0 75 -75 0 -75 0 0
530 0 530 48 0 47 0 27 75 27 75 -224 0 -225 0 0 -75z"/>
<path d="M16669 3613 c-6 -15 -114 -315 -240 -665 -126 -350 -232 -644 -235
-652 -5 -14 5 -16 74 -16 l79 0 74 210 74 210 251 0 250 0 74 -206 c41 -113
79 -208 85 -211 7 -2 43 -3 82 -1 l70 3 -242 675 -242 675 -72 3 c-70 3 -71 2
-82 -25z m106 -240 c14 -49 60 -186 100 -305 l74 -218 -200 0 c-187 0 -201 1
-194 18 28 74 175 525 181 555 3 20 8 37 10 37 1 0 15 -39 29 -87z"/>
<path d="M18692 2967 c-133 -370 -242 -677 -242 -681 0 -4 35 -6 77 -4 l77 3
17 45 c9 25 42 118 74 208 l57 162 251 -2 251 -3 75 -207 74 -208 80 0 c71 0
79 2 74 18 -2 9 -111 313 -241 675 -130 363 -236 661 -236 663 0 2 -33 4 -73
4 l-73 0 -242 -673z m433 120 c41 -120 75 -223 75 -228 0 -5 -83 -9 -195 -9
-107 0 -195 3 -195 7 0 4 38 122 85 262 47 141 91 276 97 301 l11 45 24 -80
c13 -44 57 -178 98 -298z"/>
<path d="M22635 3628 c-3 -7 -4 -312 -3 -678 l3 -665 342 -3 341 -2 20 57 c11
32 23 66 27 76 7 16 -11 17 -284 17 l-291 0 0 245 0 245 235 0 235 0 0 70 0
70 -235 0 -235 0 0 215 0 215 270 0 270 0 0 75 0 75 -345 0 c-267 0 -347 -3
-350 -12z"/>
<path d="M23580 2960 l0 -680 71 0 71 0 -4 564 c-1 310 -1 562 1 560 3 -2 154
-255 337 -562 l332 -557 91 -3 91 -3 0 681 0 680 -71 0 -70 0 3 -564 c2 -310
1 -562 -1 -560 -3 2 -154 255 -337 562 l-332 557 -91 3 -91 3 0 -681z"/>
<path d="M24792 3583 c-11 -32 -23 -66 -27 -75 -7 -17 6 -18 189 -18 l196 0 0
-605 0 -605 80 0 80 0 0 605 0 605 195 0 196 0 -3 73 -3 72 -442 3 -441 2 -20
-57z"/>
<path d="M25880 2961 l0 -681 80 0 80 0 0 280 0 281 127 -3 127 -3 150 -277
151 -278 89 0 c73 0 87 3 83 14 -3 8 -80 145 -170 305 l-165 290 53 26 c63 31
139 108 168 173 15 34 22 74 25 143 9 214 -70 331 -263 387 -34 9 -125 16
-292 19 l-243 5 0 -681z m525 494 c50 -25 63 -39 87 -84 22 -43 28 -66 28
-120 0 -118 -32 -182 -115 -228 -48 -27 -57 -28 -207 -31 l-158 -4 0 252 0
252 153 -3 c147 -4 156 -5 212 -34z"/>
<path d="M27377 3633 c-3 -4 -112 -305 -242 -668 -131 -363 -240 -666 -242
-672 -4 -10 15 -13 74 -13 l79 0 75 210 74 210 250 0 251 0 74 -207 75 -208
78 -3 c58 -2 77 0 77 10 0 7 -108 312 -239 678 l-239 665 -70 3 c-39 2 -72 -1
-75 -5z m176 -495 l95 -288 -199 0 c-109 0 -199 1 -199 3 0 2 35 106 79 233
43 126 86 263 96 304 13 54 20 69 25 55 4 -11 50 -149 103 -307z"/>
<path d="M28190 2960 l0 -680 339 0 339 0 25 75 26 75 -290 0 -289 0 0 605 0
605 -75 0 -75 0 0 -680z"/>
<path d="M29580 2960 l0 -682 248 5 c213 4 257 8 320 26 215 63 349 200 408
416 25 93 30 332 10 436 -47 236 -190 395 -411 455 -46 12 -122 18 -317 21
l-258 5 0 -682z m513 515 c164 -43 263 -147 308 -325 9 -34 14 -106 14 -190
-1 -112 -5 -148 -24 -210 -29 -95 -60 -147 -119 -202 -94 -88 -195 -118 -394
-118 l-138 0 0 530 0 530 148 0 c99 0 167 -5 205 -15z"/>
<path d="M12244 1389 c-189 -22 -335 -128 -413 -300 -56 -125 -66 -185 -65
-394 0 -178 2 -196 28 -280 37 -120 79 -196 147 -264 204 -205 599 -199 795
12 67 71 115 163 146 276 30 106 32 398 5 514 -40 170 -147 321 -269 381 -103
50 -243 70 -374 55z m182 -150 c155 -28 254 -135 300 -324 24 -97 24 -344 0
-435 -58 -223 -185 -330 -391 -330 -200 0 -332 108 -385 313 -40 158 -35 370
12 513 43 132 136 224 257 256 78 20 127 22 207 7z"/>
<path d="M22945 1389 c-190 -22 -330 -119 -410 -284 -42 -88 -62 -165 -75
-295 -20 -194 19 -425 95 -554 64 -110 166 -190 290 -229 100 -31 271 -31 371
1 236 73 370 284 390 612 15 248 -46 465 -168 596 -115 123 -289 177 -493 153z
m248 -169 c76 -29 148 -98 187 -181 44 -95 60 -183 60 -339 0 -154 -16 -244
-58 -335 -74 -156 -191 -222 -377 -213 -113 6 -184 35 -249 103 -87 89 -125
205 -133 400 -13 335 97 538 317 585 66 14 189 4 253 -20z"/>
<path d="M14110 1383 c-53 -9 -157 -46 -205 -73 -77 -44 -129 -94 -182 -173
-92 -137 -132 -332 -113 -541 29 -303 155 -487 388 -564 68 -23 93 -26 222
-26 150 0 250 12 358 46 l62 19 0 329 0 330 -189 0 -189 0 -21 -62 c-12 -34
-21 -68 -21 -75 0 -10 31 -13 135 -13 l135 0 0 -200 0 -199 -37 -11 c-60 -18
-264 -24 -334 -11 -177 35 -294 156 -334 346 -8 39 -15 122 -15 186 0 255 89
428 263 510 120 56 292 57 442 3 39 -14 77 -28 85 -30 11 -4 21 13 38 60 12
36 22 69 22 75 0 13 -92 47 -183 65 -70 15 -262 20 -327 9z"/>
<path d="M24560 1372 c-102 -34 -166 -87 -212 -176 -30 -58 -37 -203 -13 -279
37 -119 124 -194 321 -277 145 -61 202 -95 240 -146 27 -35 29 -44 29 -125 0
-82 -2 -89 -31 -126 -16 -21 -52 -49 -80 -63 -45 -23 -60 -25 -179 -25 -95 0
-148 5 -195 19 -92 25 -90 26 -110 -24 -36 -93 -39 -87 37 -110 104 -32 255
-46 355 -33 129 18 193 46 264 117 79 79 99 133 99 266 0 84 -3 102 -28 152
-49 101 -121 150 -372 259 -129 56 -188 110 -204 188 -17 82 0 151 51 198 71
67 218 76 378 24 52 -16 96 -28 99 -25 13 12 50 129 43 136 -4 4 -43 19 -87
34 -68 23 -100 28 -215 31 -111 3 -145 0 -190 -15z"/>
<path d="M11170 1305 l0 -74 73 -3 72 -3 3 -527 2 -528 -49 0 -49 0 -25 -75
-26 -75 225 0 224 0 0 75 0 75 -75 0 -75 0 2 528 3 527 47 3 c47 3 47 3 66 55
11 29 23 62 26 75 l7 22 -225 0 -226 0 0 -75z"/>
<path d="M16186 712 c-132 -367 -242 -673 -244 -679 -3 -10 16 -13 74 -13 l79
0 74 210 74 210 250 -2 251 -3 74 -208 75 -207 78 0 c44 0 79 3 79 6 0 3 -109
309 -242 680 l-241 674 -71 0 -71 0 -239 -668z m415 158 c49 -146 89 -268 89
-273 0 -4 -88 -7 -195 -7 -107 0 -195 3 -195 7 0 4 31 98 69 208 64 184 77
225 112 355 l12 45 10 -35 c5 -19 49 -154 98 -300z"/>
<path d="M10130 695 l0 -675 80 0 80 0 0 280 0 281 126 -3 126 -3 150 -278
151 -277 89 0 c68 0 89 3 85 12 -3 7 -79 143 -170 303 l-165 290 55 29 c72 39
130 99 162 166 23 50 26 67 26 175 0 109 -2 125 -26 176 -30 64 -82 120 -139
149 -80 41 -152 50 -397 50 l-233 0 0 -675z m495 514 c22 -8 58 -32 81 -54 52
-49 68 -103 62 -202 -11 -172 -110 -233 -375 -233 l-103 0 0 256 0 256 148 -5
c81 -3 165 -11 187 -18z"/>
<path d="M14930 695 l0 -675 80 0 80 0 0 280 0 280 124 0 123 0 148 -272 c81
-150 150 -277 154 -281 5 -4 47 -7 94 -5 l87 3 -170 300 -169 299 55 30 c72
39 144 118 169 187 27 73 28 231 2 306 -36 104 -138 185 -265 212 -30 6 -152
11 -282 11 l-230 0 0 -675z m511 503 c32 -15 67 -40 82 -59 70 -94 61 -262
-20 -341 -57 -55 -106 -69 -270 -75 l-143 -6 0 258 0 257 148 -4 c132 -4 153
-7 203 -30z"/>
<path d="M17230 695 l0 -675 76 0 77 0 -6 537 c-3 296 -9 548 -12 561 -4 12
-3 22 2 22 5 0 159 -252 342 -560 l334 -560 94 0 93 0 0 675 0 675 -76 0 -76
0 4 -559 c2 -411 1 -555 -8 -542 -6 9 -156 260 -333 559 l-323 542 -94 0 -94
0 0 -675z"/>
<path d="M18540 694 l0 -676 253 5 c274 5 315 12 435 69 35 16 91 56 128 90
52 49 74 80 109 152 56 116 75 211 75 371 0 158 -19 255 -72 365 -70 146 -197
246 -359 285 -48 11 -127 15 -316 15 l-253 0 0 -676z m501 522 c167 -36 276
-147 320 -326 18 -72 18 -298 0 -370 -44 -178 -152 -292 -317 -335 -32 -8
-123 -18 -201 -22 l-143 -6 0 536 0 537 138 0 c79 0 165 -6 203 -14z"/>
<path d="M19800 695 l0 -675 343 0 342 0 27 75 27 75 -289 0 -290 0 0 245 0
245 235 0 235 0 0 70 0 70 -235 0 -235 0 0 215 0 215 270 0 270 0 0 70 0 70
-350 0 -350 0 0 -675z"/>
<path d="M21250 694 l0 -676 253 5 c275 5 342 16 451 75 104 56 201 167 245
280 56 140 70 387 31 548 -53 226 -200 379 -411 429 -48 11 -126 15 -316 15
l-253 0 0 -676z m501 522 c168 -36 275 -146 320 -326 21 -82 18 -308 -5 -390
-46 -169 -149 -272 -313 -315 -32 -8 -122 -18 -200 -22 l-143 -6 0 536 0 537
138 0 c79 0 165 -6 203 -14z"/>
<path d="M25310 887 c0 -401 3 -493 15 -542 51 -196 176 -309 374 -337 222
-31 421 55 510 222 57 107 61 145 61 668 l0 472 -74 0 -75 0 -3 -487 c-3 -471
-4 -490 -25 -540 -31 -77 -76 -128 -141 -160 -51 -25 -67 -28 -162 -28 -88 0
-113 4 -155 23 -94 43 -146 117 -165 233 -6 37 -10 252 -10 512 l0 447 -75 0
-75 0 0 -483z"/>
<path d="M26580 695 l0 -675 342 2 341 3 17 50 c9 28 20 60 24 72 l7 23 -288
2 -288 3 -3 598 -2 597 -75 0 -75 0 0 -675z"/>
</g>
</svg>
