<svg xmlns="http://www.w3.org/2000/svg" width="231.791" height="87.443" viewBox="0 0 231.791 87.443">
  <g id="Grupo_79" data-name="Grupo 79" transform="translate(-380.871 -320.931)">
    <path id="Caminho_5851" data-name="Caminho 5851" d="M739.3,648.138h-3.5l-1.051,2.732h-1.125l3.449-8.863h1l3.437,8.863h-1.15Zm-1.323-3.659c-.074-.2-.334-1.014-.42-1.323-.124.507-.285,1.038-.383,1.323l-1,2.67h2.794Z" transform="translate(-282.732 -257.337)" fill="#303336"/>
    <path id="Caminho_5852" data-name="Caminho 5852" d="M780.762,650.643a5.882,5.882,0,0,1-2.423-.42l.346-.915a5.7,5.7,0,0,0,2.126.371c1.31,0,1.99-.544,1.99-1.422s-.482-1.236-2.077-1.817c-1.508-.544-2.275-1.248-2.275-2.621,0-1.4,1.15-2.25,2.819-2.25a5.924,5.924,0,0,1,2.435.495l-.359.952a5.455,5.455,0,0,0-2.1-.47c-1.1,0-1.669.519-1.669,1.286,0,.89.495,1.248,1.928,1.78,1.558.581,2.411,1.162,2.411,2.546,0,1.57-1.224,2.485-3.152,2.485" transform="translate(-318.565 -256.987)" fill="#303336"/>
    <path id="Caminho_5853" data-name="Caminho 5853" d="M814.149,650.643a5.883,5.883,0,0,1-2.423-.42l.346-.915a5.7,5.7,0,0,0,2.126.371c1.31,0,1.99-.544,1.99-1.422s-.482-1.236-2.077-1.817c-1.508-.544-2.274-1.248-2.274-2.621,0-1.4,1.149-2.25,2.818-2.25a5.924,5.924,0,0,1,2.435.495l-.359.952a5.456,5.456,0,0,0-2.1-.47c-1.1,0-1.669.519-1.669,1.286,0,.89.494,1.248,1.928,1.78,1.558.581,2.411,1.162,2.411,2.546,0,1.57-1.224,2.485-3.152,2.485" transform="translate(-345.324 -256.987)" fill="#303336"/>
    <path id="Caminho_5854" data-name="Caminho 5854" d="M850.14,650.593c-2.756,0-4.079-1.83-4.079-4.561,0-2.707,1.323-4.524,4.092-4.524,2.646,0,4.055,1.792,4.055,4.537s-1.409,4.549-4.067,4.549m0-.964c2,0,2.893-1.36,2.893-3.585s-.89-3.56-2.88-3.56-2.917,1.335-2.917,3.56.915,3.585,2.9,3.585" transform="translate(-372.843 -256.937)" fill="#303336"/>
    <path id="Caminho_5855" data-name="Caminho 5855" d="M895.138,646.106c0,2.188,1.014,3.56,3.041,3.56a5.917,5.917,0,0,0,2.275-.445l.322.853a5.674,5.674,0,0,1-2.757.569c-2.707,0-4.055-1.768-4.055-4.549,0-2.67,1.508-4.525,4.24-4.525a5.234,5.234,0,0,1,2.361.482l-.371.977a4.776,4.776,0,0,0-2-.482c-1.891,0-3.053,1.348-3.053,3.56" transform="translate(-411.237 -256.987)" fill="#303336"/>
    <path id="Caminho_5856" data-name="Caminho 5856" d="M933.1,651.019l.371-.989h.668v-6.861H933.1v-.976h3.189l-.371.976h-.668v6.861h1.038v.989Z" transform="translate(-442.604 -257.487)" fill="#303336"/>
    <path id="Caminho_5857" data-name="Caminho 5857" d="M959.326,648.138h-3.5l-1.051,2.732h-1.125l3.449-8.863h1l3.437,8.863h-1.15ZM958,644.478c-.074-.2-.334-1.014-.42-1.323-.124.507-.284,1.038-.383,1.323l-1,2.67h2.794Z" transform="translate(-459.076 -257.337)" fill="#303336"/>
    <path id="Caminho_5858" data-name="Caminho 5858" d="M1000.482,652.238c0,.791-.618,1.249-1.83,1.249a2.647,2.647,0,0,1-.618-.062v-.68a3.185,3.185,0,0,0,.655.062c.593,0,.915-.136.915-.544,0-.433-.495-.594-1.125-.68l.482-.964c-2.386-.2-3.573-1.916-3.573-4.524,0-2.67,1.508-4.524,4.24-4.524a5.232,5.232,0,0,1,2.361.482l-.371.977a4.775,4.775,0,0,0-2-.482c-1.891,0-3.053,1.348-3.053,3.56,0,2.188,1.014,3.56,3.041,3.56a5.919,5.919,0,0,0,2.275-.445l.321.853a5.54,5.54,0,0,1-2.534.569l-.26.532c.593.136,1.075.433,1.075,1.063" transform="translate(-492.528 -256.987)" fill="#303336"/>
    <path id="Caminho_5859" data-name="Caminho 5859" d="M1039.06,638.355h-3.5l-1.051,2.732h-1.125l3.449-8.863h1l3.437,8.863h-1.15Zm-2.658-8.542c.73,0,1.36.7,1.879.7.383,0,.556-.235.68-.717h.618c-.1.964-.568,1.582-1.347,1.582-.693,0-1.335-.7-1.879-.7-.4,0-.569.235-.68.717h-.63c.1-.977.581-1.582,1.359-1.582m1.335,4.883c-.074-.2-.334-1.013-.42-1.323-.124.507-.285,1.038-.383,1.323l-1,2.67h2.794Z" transform="translate(-522.982 -247.555)" fill="#303336"/>
    <path id="Caminho_5860" data-name="Caminho 5860" d="M1079.2,650.593c-2.757,0-4.079-1.83-4.079-4.561,0-2.707,1.323-4.524,4.092-4.524,2.646,0,4.055,1.792,4.055,4.537s-1.409,4.549-4.067,4.549m0-.964c2,0,2.893-1.36,2.893-3.585s-.89-3.56-2.881-3.56-2.917,1.335-2.917,3.56.915,3.585,2.9,3.585" transform="translate(-556.433 -256.937)" fill="#303336"/>
    <path id="Caminho_5861" data-name="Caminho 5861" d="M1148.517,651.019l-4.722-7.331h-.049c.037.581.1,1.5.1,2.4v4.932h-1.026v-8.826h1.286l4.71,7.306h.049c-.025-.4-.086-1.521-.086-2.324v-4.982h1.038v8.826Z" transform="translate(-610.69 -257.487)" fill="#303336"/>
    <path id="Caminho_5862" data-name="Caminho 5862" d="M1191.133,650.593c-2.757,0-4.079-1.83-4.079-4.561,0-2.707,1.323-4.524,4.092-4.524,2.646,0,4.055,1.792,4.055,4.537s-1.409,4.549-4.067,4.549m0-.964c2,0,2.893-1.36,2.893-3.585s-.89-3.56-2.88-3.56-2.917,1.335-2.917,3.56.915,3.585,2.9,3.585" transform="translate(-646.144 -256.937)" fill="#303336"/>
    <path id="Caminho_5863" data-name="Caminho 5863" d="M1242.65,644.7a2.358,2.358,0,0,1-1.768,2.361l2.423,3.956h-1.3l-2.139-3.647h-1.755v3.647H1237v-8.826h2.435c2.188,0,3.214.828,3.214,2.509m-4.537-1.545v3.276h1.323c1.434,0,2.064-.569,2.064-1.681,0-1.15-.68-1.595-2.126-1.595Z" transform="translate(-686.176 -257.486)" fill="#303336"/>
    <path id="Caminho_5864" data-name="Caminho 5864" d="M1272.982,651.019v-7.85h-2.757l.371-.976h6.243v.976h-2.745v7.85Z" transform="translate(-712.805 -257.487)" fill="#303336"/>
    <path id="Caminho_5865" data-name="Caminho 5865" d="M1309.939,651.019v-8.826h4.932v.976h-3.82v2.757h3.313v.964h-3.313v3.152h4.092l-.371.976Z" transform="translate(-744.635 -257.487)" fill="#303336"/>
    <path id="Caminho_5866" data-name="Caminho 5866" d="M1363.841,651.018h-2.46v-8.826h2.719c2.658,0,4.351,1.5,4.351,4.327,0,2.979-1.706,4.5-4.611,4.5m.1-7.875h-1.446v6.923h1.2c2.386,0,3.585-1.187,3.585-3.511,0-2.349-1.211-3.412-3.338-3.412" transform="translate(-785.865 -257.486)" fill="#303336"/>
    <path id="Caminho_5867" data-name="Caminho 5867" d="M1405.747,651.019v-8.826h4.932v.976h-3.82v2.757h3.313v.964h-3.313v3.152h4.092l-.371.976Z" transform="translate(-821.424 -257.487)" fill="#303336"/>
    <path id="Caminho_5868" data-name="Caminho 5868" d="M745.321,718.842a2.358,2.358,0,0,1-1.768,2.361l2.423,3.956h-1.3l-2.139-3.647h-1.755v3.647h-1.113v-8.826h2.435c2.188,0,3.214.828,3.214,2.509m-4.537-1.545v3.276h1.323c1.434,0,2.064-.569,2.064-1.681,0-1.15-.68-1.595-2.126-1.595Z" transform="translate(-287.574 -316.909)" fill="#303336"/>
    <path id="Caminho_5869" data-name="Caminho 5869" d="M778.869,724.734c-2.757,0-4.079-1.83-4.079-4.561,0-2.707,1.323-4.525,4.092-4.525,2.646,0,4.055,1.792,4.055,4.537s-1.409,4.549-4.067,4.549m0-.964c2,0,2.893-1.36,2.893-3.585s-.89-3.56-2.88-3.56-2.917,1.335-2.917,3.56.915,3.585,2.9,3.585" transform="translate(-315.721 -316.36)" fill="#303336"/>
    <path id="Caminho_5870" data-name="Caminho 5870" d="M830.435,725.16l-4.722-7.331h-.049c.037.581.1,1.5.1,2.4v4.932h-1.026v-8.826h1.286l4.71,7.306h.049c-.025-.4-.087-1.521-.087-2.324v-4.982h1.039v8.826Z" transform="translate(-355.752 -316.91)" fill="#303336"/>
    <path id="Caminho_5871" data-name="Caminho 5871" d="M873.437,725.159h-2.46v-8.826h2.72c2.658,0,4.351,1.5,4.351,4.327,0,2.979-1.706,4.5-4.611,4.5m.1-7.875h-1.446v6.923h1.2c2.386,0,3.585-1.187,3.585-3.511,0-2.349-1.211-3.412-3.338-3.412" transform="translate(-392.813 -316.909)" fill="#303336"/>
    <path id="Caminho_5872" data-name="Caminho 5872" d="M917.5,713.8c-2.757,0-4.079-1.829-4.079-4.561,0-2.707,1.323-4.524,4.092-4.524,2.645,0,4.055,1.792,4.055,4.537s-1.409,4.549-4.067,4.549m0-.964c2,0,2.893-1.36,2.893-3.585s-.89-3.56-2.88-3.56-2.917,1.335-2.917,3.56.915,3.585,2.905,3.585m2.114-8.987v.136h-.766a7.548,7.548,0,0,1-1.347-1.113,8.011,8.011,0,0,1-1.323,1.113h-.742v-.136a12.548,12.548,0,0,0,1.52-1.842h1.112a10.287,10.287,0,0,0,1.545,1.842" transform="translate(-426.835 -305.43)" fill="#303336"/>
    <path id="Caminho_5873" data-name="Caminho 5873" d="M969.07,725.16l-4.722-7.331H964.3c.037.581.1,1.5.1,2.4v4.932h-1.026v-8.826h1.286l4.71,7.306h.049c-.025-.4-.087-1.521-.087-2.324v-4.982h1.039v8.826Z" transform="translate(-466.866 -316.91)" fill="#303336"/>
    <path id="Caminho_5874" data-name="Caminho 5874" d="M1006.2,725.16l.371-.989h.668V717.31H1006.2v-.977h3.189l-.371.977h-.668v6.861h1.038v.989Z" transform="translate(-501.193 -316.91)" fill="#303336"/>
    <path id="Caminho_5875" data-name="Caminho 5875" d="M1032.426,722.279h-3.5l-1.051,2.732h-1.125l3.449-8.863h1l3.437,8.863h-1.15Zm-1.323-3.659c-.074-.2-.334-1.014-.42-1.323-.124.507-.285,1.038-.383,1.323l-1,2.67h2.794Z" transform="translate(-517.664 -316.76)" fill="#303336"/>
    <path id="Caminho_5876" data-name="Caminho 5876" d="M1089.4,725.16v-8.826h4.932v.977h-3.82v2.756h3.313v.964h-3.313v3.152h4.092l-.371.976Z" transform="translate(-567.877 -316.91)" fill="#303336"/>
    <path id="Caminho_5877" data-name="Caminho 5877" d="M1140.477,722.279h-3.5l-1.051,2.732H1134.8l3.449-8.863h1l3.437,8.863h-1.15Zm-1.323-3.659c-.074-.2-.334-1.014-.42-1.323-.124.507-.284,1.038-.383,1.323l-1,2.67h2.794Z" transform="translate(-604.266 -316.76)" fill="#303336"/>
    <path id="Caminho_5878" data-name="Caminho 5878" d="M1177.715,720.247c0,2.188,1.013,3.56,3.041,3.56a5.917,5.917,0,0,0,2.275-.445l.321.853a5.674,5.674,0,0,1-2.757.569c-2.707,0-4.055-1.768-4.055-4.549,0-2.67,1.508-4.525,4.24-4.525a5.233,5.233,0,0,1,2.361.482l-.371.977a4.777,4.777,0,0,0-2-.482c-1.891,0-3.053,1.347-3.053,3.56" transform="translate(-637.718 -316.41)" fill="#303336"/>
    <path id="Caminho_5879" data-name="Caminho 5879" d="M1223.188,718.842a2.358,2.358,0,0,1-1.768,2.361l2.423,3.956h-1.3l-2.139-3.647h-1.755v3.647h-1.113v-8.826h2.435c2.188,0,3.214.828,3.214,2.509m-4.537-1.545v3.276h1.323c1.434,0,2.064-.569,2.064-1.681,0-1.15-.68-1.595-2.126-1.595Z" transform="translate(-670.577 -316.909)" fill="#303336"/>
    <path id="Caminho_5880" data-name="Caminho 5880" d="M1255.844,725.16v-8.826h4.932v.977h-3.82v2.756h3.313v.964h-3.313v3.152h4.092l-.371.976Z" transform="translate(-701.279 -316.91)" fill="#303336"/>
    <path id="Caminho_5881" data-name="Caminho 5881" d="M737.571,400.925l.659-1.757h1.186V386.979h-1.845v-1.735h5.666l-.659,1.735h-1.186v12.188h1.845v1.757Z" transform="translate(-285.89 -51.546)" fill="#303336"/>
    <path id="Caminho_5882" data-name="Caminho 5882" d="M770.645,417.819q0-2.273,2.569-2.9a1.728,1.728,0,0,1-1.032-1.647,2.448,2.448,0,0,1,1.428-2.064,3.522,3.522,0,0,1-2.042-3.316c0-2.745,1.713-4.063,4.392-4.063a5.051,5.051,0,0,1,1.6.22h4.063l-.571,1.493h-1.537a3.72,3.72,0,0,1,.7,2.284c0,2.438-1.779,3.777-4.326,3.777a4.96,4.96,0,0,1-.923-.066,1.689,1.689,0,0,0-1.076,1.427c0,.593.593.9,1.735.9h2c2.372,0,3.843,1.076,3.843,3.184,0,2.7-2.02,4.041-6.061,4.041-2.745,0-4.765-.945-4.765-3.272m8.982-.593a1.377,1.377,0,0,0-.527-1.274,4.653,4.653,0,0,0-2.13-.329h-2.02c-1.647,0-2.46.7-2.46,2.13,0,1.23.966,1.867,2.9,1.867,2.833,0,4.238-.79,4.238-2.394m-1.318-9.421c0-1.713-.812-2.57-2.415-2.57s-2.416.879-2.416,2.591a2.416,2.416,0,1,0,4.831-.022" transform="translate(-312.398 -66.442)" fill="#303336"/>
    <path id="Caminho_5883" data-name="Caminho 5883" d="M842.229,403.962l-.241,1.779a6.117,6.117,0,0,0-1.274-.154c-1.823,0-3.426,1.581-3.426,3.953v6.281h-1.933V404.05h1.581l.22,2.152h.088a4.225,4.225,0,0,1,3.6-2.372,7.015,7.015,0,0,1,1.383.132" transform="translate(-364.263 -66.442)" fill="#303336"/>
    <path id="Caminho_5884" data-name="Caminho 5884" d="M881.143,409.145v1.163h-8.06c.066,2.657,1.406,4.085,3.755,4.085a9.376,9.376,0,0,0,3.228-.571l.549,1.45a8.8,8.8,0,0,1-3.865.768c-3.36,0-5.665-2.086-5.665-6.017,0-3.866,2.086-6.193,5.2-6.193,3.009,0,4.854,2.108,4.854,5.315m-8.016-.373h6c-.022-2-.9-3.36-2.855-3.36-1.845,0-2.943,1.252-3.141,3.36" transform="translate(-392.9 -66.442)" fill="#303336"/>
    <path id="Caminho_5885" data-name="Caminho 5885" d="M924.952,402.553c1.252-.571,1.537-1.405,1.537-3.492V387.114h1.932v12.056c0,2.306-.615,4.129-2.855,4.985Zm2.525-19.853a1.093,1.093,0,0,1,1.12,1.23,1.135,1.135,0,1,1-2.262,0,1.087,1.087,0,0,1,1.142-1.23" transform="translate(-436.073 -49.507)" fill="#303336"/>
    <path id="Caminho_5886" data-name="Caminho 5886" d="M962.028,407.893v8.015h-1.405l-.373-1.669h-.088a4.346,4.346,0,0,1-3.953,1.889c-2.13,0-3.711-1.1-3.711-3.492,0-2.35,1.8-3.646,5.644-3.755l2-.066v-.7c0-1.955-.9-2.614-2.438-2.614a7.752,7.752,0,0,0-3.316.9l-.593-1.449a8.817,8.817,0,0,1,4.019-1.01c2.855,0,4.216,1.208,4.216,3.953m-3.646,2.328c-2.942.11-3.887.944-3.887,2.438,0,1.318.879,1.91,2.152,1.91a3.143,3.143,0,0,0,3.47-3.36v-1.054Z" transform="translate(-458.15 -66.53)" fill="#303336"/>
    <path id="Caminho_5887" data-name="Caminho 5887" d="M1043.879,395.805h-6.215l-1.867,4.853h-2l6.127-15.746h1.779l6.1,15.746h-2.042Zm-2.35-6.5c-.132-.352-.593-1.8-.747-2.35-.219.9-.505,1.845-.681,2.35l-1.779,4.743h4.963Z" transform="translate(-523.313 -51.28)" fill="#303336"/>
    <path id="Caminho_5888" data-name="Caminho 5888" d="M1106.252,390.983c0-4.041,1.933-6.127,4.854-6.127a4.254,4.254,0,0,1,3.646,1.735h.132c-.044-.373-.132-1.3-.132-1.735V380.9l1.932-.747v16.69h-1.559l-.286-1.581h-.088a4.173,4.173,0,0,1-3.668,1.8c-2.921,0-4.832-2.043-4.832-6.083m8.521.373V391c0-2.921-.79-4.546-3.4-4.546-2.086,0-3.119,1.779-3.119,4.568,0,2.811,1.032,4.436,3.141,4.436,2.481,0,3.382-1.361,3.382-4.106" transform="translate(-581.383 -47.468)" fill="#303336"/>
    <path id="Caminho_5889" data-name="Caminho 5889" d="M1166.87,404.936h2.064l2.5,6.94a25.175,25.175,0,0,1,.944,3.118h.088c.154-.725.659-2.174.989-3.118l2.5-6.94h2.064l-4.48,11.771h-2.218Z" transform="translate(-629.967 -67.329)" fill="#303336"/>
    <path id="Caminho_5890" data-name="Caminho 5890" d="M1236.662,409.145v1.163h-8.06c.066,2.657,1.406,4.085,3.755,4.085a9.377,9.377,0,0,0,3.228-.571l.549,1.45a8.8,8.8,0,0,1-3.865.768c-3.36,0-5.666-2.086-5.666-6.017,0-3.866,2.086-6.193,5.2-6.193,3.009,0,4.853,2.108,4.853,5.315m-8.016-.373h6c-.022-2-.9-3.36-2.855-3.36-1.845,0-2.943,1.252-3.141,3.36" transform="translate(-677.843 -66.442)" fill="#303336"/>
    <path id="Caminho_5891" data-name="Caminho 5891" d="M1297.7,408.156v7.664h-1.911v-7.533c0-1.888-.834-2.833-2.635-2.833-2.614,0-3.448,1.515-3.448,4.26v6.105h-1.932V404.05h1.559l.286,1.6h.11a4.269,4.269,0,0,1,3.712-1.823c2.811,0,4.26,1.3,4.26,4.326" transform="translate(-726.87 -66.442)" fill="#303336"/>
    <path id="Caminho_5892" data-name="Caminho 5892" d="M1356.894,404.153l.528,1.383a4.451,4.451,0,0,1-2.153.483c-1.845,0-3.448-.791-3.448-3.646V392.053l1.932-.725v2.7h3.4v1.493h-3.4v6.808c0,1.427.769,2.108,1.845,2.108a3.53,3.53,0,0,0,1.3-.285" transform="translate(-778.203 -56.422)" fill="#303336"/>
    <path id="Caminho_5893" data-name="Caminho 5893" d="M1392.466,383.93a1.135,1.135,0,1,1-2.262,0,1.135,1.135,0,1,1,2.262,0m-.176,14.955h-1.932V387.114h1.932Z" transform="translate(-808.966 -49.507)" fill="#303336"/>
    <path id="Caminho_5894" data-name="Caminho 5894" d="M1417.255,416.04a7.6,7.6,0,0,1-3.689-.747l.571-1.493a8.853,8.853,0,0,0,3.162.681c1.954,0,2.789-.681,2.789-1.735,0-.878-.593-1.405-2.9-2.283-2.284-.879-3.645-1.582-3.645-3.514,0-2,1.779-3.118,4.414-3.118a9.159,9.159,0,0,1,3.755.791l-.593,1.559a8.42,8.42,0,0,0-3.294-.769c-1.581,0-2.438.549-2.438,1.428,0,.988.769,1.383,3.031,2.24,2.24.834,3.536,1.6,3.536,3.492,0,2.284-1.823,3.47-4.7,3.47" transform="translate(-827.673 -66.442)" fill="#303336"/>
    <path id="Caminho_5895" data-name="Caminho 5895" d="M1472.929,404.153l.527,1.383a4.448,4.448,0,0,1-2.152.483c-1.845,0-3.448-.791-3.448-3.646V392.053l1.932-.725v2.7h3.4v1.493h-3.4v6.808c0,1.427.769,2.108,1.845,2.108a3.534,3.534,0,0,0,1.3-.285" transform="translate(-871.203 -56.422)" fill="#303336"/>
    <path id="Caminho_5896" data-name="Caminho 5896" d="M1510.018,407.893v8.015h-1.406l-.373-1.669h-.088a4.346,4.346,0,0,1-3.953,1.889c-2.13,0-3.712-1.1-3.712-3.492,0-2.35,1.8-3.646,5.644-3.755l2-.066v-.7c0-1.955-.9-2.614-2.438-2.614a7.751,7.751,0,0,0-3.316.9l-.593-1.449a8.816,8.816,0,0,1,4.019-1.01c2.855,0,4.216,1.208,4.216,3.953m-3.646,2.328c-2.943.11-3.887.944-3.887,2.438,0,1.318.878,1.91,2.152,1.91a3.143,3.143,0,0,0,3.47-3.36v-1.054Z" transform="translate(-897.357 -66.53)" fill="#303336"/>
    <path id="Caminho_5897" data-name="Caminho 5897" d="M737.019,509.608c0-4.041,1.933-6.127,4.853-6.127a4.252,4.252,0,0,1,3.645,1.735h.132c-.044-.373-.132-1.3-.132-1.735v-3.953l1.933-.747v16.69h-1.559l-.286-1.581h-.088a4.172,4.172,0,0,1-3.667,1.8c-2.921,0-4.831-2.042-4.831-6.083m8.521.373v-.351c0-2.921-.791-4.546-3.4-4.546-2.086,0-3.119,1.779-3.119,4.568,0,2.811,1.032,4.436,3.14,4.436,2.482,0,3.382-1.361,3.382-4.106" transform="translate(-285.448 -142.544)" fill="#303336"/>
    <path id="Caminho_5898" data-name="Caminho 5898" d="M804.92,534.665c-3.119,0-5.4-2.218-5.4-6.127,0-3.887,2.086-6.083,5.468-6.083,3.184,0,5.424,2.2,5.424,6.083,0,3.909-2.13,6.127-5.49,6.127m.044-1.6c2.372,0,3.448-1.735,3.448-4.524s-1.076-4.458-3.47-4.458-3.426,1.669-3.426,4.458,1.054,4.524,3.448,4.524" transform="translate(-335.54 -161.518)" fill="#303336"/>
    <path id="Caminho_5899" data-name="Caminho 5899" d="M899.061,518.882a10.454,10.454,0,0,1-4.3-.747l.615-1.625a10.124,10.124,0,0,0,3.777.659c2.328,0,3.536-.966,3.536-2.525,0-1.537-.857-2.2-3.689-3.228-2.679-.966-4.041-2.218-4.041-4.656,0-2.481,2.042-4,5.007-4a10.519,10.519,0,0,1,4.326.879l-.637,1.691a9.7,9.7,0,0,0-3.734-.834c-1.954,0-2.965.922-2.965,2.283,0,1.581.878,2.218,3.426,3.163,2.767,1.032,4.282,2.064,4.282,4.524,0,2.789-2.174,4.414-5.6,4.414" transform="translate(-411.872 -145.735)" fill="#303336"/>
    <path id="Caminho_5900" data-name="Caminho 5900" d="M961.562,508.265v1.163H953.5c.066,2.657,1.406,4.085,3.755,4.085a9.382,9.382,0,0,0,3.228-.571l.549,1.45a8.8,8.8,0,0,1-3.865.769c-3.36,0-5.666-2.086-5.666-6.017,0-3.865,2.086-6.193,5.2-6.193,3.009,0,4.853,2.108,4.853,5.315m-8.016-.374h6c-.022-2-.9-3.36-2.855-3.36-1.845,0-2.943,1.252-3.141,3.36m6.105-9.553a18.946,18.946,0,0,1-3.141,3.294h-1.273v-.263a24.226,24.226,0,0,0,2.086-3.25h2.328Z" transform="translate(-457.354 -142.013)" fill="#303336"/>
    <path id="Caminho_5901" data-name="Caminho 5901" d="M1017.636,522.779l.527,1.383a4.449,4.449,0,0,1-2.152.483c-1.845,0-3.448-.791-3.448-3.646V510.679l1.932-.725v2.7h3.4v1.493h-3.4v6.808c0,1.427.769,2.108,1.845,2.108a3.533,3.533,0,0,0,1.3-.286" transform="translate(-506.292 -151.499)" fill="#303336"/>
    <path id="Caminho_5902" data-name="Caminho 5902" d="M1053.208,502.555a1.135,1.135,0,1,1-2.262,0,1.135,1.135,0,1,1,2.262,0m-.175,14.955H1051.1V505.739h1.932Z" transform="translate(-537.056 -144.583)" fill="#303336"/>
    <path id="Caminho_5903" data-name="Caminho 5903" d="M1094.494,526.782v7.664h-1.911V526.87c0-1.845-.769-2.789-2.394-2.789-2.284,0-3.184,1.361-3.184,3.865v6.5h-1.911V526.87c0-1.845-.769-2.789-2.416-2.789-2.372,0-3.14,1.515-3.14,4.26v6.105h-1.932V522.676h1.559l.285,1.6h.11a3.907,3.907,0,0,1,3.47-1.823c1.8,0,3.031.637,3.6,1.976h.11a4.239,4.239,0,0,1,3.777-1.976c2.657,0,3.975,1.3,3.975,4.326" transform="translate(-558.423 -161.519)" fill="#303336"/>
    <path id="Caminho_5904" data-name="Caminho 5904" d="M1178.69,534.665c-3.118,0-5.4-2.218-5.4-6.127,0-3.887,2.086-6.083,5.468-6.083,3.184,0,5.424,2.2,5.424,6.083,0,3.909-2.13,6.127-5.49,6.127m.044-1.6c2.372,0,3.448-1.735,3.448-4.524s-1.076-4.458-3.47-4.458-3.426,1.669-3.426,4.458,1.054,4.524,3.448,4.524" transform="translate(-635.111 -161.518)" fill="#303336"/>
    <path id="Caminho_5905" data-name="Caminho 5905" d="M1275.776,519.55h-4.37V503.87h4.831c4.722,0,7.73,2.657,7.73,7.686,0,5.292-3.031,7.994-8.191,7.994m.176-13.989h-2.569v12.3h2.13c4.238,0,6.369-2.108,6.369-6.237,0-4.173-2.152-6.061-5.929-6.061" transform="translate(-713.75 -146.623)" fill="#303336"/>
    <path id="Caminho_5906" data-name="Caminho 5906" d="M1347.891,502.555a1.135,1.135,0,1,1-2.262,0,1.135,1.135,0,1,1,2.262,0m-.176,14.955h-1.932V505.739h1.932Z" transform="translate(-773.24 -144.583)" fill="#303336"/>
    <path id="Caminho_5907" data-name="Caminho 5907" d="M1375.734,526.519v8.015h-1.406l-.373-1.669h-.088a4.346,4.346,0,0,1-3.953,1.889c-2.13,0-3.711-1.1-3.711-3.492,0-2.35,1.8-3.646,5.644-3.755l2-.066v-.7c0-1.955-.9-2.614-2.438-2.614a7.751,7.751,0,0,0-3.316.9l-.593-1.449a8.818,8.818,0,0,1,4.019-1.01c2.855,0,4.216,1.208,4.216,3.953m-3.646,2.328c-2.943.11-3.887.944-3.887,2.438,0,1.318.878,1.911,2.152,1.911a3.143,3.143,0,0,0,3.47-3.36v-1.054Z" transform="translate(-789.73 -161.607)" fill="#303336"/>
    <path id="Caminho_5908" data-name="Caminho 5908" d="M1416.532,501.358a1.4,1.4,0,0,1,1.45-1.471,1.426,1.426,0,0,1,1.449,1.471,1.449,1.449,0,1,1-2.9,0m2.679,0a1.219,1.219,0,0,0-1.23-1.252,1.241,1.241,0,1,0,1.23,1.252m-1.779-.878h.505c.439,0,.637.176.637.527a.462.462,0,0,1-.307.439l.461.769h-.351l-.4-.681h-.241v.681h-.308Zm.505.812a.29.29,0,0,0,.33-.285q0-.264-.33-.263h-.2v.549Z" transform="translate(-830.068 -143.43)" fill="#303336"/>
    <path id="Caminho_5909" data-name="Caminho 5909" d="M537.173,417.969c-2.35,2.35-3.487,3.469-4.074,6.318-.044.213-.287.212-.287,0V420.8c0-2.238,1.994-4.285,4.37-6.661l1.91-1.911c2.676-2.676,3.322-5.776,1.194-7.62-.178-.154-.086-.343.147-.237,2.654,1.209,4.746,5.6.2,10.152Z" transform="translate(-121.778 -66.849)" fill="#303336"/>
    <path id="Caminho_5910" data-name="Caminho 5910" d="M532.763,443.848v3.515c0,.212.243.213.287,0,.587-2.849,1.724-3.991,4.074-6.341l3.723-3.715c4.549-4.549,5.336-8.951,3.022-11.78-.154-.189-.32-.076-.22.152,1.53,3.461-2.138,7.13-3.885,8.877l-2.632,2.633c-2.376,2.375-4.37,4.422-4.37,6.661" transform="translate(-121.739 -83.755)" fill="#303336"/>
    <path id="Caminho_5911" data-name="Caminho 5911" d="M471.161,398.353c-4.549,4.55-2.457,8.943.2,10.153.233.106.325-.083.147-.237-2.128-1.843-1.482-4.944,1.194-7.62l7.561-7.561c2.375-2.376,4.37-4.422,4.37-6.661v-3.491c0-.212-.243-.213-.287,0-.587,2.849-1.724,3.968-4.074,6.318Z" transform="translate(-70.227 -49.568)" fill="#303336"/>
    <path id="Caminho_5912" data-name="Caminho 5912" d="M477.073,355.373v-3.515c0-.212-.243-.213-.287,0-.587,2.849-1.724,3.991-4.074,6.341l-9.374,9.366c-4.549,4.549-5.336,8.951-3.022,11.781.154.189.32.076.22-.152-1.53-3.461,2.138-7.13,3.885-8.877l8.283-8.283c2.375-2.375,4.37-4.422,4.37-6.661" transform="translate(-62.663 -24.659)" fill="#303336"/>
    <path id="Caminho_5913" data-name="Caminho 5913" d="M459.684,337.767c-3.913,3.913-4.458,8.051-3.623,10.751.071.229.269.245.267,0-.019-2.268.633-4.217,4.773-8.357l8.925-8.922c2.376-2.375,4.37-4.422,4.37-6.661v-3.491c0-.212-.243-.213-.287,0-.587,2.849-1.727,3.973-4.077,6.323Z" transform="translate(-59.994)" fill="#303336"/>
    <path id="Caminho_5914" data-name="Caminho 5914" d="M381.034,535.6c.165-.014,19.746-3.4,19.746-3.4,4.495-.758,6.945,1.381,7.679,3.385.065.177.275.151.275-.019,0-.122,0-6.757,0-6.757a.143.143,0,0,0-.143-.143h-3.43a.143.143,0,0,1-.143-.143V526.5a.143.143,0,0,1,.143-.143h3.427a.143.143,0,0,0,.143-.143c-.009-1.82-1.381-3.057-6.878-2.1l-11.869,2.04s-9.04,9.039-9.114,9.127" transform="translate(0 -162.582)" fill="#303336"/>
    <path id="Caminho_5915" data-name="Caminho 5915" d="M541.1,526.672l-3.925,3.928c-2.375,2.375-4.37,4.422-4.37,6.661l0,.623c0,.169.21.2.275.019.733-2,3.184-4.143,7.678-3.385,0,0,19.581,3.384,19.746,3.4a.186.186,0,0,0,.162-.318c-.074-.088-9.113-9.127-9.113-9.127Z" transform="translate(-121.774 -164.898)" fill="#303336"/>
    <path id="Caminho_5916" data-name="Caminho 5916" d="M548.509,456.259c-.071-.229-.269-.245-.267,0,.02,2.268-.633,4.217-4.773,8.357l-3.275,3.272a23.109,23.109,0,0,0-3.622,4.211h3.234l.383-.383,4.7-4.7c3.912-3.913,4.458-8.051,3.623-10.751" transform="translate(-124.792 -108.32)" fill="#303336"/>
    <path id="Caminho_5917" data-name="Caminho 5917" d="M532.806,552.023c0,.212.243.213.287,0a8.4,8.4,0,0,1,1.583-3.63h-1.727a.143.143,0,0,0-.143.143Z" transform="translate(-121.774 -182.307)" fill="#303336"/>
    <path id="Caminho_5918" data-name="Caminho 5918" d="M658.791,544.149a1.406,1.406,0,0,1,1.455-1.455,1.429,1.429,0,0,1,1.455,1.455,1.455,1.455,0,0,1-2.91,0m2.684,0a1.214,1.214,0,0,0-1.229-1.245,1.194,1.194,0,0,0-1.233,1.245,1.231,1.231,0,1,0,2.462,0m-1.772-.864h.508c.432,0,.626.171.626.512a.465.465,0,0,1-.309.452l.46.769h-.341l-.4-.686H660v.686h-.3Zm.5.8c.206,0,.329-.115.329-.282,0-.186-.1-.266-.333-.266H660v.547Z" transform="translate(-222.749 -177.74)" fill="#303336"/>
  </g>
</svg>
