<?xml version="1.0" standalone="no"?>
<!DOCTYPE svg PUBLIC "-//W3C//DTD SVG 20010904//EN"
 "http://www.w3.org/TR/2001/REC-SVG-20010904/DTD/svg10.dtd">
<svg version="1.0" xmlns="http://www.w3.org/2000/svg"
 width="3656.000000pt" height="1109.000000pt" viewBox="0 0 3656.000000 1109.000000"
 preserveAspectRatio="xMidYMid meet">

<g transform="translate(0.000000,1109.000000) scale(0.100000,-0.100000)"
fill="#000000" stroke="none">
<path d="M5317 10863 c-3 -5 -15 -46 -27 -92 -43 -168 -107 -301 -212 -444
-40 -53 -396 -417 -1003 -1027 -689 -692 -962 -972 -1018 -1046 -175 -232
-276 -438 -333 -684 -46 -194 -42 -454 8 -605 23 -69 35 -53 43 57 14 203 73
365 204 560 152 227 329 415 1292 1373 371 369 713 715 760 770 165 191 244
318 291 465 22 72 23 88 23 374 0 218 -3 300 -12 303 -6 2 -13 0 -16 -4z"/>
<path d="M5317 9993 c-3 -4 -17 -52 -31 -106 -48 -183 -120 -323 -242 -477
-38 -47 -462 -481 -944 -965 -508 -510 -904 -916 -942 -965 -254 -329 -370
-611 -371 -900 -1 -177 42 -322 132 -453 70 -102 91 -97 55 11 -89 262 1 547
284 902 42 52 441 462 892 915 449 451 846 854 881 895 151 173 234 302 283
440 l31 85 0 309 c0 226 -3 310 -12 313 -6 2 -13 0 -16 -4z"/>
<path d="M22425 9140 l-120 -47 -3 -284 c-2 -156 2 -338 8 -403 6 -65 8 -121
6 -124 -3 -3 -36 26 -74 64 -110 111 -232 165 -407 180 -253 21 -481 -90 -609
-294 -131 -210 -173 -614 -95 -919 65 -258 231 -438 460 -500 80 -21 280 -24
359 -4 110 27 199 78 283 162 42 43 78 77 78 76 1 -1 11 -51 23 -112 l21 -110
108 -3 107 -3 0 1186 c0 942 -3 1185 -12 1184 -7 -1 -67 -22 -133 -49z m-474
-850 c77 -14 171 -63 214 -111 54 -60 102 -169 120 -273 20 -118 20 -416 0
-522 -29 -154 -100 -261 -209 -314 -80 -39 -160 -53 -277 -48 -116 6 -190 35
-262 106 -123 119 -184 366 -158 634 29 299 144 484 328 527 53 13 180 13 244
1z"/>
<path d="M16283 9120 c-77 -17 -113 -63 -120 -153 -8 -114 53 -187 157 -187
63 0 110 27 138 80 70 138 -34 292 -175 260z"/>
<path d="M29243 9120 c-69 -16 -104 -57 -117 -136 -15 -88 37 -182 110 -200
40 -10 114 2 143 23 63 46 84 177 39 243 -43 62 -104 87 -175 70z"/>
<path d="M5301 9068 c-36 -170 -114 -343 -218 -483 -46 -63 -324 -349 -918
-945 -900 -904 -924 -931 -1013 -1112 -23 -46 -53 -123 -68 -173 -24 -79 -27
-107 -28 -230 0 -133 2 -145 33 -235 57 -168 170 -313 305 -394 54 -33 96 -46
96 -30 0 3 -25 33 -55 67 -59 67 -108 155 -124 227 -17 74 -13 209 9 295 26
103 96 242 178 351 44 60 302 326 797 824 402 404 758 769 792 810 129 161
194 272 235 400 22 72 23 88 23 375 0 271 -2 300 -17 303 -12 2 -19 -9 -27
-50z"/>
<path d="M19892 9008 c-60 -155 -813 -2091 -831 -2136 l-21 -53 143 3 142 3
131 340 131 340 446 3 445 2 66 -167 c36 -93 96 -247 133 -343 l69 -175 143
-3 c133 -2 143 -1 139 15 -3 10 -189 491 -413 1068 -224 578 -416 1074 -427
1103 l-21 52 -127 0 -127 0 -21 -52z m184 -364 c20 -65 99 -288 175 -496 76
-207 139 -379 139 -382 0 -3 -157 -6 -350 -6 -223 0 -350 4 -350 10 0 5 60
171 134 368 74 197 151 420 172 495 21 75 39 135 41 134 1 -2 19 -57 39 -123z"/>
<path d="M10660 8930 l0 -120 130 0 130 0 0 -870 0 -870 -83 0 -83 0 -21 -57
c-11 -32 -32 -88 -46 -125 l-26 -68 404 0 405 0 0 125 0 125 -135 0 -135 0 2
868 3 867 85 3 85 3 43 112 c23 62 42 116 42 120 0 4 -180 7 -400 7 l-400 0 0
-120z"/>
<path d="M28265 8866 c-16 -7 -74 -30 -127 -51 l-98 -37 0 -778 c0 -853 1
-874 58 -986 30 -58 90 -124 143 -157 85 -52 255 -78 391 -58 69 10 182 42
196 55 10 11 -66 191 -79 190 -8 -1 -49 -9 -93 -18 -156 -33 -260 12 -318 139
-23 50 -23 50 -26 588 l-3 537 246 0 246 0 -3 103 -3 102 -242 3 -243 2 0 190
c0 105 -3 190 -7 189 -5 0 -21 -6 -38 -13z"/>
<path d="M31520 8854 c-36 -14 -95 -36 -132 -50 l-68 -26 0 -773 c0 -850 1
-872 60 -991 76 -154 255 -237 480 -220 118 8 250 45 250 69 0 15 -59 169 -69
179 -3 4 -29 0 -56 -8 -28 -9 -84 -16 -125 -16 -126 -2 -208 54 -247 167 -16
45 -18 100 -18 575 l0 525 243 3 242 2 0 105 0 105 -245 0 -245 0 -2 189 -3
189 -65 -24z"/>
<path d="M12250 8524 c-176 -27 -269 -65 -356 -147 -167 -156 -214 -452 -107
-675 31 -65 140 -181 191 -203 17 -7 32 -17 32 -21 0 -3 -23 -22 -50 -42 -54
-38 -107 -106 -127 -159 -18 -50 -15 -156 6 -202 10 -23 40 -60 66 -83 26 -23
46 -43 44 -45 -2 -1 -31 -11 -64 -22 -119 -39 -209 -117 -258 -222 -19 -41
-22 -65 -22 -168 0 -109 2 -125 26 -176 66 -139 201 -228 414 -270 103 -21
412 -17 539 5 338 61 510 207 546 464 31 214 -56 401 -223 477 -109 50 -156
57 -452 64 -304 8 -331 13 -373 66 -45 57 -17 155 63 220 l47 39 142 2 c160 2
250 21 357 74 71 37 160 116 195 176 52 89 67 151 68 279 1 131 -12 186 -65
282 l-29 52 112 3 111 3 38 100 37 100 -317 6 c-174 4 -341 11 -371 17 -53 10
-169 13 -220 6z m261 -226 c129 -59 189 -187 176 -373 -8 -111 -31 -170 -87
-226 -63 -63 -125 -84 -255 -84 -167 0 -264 52 -316 168 -21 46 -24 67 -24
177 1 145 20 212 81 274 69 71 146 97 280 92 71 -2 103 -8 145 -28z m236
-1472 c68 -22 108 -67 123 -142 22 -106 -7 -202 -84 -272 -100 -92 -236 -127
-491 -127 -150 0 -179 3 -243 23 -127 40 -191 120 -192 238 0 84 24 157 67
205 42 46 72 63 145 84 79 22 601 15 675 -9z"/>
<path d="M14130 8524 c-66 -13 -156 -50 -210 -86 -66 -44 -158 -140 -197 -205
-25 -44 -43 -55 -43 -28 0 18 -18 190 -26 253 l-5 42 -110 0 -109 0 0 -840 0
-840 135 0 135 0 0 474 c0 533 4 579 65 704 100 202 288 303 512 275 48 -6 90
-10 91 -8 5 4 32 193 32 221 0 12 -7 25 -15 28 -21 8 -224 16 -255 10z"/>
<path d="M15035 8516 c-156 -31 -252 -82 -361 -191 -66 -66 -90 -99 -128 -176
-25 -52 -58 -139 -73 -194 -24 -91 -26 -117 -27 -295 -1 -231 15 -314 91 -470
38 -80 59 -108 132 -181 69 -68 105 -95 171 -128 144 -70 216 -85 425 -84 193
0 268 11 417 60 119 39 116 33 74 142 -19 51 -36 95 -39 97 -2 3 -42 -6 -88
-20 -179 -51 -413 -66 -538 -33 -211 56 -339 230 -366 495 l-7 72 577 0 578 0
-6 163 c-9 242 -48 377 -150 514 -77 103 -202 183 -340 217 -93 23 -255 29
-342 12z m318 -245 c131 -56 226 -224 227 -398 l0 -53 -425 0 -425 0 0 28 c0
15 7 56 15 91 49 205 187 342 364 360 87 8 185 -3 244 -28z"/>
<path d="M25088 8515 c-306 -58 -512 -286 -573 -633 -20 -112 -21 -352 -1
-452 63 -327 245 -528 551 -611 66 -18 109 -22 245 -23 97 0 196 5 240 13 79
14 286 77 294 89 3 6 -60 189 -69 200 -2 2 -34 -6 -72 -17 -187 -55 -426 -71
-550 -38 -220 59 -347 228 -370 495 l-6 72 577 0 576 0 0 68 c0 111 -18 285
-35 353 -47 185 -170 346 -319 419 -45 22 -108 47 -141 55 -89 23 -255 27
-347 10z m323 -247 c135 -62 208 -182 225 -372 l7 -76 -427 0 -426 0 0 33 c0
54 28 154 61 218 66 131 181 214 315 227 96 10 181 -1 245 -30z"/>
<path d="M26895 8516 c-149 -29 -276 -99 -350 -193 -22 -28 -44 -50 -50 -49
-5 1 -19 53 -29 114 l-19 112 -109 0 -108 0 0 -840 0 -840 134 0 135 0 3 538
c4 472 6 544 21 597 59 204 154 297 341 332 150 29 304 2 388 -67 47 -39 94
-136 108 -220 6 -38 10 -293 10 -622 l0 -558 135 0 135 0 0 574 c0 344 -4 606
-10 653 -35 255 -159 405 -382 458 -91 22 -268 27 -353 11z"/>
<path d="M30300 8523 c-155 -16 -316 -81 -400 -163 -140 -137 -154 -367 -32
-528 57 -75 175 -142 422 -242 375 -151 453 -222 419 -383 -9 -41 -21 -62 -58
-98 -69 -70 -154 -94 -326 -93 -139 0 -242 17 -370 60 -38 13 -75 24 -81 24
-9 0 -84 -181 -84 -203 0 -3 35 -19 78 -35 198 -77 508 -93 727 -37 254 65
402 255 382 493 -9 110 -40 177 -116 252 -81 79 -166 125 -391 213 -352 138
-422 189 -424 312 -1 134 118 205 345 205 129 0 239 -20 368 -66 52 -18 99
-30 103 -26 8 8 78 189 78 202 0 12 -115 55 -210 79 -139 34 -303 47 -430 34z"/>
<path d="M17268 8501 c-129 -28 -338 -103 -338 -120 0 -11 71 -185 79 -193 4
-4 43 8 88 28 234 101 497 114 610 31 83 -61 114 -138 121 -298 l5 -117 -179
-6 c-340 -13 -500 -41 -652 -116 -195 -97 -285 -275 -254 -507 27 -200 139
-329 337 -389 82 -25 302 -26 395 -1 113 30 187 74 278 166 46 46 84 82 86 80
2 -2 13 -49 25 -104 12 -55 25 -108 27 -117 5 -16 19 -18 105 -18 l99 0 0 594
c0 362 -4 624 -11 670 -30 217 -127 342 -313 403 -72 23 -100 26 -251 29 -138
3 -186 0 -257 -15z m562 -955 c0 -330 -146 -505 -443 -532 -163 -15 -278 34
-331 138 -24 50 -28 69 -28 139 0 68 5 89 29 137 73 147 250 201 681 210 l92
2 0 -94z"/>
<path d="M32768 8500 c-115 -24 -313 -92 -337 -115 -3 -4 68 -185 79 -197 3
-5 44 8 90 28 135 57 258 85 380 85 249 0 349 -108 350 -377 l0 -92 -177 -6
c-426 -16 -635 -71 -775 -204 -100 -95 -147 -234 -133 -387 28 -276 192 -425
490 -442 134 -7 264 15 365 64 58 28 94 55 157 120 46 45 85 83 87 83 2 0 9
-23 15 -51 6 -28 18 -82 27 -120 l16 -69 99 0 100 0 -3 648 c-4 619 -5 650
-25 714 -55 181 -170 282 -365 322 -108 22 -326 20 -440 -4z m562 -962 c0
-187 -44 -312 -139 -401 -112 -105 -309 -152 -466 -112 -82 21 -133 59 -168
125 -27 52 -29 61 -25 150 3 83 7 102 31 143 79 135 259 187 675 195 l92 2 0
-102z"/>
<path d="M5920 8502 c0 -4 16 -24 36 -43 205 -198 208 -511 9 -821 -74 -113
-108 -151 -440 -488 -402 -407 -507 -534 -590 -714 -60 -130 -66 -171 -63
-493 3 -240 5 -288 17 -288 10 0 22 31 37 92 48 189 109 315 231 471 37 48
266 287 508 532 473 477 525 538 610 724 149 322 96 676 -135 903 -87 84 -220
160 -220 125z"/>
<path d="M16177 7538 c-2 -863 -4 -969 -19 -1017 -27 -86 -67 -141 -134 -187
l-61 -41 37 -94 c20 -52 39 -102 43 -112 6 -16 14 -14 86 23 158 82 261 226
301 421 19 89 20 144 20 1032 l0 937 -135 0 -134 0 -4 -962z"/>
<path d="M22813 8483 c3 -14 590 -1563 622 -1645 6 -16 24 -18 164 -18 l156 0
314 828 c173 455 316 833 319 840 3 9 -29 12 -141 12 l-145 0 -10 -27 c-327
-907 -417 -1162 -447 -1264 -47 -161 -45 -153 -50 -147 -3 3 -14 40 -26 84
-34 131 -86 284 -284 832 l-188 522 -145 0 c-133 0 -144 -1 -139 -17z"/>
<path d="M29150 7660 l0 -840 135 0 135 0 0 840 0 840 -135 0 -135 0 0 -840z"/>
<path d="M6420 7902 c0 -10 9 -45 21 -78 73 -211 4 -490 -189 -764 -95 -136
-188 -237 -582 -635 -223 -225 -438 -447 -478 -493 -151 -173 -240 -308 -290
-443 -27 -74 -27 -75 -30 -383 -2 -169 -1 -315 3 -324 11 -30 31 10 60 121 35
134 112 295 197 409 36 48 249 272 513 538 464 468 539 548 642 685 364 481
440 967 205 1309 -50 73 -72 91 -72 58z"/>
<path d="M6636 6948 c-11 -175 -55 -314 -150 -475 -127 -215 -263 -369 -826
-938 -257 -258 -500 -513 -541 -565 -76 -95 -139 -184 -139 -194 0 -3 103 -6
228 -6 l228 0 410 413 c226 226 438 447 473 489 190 236 319 496 376 758 25
116 31 345 11 458 -17 97 -39 162 -54 162 -5 0 -12 -46 -16 -102z"/>
<path d="M17462 5723 c-46 -76 -112 -178 -147 -228 -36 -49 -65 -100 -65 -112
0 -22 3 -23 88 -23 l88 0 95 88 c175 162 349 359 349 394 0 17 -13 18 -163 18
l-163 0 -82 -137z"/>
<path d="M12085 5826 c-16 -7 -74 -30 -129 -51 l-98 -38 3 -403 c2 -222 1
-404 -2 -404 -4 0 -23 20 -42 44 -50 60 -158 131 -247 163 -100 35 -281 44
-392 19 -254 -57 -418 -229 -494 -521 -22 -84 -27 -129 -31 -280 -11 -356 54
-571 222 -741 129 -131 273 -180 494 -171 190 8 299 53 420 174 41 40 75 72
77 70 2 -2 11 -41 19 -88 9 -46 18 -94 20 -106 5 -22 9 -23 115 -23 l110 0 0
1185 c0 652 -3 1185 -7 1184 -5 0 -21 -6 -38 -13z m-533 -902 c148 -43 234
-145 280 -332 20 -76 22 -115 23 -307 0 -180 -3 -232 -18 -285 -56 -208 -161
-302 -366 -331 -271 -38 -453 93 -518 376 -27 120 -24 419 5 528 73 266 222
386 459 371 46 -3 107 -12 135 -20z"/>
<path d="M29985 5791 c-48 -22 -79 -54 -100 -103 -31 -76 -10 -183 46 -235 91
-83 244 -66 314 35 26 38 30 52 30 111 0 58 -4 75 -30 116 -54 88 -165 120
-260 76z m163 -25 c91 -48 126 -151 81 -243 -61 -125 -254 -124 -314 3 -39 84
0 206 79 240 41 17 120 18 154 0z"/>
<path d="M30000 5606 c0 -119 1 -126 20 -126 17 0 20 7 20 50 0 68 25 68 63 0
19 -33 35 -50 48 -50 25 0 24 3 -8 59 l-26 48 22 30 c16 21 20 37 16 56 -10
38 -27 48 -95 54 l-60 6 0 -127z m108 56 c5 -30 -14 -52 -44 -52 -21 0 -24 5
-24 41 0 39 1 40 33 37 25 -2 33 -8 35 -26z"/>
<path d="M19611 5753 c-54 -28 -74 -64 -79 -139 -8 -120 48 -188 153 -188 101
0 159 61 159 169 0 105 -52 165 -146 172 -38 3 -63 -1 -87 -14z"/>
<path d="M27955 5756 c-118 -53 -126 -253 -13 -312 47 -25 130 -24 165 2 51
39 67 70 71 142 4 75 -14 121 -61 156 -33 25 -121 31 -162 12z"/>
<path d="M15671 5715 c-167 -31 -279 -84 -377 -180 -121 -120 -160 -228 -151
-420 8 -176 61 -292 182 -403 86 -78 200 -140 390 -212 317 -121 437 -196 492
-307 24 -50 27 -69 27 -148 0 -72 -4 -100 -22 -140 -44 -96 -128 -162 -257
-202 -50 -15 -92 -18 -250 -17 -200 0 -311 16 -449 64 -33 11 -60 19 -61 18
-1 -2 -21 -52 -44 -112 -32 -85 -39 -111 -29 -118 32 -20 126 -49 230 -70 98
-20 143 -23 338 -23 245 0 306 9 436 61 257 102 388 291 388 559 0 134 -24
222 -85 314 -81 121 -212 205 -503 321 -402 161 -492 236 -504 426 -16 253
173 382 518 353 111 -10 265 -46 368 -87 35 -13 64 -23 66 -21 6 7 86 221 86
229 0 10 -112 53 -210 80 -171 46 -428 62 -579 35z"/>
<path d="M25760 4584 l0 -1116 433 5 c465 4 504 8 685 68 253 83 459 264 562
495 138 305 146 756 21 1068 -134 335 -429 541 -839 585 -56 6 -274 11 -482
11 l-380 0 0 -1116z m929 847 c177 -45 320 -135 406 -255 125 -175 172 -388
153 -693 -9 -148 -35 -253 -92 -368 -95 -194 -245 -308 -486 -373 -88 -23
-116 -25 -362 -30 l-268 -4 0 877 0 877 283 -5 c245 -4 293 -7 366 -26z"/>
<path d="M18563 5471 l-123 -46 0 -770 c1 -834 3 -868 55 -982 52 -115 165
-199 302 -224 88 -17 274 -6 356 20 37 12 70 28 73 35 8 22 -62 192 -77 188
-8 -2 -41 -11 -74 -19 -143 -37 -272 12 -328 123 -31 62 -37 157 -37 647 l0
487 245 0 245 0 0 105 0 105 -242 2 -243 3 -3 188 c-2 140 -6 187 -15 186 -6
-1 -67 -22 -134 -48z"/>
<path d="M12995 5154 c-221 -49 -385 -174 -480 -368 -152 -308 -130 -765 50
-1036 85 -129 216 -226 373 -278 70 -24 92 -26 242 -26 191 -1 245 10 380 76
67 32 102 58 166 122 120 121 186 253 219 445 19 108 19 325 0 434 -55 317
-250 547 -530 623 -86 24 -328 28 -420 8z m385 -243 c156 -61 248 -194 286
-414 20 -111 14 -346 -11 -447 -24 -97 -80 -206 -135 -261 -90 -90 -227 -136
-371 -125 -225 18 -362 140 -425 381 -15 57 -19 107 -19 265 0 173 3 204 23
273 55 191 153 299 312 344 72 20 272 11 340 -16z"/>
<path d="M17260 5149 c-279 -72 -462 -286 -526 -616 -24 -121 -24 -348 0 -468
64 -329 272 -544 588 -609 154 -32 437 -16 593 33 49 15 143 50 152 56 2 1
-12 39 -30 86 -18 46 -36 91 -39 100 -6 15 -15 14 -90 -8 -243 -71 -496 -70
-638 2 -68 35 -153 114 -189 179 -40 70 -71 177 -78 269 l-6 77 572 0 571 0 0
148 c0 193 -22 302 -86 431 -85 171 -229 283 -421 325 -101 22 -277 20 -373
-5z m301 -213 c110 -25 198 -98 246 -203 24 -51 52 -178 53 -235 l0 -28 -429
0 -430 0 6 38 c18 129 67 245 133 316 96 104 265 149 421 112z"/>
<path d="M20890 5155 c-125 -35 -257 -124 -311 -211 -12 -20 -25 -32 -30 -27
-5 5 -16 47 -24 93 -8 47 -18 95 -20 108 -5 21 -9 22 -115 22 l-110 0 0 -835
0 -835 134 0 134 0 5 523 c5 581 8 610 73 744 66 137 163 193 346 201 144 6
203 -12 275 -84 40 -40 56 -66 74 -120 23 -69 24 -73 27 -666 l3 -598 135 0
134 0 0 519 c0 563 4 618 55 729 41 90 86 137 172 179 l77 38 135 0 c128 0
139 -2 187 -27 61 -32 98 -73 133 -148 l26 -55 3 -617 3 -618 134 0 135 0 0
609 c0 678 -2 707 -64 838 -55 115 -140 186 -275 230 -73 23 -300 29 -386 9
-140 -33 -275 -120 -346 -222 -16 -24 -33 -44 -37 -44 -4 0 -20 25 -36 55 -46
89 -142 162 -265 202 -68 22 -310 27 -381 8z"/>
<path d="M23565 5154 c-279 -62 -465 -248 -541 -540 -32 -122 -44 -354 -24
-485 52 -357 253 -595 565 -670 77 -18 111 -20 230 -17 125 4 150 8 235 37
193 66 315 171 404 348 138 275 136 693 -5 963 -88 170 -224 284 -414 346 -69
23 -101 27 -230 30 -110 3 -169 -1 -220 -12z m354 -233 c123 -38 204 -108 261
-225 50 -102 62 -166 67 -351 4 -144 2 -185 -15 -266 -54 -260 -195 -396 -431
-415 -204 -16 -372 75 -454 247 -57 120 -72 206 -71 409 1 190 15 271 69 384
51 107 149 190 264 222 73 20 238 17 310 -5z"/>
<path d="M29020 5156 c-163 -29 -397 -114 -386 -140 2 -6 21 -52 41 -102 l38
-91 76 33 c155 67 243 87 386 88 116 1 135 -2 180 -22 125 -58 175 -155 175
-344 l0 -97 -32 -5 c-18 -3 -116 -7 -218 -10 -278 -9 -443 -41 -585 -114 -183
-95 -268 -265 -245 -488 14 -132 54 -217 138 -296 53 -50 97 -75 182 -104 85
-29 348 -27 445 3 93 29 176 84 262 173 l71 73 11 -53 c6 -29 18 -83 27 -121
l16 -69 99 0 100 0 -3 648 c-4 618 -5 650 -24 713 -52 167 -158 266 -339 314
-82 22 -317 28 -415 11z m510 -973 c0 -188 -38 -302 -130 -393 -86 -87 -204
-130 -358 -130 -156 0 -247 47 -292 152 -19 44 -22 65 -18 137 11 224 163 310
582 330 88 5 173 9 189 9 l27 2 0 -107z"/>
<path d="M3890 5129 c-149 -9 -166 -12 -1165 -184 l-850 -146 -658 -657 c-361
-361 -656 -661 -654 -667 2 -5 15 -11 30 -13 26 -3 127 14 1777 299 514 89
989 170 1055 180 367 56 679 -17 886 -208 72 -67 139 -159 174 -238 48 -108
50 -91 50 446 l0 494 -260 5 -260 5 0 160 0 160 260 5 260 5 -2 57 c-7 224
-227 325 -643 297z"/>
<path d="M19550 4305 l0 -835 135 0 135 0 0 835 0 835 -135 0 -135 0 0 -835z"/>
<path d="M27880 4305 l0 -835 140 0 140 0 0 835 0 835 -140 0 -140 0 0 -835z"/>
<path d="M5629 4632 c-228 -229 -450 -461 -494 -515 -189 -230 -265 -400 -265
-589 0 -66 3 -88 13 -88 7 0 33 39 57 88 57 112 186 245 300 309 186 104 442
146 687 112 43 -6 479 -80 968 -164 490 -84 1039 -179 1220 -210 182 -31 414
-71 516 -89 103 -17 192 -30 198 -28 6 2 11 11 11 20 0 10 -294 310 -652 669
l-653 652 -730 126 c-402 69 -738 125 -746 125 -9 0 -202 -188 -430 -418z"/>
<path d="M8569 4590 c-120 -36 -173 -194 -103 -306 67 -108 217 -125 315 -37
44 39 61 83 61 152 -1 86 -40 147 -116 182 -42 19 -111 23 -157 9z m161 -42
c110 -75 114 -222 8 -301 -28 -21 -111 -34 -152 -23 -40 10 -93 63 -112 111
-31 82 -1 167 73 212 52 32 137 32 183 1z"/>
<path d="M8560 4395 c0 -118 1 -125 20 -125 17 0 20 7 20 51 0 46 2 50 22 47
14 -2 32 -20 48 -48 16 -28 34 -46 48 -48 28 -4 28 -2 -9 59 l-32 50 22 15
c21 15 29 66 13 91 -12 18 -59 33 -108 33 l-44 0 0 -125z m118 53 c3 -22 -2
-30 -22 -39 -37 -17 -56 -5 -56 36 0 36 1 36 38 33 32 -3 37 -7 40 -30z"/>
<path d="M4875 4427 c-3 -7 -4 -126 -3 -265 4 -303 11 -320 63 -133 35 128 77
225 140 326 l54 85 -125 0 c-91 0 -126 -3 -129 -13z"/>
<path d="M19215 2125 c-52 -18 -99 -73 -115 -133 -7 -26 -14 -55 -17 -64 -4
-15 3 -18 40 -18 42 0 46 2 56 32 30 84 84 90 215 23 105 -53 174 -60 232 -24
43 26 82 92 90 152 l7 47 -41 0 c-35 0 -41 -3 -50 -29 -29 -83 -84 -90 -210
-27 -103 51 -151 61 -207 41z"/>
<path d="M14135 1800 c-230 -32 -383 -172 -447 -409 -30 -111 -30 -343 1 -456
59 -221 188 -354 387 -401 87 -20 255 -19 336 1 194 51 332 197 385 410 24
100 24 333 0 438 -50 212 -179 352 -371 401 -74 20 -214 27 -291 16z m276
-159 c103 -39 187 -139 219 -261 21 -77 29 -217 19 -313 -27 -263 -146 -398
-366 -414 -291 -22 -452 160 -453 510 0 274 96 437 290 492 76 21 217 14 291
-14z"/>
<path d="M15514 1799 c-328 -30 -514 -258 -515 -630 -1 -144 12 -227 48 -319
67 -170 179 -270 353 -315 81 -21 293 -22 383 -1 78 18 177 55 177 65 0 5 -10
32 -22 60 -18 45 -24 52 -42 46 -331 -108 -578 -47 -680 169 -61 128 -73 357
-26 496 85 255 313 355 600 264 44 -14 83 -25 87 -25 12 -1 55 123 46 132 -18
17 -142 50 -208 55 -38 3 -81 6 -95 8 -14 1 -62 -1 -106 -5z"/>
<path d="M18310 1799 c-138 -14 -277 -82 -359 -175 -54 -61 -108 -168 -132
-261 -37 -143 -24 -386 28 -514 70 -175 205 -288 384 -320 38 -7 69 -14 69
-16 0 -2 -13 -30 -30 -63 -16 -33 -30 -61 -30 -64 0 -2 22 -9 50 -16 72 -17
100 -42 100 -90 0 -58 -29 -74 -136 -73 l-84 1 0 -44 c0 -39 3 -44 26 -50 53
-14 170 2 228 30 83 41 116 120 82 201 -16 36 -62 72 -108 82 -33 7 -34 17 -9
59 18 30 22 31 102 37 76 5 221 42 258 66 11 7 10 18 -7 62 -23 61 -18 60
-136 30 -284 -73 -498 -3 -590 193 -73 154 -73 409 0 563 95 201 319 278 573
198 45 -14 84 -26 88 -26 12 -1 55 123 46 132 -17 16 -139 49 -202 54 -36 3
-82 7 -101 9 -19 2 -69 0 -110 -5z"/>
<path d="M20472 1799 c-273 -42 -432 -227 -462 -538 -10 -110 1 -261 26 -349
25 -88 83 -191 141 -249 59 -58 165 -114 253 -132 78 -17 254 -14 323 4 148
39 266 134 330 265 52 107 68 177 74 325 14 361 -121 590 -391 659 -77 20
-215 27 -294 15z m283 -159 c107 -41 184 -138 222 -283 23 -87 23 -309 -1
-397 -39 -143 -115 -238 -225 -282 -81 -32 -251 -32 -333 1 -173 68 -258 250
-245 526 12 258 101 397 287 450 78 21 217 14 295 -15z"/>
<path d="M25840 1799 c-147 -13 -249 -58 -346 -151 -69 -66 -123 -161 -151
-268 -28 -103 -25 -359 5 -465 31 -106 75 -185 138 -249 106 -106 227 -147
428 -147 148 1 216 12 324 56 48 19 49 26 16 103 -11 26 -18 33 -31 27 -115
-45 -304 -64 -412 -41 -217 46 -324 209 -324 491 0 186 39 302 134 397 132
132 336 151 569 54 11 -5 21 9 38 59 13 35 21 69 17 74 -10 17 -136 52 -205
57 -36 3 -78 6 -95 7 -16 2 -64 0 -105 -4z"/>
<path d="M12067 1789 c-47 -11 -125 -51 -164 -83 -109 -91 -124 -305 -30 -428
47 -62 124 -112 246 -159 214 -83 279 -129 302 -211 25 -96 -13 -176 -106
-223 -58 -29 -64 -30 -195 -29 -105 1 -151 6 -205 22 -38 11 -73 18 -76 14 -3
-4 -15 -33 -27 -64 l-21 -57 47 -15 c80 -26 166 -37 289 -37 185 1 292 38 376
131 62 69 81 128 75 239 -5 102 -25 147 -91 208 -53 49 -101 74 -256 137 -207
83 -252 123 -259 231 -7 113 45 174 167 197 73 14 192 0 286 -32 32 -11 64
-20 70 -20 10 0 55 97 55 120 0 10 -71 36 -150 55 -71 16 -270 19 -333 4z"/>
<path d="M12970 1781 c-76 -24 -109 -43 -154 -88 -62 -61 -81 -113 -81 -218 1
-188 74 -266 354 -376 191 -75 246 -122 258 -217 7 -60 -14 -126 -50 -160 -12
-12 -45 -31 -72 -44 -44 -20 -65 -23 -175 -22 -112 0 -207 14 -272 39 -12 5
-21 -6 -37 -50 -26 -70 -26 -69 3 -83 91 -41 366 -57 479 -27 117 30 205 93
246 173 31 61 44 149 32 215 -27 148 -103 214 -362 317 -190 75 -248 132 -249
243 0 74 32 122 110 163 28 15 55 19 140 18 88 -1 120 -6 196 -31 l91 -30 23
64 c12 35 21 65 19 67 -67 58 -376 87 -499 47z"/>
<path d="M22070 1786 c-102 -29 -180 -88 -222 -169 -29 -57 -36 -166 -14 -240
35 -119 116 -187 319 -267 196 -78 240 -107 272 -182 20 -49 19 -104 -4 -153
-22 -49 -43 -68 -106 -97 -84 -39 -326 -29 -448 18 -9 3 -21 -12 -35 -47 -12
-28 -22 -58 -22 -66 0 -50 362 -86 503 -48 184 48 279 162 279 335 1 98 -26
163 -93 225 -51 47 -111 79 -304 159 -168 70 -215 119 -215 226 0 176 198 237
467 146 l70 -24 23 65 c12 35 21 65 19 67 -16 13 -60 29 -131 46 -96 23 -285
26 -358 6z"/>
<path d="M34768 1781 c-72 -23 -117 -51 -163 -102 -69 -76 -90 -176 -61 -288
34 -132 110 -198 334 -287 211 -83 263 -129 270 -237 8 -150 -112 -227 -333
-214 -88 6 -188 23 -236 42 -12 4 -21 -7 -37 -50 -12 -31 -22 -60 -22 -64 0
-29 173 -62 323 -62 232 0 361 60 429 199 30 60 33 75 32 152 -1 180 -75 255
-362 369 -192 76 -251 133 -252 238 -1 177 204 242 471 149 l67 -23 21 57 c12
31 21 62 21 67 0 15 -68 41 -152 58 -98 21 -278 19 -350 -4z"/>
<path d="M11029 1763 c-6 -16 -111 -287 -234 -603 -123 -316 -228 -587 -234
-603 l-11 -27 79 0 78 0 74 193 75 192 251 3 251 2 66 -167 c36 -93 70 -180
75 -196 10 -26 12 -27 92 -27 46 0 79 4 77 9 -1 5 -111 289 -243 630 l-240
621 -73 0 c-70 0 -73 -1 -83 -27z m109 -221 c13 -42 57 -167 98 -277 40 -109
72 -200 70 -202 -2 -2 -91 -2 -198 -1 l-196 3 79 210 c43 116 86 240 96 278 9
37 20 67 23 67 3 0 16 -35 28 -78z"/>
<path d="M16080 1720 l0 -70 75 0 75 0 0 -489 0 -490 -51 -3 -51 -3 -19 -50
c-11 -27 -22 -58 -25 -67 -5 -17 10 -18 220 -18 l226 0 0 70 0 70 -75 0 -75 0
0 490 0 490 49 0 48 0 21 53 c11 28 23 60 27 70 7 16 -8 17 -219 17 l-226 0 0
-70z"/>
<path d="M16888 1178 c-131 -337 -241 -621 -244 -631 -6 -16 0 -18 72 -15 l79
3 74 192 74 193 251 0 251 0 75 -193 75 -192 79 -3 c77 -3 78 -3 73 20 -4 13
-112 295 -241 628 l-235 605 -73 3 -73 2 -237 -612z m343 345 c17 -54 61 -176
95 -271 35 -95 64 -177 64 -183 0 -5 -79 -9 -195 -9 -107 0 -195 2 -195 5 0 2
33 93 74 202 75 203 87 237 106 311 6 23 12 42 15 42 2 0 18 -44 36 -97z"/>
<path d="M19095 1174 c-132 -339 -241 -623 -243 -631 -3 -11 11 -13 74 -11
l79 3 74 193 74 192 251 0 251 0 75 -195 75 -195 78 0 c43 0 77 4 77 10 0 7
-395 1034 -465 1208 l-17 42 -72 0 -71 0 -240 -616z m331 389 c9 -32 52 -154
95 -271 44 -118 79 -218 79 -223 0 -5 -83 -9 -195 -9 -107 0 -195 3 -195 6 0
4 38 109 85 235 47 125 85 231 85 236 0 15 21 83 25 83 3 0 12 -26 21 -57z"/>
<path d="M22790 1338 c0 -482 2 -505 51 -602 29 -58 101 -131 159 -161 82 -42
148 -56 267 -56 94 0 125 4 189 26 132 44 217 122 266 242 23 57 23 63 26 531
l3 472 -75 0 -75 0 -3 -452 c-4 -509 -4 -506 -78 -591 -61 -69 -122 -91 -250
-91 -88 0 -113 3 -156 22 -63 29 -116 82 -146 147 -23 50 -23 54 -26 508 l-3
457 -75 0 -74 0 0 -452z"/>
<path d="M24035 1778 c-3 -7 -4 -290 -3 -628 l3 -615 341 -3 342 -2 25 67 25
68 -289 3 -289 2 0 560 0 560 -75 0 c-51 0 -77 -4 -80 -12z"/>
<path d="M26857 1783 c-3 -4 -111 -282 -242 -618 -130 -335 -239 -616 -242
-622 -4 -10 15 -13 74 -13 l80 0 74 195 74 195 251 0 c192 0 253 -3 257 -12 2
-7 35 -92 72 -188 37 -96 71 -179 75 -183 4 -4 41 -7 83 -5 l76 3 -242 625
-243 625 -71 3 c-39 2 -73 -1 -76 -5z m101 -248 c12 -38 55 -160 96 -270 l74
-200 -196 -3 c-107 -1 -196 -1 -198 1 -2 2 30 92 71 201 41 109 85 234 97 277
12 44 24 76 28 72 4 -4 17 -39 28 -78z"/>
<path d="M27388 1723 l-25 -68 194 -3 193 -2 0 -560 0 -560 80 0 80 0 0 560 0
560 195 0 195 0 0 70 0 70 -444 0 -443 0 -25 -67z"/>
<path d="M28657 1778 c-3 -7 -104 -267 -225 -578 -121 -311 -229 -589 -241
-618 l-21 -53 81 3 81 3 73 190 72 190 253 0 252 0 28 -70 c15 -38 49 -125 75
-192 l47 -123 80 0 c72 0 79 2 74 17 -4 10 -113 294 -244 631 l-236 612 -72 0
c-48 0 -73 -4 -77 -12z m212 -547 c34 -90 60 -165 58 -168 -2 -2 -92 -2 -199
-1 l-195 3 74 195 c40 107 83 229 94 270 12 41 24 79 27 84 3 5 22 -42 43
-105 20 -63 64 -188 98 -278z"/>
<path d="M29450 1161 l0 -631 75 0 75 0 0 260 0 260 128 0 128 0 144 -246 c79
-135 149 -252 155 -260 8 -12 30 -14 98 -12 l88 3 -171 279 c-94 153 -170 279
-168 280 2 1 28 15 59 29 66 32 132 99 162 165 17 38 22 66 22 147 0 87 -3
107 -26 155 -29 62 -76 113 -131 141 -83 43 -143 51 -395 56 l-243 5 0 -631z
m484 472 c79 -22 129 -70 146 -142 24 -102 -9 -211 -78 -255 -64 -41 -109 -50
-257 -50 l-140 -1 -3 233 -2 232 137 0 c98 0 154 -5 197 -17z"/>
<path d="M30460 1720 l0 -70 75 0 75 0 0 -490 0 -490 -50 0 c-27 0 -50 -2 -50
-4 0 -2 -11 -33 -25 -70 l-25 -66 225 0 225 0 0 70 0 70 -70 0 -70 0 0 489 0
490 46 3 c45 3 47 5 64 48 10 25 21 55 24 68 l7 22 -225 0 -226 0 0 -70z"/>
<path d="M31110 1160 l0 -630 71 0 71 0 -3 519 c-3 286 -2 517 1 515 3 -3 154
-235 335 -517 l331 -512 92 -3 92 -3 0 631 0 630 -70 0 -71 0 3 -520 c2 -286
1 -520 -2 -520 -3 0 -156 234 -340 520 l-334 520 -88 0 -88 0 0 -630z"/>
<path d="M32390 1160 l0 -630 344 0 343 0 21 53 c11 28 23 60 27 70 7 16 -11
17 -284 17 l-291 0 0 225 0 225 235 0 235 0 0 70 0 70 -235 0 -235 0 0 195 0
195 270 0 270 0 0 70 0 70 -350 0 -350 0 0 -630z"/>
<path d="M33310 1160 l0 -630 76 0 77 0 -6 498 c-3 273 -9 507 -12 520 -4 12
-3 22 2 22 5 0 159 -234 343 -520 l335 -520 93 0 92 0 0 630 0 630 -76 0 -77
0 5 -520 c3 -286 4 -520 3 -520 -1 0 -152 234 -336 520 l-334 519 -92 1 -93 0
0 -630z"/>
<path d="M35510 1160 l0 -630 344 0 343 0 25 67 25 68 -289 3 -288 2 0 225 0
225 235 0 235 0 0 70 0 70 -235 0 -235 0 0 195 0 195 270 0 270 0 0 70 0 70
-350 0 -350 0 0 -630z"/>
</g>
</svg>
