<svg xmlns="http://www.w3.org/2000/svg" viewBox="0 0 231.79 88.14"><defs><style>.cls-1{fill:#003768;}.cls-2{fill:#003767;}</style></defs><g id="PT"><path class="cls-1" d="M70.85,28.44l.66-1.76h1.18V14.5H70.85V12.77h5.66l-.66,1.73H74.67V26.68h1.84v1.76Z" transform="translate(0 0)"/><path class="cls-1" d="M77.41,30.44c0-1.52.86-2.48,2.57-2.9a1.73,1.73,0,0,1-1-1.65,2.44,2.44,0,0,1,1.43-2.06,3.51,3.51,0,0,1-2-3.31c0-2.75,1.71-4.07,4.39-4.07a5.16,5.16,0,0,1,1.6.22h4.06l-.57,1.5H86.28A3.71,3.71,0,0,1,87,20.45c0,2.44-1.78,3.78-4.33,3.78a5.2,5.2,0,0,1-.92-.07,1.68,1.68,0,0,0-1.08,1.43c0,.59.6.9,1.74.9h2c2.38,0,3.85,1.07,3.85,3.18,0,2.7-2,4-6.06,4C79.43,33.71,77.41,32.76,77.41,30.44Zm9-.59a1.39,1.39,0,0,0-.52-1.28,4.67,4.67,0,0,0-2.13-.33h-2c-1.65,0-2.46.71-2.46,2.13,0,1.23,1,1.87,2.9,1.87C85,32.24,86.39,31.45,86.39,29.85Zm-1.32-9.42c0-1.71-.81-2.57-2.41-2.57s-2.41.88-2.41,2.59a2.41,2.41,0,1,0,4.82,0Z" transform="translate(0 0)"/><path class="cls-1" d="M97.13,16.59l-.24,1.77a6.78,6.78,0,0,0-1.28-.15c-1.82,0-3.42,1.58-3.42,3.95v6.28H90.26V16.67h1.58l.22,2.15h.08a4.25,4.25,0,0,1,3.6-2.37A7,7,0,0,1,97.13,16.59Z" transform="translate(0 0)"/><path class="cls-1" d="M107.4,21.77v1.16H99.35c.06,2.66,1.4,4.08,3.75,4.08a9.47,9.47,0,0,0,3.23-.57l.55,1.45a8.8,8.8,0,0,1-3.87.77c-3.36,0-5.66-2.09-5.66-6s2.08-6.19,5.2-6.19S107.4,18.56,107.4,21.77Zm-8-.38h6c0-2-.9-3.36-2.85-3.36S99.59,19.29,99.39,21.39Z" transform="translate(0 0)"/><path class="cls-1" d="M108,32.11c1.25-.57,1.54-1.41,1.54-3.49V16.67h1.93V28.73c0,2.3-.62,4.12-2.86,5Zm2.52-19.85a1.09,1.09,0,0,1,1.12,1.23,1.13,1.13,0,1,1-2.26,0A1.09,1.09,0,0,1,110.56,12.26Z" transform="translate(0 0)"/><path class="cls-1" d="M123,20.43v8h-1.4l-.38-1.67h-.08a4.34,4.34,0,0,1-4,1.89c-2.13,0-3.71-1.1-3.71-3.49s1.8-3.64,5.64-3.75l2-.07v-.7c0-2-.9-2.62-2.44-2.62a7.79,7.79,0,0,0-3.32.9l-.59-1.44a8.79,8.79,0,0,1,4-1C121.67,16.48,123,17.68,123,20.43Zm-3.64,2.32c-2.94.11-3.89.95-3.89,2.44,0,1.32.88,1.91,2.15,1.91a3.14,3.14,0,0,0,3.47-3.36v-1Z" transform="translate(0 0)"/><path class="cls-1" d="M139.72,23.59H133.5l-1.86,4.85h-2l6.13-15.74h1.77l6.11,15.74h-2Zm-2.35-6.5c-.13-.35-.59-1.8-.75-2.35-.22.9-.5,1.85-.68,2.35l-1.78,4.74h5Z" transform="translate(0 0)"/><path class="cls-1" d="M144,22.58c0-4,1.93-6.13,4.85-6.13a4.27,4.27,0,0,1,3.65,1.74h.13c-.05-.38-.13-1.3-.13-1.74V12.5l1.93-.74V28.44h-1.56l-.29-1.58h-.08a4.19,4.19,0,0,1-3.67,1.8C145.93,28.66,144,26.62,144,22.58Zm8.52.37V22.6c0-2.92-.79-4.54-3.4-4.54-2.09,0-3.12,1.77-3.12,4.56s1,4.44,3.14,4.44C151.64,27.06,152.54,25.7,152.54,23Z" transform="translate(0 0)"/><path class="cls-1" d="M156.05,16.67h2.07l2.5,6.94a24.94,24.94,0,0,1,.94,3.12h.09c.15-.73.66-2.18,1-3.12l2.5-6.94h2.06l-4.47,11.77h-2.22Z" transform="translate(0 0)"/><path class="cls-1" d="M178,21.77v1.16H169.9c.07,2.66,1.41,4.08,3.76,4.08a9.47,9.47,0,0,0,3.23-.57l.54,1.45a8.72,8.72,0,0,1-3.86.77c-3.36,0-5.66-2.09-5.66-6s2.08-6.19,5.2-6.19S178,18.56,178,21.77Zm-8-.38h6c0-2-.9-3.36-2.85-3.36S170.15,19.29,170,21.39Z" transform="translate(0 0)"/><path class="cls-1" d="M190,20.78v7.66h-1.91V20.91c0-1.89-.83-2.83-2.63-2.83-2.62,0-3.45,1.51-3.45,4.26v6.1h-1.93V16.67h1.56l.28,1.61H182a4.28,4.28,0,0,1,3.71-1.83C188.52,16.45,190,17.75,190,20.78Z" transform="translate(0 0)"/><path class="cls-1" d="M197.83,26.79l.53,1.39a4.5,4.5,0,0,1-2.15.48c-1.85,0-3.45-.79-3.45-3.64V14.7l1.93-.73v2.7h3.4v1.5h-3.4V25c0,1.43.77,2.11,1.84,2.11A3.37,3.37,0,0,0,197.83,26.79Z" transform="translate(0 0)"/><path class="cls-1" d="M202.64,13.49a1.13,1.13,0,1,1-2.26,0,1.13,1.13,0,1,1,2.26,0Zm-.18,15h-1.93V16.67h1.93Z" transform="translate(0 0)"/><path class="cls-1" d="M208.72,28.66a7.51,7.51,0,0,1-3.69-.75l.57-1.49a8.83,8.83,0,0,0,3.16.68c2,0,2.79-.68,2.79-1.73,0-.88-.59-1.41-2.9-2.29S205,21.5,205,19.57s1.78-3.12,4.41-3.12a9.24,9.24,0,0,1,3.76.79l-.6,1.56a8.39,8.39,0,0,0-3.29-.77c-1.58,0-2.44.55-2.44,1.43s.77,1.38,3,2.24,3.54,1.6,3.54,3.49C213.42,27.47,211.59,28.66,208.72,28.66Z" transform="translate(0 0)"/><path class="cls-1" d="M220.86,26.79l.53,1.39a4.54,4.54,0,0,1-2.16.48c-1.84,0-3.44-.79-3.44-3.64V14.7l1.93-.73v2.7h3.4v1.5h-3.4V25c0,1.43.77,2.11,1.84,2.11A3.37,3.37,0,0,0,220.86,26.79Z" transform="translate(0 0)"/><path class="cls-1" d="M231.79,20.43v8h-1.4L230,26.77h-.08a4.35,4.35,0,0,1-4,1.89c-2.13,0-3.71-1.1-3.71-3.49s1.8-3.64,5.65-3.75l2-.07v-.7c0-2-.9-2.62-2.43-2.62a7.79,7.79,0,0,0-3.32.9l-.59-1.44a8.79,8.79,0,0,1,4-1C230.43,16.48,231.79,17.68,231.79,20.43Zm-3.64,2.32c-2.94.11-3.89.95-3.89,2.44,0,1.32.88,1.91,2.15,1.91a3.14,3.14,0,0,0,3.47-3.36v-1Z" transform="translate(0 0)"/><path class="cls-1" d="M70.74,46.12c0-4,1.93-6.12,4.85-6.12a4.29,4.29,0,0,1,3.65,1.73h.13c-.05-.37-.13-1.29-.13-1.73v-4l1.93-.75V52H79.61l-.29-1.58h-.08a4.19,4.19,0,0,1-3.67,1.8C72.65,52.2,70.74,50.16,70.74,46.12Zm8.52.38v-.36c0-2.92-.79-4.54-3.41-4.54-2.08,0-3.11,1.78-3.11,4.57s1,4.43,3.14,4.43C78.36,50.6,79.26,49.24,79.26,46.5Z" transform="translate(0 0)"/><path class="cls-1" d="M88.54,52.2c-3.11,0-5.4-2.21-5.4-6.12S85.23,40,88.61,40C91.79,40,94,42.19,94,46.08S91.9,52.2,88.54,52.2Zm0-1.6C91,50.6,92,48.87,92,46.08S91,41.62,88.57,41.62s-3.43,1.67-3.43,4.46S86.2,50.6,88.59,50.6Z" transform="translate(0 0)"/><path class="cls-1" d="M106.35,52.2a10.45,10.45,0,0,1-4.3-.74l.61-1.63a10.08,10.08,0,0,0,3.78.66c2.32,0,3.53-1,3.53-2.52s-.86-2.2-3.69-3.23-4-2.22-4-4.65,2-4,5-4a10.43,10.43,0,0,1,4.32.88l-.63,1.69a9.73,9.73,0,0,0-3.74-.84c-2,0-3,.93-3,2.29,0,1.58.88,2.21,3.43,3.16,2.76,1,4.28,2.06,4.28,4.52C112,50.58,109.77,52.2,106.35,52.2Z" transform="translate(0 0)"/><path class="cls-1" d="M123.36,45.31v1.16h-8c.06,2.66,1.4,4.09,3.75,4.09a9.47,9.47,0,0,0,3.23-.57l.55,1.44a8.8,8.8,0,0,1-3.87.77c-3.36,0-5.66-2.08-5.66-6s2.08-6.19,5.2-6.19S123.36,42.1,123.36,45.31Zm-8-.37h6c0-2-.9-3.36-2.85-3.36S115.55,42.83,115.35,44.94Zm6.1-9.55a18.74,18.74,0,0,1-3.14,3.29H117v-.26a24.76,24.76,0,0,0,2.09-3.25h2.32Z" transform="translate(0 0)"/><path class="cls-1" d="M130.5,50.34l.52,1.38a4.46,4.46,0,0,1-2.15.48c-1.84,0-3.44-.79-3.44-3.64V38.24l1.93-.72v2.7h3.4v1.49h-3.4v6.81c0,1.42.77,2.1,1.84,2.1A3.63,3.63,0,0,0,130.5,50.34Z" transform="translate(0 0)"/><path class="cls-1" d="M135.31,37a1.14,1.14,0,1,1-1.12-1.23A1.1,1.1,0,0,1,135.31,37ZM135.13,52H133.2V40.22h1.93Z" transform="translate(0 0)"/><path class="cls-1" d="M155.22,44.32V52h-1.91V44.41c0-1.84-.77-2.79-2.4-2.79-2.28,0-3.18,1.36-3.18,3.87V52h-1.91V44.41c0-1.84-.77-2.79-2.41-2.79-2.37,0-3.14,1.52-3.14,4.26V52h-1.93V40.22h1.55l.29,1.6h.11A3.89,3.89,0,0,1,143.76,40c1.8,0,3,.63,3.6,2h.11a4.23,4.23,0,0,1,3.77-2C153.9,40,155.22,41.29,155.22,44.32Z" transform="translate(0 0)"/><path class="cls-1" d="M162.73,52.2c-3.12,0-5.4-2.21-5.4-6.12S159.41,40,162.79,40c3.19,0,5.42,2.19,5.42,6.08S166.08,52.2,162.73,52.2Zm0-1.6c2.37,0,3.45-1.73,3.45-4.52s-1.08-4.46-3.47-4.46-3.43,1.67-3.43,4.46S160.38,50.6,162.77,50.6Z" transform="translate(0 0)"/><path class="cls-1" d="M181.17,52H176.8V36.31h4.83c4.72,0,7.73,2.66,7.73,7.68C189.36,49.28,186.33,52,181.17,52Zm.17-14h-2.57V50.29h2.13c4.24,0,6.37-2.1,6.37-6.23S185.12,38,181.34,38Z" transform="translate(0 0)"/><path class="cls-1" d="M193.79,37a1.13,1.13,0,1,1-2.26,0,1.13,1.13,0,1,1,2.26,0ZM193.62,52h-1.94V40.22h1.94Z" transform="translate(0 0)"/><path class="cls-1" d="M205.14,44v8h-1.4l-.38-1.66h-.09a4.34,4.34,0,0,1-4,1.88c-2.13,0-3.71-1.09-3.71-3.49s1.8-3.64,5.65-3.75l2-.07v-.7c0-1.95-.9-2.61-2.43-2.61a7.79,7.79,0,0,0-3.32.9L196.91,41a8.79,8.79,0,0,1,4-1C203.78,40,205.14,41.23,205.14,44ZM201.5,46.3c-2.95.11-3.89.94-3.89,2.43,0,1.32.88,1.91,2.15,1.91a3.14,3.14,0,0,0,3.47-3.35V46.23Z" transform="translate(0 0)"/><path class="cls-1" d="M205.6,37a1.4,1.4,0,0,1,1.45-1.47A1.42,1.42,0,0,1,208.5,37a1.45,1.45,0,0,1-2.9,0Zm2.68,0a1.21,1.21,0,0,0-1.23-1.25A1.24,1.24,0,1,0,208.28,37Zm-1.78-.88H207c.44,0,.63.18.63.53a.47.47,0,0,1-.3.44l.46.77h-.35l-.4-.68h-.24v.68h-.31Zm.51.81a.29.29,0,0,0,.33-.28c0-.18-.11-.26-.33-.26h-.2v.54Z" transform="translate(0 0)"/><path class="cls-1" d="M34.57,30.18c-2.35,2.35-3.49,3.47-4.07,6.32-.05.21-.29.21-.29,0V33c0-2.24,2-4.29,4.37-6.66l1.91-1.91c2.67-2.68,3.32-5.78,1.19-7.62-.17-.15-.08-.34.15-.24,2.65,1.21,4.74,5.61.2,10.15Zm-4.37,9v3.52c0,.21.24.21.29,0,.59-2.85,1.72-4,4.07-6.34l3.72-3.72c4.55-4.54,5.34-8.95,3-11.77-.16-.19-.32-.08-.22.15,1.53,3.46-2.14,7.13-3.89,8.87l-2.63,2.63C32.2,34.87,30.2,36.92,30.2,39.15ZM20.11,27.85c-4.55,4.55-2.45,8.94.2,10.15.23.1.32-.09.15-.24-2.13-1.84-1.48-4.94,1.19-7.62l7.56-7.56c2.37-2.37,4.37-4.42,4.37-6.66V12.43c0-.21-.25-.21-.29,0-.59,2.85-1.72,4-4.07,6.32ZM33.59,9.78V6.27c0-.22-.25-.22-.29,0-.59,2.84-1.72,4-4.07,6.34L19.86,22c-4.55,4.55-5.34,9-3,11.78.16.19.32.07.22-.16-1.53-3.46,2.14-7.12,3.89-8.87l8.28-8.28C31.59,14.06,33.59,12,33.59,9.78Zm-14.72,7c-3.91,3.91-4.46,8.05-3.62,10.75.07.23.27.25.27,0,0-2.26.63-4.21,4.77-8.35l8.92-8.92c2.38-2.38,4.37-4.42,4.37-6.66V.16c0-.21-.24-.21-.29,0-.58,2.85-1.72,4-4.07,6.32Zm5.47,28.31A.14.14,0,0,1,24.2,45V43a.15.15,0,0,1,.14-.15h3.43a.14.14,0,0,0,.14-.14c0-1.82-1.38-3-6.88-2.1l-11.86,2s-9,9-9.11,9.13a.18.18,0,0,0,.16.31C.38,52.06,20,48.68,20,48.68c4.49-.76,6.94,1.38,7.68,3.38.06.18.27.15.27,0V45.29a.15.15,0,0,0-.14-.15ZM38.5,40.83l-3.92,3.93c-2.38,2.37-4.37,4.42-4.37,6.66V52c0,.17.21.2.28,0,.73-2,3.18-4.14,7.67-3.38,0,0,19.58,3.38,19.75,3.39a.18.18,0,0,0,.16-.31L49,42.63ZM42.89,27c-.07-.23-.27-.24-.27,0,0,2.26-.63,4.21-4.77,8.35l-3.27,3.27A23,23,0,0,0,31,42.83h3.23l.38-.38,4.7-4.7C43.18,33.84,43.73,29.7,42.89,27ZM30.21,48.77c0,.22.24.22.29,0a8.35,8.35,0,0,1,1.58-3.63H30.35a.14.14,0,0,0-.14.14Z" transform="translate(0 0)"/><path class="cls-1" d="M55.21,45.47A1.41,1.41,0,0,1,56.67,44a1.43,1.43,0,0,1,1.45,1.46,1.46,1.46,0,0,1-2.91,0Zm2.69,0a1.21,1.21,0,0,0-1.23-1.25,1.19,1.19,0,0,0-1.23,1.25,1.23,1.23,0,1,0,2.46,0Zm-1.77-.87h.5c.43,0,.63.17.63.51a.48.48,0,0,1-.31.46l.46.77h-.34l-.4-.69h-.24v.69h-.3Zm.49.8c.21,0,.33-.11.33-.28s-.1-.26-.33-.26h-.19v.54Z" transform="translate(0 0)"/></g><g id="Layer_3" data-name="Layer 3"><path class="cls-2" d="M76.7,70H73.11L72,72.78H70.87l3.55-9.1h1L79,72.78H77.79Zm-1.36-3.76c-.07-.21-.34-1-.43-1.36-.13.52-.29,1.07-.39,1.36l-1,2.74h2.87Z" transform="translate(0 0)"/><path class="cls-2" d="M82,72.91a6.06,6.06,0,0,1-2.49-.43l.36-.94a6,6,0,0,0,2.18.38c1.35,0,2-.56,2-1.46s-.5-1.27-2.14-1.87-2.33-1.28-2.33-2.69,1.18-2.31,2.89-2.31a6,6,0,0,1,2.5.51l-.37,1a5.52,5.52,0,0,0-2.15-.49c-1.13,0-1.72.54-1.72,1.32s.51,1.29,2,1.83,2.48,1.19,2.48,2.62C85.23,72,84,72.91,82,72.91Z" transform="translate(0 0)"/><path class="cls-2" d="M89,72.91a6,6,0,0,1-2.49-.43l.35-.94a6.07,6.07,0,0,0,2.19.38c1.34,0,2-.56,2-1.46s-.49-1.27-2.13-1.87-2.34-1.28-2.34-2.69,1.18-2.31,2.9-2.31a6,6,0,0,1,2.5.51l-.37,1a5.52,5.52,0,0,0-2.16-.49c-1.13,0-1.71.54-1.71,1.32s.51,1.29,2,1.83,2.47,1.19,2.47,2.62C92.19,72,90.94,72.91,89,72.91Z" transform="translate(0 0)"/><path class="cls-2" d="M97.63,72.91c-2.84,0-4.19-1.88-4.19-4.69s1.35-4.64,4.2-4.64,4.16,1.84,4.16,4.66S100.35,72.91,97.63,72.91Zm0-1c2.05,0,3-1.4,3-3.68s-.92-3.66-3-3.66-3,1.37-3,3.66S95.58,71.92,97.63,71.92Z" transform="translate(0 0)"/><path class="cls-2" d="M104.3,68.25c0,2.25,1,3.66,3.12,3.66a6.1,6.1,0,0,0,2.34-.46l.33.87a5.84,5.84,0,0,1-2.83.59c-2.78,0-4.17-1.82-4.17-4.67s1.55-4.65,4.36-4.65a5.39,5.39,0,0,1,2.42.49l-.38,1a4.81,4.81,0,0,0-2.06-.5C105.49,64.59,104.3,66,104.3,68.25Z" transform="translate(0 0)"/><path class="cls-2" d="M110.59,72.78l.38-1h.69v-7h-1.07v-1h3.28l-.38,1h-.69v7h1.07v1Z" transform="translate(0 0)"/><path class="cls-2" d="M120,70h-3.59l-1.08,2.8h-1.16l3.54-9.1h1l3.53,9.1h-1.18Zm-1.36-3.76c-.08-.21-.34-1-.43-1.36-.13.52-.29,1.07-.39,1.36l-1,2.74h2.87Z" transform="translate(0 0)"/><path class="cls-2" d="M127.74,74.55c0,.81-.64,1.28-1.88,1.28a2.49,2.49,0,0,1-.63-.07v-.69a4,4,0,0,0,.67.06c.61,0,.94-.14.94-.56s-.51-.61-1.16-.7l.5-1c-2.45-.2-3.67-2-3.67-4.64s1.55-4.65,4.35-4.65a5.44,5.44,0,0,1,2.43.49l-.38,1a4.85,4.85,0,0,0-2.06-.5c-1.94,0-3.14,1.39-3.14,3.66s1.05,3.66,3.13,3.66a6,6,0,0,0,2.33-.46l.33.87a5.56,5.56,0,0,1-2.6.59l-.27.54C127.24,73.59,127.74,73.9,127.74,74.55Z" transform="translate(0 0)"/><path class="cls-2" d="M135.33,70h-3.6l-1.07,2.8H129.5l3.54-9.1h1l3.53,9.1h-1.18ZM132.6,61.2c.75,0,1.39.73,1.93.73.39,0,.57-.24.7-.74h.63c-.1,1-.58,1.63-1.38,1.63s-1.37-.73-1.93-.73-.59.24-.7.74h-.65C131.3,61.83,131.8,61.2,132.6,61.2Zm1.37,5c-.08-.21-.34-1-.43-1.36-.13.52-.29,1.07-.4,1.36l-1,2.74H135Z" transform="translate(0 0)"/><path class="cls-2" d="M142.06,72.91c-2.83,0-4.18-1.88-4.18-4.69s1.35-4.64,4.2-4.64,4.16,1.84,4.16,4.66S144.79,72.91,142.06,72.91Zm0-1c2.06,0,3-1.4,3-3.68s-.92-3.66-3-3.66-3,1.37-3,3.66S140,71.92,142.06,71.92Z" transform="translate(0 0)"/><path class="cls-2" d="M153.07,72.91a6,6,0,0,1-2.49-.43l.35-.94a6.07,6.07,0,0,0,2.19.38c1.34,0,2-.56,2-1.46s-.49-1.27-2.13-1.87-2.34-1.28-2.34-2.69,1.18-2.31,2.9-2.31a6,6,0,0,1,2.5.51l-.37,1a5.57,5.57,0,0,0-2.16-.49c-1.13,0-1.71.54-1.71,1.32s.5,1.29,2,1.83,2.47,1.19,2.47,2.62C156.3,72,155.05,72.91,153.07,72.91Z" transform="translate(0 0)"/><path class="cls-2" d="M164.9,69.58c0,1.88-1.13,3.33-3.53,3.33a3.12,3.12,0,0,1-3.46-3.35V63.72h1.15v5.87a2.36,2.36,0,0,0,4.71,0V63.72h1.13Z" transform="translate(0 0)"/><path class="cls-2" d="M167,63.72h1.15v8h4.17l-.38,1H167Z" transform="translate(0 0)"/><path class="cls-2" d="M77.91,81.52A2.44,2.44,0,0,1,76.09,84L78.58,88H77.25l-2.2-3.75h-1.8V88H72.1V78.94h2.51C76.85,78.94,77.91,79.8,77.91,81.52Zm-4.66-1.58V83.3h1.36c1.47,0,2.12-.58,2.12-1.73s-.7-1.63-2.19-1.63Z" transform="translate(0 0)"/><path class="cls-2" d="M79,88l.38-1h.69V80H79v-1H82.3l-.39,1h-.68v7H82.3v1Z" transform="translate(0 0)"/><path class="cls-2" d="M87.52,88.14c-2.83,0-4.19-1.88-4.19-4.69s1.36-4.64,4.21-4.64,4.16,1.84,4.16,4.65S90.25,88.14,87.52,88.14Zm0-1c2.06,0,3-1.4,3-3.69s-.91-3.65-2.95-3.65-3,1.37-3,3.65S85.48,87.15,87.52,87.15Z" transform="translate(0 0)"/><path class="cls-2" d="M92.53,82.85h3.08l.38,1H92.92Z" transform="translate(0 0)"/><path class="cls-2" d="M104.35,83.22v4.45a10,10,0,0,1-3.18.47c-2.82,0-4.35-1.79-4.35-4.66a4.33,4.33,0,0,1,4.7-4.66,6.84,6.84,0,0,1,2.7.53l-.38,1a6.22,6.22,0,0,0-2.38-.53c-2.17,0-3.44,1.4-3.44,3.66s1,3.67,3.41,3.67a7,7,0,0,0,1.78-.22V84.24h-2l.38-1Z" transform="translate(0 0)"/><path class="cls-2" d="M112.07,81.52A2.43,2.43,0,0,1,110.25,84L112.74,88h-1.33l-2.2-3.75h-1.8V88h-1.15V78.94h2.51C111,78.94,112.07,79.8,112.07,81.52Zm-4.66-1.58V83.3h1.36c1.47,0,2.12-.58,2.12-1.73s-.7-1.63-2.19-1.63Z" transform="translate(0 0)"/><path class="cls-2" d="M118.5,85.2h-3.59L113.83,88h-1.16l3.54-9.1h1l3.53,9.1h-1.18Zm-1.36-3.75c-.08-.21-.34-1-.43-1.36-.13.52-.29,1.06-.39,1.36l-1,2.74h2.87Z" transform="translate(0 0)"/><path class="cls-2" d="M127.61,88l-4.85-7.53h-.05c0,.6.1,1.54.1,2.46V88h-1V78.94h1.32l4.84,7.51h0c0-.41-.09-1.56-.09-2.39V78.94h1.06V88Z" transform="translate(0 0)"/><path class="cls-2" d="M133.68,88h-2.53V78.94h2.79c2.73,0,4.47,1.54,4.47,4.45C138.41,86.45,136.66,88,133.68,88Zm.1-8.09h-1.49V87h1.23c2.45,0,3.69-1.22,3.69-3.6S136,79.92,133.78,79.92Z" transform="translate(0 0)"/><path class="cls-2" d="M140.16,88V78.94h5.06v1H141.3v2.83h3.4v1h-3.4V87h4.2l-.38,1Z" transform="translate(0 0)"/><path class="cls-2" d="M152.81,88,148,80.48h-.05c0,.6.1,1.54.1,2.46V88h-1V78.94h1.32l4.84,7.51h0c0-.41-.09-1.56-.09-2.39V78.94h1.07V88Z" transform="translate(0 0)"/><path class="cls-2" d="M158.38,88.14a6.07,6.07,0,0,1-2.49-.44l.36-.93a6,6,0,0,0,2.18.38c1.35,0,2-.56,2-1.46s-.5-1.27-2.14-1.87S156,82.54,156,81.13s1.18-2.31,2.89-2.31a6,6,0,0,1,2.5.51l-.36,1a5.75,5.75,0,0,0-2.16-.48c-1.13,0-1.72.53-1.72,1.32s.51,1.28,2,1.83,2.48,1.19,2.48,2.61C161.62,87.2,160.36,88.14,158.38,88.14Z" transform="translate(0 0)"/><path class="cls-2" d="M163.32,88V78.94h5.06v1h-3.92v2.83h3.4v1h-3.4V87h4.2l-.38,1Z" transform="translate(0 0)"/></g></svg>