<svg width="231" height="52" viewBox="0 0 231 52" fill="none" xmlns="http://www.w3.org/2000/svg">
<path d="M70.6075 28.2924L71.2639 26.5445H72.4459V14.4237H70.6075V12.6979H76.2516L75.5952 14.4237H74.4142V26.5455H76.2516V28.2934L70.6075 28.2924Z" fill="#303336"/>
<path d="M77.1487 30.28C77.1487 28.7727 78.0017 27.8102 79.7079 27.3925C79.3922 27.2544 79.1253 27.0245 78.9419 26.7327C78.7586 26.4408 78.6674 26.1006 78.68 25.7562C78.7094 25.3175 78.8572 24.895 79.1075 24.5335C79.3578 24.172 79.7013 23.8851 80.1016 23.7032C79.4753 23.4149 78.9481 22.948 78.5861 22.3612C78.2241 21.7744 78.0435 21.0938 78.0669 20.4047C78.0669 17.6741 79.7734 16.3622 82.4424 16.3622C82.983 16.3489 83.5221 16.4227 84.0392 16.5807H88.0866L87.5177 18.0658H85.9864C86.4635 18.7252 86.7095 19.5237 86.6861 20.3373C86.6861 22.7619 84.9142 24.0911 82.376 24.0911C82.0683 24.0979 81.7605 24.0759 81.4568 24.0256C81.1632 24.1382 80.907 24.331 80.7174 24.582C80.5279 24.8329 80.4126 25.1321 80.3846 25.4453C80.3846 26.0353 80.9756 26.3404 82.1171 26.3404H84.1076C86.4705 26.3404 87.9364 27.4108 87.9364 29.5071C87.9364 32.1934 85.9238 33.5255 81.8977 33.5255C79.1613 33.5342 77.1487 32.5948 77.1487 30.28ZM86.0999 29.69C86.1315 29.4514 86.0997 29.2086 86.0076 28.9863C85.9155 28.7639 85.7664 28.5697 85.5754 28.4233C84.9047 28.1505 84.1796 28.0384 83.4579 28.0961H81.4453C79.809 28.0961 78.9948 28.7948 78.9948 30.2136C78.9948 31.4369 79.9573 32.0702 81.8823 32.0702C84.6966 32.0712 86.0999 31.2848 86.0999 29.69V29.69ZM84.7871 20.32C84.7871 18.6164 83.9776 17.7645 82.3809 17.7645C80.7841 17.7645 79.9746 18.6385 79.9746 20.3421C79.9775 20.9803 80.2339 21.5912 80.6872 22.0404C81.1405 22.4896 81.7537 22.7402 82.3919 22.7373C83.0301 22.7344 83.641 22.4781 84.0901 22.0247C84.5393 21.5714 84.79 20.9582 84.7871 20.32V20.32Z" fill="#303336"/>
<path d="M96.7963 16.4979L96.5556 18.267C96.1393 18.1717 95.7141 18.1204 95.2871 18.1139C93.4708 18.1139 91.874 19.6867 91.874 22.0458V28.2924H89.949V16.5874H91.5246L91.7431 18.728H91.8307C92.1621 18.049 92.67 17.4717 93.3014 17.0566C93.9327 16.6415 94.6641 16.404 95.4189 16.3689C95.8811 16.3665 96.3425 16.4097 96.7963 16.4979V16.4979Z" fill="#303336"/>
<path d="M107.035 21.6531V22.8081H99.0062C99.0716 25.4511 100.407 26.8708 102.747 26.8708C103.844 26.8714 104.933 26.6791 105.963 26.3029L106.51 27.7467C105.301 28.2887 103.984 28.55 102.66 28.5109C99.3122 28.5109 97.0157 26.4357 97.0157 22.5261C97.0157 18.6818 99.0937 16.366 102.201 16.366C105.197 16.367 107.035 18.4643 107.035 21.6531ZM99.0466 21.2815H105.019C104.997 19.294 104.122 17.9397 102.175 17.9397C100.341 17.9349 99.2468 19.1862 99.0495 21.2815H99.0466Z" fill="#303336"/>
<path d="M107.67 31.9403C108.921 31.3724 109.201 30.5428 109.201 28.4676V16.5855H111.126V28.5764C111.126 30.87 110.514 32.6824 108.282 33.5342L107.67 31.9403ZM110.187 12.1955C110.344 12.1902 110.501 12.2192 110.646 12.2803C110.791 12.3415 110.921 12.4334 111.027 12.5497C111.133 12.666 111.212 12.8039 111.26 12.954C111.307 13.1041 111.322 13.2627 111.302 13.4189C111.316 13.5751 111.297 13.7325 111.247 13.8811C111.196 14.0296 111.115 14.166 111.009 14.2817C110.904 14.3973 110.775 14.4897 110.631 14.5529C110.488 14.6161 110.332 14.6487 110.175 14.6487C110.019 14.6487 109.864 14.6161 109.72 14.5529C109.576 14.4897 109.448 14.3973 109.342 14.2817C109.236 14.166 109.155 14.0296 109.105 13.8811C109.054 13.7325 109.035 13.5751 109.049 13.4189C109.028 13.2606 109.042 13.0996 109.09 12.9474C109.139 12.7952 109.22 12.6556 109.329 12.5386C109.438 12.4217 109.571 12.3303 109.719 12.271C109.868 12.2116 110.027 12.1859 110.187 12.1955V12.1955Z" fill="#303336"/>
<path d="M122.612 20.321V28.2934H121.212L120.841 26.633H120.753C120.321 27.2664 119.73 27.774 119.038 28.1039C118.346 28.4338 117.579 28.5743 116.815 28.5109C114.698 28.5109 113.118 27.4194 113.118 25.0382C113.118 22.7012 114.913 21.4124 118.74 21.3037L120.731 21.2382V20.5394C120.731 18.5952 119.834 17.9407 118.302 17.9407C117.148 17.9884 116.019 18.2942 114.999 18.8358L114.408 17.3921C115.644 16.7441 117.017 16.3997 118.412 16.3872C121.256 16.3891 122.612 17.5903 122.612 20.321ZM118.981 22.6368C116.049 22.7455 115.109 23.5761 115.109 25.0613C115.109 26.3722 115.984 26.9613 117.252 26.9613C117.708 27.0106 118.17 26.9591 118.604 26.8103C119.038 26.6615 119.434 26.4191 119.764 26.1002C120.094 25.7813 120.349 25.3938 120.513 24.9651C120.676 24.5364 120.743 24.077 120.71 23.6195V22.5703L118.981 22.6368Z" fill="#303336"/>
<path d="M139.24 23.4654H133.048L131.186 28.2895H129.195L135.299 12.6296H137.071L143.153 28.2895H141.119L139.24 23.4654ZM136.899 17.0003C136.768 16.6509 136.308 15.2091 136.155 14.6634C135.936 15.5585 135.652 16.4979 135.481 17.0003L133.709 21.7166H138.654L136.899 17.0003Z" fill="#303336"/>
<path d="M143.533 22.4606C143.533 18.4421 145.457 16.367 148.367 16.367C149.068 16.3312 149.767 16.4702 150.401 16.7714C151.035 17.0727 151.584 17.5267 151.999 18.0928H152.13C152.085 17.7212 151.999 16.804 151.999 16.367V12.4352L153.924 11.6931V28.2924H152.37L152.081 26.7197H151.994C151.589 27.3069 151.04 27.78 150.399 28.0937C149.759 28.4074 149.048 28.5511 148.336 28.5109C145.432 28.5109 143.533 26.48 143.533 22.4606ZM152.021 22.8321V22.4827C152.021 19.5779 151.234 17.959 148.63 17.959C146.552 17.959 145.523 19.728 145.523 22.502C145.523 25.2932 146.551 26.9141 148.651 26.9141C151.12 26.9141 152.02 25.5666 152.02 22.8321H152.021Z" fill="#303336"/>
<path d="M155.519 16.5855H157.575L160.069 23.4876C160.449 24.4999 160.764 25.5358 161.01 26.5888H161.097C161.25 25.8679 161.754 24.426 162.082 23.4876L164.576 16.5855H166.633L162.169 28.2924H159.956L155.519 16.5855Z" fill="#303336"/>
<path d="M177.353 21.6531V22.8081H169.324C169.389 25.4511 170.724 26.8708 173.065 26.8708C174.162 26.8714 175.25 26.6792 176.281 26.3029L176.827 27.7467C175.618 28.2887 174.302 28.55 172.977 28.5109C169.63 28.5109 167.333 26.4357 167.333 22.5261C167.333 18.6818 169.411 16.366 172.518 16.366C175.516 16.367 177.353 18.4643 177.353 21.6531ZM169.364 21.2815H175.332C175.31 19.294 174.435 17.9397 172.487 17.9397C170.659 17.9349 169.56 19.1862 169.363 21.2815H169.364Z" fill="#303336"/>
<path d="M189.321 20.6694V28.2924H187.418V20.8013C187.418 18.9234 186.586 17.984 184.792 17.984C182.193 17.984 181.357 19.4913 181.357 22.219V28.2914H179.432V16.5874H180.986L181.274 18.1813H181.384C181.797 17.5911 182.352 17.1153 182.999 16.7983C183.645 16.4814 184.362 16.3336 185.081 16.3689C187.877 16.367 189.321 17.6558 189.321 20.6694Z" fill="#303336"/>
<path d="M197.155 26.6542L197.68 28.0306C197.017 28.3682 196.28 28.5337 195.536 28.5119C193.698 28.5119 192.1 27.7255 192.1 24.8861V14.6201L194.025 13.8991V16.5855H197.416V18.0706H194.025V24.8409C194.025 26.2606 194.795 26.9382 195.864 26.9382C196.308 26.9258 196.746 26.8295 197.155 26.6542V26.6542Z" fill="#303336"/>
<path d="M201.945 13.4189C201.924 13.6642 201.823 13.896 201.658 14.079C201.494 14.262 201.274 14.3862 201.032 14.4327C200.79 14.4792 200.54 14.4456 200.319 14.3368C200.098 14.2281 199.918 14.0501 199.808 13.8301C199.697 13.6101 199.661 13.36 199.706 13.1178C199.75 12.8756 199.873 12.6545 200.054 12.4882C200.236 12.3218 200.467 12.2193 200.712 12.1962C200.957 12.1731 201.203 12.2306 201.413 12.3601C201.591 12.4701 201.735 12.6273 201.828 12.8142C201.922 13.0011 201.963 13.2104 201.945 13.4189V13.4189ZM201.77 28.2924H199.845V16.5855H201.77V28.2924Z" fill="#303336"/>
<path d="M208.006 28.5109C206.738 28.5755 205.474 28.3203 204.33 27.7688L204.899 26.2837C205.899 26.6996 206.967 26.928 208.049 26.9574C209.996 26.9574 210.828 26.2837 210.828 25.2317C210.828 24.3577 210.237 23.8341 207.94 22.9601C205.665 22.0862 204.309 21.3874 204.309 19.4653C204.309 17.4777 206.081 16.3641 208.706 16.3641C209.995 16.3597 211.27 16.6276 212.448 17.1504L211.857 18.7011C210.826 18.2273 209.71 17.9674 208.576 17.9368C207 17.9368 206.147 18.4826 206.147 19.3565C206.147 20.3392 206.917 20.7329 209.167 21.5847C211.399 22.4144 212.689 23.1796 212.689 25.0574C212.687 27.3318 210.871 28.5109 208.006 28.5109Z" fill="#303336"/>
<path d="M220.105 26.6542L220.631 28.0306C219.968 28.3682 219.23 28.5337 218.487 28.5119C216.649 28.5119 215.052 27.7255 215.052 24.8861V14.6201L216.977 13.8991V16.5855H220.368V18.0706H216.977V24.8409C216.977 26.2606 217.747 26.9382 218.816 26.9382C219.26 26.9256 219.697 26.8293 220.105 26.6542Z" fill="#303336"/>
<path d="M231 20.321V28.2934H229.6L229.228 26.633H229.14C228.709 27.2666 228.117 27.7743 227.425 28.1042C226.733 28.4341 225.966 28.5744 225.202 28.5109C223.084 28.5109 221.505 27.4194 221.505 25.0382C221.505 22.7012 223.299 21.4124 227.128 21.3037L229.118 21.2382V20.5394C229.118 18.5952 228.221 17.9407 226.69 17.9407C225.536 17.9883 224.407 18.2942 223.387 18.8358L222.796 17.3921C224.032 16.7441 225.404 16.3997 226.8 16.3872C229.644 16.3891 231 17.5903 231 20.321ZM227.369 22.6368C224.437 22.7455 223.496 23.5761 223.496 25.0613C223.496 26.3722 224.371 26.9613 225.64 26.9613C226.096 27.0105 226.557 26.9588 226.991 26.81C227.425 26.6611 227.821 26.4187 228.151 26.0998C228.48 25.781 228.736 25.3935 228.899 24.9649C229.063 24.5363 229.13 24.0769 229.096 23.6195V22.5703L227.369 22.6368Z" fill="#303336"/>
<path d="M70.4978 45.8841C70.4978 41.8656 72.4228 39.7905 75.3324 39.7905C76.0333 39.7551 76.732 39.8943 77.3658 40.1955C77.9996 40.4967 78.5487 40.9505 78.9639 41.5162H79.0949C79.0515 41.1447 78.9639 40.2275 78.9639 39.7905V35.8606L80.8889 35.1175V51.7168H79.3364L79.0477 50.1441H78.9601C78.5553 50.7313 78.0062 51.2045 77.3657 51.5182C76.7251 51.8319 76.0147 51.9755 75.3026 51.9353C72.4006 51.9344 70.4978 49.9035 70.4978 45.8841ZM78.9861 46.2556V45.9062C78.9861 43.0014 78.1987 41.3824 75.5952 41.3824C73.5171 41.3824 72.4882 43.1515 72.4882 45.9254C72.4882 48.7167 73.5162 50.3376 75.6164 50.3376C78.089 50.3376 78.9899 48.9901 78.9899 46.2556H78.9861Z" fill="#303336"/>
<path d="M88.2415 51.9344C85.1345 51.9344 82.8592 49.7283 82.8592 45.8408C82.8592 41.9744 84.9372 39.7905 88.3069 39.7905C91.4832 39.7905 93.7114 41.9744 93.7114 45.8408C93.7114 49.7283 91.5881 51.9344 88.2415 51.9344ZM88.2858 50.3395C90.6487 50.3395 91.72 48.6137 91.72 45.8408C91.72 43.0678 90.6478 41.4065 88.2636 41.4065C85.8795 41.4065 84.8506 43.0668 84.8506 45.8408C84.8506 48.6147 85.9027 50.3395 88.2848 50.3395H88.2858Z" fill="#303336"/>
<path d="M105.985 51.9344C104.52 51.9914 103.059 51.7385 101.697 51.1923L102.309 49.5763C103.511 50.0322 104.788 50.2546 106.073 50.2317C108.392 50.2317 109.596 49.2692 109.596 47.7205C109.596 46.1911 108.743 45.5366 105.92 44.5096C103.251 43.5471 101.895 42.3036 101.895 39.879C101.895 37.4112 103.929 35.9039 106.882 35.9039C108.365 35.8874 109.833 36.1849 111.192 36.7769L110.558 38.4584C109.386 37.9379 108.121 37.6559 106.839 37.6287C104.892 37.6287 103.885 38.5459 103.885 39.9002C103.885 41.4729 104.76 42.1062 107.298 43.0456C110.055 44.0726 111.564 45.0987 111.564 47.5454C111.564 50.3184 109.398 51.9344 105.985 51.9344Z" fill="#303336"/>
<path d="M122.942 45.0765V46.2316H114.912C114.978 48.8746 116.313 50.2943 118.654 50.2943C119.751 50.2948 120.839 50.1026 121.869 49.7264L122.416 51.1701C121.207 51.7122 119.891 51.9734 118.566 51.9344C115.219 51.9344 112.922 49.8593 112.922 45.9496C112.922 42.1053 115.001 39.7895 118.107 39.7895C121.103 39.7905 122.942 41.8878 122.942 45.0765ZM114.953 44.705H120.925C120.903 42.7175 120.028 41.3632 118.081 41.3632C116.246 41.3632 115.15 42.6087 114.958 44.705H114.953ZM121.035 35.2042C120.127 36.4167 119.077 37.5154 117.907 38.4767H116.638V38.2149C117.416 37.1944 118.111 36.1132 118.716 34.9818H121.036L121.035 35.2042Z" fill="#303336"/>
<path d="M130.052 50.0777L130.577 51.4541C129.914 51.7918 129.177 51.9573 128.433 51.9354C126.595 51.9354 124.999 51.149 124.999 48.3096V38.0435L126.924 37.3226V40.0089H130.314V41.4941H126.924V48.2644C126.924 49.684 127.694 50.3617 128.762 50.3617C129.206 50.3476 129.644 50.2496 130.052 50.0729V50.0777Z" fill="#303336"/>
<path d="M134.843 36.8423C134.822 37.0876 134.722 37.3195 134.557 37.5025C134.392 37.6856 134.172 37.8099 133.931 37.8566C133.689 37.9033 133.438 37.8698 133.217 37.7611C132.996 37.6525 132.817 37.4748 132.706 37.2549C132.595 37.0349 132.559 36.7849 132.604 36.5427C132.648 36.3005 132.77 36.0793 132.952 35.9128C133.133 35.7463 133.364 35.6436 133.609 35.6203C133.854 35.597 134.1 35.6543 134.31 35.7836C134.488 35.8934 134.632 36.0505 134.726 36.2374C134.82 36.4244 134.861 36.6338 134.843 36.8423V36.8423ZM134.668 51.7159H132.743V40.009H134.668V51.7159Z" fill="#303336"/>
<path d="M154.687 44.0929V51.7159H152.783V44.1804C152.783 42.3459 152.013 41.4065 150.398 41.4065C148.123 41.4065 147.222 42.7608 147.222 45.2507V51.7159H145.318V44.1804C145.318 42.3459 144.548 41.4065 142.912 41.4065C140.549 41.4065 139.783 42.9138 139.783 45.6415V51.713H137.858V40.009H139.411L139.7 41.6038H139.81C140.175 41.0243 140.687 40.5515 141.294 40.2333C141.901 39.915 142.581 39.7626 143.266 39.7914C145.06 39.7914 146.285 40.4248 146.854 41.7569H146.964C147.362 41.1264 147.92 40.6125 148.58 40.2673C149.241 39.9221 149.981 39.7579 150.726 39.7914C153.374 39.7905 154.687 41.0793 154.687 44.0929Z" fill="#303336"/>
<path d="M162.17 51.9344C159.064 51.9344 156.788 49.7283 156.788 45.8408C156.788 41.9744 158.867 39.7905 162.236 39.7905C165.412 39.7905 167.64 41.9744 167.64 45.8408C167.64 49.7283 165.516 51.9344 162.17 51.9344ZM162.215 50.3395C164.578 50.3395 165.649 48.6137 165.649 45.8408C165.649 43.0678 164.577 41.4065 162.193 41.4065C159.808 41.4065 158.78 43.0668 158.78 45.8408C158.78 48.6147 159.83 50.3395 162.215 50.3395Z" fill="#303336"/>
<path d="M180.548 51.7159H176.194V36.1233H181.007C185.71 36.1233 188.707 38.7664 188.707 43.7676C188.709 49.0296 185.687 51.7159 180.548 51.7159ZM180.723 37.8029H178.163V50.0344H180.281C184.503 50.0344 186.626 47.9381 186.626 43.8311C186.63 39.6817 184.486 37.8029 180.723 37.8029Z" fill="#303336"/>
<path d="M193.128 36.8423C193.108 37.0876 193.007 37.3195 192.842 37.5025C192.678 37.6856 192.458 37.8099 192.216 37.8566C191.974 37.9033 191.724 37.8698 191.503 37.7611C191.282 37.6525 191.102 37.4748 190.991 37.2549C190.881 37.0349 190.845 36.7849 190.889 36.5427C190.933 36.3005 191.056 36.0793 191.237 35.9128C191.418 35.7463 191.649 35.6436 191.894 35.6203C192.14 35.597 192.386 35.6543 192.595 35.7836C192.773 35.8934 192.918 36.0505 193.012 36.2374C193.106 36.4244 193.146 36.6338 193.128 36.8423V36.8423ZM192.953 51.7159H191.028V40.009H192.953V51.7159Z" fill="#303336"/>
<path d="M204.44 43.7444V51.7169H203.039L202.668 50.0575H202.58C202.149 50.6909 201.557 51.1985 200.865 51.5284C200.173 51.8583 199.406 51.9987 198.643 51.9354C196.525 51.9354 194.946 50.8429 194.946 48.4626C194.946 46.1257 196.74 44.8369 200.569 44.7281L202.559 44.6627V43.9639C202.559 42.0196 201.662 41.3652 200.131 41.3652C198.976 41.4129 197.848 41.7188 196.827 42.2603L196.236 40.8165C197.472 40.1688 198.845 39.8244 200.24 39.8117C203.085 39.8126 204.44 41.0138 204.44 43.7444ZM200.808 46.0592C197.876 46.168 196.935 46.9987 196.935 48.4838C196.935 49.7938 197.81 50.3838 199.08 50.3838C199.536 50.4332 199.997 50.3816 200.431 50.2328C200.865 50.084 201.261 49.8416 201.591 49.5228C201.921 49.2039 202.177 48.8164 202.34 48.3877C202.504 47.959 202.571 47.4996 202.537 47.042V45.9938L200.808 46.0592Z" fill="#303336"/>
<path d="M204.9 36.798C204.89 36.605 204.921 36.4121 204.99 36.2315C205.059 36.051 205.164 35.8867 205.3 35.7492C205.436 35.6116 205.599 35.5038 205.778 35.4325C205.958 35.3612 206.15 35.328 206.344 35.3351C206.536 35.3317 206.727 35.3674 206.904 35.44C207.082 35.5126 207.244 35.6205 207.379 35.7573C207.514 35.8941 207.62 36.0569 207.69 36.2358C207.76 36.4147 207.793 36.6059 207.787 36.798C207.787 37.1809 207.635 37.5482 207.364 37.8189C207.094 38.0897 206.726 38.2418 206.344 38.2418C205.961 38.2418 205.593 38.0897 205.323 37.8189C205.052 37.5482 204.9 37.1809 204.9 36.798V36.798ZM207.569 36.798C207.573 36.6351 207.544 36.4729 207.485 36.3212C207.425 36.1696 207.335 36.0315 207.221 35.9154C207.106 35.7992 206.97 35.7073 206.819 35.6451C206.668 35.583 206.507 35.5518 206.344 35.5535C206.1 35.5518 205.861 35.6225 205.657 35.7566C205.453 35.8906 205.293 36.0821 205.198 36.3068C205.103 36.5315 205.077 36.7793 205.123 37.019C205.169 37.2586 205.284 37.4793 205.456 37.6531C205.627 37.827 205.846 37.9462 206.084 37.9957C206.323 38.0452 206.572 38.0228 206.798 37.9312C207.024 37.8397 207.218 37.6832 207.355 37.4815C207.492 37.2798 207.567 37.042 207.569 36.798V36.798ZM205.797 35.9241H206.3C206.737 35.9241 206.935 36.0993 206.935 36.4487C206.935 36.5442 206.906 36.6376 206.851 36.7159C206.796 36.7942 206.718 36.8535 206.628 36.8856L207.088 37.6499H206.737L206.344 36.9761H206.103V37.6499H205.797V35.9241ZM206.3 36.7326C206.341 36.7382 206.382 36.7351 206.422 36.7234C206.461 36.7118 206.498 36.6918 206.529 36.6649C206.56 36.638 206.585 36.6049 206.602 36.5676C206.619 36.5303 206.628 36.4897 206.628 36.4487C206.628 36.2741 206.519 36.1868 206.3 36.1868H206.108V36.7326H206.3Z" fill="#303336"/>
<path d="M34.451 30.0249C32.1093 32.3629 30.9764 33.4765 30.3912 36.3101C30.3479 36.5218 30.1024 36.5218 30.1024 36.3101V32.8374C30.1024 30.6111 32.09 28.5754 34.4568 26.2125L36.3635 24.3154C39.0297 21.654 39.6736 18.5692 37.5532 16.7356C37.3761 16.5826 37.4685 16.394 37.6995 16.4998C40.3435 17.703 42.4273 22.0727 37.892 26.5984L34.451 30.0249ZM30.0957 38.9502V42.446C30.0957 42.6568 30.3383 42.6578 30.3845 42.446C30.9697 39.6124 32.1016 38.4767 34.4433 36.1387L38.1528 32.4427C42.6853 27.919 43.4697 23.5386 41.1645 20.7243C41.0105 20.5318 40.8459 20.6492 40.946 20.8754C42.4696 24.3182 38.815 27.9681 37.0758 29.7054L34.453 32.3244C32.0843 34.6883 30.0976 36.7239 30.0976 38.9512L30.0957 38.9502ZM20.0424 27.7024C15.5099 32.2262 17.5938 36.5979 20.2349 37.801C20.4668 37.9069 20.5592 37.7182 20.3811 37.5652C18.2636 35.7364 18.9047 32.6477 21.5708 29.9855L29.1043 22.4645C31.4711 20.1015 33.4587 18.0658 33.4587 15.8396V12.3668C33.4587 12.156 33.2161 12.1551 33.1699 12.3668C32.5847 15.2004 31.4519 16.3131 29.1101 18.652L20.0424 27.7024ZM33.4712 9.72668V6.23088C33.4712 6.01913 33.2287 6.01913 33.1825 6.23088C32.5973 9.06449 31.4653 10.2003 29.1236 12.5382L19.7873 21.8542C15.2549 26.378 14.4704 30.7584 16.7766 33.5727C16.9306 33.7652 17.0952 33.6478 16.9951 33.4216C15.4714 29.9797 19.1261 26.3289 20.8653 24.5926L29.1178 16.3535C31.4846 13.9896 33.4722 11.9539 33.4722 9.72668H33.4712ZM18.8036 16.7433C14.9055 20.6347 14.3617 24.7523 15.1942 27.4368C15.2655 27.6649 15.4628 27.6803 15.4608 27.4368C15.4416 25.1807 16.0913 23.2412 20.2166 19.1236L29.1092 10.2484C31.4759 7.88543 33.4635 5.84974 33.4635 3.62347V0.158452C33.4635 -0.0523359 33.221 -0.0532984 33.1748 0.158452C32.5896 2.99206 31.4548 4.1105 29.113 6.44842L18.8036 16.7433ZM24.2543 44.911C24.2165 44.911 24.1803 44.896 24.1536 44.8693C24.1268 44.8426 24.1118 44.8063 24.1118 44.7686V42.7531C24.1118 42.7153 24.1268 42.6791 24.1536 42.6524C24.1803 42.6256 24.2165 42.6106 24.2543 42.6106H27.6692C27.707 42.6106 27.7433 42.5956 27.77 42.5689C27.7967 42.5422 27.8117 42.5059 27.8117 42.4682C27.803 40.6577 26.4353 39.4276 20.9596 40.3795L9.1372 42.4104C9.1372 42.4104 0.13104 51.4012 0.0569273 51.4888C0.028209 51.5164 0.00915044 51.5525 0.0025574 51.5919C-0.00403564 51.6312 0.00219989 51.6716 0.0203282 51.7071C0.0384566 51.7426 0.0675081 51.7713 0.10322 51.789C0.138931 51.8067 0.179394 51.8125 0.218627 51.8054C0.382253 51.791 19.8922 48.4251 19.8922 48.4251C24.3707 47.6715 26.8116 49.7986 27.5422 51.7939C27.6067 51.97 27.8165 51.944 27.8165 51.7756V45.0544C27.8165 45.0358 27.8128 45.0173 27.8056 45C27.7985 44.9828 27.788 44.9672 27.7747 44.954C27.7615 44.9409 27.7458 44.9305 27.7285 44.9234C27.7112 44.9164 27.6927 44.9128 27.6741 44.9129L24.2543 44.911ZM38.3684 40.6221L34.4597 44.5279C32.0929 46.8909 30.1053 48.9266 30.1053 51.1528V51.7727C30.1053 51.9411 30.3151 51.9652 30.3796 51.791C31.1102 49.7976 33.5559 47.6705 38.0306 48.4222C38.0306 48.4222 57.5405 51.791 57.7042 51.8025C57.7434 51.8096 57.7838 51.8038 57.8196 51.7861C57.8553 51.7684 57.8844 51.7397 57.9025 51.7042C57.9206 51.6687 57.9268 51.6283 57.9202 51.589C57.9136 51.5497 57.8946 51.5135 57.8659 51.4859C57.7917 51.3983 48.7856 42.4075 48.7856 42.4075L38.3684 40.6221ZM42.743 26.8583C42.6727 26.6302 42.4745 26.6148 42.4764 26.8583C42.4957 29.1144 41.846 31.0538 37.7207 35.1714L34.4578 38.4257C33.0905 39.6716 31.8786 41.078 30.8484 42.6145H34.066L34.451 42.2295L39.1317 37.5517C43.0279 33.6632 43.5717 29.5466 42.7391 26.8612L42.743 26.8583ZM30.1044 48.5146C30.1044 48.7264 30.3469 48.7264 30.3931 48.5146C30.6233 47.2025 31.1642 45.9646 31.9707 44.9043H30.2497C30.2121 44.9043 30.176 44.9191 30.1493 44.9456C30.1226 44.9722 30.1075 45.0081 30.1073 45.0458L30.1044 48.5146Z" fill="#303336"/>
<path d="M55.0246 45.2334C55.0184 45.0416 55.0516 44.8507 55.1224 44.6723C55.1931 44.494 55.2998 44.332 55.4357 44.1966C55.5717 44.0612 55.734 43.9552 55.9126 43.8852C56.0913 43.8152 56.2823 43.7827 56.4741 43.7896C56.6649 43.786 56.8546 43.8208 57.0318 43.892C57.2089 43.9632 57.3699 44.0693 57.5051 44.204C57.6404 44.3388 57.7471 44.4993 57.819 44.6762C57.8909 44.853 57.9265 45.0425 57.9236 45.2334C57.9236 45.6178 57.7709 45.9866 57.4991 46.2584C57.2272 46.5303 56.8585 46.6829 56.4741 46.6829C56.0896 46.6829 55.721 46.5303 55.4491 46.2584C55.1773 45.9866 55.0246 45.6178 55.0246 45.2334V45.2334ZM57.6994 45.2334C57.7032 45.0709 57.6744 44.9094 57.6144 44.7583C57.5544 44.6073 57.4646 44.4699 57.3503 44.3543C57.236 44.2388 57.0996 44.1474 56.9492 44.0858C56.7988 44.0242 56.6376 43.9935 56.4751 43.9956C56.3115 43.99 56.1485 44.0183 55.9963 44.0787C55.8441 44.139 55.7061 44.2302 55.5908 44.3464C55.4755 44.4626 55.3854 44.6014 55.3262 44.754C55.2671 44.9067 55.2401 45.0698 55.2469 45.2334C55.2423 45.3974 55.2706 45.5606 55.3302 45.7135C55.3898 45.8663 55.4795 46.0057 55.5938 46.1233C55.7082 46.2409 55.8449 46.3344 55.9961 46.3982C56.1472 46.4621 56.3096 46.495 56.4736 46.495C56.6377 46.495 56.8 46.4621 56.9512 46.3982C57.1023 46.3344 57.2391 46.2409 57.3535 46.1233C57.4678 46.0057 57.5574 45.8663 57.617 45.7135C57.6766 45.5606 57.7049 45.3974 57.7004 45.2334H57.6994ZM55.9332 44.3739H56.4385C56.8687 44.3739 57.0622 44.5433 57.0622 44.883C57.065 44.9809 57.0366 45.0772 56.9813 45.1579C56.926 45.2387 56.8465 45.2998 56.7542 45.3326L57.2123 46.1026H56.8726L56.477 45.4202H56.2296V46.1026H55.9293L55.9332 44.3739ZM56.4308 45.1708C56.6358 45.1708 56.759 45.0563 56.759 44.8907C56.759 44.705 56.656 44.627 56.427 44.627H56.2344V45.1728L56.4308 45.1708Z" fill="#303336"/>
</svg>
