<?xml version="1.0" encoding="UTF-8" standalone="no"?>
<!-- Created with Inkscape (http://www.inkscape.org/) -->

<svg
   version="1.1"
   id="svg2"
   width="249.63324"
   height="76"
   viewBox="0 0 249.63324 76"
   sodipodi:docname="Missão Bahia Extremo Sul-1.pdf"
   xml:space="preserve"
   xmlns:inkscape="http://www.inkscape.org/namespaces/inkscape"
   xmlns:sodipodi="http://sodipodi.sourceforge.net/DTD/sodipodi-0.dtd"
   xmlns="http://www.w3.org/2000/svg"
   xmlns:svg="http://www.w3.org/2000/svg"><defs
     id="defs6"><clipPath
       clipPathUnits="userSpaceOnUse"
       id="clipPath18"><path
         d="M 0,1080 H 1920 V 0 H 0 Z"
         id="path16" /></clipPath></defs><sodipodi:namedview
     id="namedview4"
     pagecolor="#ffffff"
     bordercolor="#000000"
     borderopacity="0.25"
     inkscape:showpageshadow="2"
     inkscape:pageopacity="0.0"
     inkscape:pagecheckerboard="0"
     inkscape:deskcolor="#d1d1d1"
     showgrid="false" /><g
     id="g10"
     inkscape:groupmode="layer"
     inkscape:label="Page 1"
     transform="matrix(1.3333333,0,0,-1.3333333,-473.70477,966.75787)"><g
       id="g12"
       transform="matrix(0.15559112,0,0,0.15559112,300.0004,612.25422)"
       style="fill:#303336;fill-opacity:1"><g
         id="g14"
         clip-path="url(#clipPath18)"
         style="fill:#303336;fill-opacity:1"><g
           id="g20"
           transform="translate(719.3396,398.3281)"
           style="fill:#303336;fill-opacity:1"><path
             d="M 0,0 H -0.249 C 0,-2.553 0.187,-7.286 0.187,-12.019 V -38.982 H -4.982 V 5.479 H 3.3 L 17,-30.949 h 0.249 L 31.198,5.479 h 8.219 v -44.461 h -5.542 v 27.337 c 0,4.297 0.25,8.905 0.436,11.583 h -0.249 l -14.82,-38.92 h -4.608 z"
             style="fill:#303336;fill-opacity:1;fill-rule:nonzero;stroke:none"
             id="path22" /></g><g
           id="g24"
           transform="translate(765.7629,359.3462)"
           style="fill:#303336;fill-opacity:1"><path
             d="m 0,0 1.868,4.982 h 3.363 v 34.56 H 0 v 4.919 H 16.066 L 14.198,39.542 H 10.835 V 4.982 h 5.231 V 0 Z"
             style="fill:#303336;fill-opacity:1;fill-rule:nonzero;stroke:none"
             id="path26" /></g><g
           id="g28"
           transform="translate(799.6155,358.7236)"
           style="fill:#303336;fill-opacity:1"><path
             d="m 0,0 c -4.981,0 -9.403,0.747 -12.205,2.117 l 1.744,4.608 c 1.93,-0.871 5.978,-1.868 10.71,-1.868 6.601,0 10.026,2.74 10.026,7.161 0,4.359 -2.429,6.227 -10.462,9.154 -7.597,2.74 -11.458,6.289 -11.458,13.202 0,7.036 5.791,11.333 14.198,11.333 4.857,0 8.905,-0.997 12.268,-2.491 l -1.806,-4.795 c -3.114,1.308 -6.725,2.367 -10.586,2.367 -5.542,0 -8.407,-2.616 -8.407,-6.477 0,-4.483 2.491,-6.289 9.714,-8.967 C 11.583,22.417 15.879,19.491 15.879,12.516 15.879,4.608 9.714,0 0,0"
             style="fill:#303336;fill-opacity:1;fill-rule:nonzero;stroke:none"
             id="path30" /></g><g
           id="g32"
           transform="translate(832.3928,358.7236)"
           style="fill:#303336;fill-opacity:1"><path
             d="m 0,0 c -4.981,0 -9.403,0.747 -12.205,2.117 l 1.744,4.608 c 1.93,-0.871 5.978,-1.868 10.71,-1.868 6.601,0 10.026,2.74 10.026,7.161 0,4.359 -2.429,6.227 -10.462,9.154 -7.597,2.74 -11.458,6.289 -11.458,13.202 0,7.036 5.791,11.333 14.198,11.333 4.857,0 8.905,-0.997 12.268,-2.491 l -1.806,-4.795 c -3.114,1.308 -6.725,2.367 -10.586,2.367 -5.542,0 -8.407,-2.616 -8.407,-6.477 0,-4.483 2.491,-6.289 9.714,-8.967 C 11.583,22.417 15.879,19.491 15.879,12.516 15.879,4.608 9.714,0 0,0"
             style="fill:#303336;fill-opacity:1;fill-rule:nonzero;stroke:none"
             id="path34" /></g><g
           id="g36"
           transform="translate(872.842,391.5405)"
           style="fill:#303336;fill-opacity:1"><path
             d="M 0,0 C -0.374,0.996 -1.682,5.106 -2.117,6.663 -2.74,4.11 -3.55,1.432 -4.048,0 L -9.092,-13.451 H 4.981 Z m -6.726,24.597 c 3.675,0 6.851,-3.55 9.466,-3.55 1.93,0 2.802,1.183 3.425,3.612 H 9.278 C 8.78,19.802 6.414,16.688 2.491,16.688 c -3.488,0 -6.725,3.55 -9.466,3.55 -1.992,0 -2.864,-1.183 -3.424,-3.612 h -3.176 c 0.498,4.919 2.927,7.971 6.849,7.971 M 6.663,-18.433 H -10.96 l -5.293,-13.761 h -5.666 L -4.546,12.454 H 0.498 L 17.81,-32.194 h -5.792 z"
             style="fill:#303336;fill-opacity:1;fill-rule:nonzero;stroke:none"
             id="path38" /></g><g
           id="g40"
           transform="translate(912.5999,363.5806)"
           style="fill:#303336;fill-opacity:1"><path
             d="m 0,0 c 10.088,0 14.572,6.85 14.572,18.059 0,11.209 -4.484,17.934 -14.51,17.934 -10.087,0 -14.695,-6.725 -14.695,-17.934 C -14.633,6.85 -10.025,0 0,0 m 0,-4.857 c -13.886,0 -20.549,9.216 -20.549,22.978 0,13.637 6.663,22.791 20.611,22.791 13.327,0 20.425,-9.029 20.425,-22.853 C 20.487,4.297 13.389,-4.857 0,-4.857"
             style="fill:#303336;fill-opacity:1;fill-rule:nonzero;stroke:none"
             id="path42" /></g><g
           id="g44"
           transform="translate(964.1052,364.0786)"
           style="fill:#303336;fill-opacity:1"><path
             d="m 0,0 h 8.967 c 7.846,0 10.524,3.363 10.524,8.345 0,4.67 -2.74,7.783 -10.96,7.783 H 0 Z m 8.22,20.799 c 7.597,0 9.963,2.491 9.963,7.285 0,4.857 -3.3,6.85 -10.835,6.85 H 0 V 20.799 Z m -1.121,18.93 c 11.084,0 16.876,-2.927 16.876,-11.022 0,-5.23 -2.99,-8.842 -8.47,-9.839 v -0.311 c 5.605,-0.934 9.964,-3.736 9.964,-10.648 0,-8.096 -5.916,-12.641 -15.443,-12.641 h -15.63 v 44.461 z"
             style="fill:#303336;fill-opacity:1;fill-rule:nonzero;stroke:none"
             id="path46" /></g><g
           id="g48"
           transform="translate(1013.9207,391.5405)"
           style="fill:#303336;fill-opacity:1"><path
             d="M 0,0 C -0.374,0.996 -1.682,5.106 -2.117,6.663 -2.74,4.11 -3.55,1.432 -4.048,0 L -9.092,-13.451 H 4.981 Z M 6.663,-18.433 H -10.96 l -5.293,-13.761 h -5.666 L -4.546,12.454 H 0.498 L 17.81,-32.194 h -5.792 z"
             style="fill:#303336;fill-opacity:1;fill-rule:nonzero;stroke:none"
             id="path50" /></g><g
           id="g52"
           transform="translate(1065.6594,359.3462)"
           style="fill:#303336;fill-opacity:1"><path
             d="M 0,0 V 20.736 H -22.791 V 0 h -5.605 v 44.461 h 5.605 V 25.656 H 0 V 44.461 H 5.604 V 0 Z"
             style="fill:#303336;fill-opacity:1;fill-rule:nonzero;stroke:none"
             id="path54" /></g><g
           id="g56"
           transform="translate(1078.2688,359.3462)"
           style="fill:#303336;fill-opacity:1"><path
             d="m 0,0 1.868,4.982 h 3.363 v 34.56 H 0 v 4.919 H 16.066 L 14.198,39.542 H 10.835 V 4.982 h 5.231 V 0 Z"
             style="fill:#303336;fill-opacity:1;fill-rule:nonzero;stroke:none"
             id="path58" /></g><g
           id="g60"
           transform="translate(1120.1301,391.5405)"
           style="fill:#303336;fill-opacity:1"><path
             d="M 0,0 C -0.374,0.996 -1.682,5.106 -2.117,6.663 -2.74,4.11 -3.55,1.432 -4.048,0 L -9.092,-13.451 H 4.981 Z M 6.663,-18.433 H -10.96 l -5.293,-13.761 h -5.666 L -4.546,12.454 H 0.498 L 17.81,-32.194 h -5.792 z"
             style="fill:#303336;fill-opacity:1;fill-rule:nonzero;stroke:none"
             id="path62" /></g><g
           id="g64"
           transform="translate(1159.6155,359.3462)"
           style="fill:#303336;fill-opacity:1"><path
             d="M 0,0 V 44.461 H 24.846 V 39.542 H 5.604 V 25.656 H 22.293 V 20.798 H 5.604 V 4.919 H 26.216 L 24.348,0 Z"
             style="fill:#303336;fill-opacity:1;fill-rule:nonzero;stroke:none"
             id="path66" /></g><g
           id="g68"
           transform="translate(1218.634,359.3462)"
           style="fill:#303336;fill-opacity:1"><path
             d="M 0,0 -11.77,19.304 -23.726,0 h -5.915 l 14.758,23.165 -13.824,21.296 h 6.227 l 10.897,-17.435 10.96,17.435 H 5.293 L -8.469,23.29 6.352,0 Z"
             style="fill:#303336;fill-opacity:1;fill-rule:nonzero;stroke:none"
             id="path70" /></g><g
           id="g72"
           transform="translate(1240.4954,359.3462)"
           style="fill:#303336;fill-opacity:1"><path
             d="m 0,0 v 39.542 h -13.886 l 1.868,4.919 H 19.429 V 39.542 H 5.604 V 0 Z"
             style="fill:#303336;fill-opacity:1;fill-rule:nonzero;stroke:none"
             id="path74" /></g><g
           id="g76"
           transform="translate(1271.3171,398.9507)"
           style="fill:#303336;fill-opacity:1"><path
             d="m 0,0 v -16.502 h 6.663 c 7.223,0 10.399,2.865 10.399,8.469 C 17.062,-2.242 13.637,0 6.352,0 Z m 22.854,-7.784 c 0,-7.099 -4.422,-10.337 -8.905,-11.894 L 26.154,-39.604 H 19.615 L 8.842,-21.234 H 0 v -18.37 H -5.604 V 4.857 H 6.663 c 11.022,0 16.191,-4.172 16.191,-12.641"
             style="fill:#303336;fill-opacity:1;fill-rule:nonzero;stroke:none"
             id="path78" /></g><g
           id="g80"
           transform="translate(1303.4099,359.3462)"
           style="fill:#303336;fill-opacity:1"><path
             d="M 0,0 V 44.461 H 24.846 V 39.542 H 5.604 V 25.656 H 22.293 V 20.798 H 5.604 V 4.919 H 26.216 L 24.348,0 Z"
             style="fill:#303336;fill-opacity:1;fill-rule:nonzero;stroke:none"
             id="path82" /></g><g
           id="g84"
           transform="translate(1341.1628,398.3281)"
           style="fill:#303336;fill-opacity:1"><path
             d="M 0,0 H -0.249 C 0,-2.553 0.187,-7.286 0.187,-12.019 V -38.982 H -4.982 V 5.479 H 3.3 L 17,-30.949 h 0.249 L 31.198,5.479 h 8.219 v -44.461 h -5.542 v 27.337 c 0,4.297 0.25,8.905 0.436,11.583 h -0.249 l -14.82,-38.92 h -4.608 z"
             style="fill:#303336;fill-opacity:1;fill-rule:nonzero;stroke:none"
             id="path86" /></g><g
           id="g88"
           transform="translate(1409.5486,363.5806)"
           style="fill:#303336;fill-opacity:1"><path
             d="m 0,0 c 10.088,0 14.572,6.85 14.572,18.059 0,11.209 -4.484,17.934 -14.51,17.934 -10.087,0 -14.695,-6.725 -14.695,-17.934 C -14.633,6.85 -10.025,0 0,0 m 0,-4.857 c -13.886,0 -20.549,9.216 -20.549,22.978 0,13.637 6.663,22.791 20.611,22.791 13.327,0 20.425,-9.029 20.425,-22.853 C 20.487,4.297 13.389,-4.857 0,-4.857"
             style="fill:#303336;fill-opacity:1;fill-rule:nonzero;stroke:none"
             id="path90" /></g><g
           id="g92"
           transform="translate(1465.4128,358.7236)"
           style="fill:#303336;fill-opacity:1"><path
             d="m 0,0 c -4.981,0 -9.403,0.747 -12.205,2.117 l 1.744,4.608 c 1.93,-0.871 5.978,-1.868 10.71,-1.868 6.601,0 10.026,2.74 10.026,7.161 0,4.359 -2.429,6.227 -10.462,9.154 -7.597,2.74 -11.458,6.289 -11.458,13.202 0,7.036 5.791,11.333 14.198,11.333 4.857,0 8.905,-0.997 12.268,-2.491 l -1.806,-4.795 c -3.114,1.308 -6.725,2.367 -10.586,2.367 -5.542,0 -8.407,-2.616 -8.407,-6.477 0,-4.483 2.491,-6.289 9.714,-8.967 C 11.583,22.417 15.879,19.491 15.879,12.516 15.879,4.608 9.714,0 0,0"
             style="fill:#303336;fill-opacity:1;fill-rule:nonzero;stroke:none"
             id="path94" /></g><g
           id="g96"
           transform="translate(1522.4075,375.0386)"
           style="fill:#303336;fill-opacity:1"><path
             d="m 0,0 c 0,-9.216 -5.542,-16.315 -17.312,-16.315 -11.084,0 -16.937,6.538 -16.937,16.44 v 28.644 h 5.604 V -0.062 c 0,-7.224 3.861,-11.396 11.645,-11.396 8.033,0 11.458,4.733 11.458,11.458 V 28.769 H 0 Z"
             style="fill:#303336;fill-opacity:1;fill-rule:nonzero;stroke:none"
             id="path98" /></g><g
           id="g100"
           transform="translate(1532.5002,403.8076)"
           style="fill:#303336;fill-opacity:1"><path
             d="m 0,0 h 5.604 v -39.479 h 20.488 l -1.868,-4.982 H 0 Z"
             style="fill:#303336;fill-opacity:1;fill-rule:nonzero;stroke:none"
             id="path102" /></g><g
           id="g104"
           transform="translate(712.2578,581.7684)"
           style="fill:#303336;fill-opacity:1"><path
             d="M 0,0 3.319,8.851 H 9.293 V 70.249 H 0 v 8.738 H 28.542 L 25.223,70.249 H 19.25 V 8.851 h 9.292 V 0 Z"
             style="fill:#303336;fill-opacity:1;fill-rule:nonzero;stroke:none"
             id="path106" /></g><g
           id="g108"
           transform="translate(783.9389,622.1462)"
           style="fill:#303336;fill-opacity:1"><path
             d="m 0,0 c 0,8.63 -4.093,12.944 -12.168,12.944 -8.076,0 -12.169,-4.426 -12.169,-13.054 0,-8.186 4.093,-12.28 12.279,-12.28 C -3.981,-12.39 0,-8.186 0,0 m 6.638,-47.458 c 0,3.209 -0.884,5.31 -2.655,6.416 -1.88,1.106 -5.421,1.66 -10.731,1.66 h -10.177 c -8.296,0 -12.39,-3.541 -12.39,-10.731 0,-6.195 4.868,-9.403 14.603,-9.403 14.27,0 21.35,3.982 21.35,12.058 m -45.245,-2.987 c 0,7.632 4.313,12.502 12.942,14.602 -3.429,1.661 -5.2,4.536 -5.2,8.297 0,4.093 2.435,7.524 7.192,10.399 -6.748,2.767 -10.289,9.847 -10.289,16.705 0,13.828 8.629,20.466 22.126,20.466 3.097,0 5.752,-0.332 8.075,-1.107 H 16.705 L 13.828,11.395 H 6.086 C 8.408,8.298 9.625,4.425 9.625,-0.11 c 0,-12.28 -8.961,-19.028 -21.793,-19.028 -1.992,0 -3.541,0.11 -4.647,0.332 -3.651,-1.99 -5.42,-4.425 -5.42,-7.19 0,-2.987 2.987,-4.537 8.739,-4.537 h 10.067 c 11.947,0 19.36,-5.42 19.36,-16.041 0,-13.606 -10.177,-20.354 -30.533,-20.354 -13.828,0 -24.005,4.758 -24.005,16.483"
             style="fill:#303336;fill-opacity:1;fill-rule:nonzero;stroke:none"
             id="path110" /></g><g
           id="g112"
           transform="translate(844.6669,641.5059)"
           style="fill:#303336;fill-opacity:1"><path
             d="m 0,0 -1.216,-8.961 c -1.881,0.443 -4.426,0.775 -6.416,0.775 -9.183,0 -17.257,-7.965 -17.257,-19.912 v -31.639 h -9.735 v 59.295 h 7.964 l 1.106,-10.841 h 0.443 C -21.35,-4.755 -15.266,0.664 -6.968,0.664 -4.755,0.664 -1.991,0.444 0,0"
             style="fill:#303336;fill-opacity:1;fill-rule:nonzero;stroke:none"
             id="path114" /></g><g
           id="g116"
           transform="translate(856.0583,617.2788)"
           style="fill:#303336;fill-opacity:1"><path
             d="M 0,0 H 30.201 C 30.091,10.067 25.665,16.927 15.821,16.927 6.528,16.927 0.996,10.621 0,0 m 40.38,-1.881 v -5.861 h -40.6 c 0.332,-13.386 7.08,-20.578 18.915,-20.578 5.754,0 11.618,1.106 16.263,2.877 l 2.765,-7.303 c -6.084,-2.654 -11.393,-3.871 -19.47,-3.871 -16.925,0 -28.54,10.509 -28.54,30.311 0,19.472 10.509,31.197 26.218,31.197 15.156,0 24.449,-10.619 24.449,-26.772"
             style="fill:#303336;fill-opacity:1;fill-rule:nonzero;stroke:none"
             id="path118" /></g><g
           id="g120"
           transform="translate(912.361,663.3002)"
           style="fill:#303336;fill-opacity:1"><path
             d="m 0,0 c 2.987,0 5.644,-1.881 5.644,-6.196 0,-4.203 -2.657,-6.194 -5.644,-6.194 -3.207,0 -5.752,1.991 -5.752,6.194 C -5.752,-1.881 -3.207,0 0,0 m -12.722,-100.007 c 6.306,2.877 7.745,7.08 7.745,17.591 v 60.179 H 4.757 V -82.97 c 0,-11.616 -3.097,-20.798 -14.38,-25.112 z"
             style="fill:#303336;fill-opacity:1;fill-rule:nonzero;stroke:none"
             id="path122" /></g><g
           id="g124"
           transform="translate(956.8301,610.4208)"
           style="fill:#303336;fill-opacity:1"><path
             d="m 0,0 c -14.822,-0.554 -19.58,-4.757 -19.58,-12.28 0,-6.638 4.426,-9.624 10.841,-9.624 9.957,0 17.48,5.421 17.48,16.927 v 5.309 z m 18.365,11.725 v -40.377 h -7.08 l -1.88,8.408 H 8.963 c -5.2,-6.528 -9.957,-9.515 -19.914,-9.515 -10.731,0 -18.696,5.532 -18.696,17.589 0,11.838 9.071,18.366 28.431,18.918 L 8.851,7.08 v 3.539 c 0,9.847 -4.536,13.166 -12.28,13.166 -6.194,0 -11.836,-2.213 -16.705,-4.535 l -2.987,7.3 c 5.2,2.767 12.502,5.089 20.246,5.089 14.38,0 21.24,-6.086 21.24,-19.914"
             style="fill:#303336;fill-opacity:1;fill-rule:nonzero;stroke:none"
             id="path126" /></g><g
           id="g128"
           transform="translate(1047.4249,638.9611)"
           style="fill:#303336;fill-opacity:1"><path
             d="M 0,0 C -0.664,1.771 -2.987,9.073 -3.761,11.837 -4.867,7.302 -6.306,2.545 -7.19,0 l -8.961,-23.895 H 8.85 Z M 11.837,-32.744 H -19.47 l -9.403,-24.449 h -10.066 l 30.865,79.319 h 8.96 L 31.639,-57.193 H 21.352 Z"
             style="fill:#303336;fill-opacity:1;fill-rule:nonzero;stroke:none"
             id="path130" /></g><g
           id="g132"
           transform="translate(1123.8615,609.4245)"
           style="fill:#303336;fill-opacity:1"><path
             d="m 0,0 v 1.771 c 0,14.712 -3.981,22.898 -17.147,22.898 -10.509,0 -15.709,-8.96 -15.709,-23.009 0,-14.16 5.2,-22.346 15.821,-22.346 C -4.535,-20.686 0,-13.828 0,0 m -42.923,1.881 c 0,20.355 9.735,30.865 24.449,30.865 9.181,0 14.713,-3.872 18.364,-8.739 H 0.554 C 0.332,25.888 -0.11,30.533 -0.11,32.746 V 52.659 L 9.625,56.42 V -27.656 H 1.771 l -1.439,7.964 H -0.11 c -3.541,-5.087 -9.183,-9.07 -18.475,-9.07 -14.713,0 -24.338,10.289 -24.338,30.643"
             style="fill:#303336;fill-opacity:1;fill-rule:nonzero;stroke:none"
             id="path134" /></g><g
           id="g136"
           transform="translate(1141.5568,641.0637)"
           style="fill:#303336;fill-opacity:1"><path
             d="m 0,0 h 10.399 l 12.612,-34.958 c 1.768,-4.868 4.093,-12.058 4.755,-15.709 h 0.442 c 0.776,3.651 3.319,10.953 4.98,15.709 L 45.799,0 H 56.198 L 33.63,-59.295 H 22.457 Z"
             style="fill:#303336;fill-opacity:1;fill-rule:nonzero;stroke:none"
             id="path138" /></g><g
           id="g140"
           transform="translate(1211.5775,617.2788)"
           style="fill:#303336;fill-opacity:1"><path
             d="M 0,0 H 30.201 C 30.091,10.067 25.665,16.927 15.821,16.927 6.528,16.927 0.996,10.621 0,0 m 40.38,-1.881 v -5.861 h -40.6 c 0.332,-13.386 7.08,-20.578 18.915,-20.578 5.754,0 11.618,1.106 16.263,2.877 l 2.765,-7.303 c -6.084,-2.654 -11.393,-3.871 -19.47,-3.871 -16.925,0 -28.54,10.509 -28.54,30.311 0,19.472 10.509,31.197 26.218,31.197 15.156,0 24.449,-10.619 24.449,-26.772"
             style="fill:#303336;fill-opacity:1;fill-rule:nonzero;stroke:none"
             id="path142" /></g><g
           id="g144"
           transform="translate(1312.4631,620.3776)"
           style="fill:#303336;fill-opacity:1"><path
             d="m 0,0 v -38.609 h -9.625 v 37.945 c 0,9.513 -4.203,14.27 -13.274,14.27 -13.166,0 -17.369,-7.632 -17.369,-21.46 v -30.755 h -9.735 v 59.295 h 7.855 l 1.438,-8.076 h 0.552 c 3.873,6.196 11.174,9.182 18.698,9.182 C -7.3,21.792 0,15.266 0,0"
             style="fill:#303336;fill-opacity:1;fill-rule:nonzero;stroke:none"
             id="path146" /></g><g
           id="g148"
           transform="translate(1352.0609,590.0648)"
           style="fill:#303336;fill-opacity:1"><path
             d="m 0,0 2.657,-6.968 c -2.103,-1.328 -6.306,-2.435 -10.843,-2.435 -9.291,0 -17.367,3.983 -17.367,18.364 v 51.995 l 9.734,3.651 V 50.999 H 1.328 V 43.477 H -15.819 V 9.183 c 0,-7.19 3.871,-10.621 9.293,-10.621 2.213,0 5.2,0.774 6.526,1.438"
             style="fill:#303336;fill-opacity:1;fill-rule:nonzero;stroke:none"
             id="path150" /></g><path
           d="m 1375.4,581.768 h -9.735 v 59.295 h 9.735 z m 0.886,75.336 c 0,-4.203 -2.657,-6.193 -5.643,-6.193 -3.207,0 -5.752,1.99 -5.752,6.193 0,4.316 2.545,6.196 5.752,6.196 2.986,0 5.643,-1.88 5.643,-6.196"
           style="fill:#303336;fill-opacity:1;fill-rule:nonzero;stroke:none"
           id="path152" /><g
           id="g154"
           transform="translate(1406.9252,580.662)"
           style="fill:#303336;fill-opacity:1"><path
             d="m 0,0 c -8.296,0 -14.05,1.328 -18.585,3.761 l 2.877,7.522 c 3.871,-1.658 10.288,-3.429 15.93,-3.429 9.845,0 14.048,3.429 14.048,8.741 0,4.423 -2.987,7.08 -14.602,11.503 -11.505,4.426 -18.363,7.967 -18.363,17.701 0,10.067 8.96,15.709 22.236,15.709 7.19,0 13.386,-1.548 18.916,-3.983 L 19.47,49.671 c -5.088,2.212 -10.841,3.873 -16.593,3.873 -7.966,0 -12.28,-2.767 -12.28,-7.192 0,-4.978 3.871,-6.969 15.267,-11.284 C 17.147,30.865 23.675,26.992 23.675,17.479 23.675,5.974 14.492,0 0,0"
             style="fill:#303336;fill-opacity:1;fill-rule:nonzero;stroke:none"
             id="path156" /></g><g
           id="g158"
           transform="translate(1468.0973,590.0648)"
           style="fill:#303336;fill-opacity:1"><path
             d="m 0,0 2.655,-6.968 c -2.103,-1.328 -6.306,-2.435 -10.841,-2.435 -9.293,0 -17.369,3.983 -17.369,18.364 v 51.995 l 9.734,3.651 V 50.999 H 1.328 V 43.477 H -15.821 V 9.183 c 0,-7.19 3.873,-10.621 9.293,-10.621 2.213,0 5.2,0.774 6.528,1.438"
             style="fill:#303336;fill-opacity:1;fill-rule:nonzero;stroke:none"
             id="path160" /></g><g
           id="g162"
           transform="translate(1504.8202,610.4208)"
           style="fill:#303336;fill-opacity:1"><path
             d="m 0,0 c -14.822,-0.554 -19.58,-4.757 -19.58,-12.28 0,-6.638 4.425,-9.624 10.841,-9.624 9.957,0 17.479,5.421 17.479,16.927 v 5.309 z m 18.365,11.725 v -40.377 h -7.08 l -1.88,8.408 H 8.963 c -5.2,-6.528 -9.957,-9.515 -19.914,-9.515 -10.731,0 -18.696,5.532 -18.696,17.589 0,11.838 9.071,18.366 28.431,18.918 L 8.851,7.08 v 3.539 c 0,9.847 -4.536,13.166 -12.28,13.166 -6.194,0 -11.836,-2.213 -16.705,-4.535 l -2.987,7.3 c 5.2,2.767 12.502,5.089 20.246,5.089 14.38,0 21.24,-6.086 21.24,-19.914"
             style="fill:#303336;fill-opacity:1;fill-rule:nonzero;stroke:none"
             id="path164" /></g><g
           id="g166"
           transform="translate(754.6282,490.799)"
           style="fill:#303336;fill-opacity:1"><path
             d="m 0,0 v 1.771 c 0,14.712 -3.983,22.898 -17.147,22.898 -10.509,0 -15.709,-8.96 -15.709,-23.009 0,-14.16 5.2,-22.346 15.819,-22.346 C -4.535,-20.686 0,-13.828 0,0 m -42.923,1.881 c 0,20.355 9.735,30.865 24.448,30.865 9.182,0 14.714,-3.872 18.363,-8.739 h 0.664 c -0.22,1.881 -0.664,6.526 -0.664,8.739 V 52.659 L 9.625,56.42 V -27.656 H 1.771 l -1.439,7.964 h -0.444 c -3.539,-5.087 -9.181,-9.07 -18.473,-9.07 -14.715,0 -24.338,10.289 -24.338,30.643"
             style="fill:#303336;fill-opacity:1;fill-rule:nonzero;stroke:none"
             id="path168" /></g><g
           id="g170"
           transform="translate(801.6381,470.1129)"
           style="fill:#303336;fill-opacity:1"><path
             d="m 0,0 c 11.948,0 17.369,8.739 17.369,22.789 0,14.05 -5.421,22.456 -17.479,22.456 -12.058,0 -17.257,-8.406 -17.257,-22.456 C -17.367,8.739 -12.058,0 0,0 m -0.22,-8.076 c -15.711,0 -27.214,11.173 -27.214,30.865 0,19.579 10.509,30.643 27.546,30.643 16.041,0 27.324,-11.064 27.324,-30.643 0,-19.692 -10.731,-30.865 -27.656,-30.865"
             style="fill:#303336;fill-opacity:1;fill-rule:nonzero;stroke:none"
             id="path172" /></g><g
           id="g174"
           transform="translate(891.1266,462.0366)"
           style="fill:#303336;fill-opacity:1"><path
             d="m 0,0 c -8.851,0 -16.705,1.328 -21.684,3.761 l 3.099,8.187 c 3.429,-1.549 10.619,-3.319 19.027,-3.319 11.726,0 17.811,4.867 17.811,12.721 0,7.745 -4.315,11.063 -18.585,16.263 -13.498,4.867 -20.356,11.173 -20.356,23.453 0,12.5 10.289,20.134 25.223,20.134 8.629,0 15.819,-1.771 21.793,-4.426 l -3.207,-8.518 c -5.532,2.323 -11.948,4.203 -18.808,4.203 -9.845,0 -14.934,-4.645 -14.934,-11.503 0,-7.966 4.425,-11.173 17.257,-15.931 C 20.576,39.826 28.208,34.626 28.208,22.236 28.208,8.186 17.257,0 0,0"
             style="fill:#303336;fill-opacity:1;fill-rule:nonzero;stroke:none"
             id="path176" /></g><g
           id="g178"
           transform="translate(967.233,546.7755)"
           style="fill:#303336;fill-opacity:1"><path
             d="m 0,0 c -2.767,-4.093 -10.621,-12.61 -15.821,-16.593 h -6.415 v 1.327 c 3.208,4.093 7.964,11.395 10.509,16.372 L 0,1.106 Z m -30.755,-48.122 h 30.201 c -0.11,10.067 -4.535,16.927 -14.38,16.927 -9.293,0 -14.825,-6.306 -15.821,-16.927 m 40.38,-1.881 v -5.861 h -40.6 c 0.332,-13.386 7.08,-20.578 18.916,-20.578 5.753,0 11.617,1.106 16.262,2.876 l 2.765,-7.302 c -6.084,-2.654 -11.393,-3.871 -19.47,-3.871 -16.925,0 -28.54,10.509 -28.54,30.311 0,19.472 10.509,31.197 26.218,31.197 15.156,0 24.449,-10.619 24.449,-26.772"
             style="fill:#303336;fill-opacity:1;fill-rule:nonzero;stroke:none"
             id="path180" /></g><g
           id="g182"
           transform="translate(1012.8046,471.4394)"
           style="fill:#303336;fill-opacity:1"><path
             d="m 0,0 2.655,-6.968 c -2.103,-1.328 -6.306,-2.435 -10.841,-2.435 -9.293,0 -17.369,3.983 -17.369,18.364 v 51.995 l 9.734,3.651 V 50.999 H 1.328 V 43.477 H -15.821 V 9.183 c 0,-7.19 3.873,-10.621 9.293,-10.621 2.213,0 5.2,0.774 6.528,1.438"
             style="fill:#303336;fill-opacity:1;fill-rule:nonzero;stroke:none"
             id="path184" /></g><path
           d="m 1036.143,463.143 h -9.735 v 59.295 h 9.735 z m 0.885,75.336 c 0,-4.203 -2.655,-6.194 -5.642,-6.194 -3.209,0 -5.754,1.991 -5.754,6.194 0,4.315 2.545,6.196 5.754,6.196 2.987,0 5.642,-1.881 5.642,-6.196"
           style="fill:#303336;fill-opacity:1;fill-rule:nonzero;stroke:none"
           id="path186" /><g
           id="g188"
           transform="translate(1137.3632,501.7522)"
           style="fill:#303336;fill-opacity:1"><path
             d="m 0,0 v -38.609 h -9.625 v 38.165 c 0,9.293 -3.871,14.05 -12.057,14.05 -11.506,0 -16.041,-6.858 -16.041,-19.47 v -32.745 h -9.625 v 38.165 c 0,9.293 -3.873,14.05 -12.169,14.05 -11.948,0 -15.819,-7.632 -15.819,-21.46 v -30.755 h -9.735 v 59.295 h 7.854 l 1.437,-8.076 h 0.554 c 3.651,6.196 10.399,9.182 17.479,9.182 9.071,0 15.267,-3.209 18.143,-9.956 h 0.553 c 3.983,6.747 11.283,9.956 19.027,9.956 C -6.638,21.792 0,15.266 0,0"
             style="fill:#303336;fill-opacity:1;fill-rule:nonzero;stroke:none"
             id="path190" /></g><g
           id="g192"
           transform="translate(1175.4106,470.1129)"
           style="fill:#303336;fill-opacity:1"><path
             d="m 0,0 c 11.948,0 17.367,8.739 17.367,22.789 0,14.05 -5.419,22.456 -17.479,22.456 -12.058,0 -17.257,-8.406 -17.257,-22.456 C -17.369,8.739 -12.06,0 0,0 m -0.222,-8.076 c -15.709,0 -27.214,11.173 -27.214,30.865 0,19.579 10.509,30.643 27.546,30.643 16.041,0 27.324,-11.064 27.324,-30.643 0,-19.692 -10.729,-30.865 -27.656,-30.865"
             style="fill:#303336;fill-opacity:1;fill-rule:nonzero;stroke:none"
             id="path194" /></g><g
           id="g196"
           transform="translate(1268.9923,533.6116)"
           style="fill:#303336;fill-opacity:1"><path
             d="m 0,0 h -12.944 v -61.95 h 10.731 c 21.351,0 32.082,10.619 32.082,31.417 C 29.869,-9.513 19.027,0 0,0 M -0.886,-70.469 H -22.901 V 8.518 H 1.436 c 23.785,0 38.942,-13.385 38.942,-38.719 0,-26.66 -15.267,-40.268 -41.264,-40.268"
             style="fill:#303336;fill-opacity:1;fill-rule:nonzero;stroke:none"
             id="path198" /></g><path
           d="m 1330.825,463.143 h -9.735 v 59.295 h 9.735 z m 0.886,75.336 c 0,-4.203 -2.657,-6.194 -5.644,-6.194 -3.207,0 -5.751,1.991 -5.751,6.194 0,4.315 2.544,6.196 5.751,6.196 2.987,0 5.644,-1.881 5.644,-6.196"
           style="fill:#303336;fill-opacity:1;fill-rule:nonzero;stroke:none"
           id="path200" /><g
           id="g202"
           transform="translate(1370.5364,491.7953)"
           style="fill:#303336;fill-opacity:1"><path
             d="m 0,0 c -14.822,-0.554 -19.58,-4.757 -19.58,-12.28 0,-6.638 4.425,-9.624 10.841,-9.624 9.957,0 17.479,5.421 17.479,16.927 v 5.309 z m 18.365,11.725 v -40.377 h -7.08 l -1.88,8.408 H 8.963 c -5.2,-6.528 -9.957,-9.515 -19.914,-9.515 -10.731,0 -18.696,5.532 -18.696,17.589 0,11.838 9.071,18.366 28.431,18.918 L 8.85,7.08 v 3.539 c 0,9.847 -4.535,13.166 -12.279,13.166 -6.194,0 -11.836,-2.213 -16.705,-4.535 l -2.987,7.3 c 5.2,2.767 12.502,5.089 20.246,5.089 14.38,0 21.24,-6.086 21.24,-19.914"
             style="fill:#303336;fill-opacity:1;fill-rule:nonzero;stroke:none"
             id="path204" /></g><g
           id="g206"
           transform="translate(1398.2986,539.0331)"
           style="fill:#303336;fill-opacity:1"><path
             d="M 0,0 C 0.996,0 1.661,0.552 1.661,1.438 1.661,2.323 1.106,2.765 0,2.765 H -0.994 V 0 Z M -2.545,4.093 H 0 c 2.213,0 3.209,-0.886 3.209,-2.655 0,-1.218 -0.774,-1.882 -1.548,-2.212 l 2.322,-3.873 h -1.77 l -1.991,3.429 h -1.216 v -3.429 h -1.551 z m 8.961,-4.425 c 0,3.429 -2.543,6.306 -6.194,6.306 -3.651,0 -6.196,-2.655 -6.196,-6.306 0,-3.429 2.545,-6.196 6.196,-6.196 3.429,0 6.194,2.545 6.194,6.196 m -13.496,0 c 0,4.313 2.987,7.412 7.302,7.412 4.093,0 7.3,-3.099 7.3,-7.412 0,-4.205 -3.097,-7.302 -7.3,-7.302 -4.315,0 -7.302,3.097 -7.302,7.302"
             style="fill:#303336;fill-opacity:1;fill-rule:nonzero;stroke:none"
             id="path208" /></g><g
           id="g210"
           transform="translate(507.4928,479.3208)"
           style="fill:#303336;fill-opacity:1"><path
             d="M 0,0 C 0,-1.07 1.226,-1.074 1.447,0 3.076,7.903 5.551,13.171 9.421,18.286 L 0.719,18.281 C 0.322,18.281 0,17.959 0,17.562 Z m 63.899,109.7 c -0.357,1.155 -1.357,1.232 -1.347,0.021 C 62.65,98.295 59.364,88.476 38.509,67.621 L 22.013,51.139 C 14.506,43.632 7.756,36.776 3.766,29.925 h 16.291 c 0.625,0.626 1.265,1.266 1.927,1.928 L 45.65,55.543 C 65.359,75.252 68.107,96.101 63.899,109.7 M 41.783,40.007 22.013,20.222 C 10.047,8.256 0,-2.054 0,-13.33 l 0.011,-3.139 c 0,-0.853 1.06,-0.987 1.387,-0.095 3.694,10.094 16.038,20.87 38.68,17.05 0,0 98.638,-17.044 99.467,-17.117 0.963,-0.085 1.44,0.863 0.818,1.602 -0.373,0.444 -45.908,45.977 -45.908,45.977 z m -71.36,-21.721 c -0.397,0 -0.72,0.322 -0.72,0.72 v 10.206 c 0,0.397 0.323,0.719 0.72,0.719 l 17.264,-0.004 c 0.397,0 0.719,0.322 0.719,0.719 -0.045,9.168 -6.956,15.397 -34.645,10.578 l -59.787,-10.276 c 0,0 -45.536,-45.533 -45.909,-45.977 -0.621,-0.739 -0.144,-1.687 0.819,-1.602 0.829,0.073 99.467,17.117 99.467,17.117 22.642,3.82 34.986,-6.956 38.68,-17.05 0.326,-0.892 1.387,-0.758 1.387,0.095 0,0.615 0.002,34.036 0.002,34.036 0,0.397 -0.321,0.719 -0.719,0.719 z m -27.559,142.651 c -19.709,-19.709 -22.457,-40.558 -18.249,-54.157 0.357,-1.155 1.357,-1.232 1.347,-0.021 -0.098,11.426 3.188,21.245 24.043,42.1 l 44.96,44.946 c 11.966,11.966 22.013,22.276 22.013,33.552 v 17.587 c 0,1.07 -1.226,1.073 -1.447,0 C 12.573,230.592 6.832,224.929 -5.006,213.09 Z m 74.156,35.534 v 17.706 c 0,1.07 -1.226,1.074 -1.447,0 C 12.616,199.825 6.89,194.073 -4.949,182.235 l -47.219,-47.18 c -22.915,-22.915 -26.88,-45.092 -15.225,-59.344 0.777,-0.95 1.613,-0.381 1.106,0.766 -7.705,17.434 10.772,35.919 19.57,44.716 l 41.724,41.726 c 11.966,11.966 22.013,22.277 22.013,33.552 m -67.892,-91.034 c -22.917,-22.917 -12.379,-45.05 0.988,-51.143 1.172,-0.534 1.638,0.418 0.741,1.194 -10.719,9.286 -7.464,24.906 6.015,38.385 l 38.087,38.087 c 11.966,11.967 22.013,22.277 22.013,33.552 v 17.587 c 0,1.07 -1.226,1.074 -1.447,0 C 12.568,168.747 6.84,163.108 -4.999,151.27 Z M -0.043,48.473 V 30.767 c 0,-1.07 1.226,-1.074 1.447,0 2.958,14.352 8.684,20.104 20.522,31.942 l 18.756,18.716 c 22.915,22.914 26.88,45.092 15.225,59.343 -0.777,0.95 -1.613,0.382 -1.106,-0.765 7.705,-17.434 -10.772,-35.919 -19.57,-44.717 L 21.971,82.025 C 10.004,70.058 -0.043,59.748 -0.043,48.473 M 21.976,93.674 C 10.138,81.836 4.41,76.197 1.452,61.845 c -0.221,-1.074 -1.447,-1.07 -1.447,0 v 17.586 c 0,11.276 10.047,21.586 22.013,33.552 l 9.623,9.624 c 13.48,13.479 16.735,29.098 6.016,38.384 -0.897,0.777 -0.431,1.729 0.741,1.194 13.367,-6.092 23.905,-28.225 0.988,-51.142 z"
             style="fill:#303336;fill-opacity:1;fill-rule:nonzero;stroke:none"
             id="path212" /></g><g
           id="g214"
           transform="translate(640.5864,496.2955)"
           style="fill:#303336;fill-opacity:1"><path
             d="m 0,0 c 1.039,0 1.659,0.579 1.659,1.419 0,0.938 -0.52,1.338 -1.678,1.338 H -0.998 V 0 Z m -2.516,4.035 h 2.557 c 2.175,0 3.154,-0.859 3.154,-2.577 0,-1.257 -0.758,-1.956 -1.558,-2.277 L 3.954,-4.694 H 2.238 l -1.999,3.456 h -1.237 v -3.456 h -1.518 z m 8.928,-4.354 c 0,3.455 -2.578,6.272 -6.192,6.272 -3.614,0 -6.211,-2.617 -6.211,-6.272 0,-3.456 2.597,-6.271 6.211,-6.271 3.416,0 6.192,2.617 6.192,6.271 m -13.521,0 c 0,4.254 3.076,7.33 7.329,7.33 4.055,0 7.329,-3.076 7.329,-7.33 0,-4.255 -3.075,-7.329 -7.329,-7.329 -4.253,0 -7.329,3.074 -7.329,7.329"
             style="fill:#303336;fill-opacity:1;fill-rule:nonzero;stroke:none"
             id="path216" /></g></g></g></g></svg>
