<svg xmlns="http://www.w3.org/2000/svg" width="231.791" height="72.913" viewBox="0 0 231.791 72.913">
  <g id="Grupo_52" data-name="Grupo 52" transform="translate(0 -0.003)">
  <g>
    <path class="st0" d="M72.2,64.9h0c0,.5,0,1.4,0,2.4v5.3h-1v-8.8h1.6l2.7,7.2h0l2.8-7.2h1.6v8.8h-1.1v-5.4c0-.9,0-1.8,0-2.3h0l-2.9,7.7h-.9l-2.9-7.7Z"/>
    <path class="st0" d="M81.5,72.6l.4-1h.7v-6.9h-1v-1h3.2l-.4,1h-.7v6.9h1v1h-3.2Z"/>
    <path class="st0" d="M88.3,72.8c-1,0-1.9-.1-2.4-.4l.3-.9c.4.2,1.2.4,2.1.4s2-.5,2-1.4-.5-1.2-2.1-1.8c-1.5-.5-2.3-1.2-2.3-2.6s1.1-2.2,2.8-2.2,1.8.2,2.4.5l-.4,1c-.6-.3-1.3-.5-2.1-.5-1.1,0-1.7.5-1.7,1.3s.5,1.2,1.9,1.8c1.6.6,2.4,1.2,2.4,2.5s-1.2,2.5-3.1,2.5Z"/>
    <path class="st0" d="M95,72.8c-1,0-1.9-.1-2.4-.4l.3-.9c.4.2,1.2.4,2.1.4s2-.5,2-1.4-.5-1.2-2.1-1.8c-1.5-.5-2.3-1.2-2.3-2.6s1.1-2.2,2.8-2.2,1.8.2,2.4.5l-.4,1c-.6-.3-1.3-.5-2.1-.5-1.1,0-1.7.5-1.7,1.3s.5,1.2,1.9,1.8c1.6.6,2.4,1.2,2.4,2.5s-1.2,2.5-3.1,2.5Z"/>
    <path class="st0" d="M104.4,69.9h-3.5l-1,2.7h-1.1l3.4-8.9h1l3.4,8.9h-1.1l-1.1-2.7ZM101.8,61.4c.7,0,1.4.7,1.9.7s.6-.2.7-.7h.6c0,1-.6,1.6-1.3,1.6s-1.3-.7-1.9-.7-.6.2-.7.7h-.6c0-1,.6-1.6,1.4-1.6ZM103.1,66.2c0-.2-.3-1-.4-1.3-.1.5-.3,1-.4,1.3l-1,2.7h2.8l-1-2.7Z"/>
    <path class="st0" d="M111.1,72.8c-2.8,0-4.1-1.8-4.1-4.6s1.3-4.5,4.1-4.5,4.1,1.8,4.1,4.5-1.4,4.5-4.1,4.5ZM111.1,71.8c2,0,2.9-1.4,2.9-3.6s-.9-3.6-2.9-3.6-2.9,1.3-2.9,3.6.9,3.6,2.9,3.6Z"/>
    <path class="st0" d="M120.5,63.8h1.1v7.8h4.1l-.4,1h-4.8v-8.8Z"/>
    <path class="st0" d="M126.9,72.6v-8.8h4.9v1h-3.8v2.8h3.3v1h-3.3v3.1h4.1l-.4,1h-4.8Z"/>
    <path class="st0" d="M135.7,72.8c-1,0-1.9-.1-2.4-.4l.3-.9c.4.2,1.2.4,2.1.4s2-.5,2-1.4-.5-1.2-2.1-1.8c-1.5-.5-2.3-1.2-2.3-2.6s1.1-2.2,2.8-2.2,1.8.2,2.4.5l-.4,1c-.6-.3-1.3-.5-2.1-.5-1.1,0-1.7.5-1.7,1.3s.5,1.2,1.9,1.8c1.6.6,2.4,1.2,2.4,2.5s-1.2,2.5-3.1,2.5Z"/>
    <path class="st0" d="M142.4,72.6v-7.8h-2.8l.4-1h6.2v1h-2.7v7.8h-1.1Z"/>
    <path class="st0" d="M147.6,72.6v-8.8h4.9v1h-3.8v2.8h3.3v1h-3.3v3.1h4.1l-.4,1h-4.8Z"/>
    <path class="st0" d="M162.2,69.9h-3.5l-1,2.7h-1.1l3.4-8.9h1l3.4,8.9h-1.1l-1.1-2.7ZM160.9,66.2c0-.2-.3-1-.4-1.3-.1.5-.3,1-.4,1.3l-1,2.7h2.8l-1-2.7Z"/>
    <path class="st0" d="M166.7,64.9h0c0,.5,0,1.4,0,2.4v5.3h-1v-8.8h1.6l2.7,7.2h0l2.8-7.2h1.6v8.8h-1.1v-5.4c0-.9,0-1.8,0-2.3h0l-2.9,7.7h-.9l-2.9-7.7Z"/>
    <path class="st0" d="M181.4,69.9h-3.5l-1,2.7h-1.1l3.4-8.9h1l3.4,8.9h-1.1l-1.1-2.7ZM180,66.2c0-.2-.3-1-.4-1.3-.1.5-.3,1-.4,1.3l-1,2.7h2.8l-1-2.7Z"/>
    <path class="st0" d="M184.5,72.6v-.8l4.6-7h-4.5v-1h5.8v.8l-4.6,7h4.8v1h-6.1Z"/>
    <path class="st0" d="M195.4,72.8c-2.8,0-4.1-1.8-4.1-4.6s1.3-4.5,4.1-4.5,4.1,1.8,4.1,4.5-1.4,4.5-4.1,4.5ZM195.4,71.8c2,0,2.9-1.4,2.9-3.6s-.9-3.6-2.9-3.6-2.9,1.3-2.9,3.6.9,3.6,2.9,3.6Z"/>
    <path class="st0" d="M206.9,72.6l-4.7-7.3h0c0,.6,0,1.5,0,2.4v4.9h-1v-8.8h1.3l4.7,7.3h0c0-.4,0-1.5,0-2.3v-5h1v8.8h-1.3Z"/>
    <path class="st0" d="M215.1,69.9h-3.5l-1,2.7h-1.1l3.4-8.9h1l3.4,8.9h-1.1l-1.1-2.7ZM213.8,66.2c0-.2-.3-1-.4-1.3-.1.5-.3,1-.4,1.3l-1,2.7h2.8l-1-2.7Z"/>
    <path class="st0" d="M220.7,72.8c-1,0-1.9-.1-2.4-.4l.3-.9c.4.2,1.2.4,2.1.4s2-.5,2-1.4-.5-1.2-2.1-1.8c-1.5-.5-2.3-1.2-2.3-2.6s1.1-2.2,2.8-2.2,1.8.2,2.4.5l-.4,1c-.6-.3-1.3-.5-2.1-.5-1.1,0-1.7.5-1.7,1.3s.5,1.2,1.9,1.8c1.6.6,2.4,1.2,2.4,2.5s-1.2,2.5-3.1,2.5Z"/>
  </g>
  <g>
    <path class="st0" d="M70.8,28.5l.7-1.8h1.2v-12.2h-1.8v-1.7h5.7l-.7,1.7h-1.2v12.2h1.8v1.8h-5.7Z"/>
    <path class="st0" d="M77.3,30.5c0-1.5.9-2.5,2.6-2.9-.7-.3-1-.9-1-1.6s.5-1.5,1.4-2.1c-1.3-.5-2-2-2-3.3,0-2.7,1.7-4.1,4.4-4.1s1.1,0,1.6.2h4.1l-.6,1.5h-1.5c.5.6.7,1.4.7,2.3,0,2.4-1.8,3.8-4.3,3.8s-.7,0-.9,0c-.7.4-1.1.9-1.1,1.4s.6.9,1.7.9h2c2.4,0,3.8,1.1,3.8,3.2s-2,4-6.1,4-4.8-.9-4.8-3.3ZM86.3,29.9c0-.6-.2-1.1-.5-1.3-.4-.2-1.1-.3-2.1-.3h-2c-1.6,0-2.5.7-2.5,2.1s1,1.9,2.9,1.9c2.8,0,4.2-.8,4.2-2.4ZM85,20.5c0-1.7-.8-2.6-2.4-2.6s-2.4.9-2.4,2.6.8,2.4,2.4,2.4,2.4-.8,2.4-2.5Z"/>
    <path class="st0" d="M97,16.7l-.2,1.8c-.4,0-.9-.2-1.3-.2-1.8,0-3.4,1.6-3.4,3.9v6.3h-1.9v-11.8h1.6l.2,2.2h0c.7-1.3,2-2.4,3.6-2.4s1,0,1.4.1Z"/>
    <path class="st0" d="M107.3,21.8v1.2h-8.1c0,2.7,1.4,4.1,3.8,4.1s2.3-.2,3.2-.6l.5,1.4c-1.2.5-2.3.8-3.9.8-3.4,0-5.7-2.1-5.7-6s2.1-6.2,5.2-6.2,4.8,2.1,4.8,5.3ZM99.3,21.5h6c0-2-.9-3.4-2.9-3.4s-2.9,1.3-3.1,3.4Z"/>
    <path class="st0" d="M107.9,32.2c1.3-.6,1.5-1.4,1.5-3.5v-11.9h1.9v12c0,2.3-.6,4.1-2.9,5l-.6-1.6ZM110.5,12.3c.6,0,1.1.4,1.1,1.2s-.5,1.2-1.1,1.2-1.1-.4-1.1-1.2.5-1.2,1.1-1.2Z"/>
    <path class="st0" d="M122.9,20.5v8h-1.4l-.4-1.7h0c-1,1.3-2,1.9-4,1.9s-3.7-1.1-3.7-3.5,1.8-3.6,5.6-3.8h2v-.8c0-2-.9-2.6-2.4-2.6s-2.3.4-3.3.9l-.6-1.4c1-.5,2.5-1,4-1,2.9,0,4.2,1.2,4.2,4ZM119.3,22.8c-2.9.1-3.9.9-3.9,2.4s.9,1.9,2.2,1.9c2,0,3.5-1.1,3.5-3.4v-1.1h-1.7Z"/>
    <path class="st0" d="M139.6,23.7h-6.2l-1.9,4.8h-2l6.1-15.7h1.8l6.1,15.7h-2l-1.9-4.8ZM137.3,17.2c-.1-.4-.6-1.8-.7-2.3-.2.9-.5,1.8-.7,2.3l-1.8,4.7h5l-1.8-4.7Z"/>
    <path class="st0" d="M143.9,22.7c0-4,1.9-6.1,4.8-6.1s2.9.8,3.6,1.7h.1c0-.4-.1-1.3-.1-1.7v-4l1.9-.7v16.7h-1.6l-.3-1.6h0c-.7,1-1.8,1.8-3.7,1.8-2.9,0-4.8-2-4.8-6.1ZM152.4,23v-.4c0-2.9-.8-4.5-3.4-4.5s-3.1,1.8-3.1,4.6,1,4.4,3.1,4.4,3.4-1.4,3.4-4.1Z"/>
    <path class="st0" d="M155.9,16.7h2.1l2.5,6.9c.4,1,.8,2.4.9,3.1h0c.2-.7.7-2.2,1-3.1l2.5-6.9h2.1l-4.5,11.8h-2.2l-4.5-11.8Z"/>
    <path class="st0" d="M177.8,21.8v1.2h-8.1c0,2.7,1.4,4.1,3.8,4.1s2.3-.2,3.2-.6l.5,1.4c-1.2.5-2.3.8-3.9.8-3.4,0-5.7-2.1-5.7-6s2.1-6.2,5.2-6.2,4.8,2.1,4.8,5.3ZM169.8,21.5h6c0-2-.9-3.4-2.9-3.4s-2.9,1.3-3.1,3.4Z"/>
    <path class="st0" d="M189.8,20.9v7.7h-1.9v-7.5c0-1.9-.8-2.8-2.6-2.8-2.6,0-3.4,1.5-3.4,4.3v6.1h-1.9v-11.8h1.6l.3,1.6h.1c.8-1.2,2.2-1.8,3.7-1.8,2.8,0,4.3,1.3,4.3,4.3Z"/>
    <path class="st0" d="M197.7,26.9l.5,1.4c-.4.3-1.3.5-2.2.5-1.8,0-3.4-.8-3.4-3.6v-10.3l1.9-.7v2.7h3.4v1.5h-3.4v6.8c0,1.4.8,2.1,1.8,2.1s1-.2,1.3-.3Z"/>
    <path class="st0" d="M202.5,13.6c0,.8-.5,1.2-1.1,1.2s-1.1-.4-1.1-1.2.5-1.2,1.1-1.2,1.1.4,1.1,1.2ZM202.3,28.5h-1.9v-11.8h1.9v11.8Z"/>
    <path class="st0" d="M208.6,28.7c-1.6,0-2.8-.3-3.7-.7l.6-1.5c.8.3,2,.7,3.2.7,2,0,2.8-.7,2.8-1.7s-.6-1.4-2.9-2.3c-2.3-.9-3.6-1.6-3.6-3.5s1.8-3.1,4.4-3.1,2.7.3,3.8.8l-.6,1.6c-1-.4-2.2-.8-3.3-.8s-2.4.5-2.4,1.4.8,1.4,3,2.2c2.2.8,3.5,1.6,3.5,3.5s-1.8,3.5-4.7,3.5Z"/>
    <path class="st0" d="M220.7,26.9l.5,1.4c-.4.3-1.3.5-2.2.5-1.8,0-3.4-.8-3.4-3.6v-10.3l1.9-.7v2.7h3.4v1.5h-3.4v6.8c0,1.4.8,2.1,1.8,2.1s1-.2,1.3-.3Z"/>
    <path class="st0" d="M231.6,20.5v8h-1.4l-.4-1.7h0c-1,1.3-2,1.9-4,1.9s-3.7-1.1-3.7-3.5,1.8-3.6,5.6-3.8h2v-.8c0-2-.9-2.6-2.4-2.6s-2.3.4-3.3.9l-.6-1.4c1-.5,2.5-1,4-1,2.9,0,4.2,1.2,4.2,4ZM228,22.8c-2.9.1-3.9.9-3.9,2.4s.9,1.9,2.2,1.9c2,0,3.5-1.1,3.5-3.4v-1.1h-1.7Z"/>
    <path class="st0" d="M70.7,46.2c0-4,1.9-6.1,4.8-6.1s2.9.8,3.6,1.7h.1c0-.4-.1-1.3-.1-1.7v-4l1.9-.7v16.7h-1.6l-.3-1.6h0c-.7,1-1.8,1.8-3.7,1.8-2.9,0-4.8-2-4.8-6.1ZM79.2,46.6v-.4c0-2.9-.8-4.5-3.4-4.5s-3.1,1.8-3.1,4.6,1,4.4,3.1,4.4,3.4-1.4,3.4-4.1Z"/>
    <path class="st0" d="M88.5,52.3c-3.1,0-5.4-2.2-5.4-6.1s2.1-6.1,5.5-6.1,5.4,2.2,5.4,6.1-2.1,6.1-5.5,6.1ZM88.5,50.7c2.4,0,3.4-1.7,3.4-4.5s-1.1-4.5-3.5-4.5-3.4,1.7-3.4,4.5,1.1,4.5,3.4,4.5Z"/>
    <path class="st0" d="M106.3,52.3c-1.8,0-3.3-.3-4.3-.7l.6-1.6c.7.3,2.1.7,3.8.7s3.5-1,3.5-2.5-.9-2.2-3.7-3.2c-2.7-1-4-2.2-4-4.7s2-4,5-4,3.1.4,4.3.9l-.6,1.7c-1.1-.5-2.4-.8-3.7-.8-2,0-3,.9-3,2.3s.9,2.2,3.4,3.2c2.8,1,4.3,2.1,4.3,4.5s-2.2,4.4-5.6,4.4Z"/>
    <path class="st0" d="M123.3,45.4v1.2h-8.1c0,2.7,1.4,4.1,3.8,4.1s2.3-.2,3.2-.6l.5,1.4c-1.2.5-2.3.8-3.9.8-3.4,0-5.7-2.1-5.7-6s2.1-6.2,5.2-6.2,4.8,2.1,4.8,5.3ZM115.2,45h6c0-2-.9-3.4-2.9-3.4s-2.9,1.3-3.1,3.4ZM121.3,35.5c-.5.8-2.1,2.5-3.1,3.3h-1.3v-.3c.6-.8,1.6-2.3,2.1-3.2h2.3v.2Z"/>
    <path class="st0" d="M130.4,50.4l.5,1.4c-.4.3-1.3.5-2.2.5-1.8,0-3.4-.8-3.4-3.6v-10.3l1.9-.7v2.7h3.4v1.5h-3.4v6.8c0,1.4.8,2.1,1.8,2.1s1-.2,1.3-.3Z"/>
    <path class="st0" d="M135.2,37.1c0,.8-.5,1.2-1.1,1.2s-1.1-.4-1.1-1.2.5-1.2,1.1-1.2,1.1.4,1.1,1.2ZM135,52h-1.9v-11.8h1.9v11.8Z"/>
    <path class="st0" d="M155.1,44.4v7.7h-1.9v-7.6c0-1.8-.8-2.8-2.4-2.8s-3.2,1.4-3.2,3.9v6.5h-1.9v-7.6c0-1.8-.8-2.8-2.4-2.8-2.4,0-3.1,1.5-3.1,4.3v6.1h-1.9v-11.8h1.6l.3,1.6h.1c.7-1.2,2.1-1.8,3.5-1.8s3,.6,3.6,2h.1c.8-1.3,2.2-2,3.8-2,2.7,0,4,1.3,4,4.3Z"/>
    <path class="st0" d="M162.6,52.3c-3.1,0-5.4-2.2-5.4-6.1s2.1-6.1,5.5-6.1,5.4,2.2,5.4,6.1-2.1,6.1-5.5,6.1ZM162.6,50.7c2.4,0,3.4-1.7,3.4-4.5s-1.1-4.5-3.5-4.5-3.4,1.7-3.4,4.5,1.1,4.5,3.4,4.5Z"/>
    <path class="st0" d="M181,52h-4.4v-15.7h4.8c4.7,0,7.7,2.7,7.7,7.7s-3,8-8.2,8ZM181.2,38.1h-2.6v12.3h2.1c4.2,0,6.4-2.1,6.4-6.2s-2.2-6.1-5.9-6.1Z"/>
    <path class="st0" d="M193.6,37.1c0,.8-.5,1.2-1.1,1.2s-1.1-.4-1.1-1.2.5-1.2,1.1-1.2,1.1.4,1.1,1.2ZM193.5,52h-1.9v-11.8h1.9v11.8Z"/>
    <path class="st0" d="M205,44v8h-1.4l-.4-1.7h0c-1,1.3-2,1.9-4,1.9s-3.7-1.1-3.7-3.5,1.8-3.6,5.6-3.8h2v-.8c0-2-.9-2.6-2.4-2.6s-2.3.4-3.3.9l-.6-1.4c1-.5,2.5-1,4-1,2.9,0,4.2,1.2,4.2,4ZM201.3,46.4c-2.9.1-3.9.9-3.9,2.4s.9,1.9,2.2,1.9c2,0,3.5-1.1,3.5-3.4v-1.1h-1.7Z"/>
    <path class="st0" d="M205.5,37.1c0-.9.6-1.5,1.4-1.5s1.4.6,1.4,1.5-.6,1.4-1.4,1.4-1.4-.6-1.4-1.4ZM208.1,37.1c0-.7-.5-1.3-1.2-1.3s-1.2.5-1.2,1.3.5,1.2,1.2,1.2,1.2-.5,1.2-1.2ZM206.4,36.2h.5c.4,0,.6.2.6.5s-.2.4-.3.4l.5.8h-.4l-.4-.7h-.2v.7h-.3v-1.7ZM206.9,37c.2,0,.3-.1.3-.3s-.1-.3-.3-.3h-.2v.5h.2Z"/>
  </g>
  <g>
    <path class="st0" d="M34.5,30.3c-2.3,2.3-3.5,3.5-4.1,6.3,0,.2-.3.2-.3,0v-3.5c0-2.2,2-4.3,4.4-6.7l1.9-1.9c2.7-2.7,3.3-5.8,1.2-7.6-.2-.2,0-.3.1-.2,2.7,1.2,4.7,5.6.2,10.1l-3.5,3.4ZM30.1,39.2v3.5c0,.2.2.2.3,0,.6-2.8,1.7-4,4.1-6.3l3.7-3.7c4.5-4.5,5.3-8.9,3-11.8-.2-.2-.3,0-.2.2,1.5,3.5-2.1,7.1-3.9,8.9l-2.6,2.6c-2.4,2.4-4.4,4.4-4.4,6.7ZM20.1,27.9c-4.5,4.5-2.5,8.9.2,10.1.2.1.3,0,.1-.2-2.1-1.8-1.5-4.9,1.2-7.6l7.6-7.6c2.4-2.4,4.4-4.4,4.4-6.7v-3.5c0-.2-.2-.2-.3,0-.6,2.8-1.7,4-4.1,6.3l-9.1,9.1ZM33.5,9.9v-3.5c0-.2-.2-.2-.3,0-.6,2.8-1.7,4-4.1,6.3l-9.4,9.4c-4.5,4.5-5.3,8.9-3,11.8.2.2.3,0,.2-.2-1.5-3.5,2.1-7.1,3.9-8.9l8.3-8.3c2.4-2.4,4.4-4.4,4.4-6.7ZM18.8,16.9c-3.9,3.9-4.5,8-3.6,10.7,0,.2.3.2.3,0,0-2.3.6-4.2,4.8-8.4l8.9-8.9c2.4-2.4,4.4-4.4,4.4-6.7V.2c0-.2-.2-.2-.3,0-.6,2.8-1.7,4-4.1,6.3l-10.3,10.3ZM24.3,45.2c0,0-.1,0-.1-.1v-2c0,0,0-.1.1-.1h3.4c0,0,.1,0,.1-.1,0-1.8-1.4-3.1-6.9-2.1l-11.9,2S0,51.7,0,51.8c-.1.1,0,.3.2.3.2,0,19.7-3.4,19.7-3.4,4.5-.8,6.9,1.4,7.7,3.4,0,.2.3.2.3,0s0-6.8,0-6.8c0,0,0-.1-.1-.1h-3.4ZM38.4,40.9l-3.9,3.9c-2.4,2.4-4.4,4.4-4.4,6.7v.6c0,.2.2.2.3,0,.7-2,3.2-4.1,7.7-3.4,0,0,19.6,3.4,19.7,3.4.2,0,.3-.2.2-.3,0,0-9.1-9.1-9.1-9.1l-10.4-1.8ZM42.8,27.1c0-.2-.3-.2-.3,0,0,2.3-.6,4.2-4.8,8.4l-3.3,3.3c-1.5,1.5-2.8,2.8-3.6,4.2h3.2c.1-.1.3-.3.4-.4l4.7-4.7c3.9-3.9,4.5-8,3.6-10.7ZM30.2,48.8c0,.2.2.2.3,0,.3-1.6.8-2.6,1.6-3.6h-1.7c0,0-.1,0-.1.1v3.5Z"/>
    <path class="st0" d="M55.1,45.5c0-.8.6-1.5,1.5-1.5s1.5.6,1.5,1.5-.6,1.5-1.5,1.5-1.5-.6-1.5-1.5ZM57.8,45.5c0-.7-.5-1.2-1.2-1.2s-1.2.5-1.2,1.2.5,1.2,1.2,1.2,1.2-.5,1.2-1.2ZM56.1,44.7h.5c.4,0,.6.2.6.5s-.2.4-.3.5l.5.8h-.3l-.4-.7h-.2v.7h-.3v-1.7ZM56.6,45.5c.2,0,.3-.1.3-.3s-.1-.3-.3-.3h-.2v.5h.2Z"/>
  </g>
 </g>
</svg>
