<svg width="231" height="100" viewBox="0 0 231 100" fill="none" xmlns="http://www.w3.org/2000/svg">
<path d="M78.7144 72.34H79.8144V63.55H78.1844L75.4244 70.76H75.3744L72.6644 63.55H71.0244V72.34H72.0444V67.01C72.0444 66.07 72.0044 65.14 71.9544 64.63H72.0044L74.8944 72.34H75.8044L78.7344 64.64H78.7844C78.7444 65.17 78.6944 66.08 78.6944 66.93V72.34H78.7144Z" fill="#303336"/>
<path d="M84.1243 64.51L84.4943 63.54H81.3143V64.51H82.3543V71.35H81.6843L81.3143 72.34H84.4943V71.35H83.4643V64.51H84.1243Z" fill="#303336"/>
<path d="M88.8743 67.45C87.4443 66.92 86.9543 66.56 86.9543 65.68C86.9543 64.92 87.5243 64.4 88.6143 64.4C89.3743 64.4 90.0943 64.61 90.7043 64.87L91.0643 63.92C90.3943 63.63 89.5943 63.43 88.6343 63.43C86.9743 63.43 85.8243 64.3 85.8243 65.67C85.8243 67.04 86.5843 67.74 88.0943 68.28C89.6843 68.86 90.1643 69.22 90.1643 70.09C90.1643 70.96 89.4843 71.51 88.1843 71.51C87.2443 71.51 86.4443 71.31 86.0643 71.14L85.7243 72.05C86.2843 72.32 87.1543 72.47 88.1343 72.47C90.0543 72.47 91.2743 71.56 91.2743 70C91.2743 68.62 90.4243 68.04 88.8743 67.46V67.45Z" fill="#303336"/>
<path d="M94.7843 71.5C93.8443 71.5 93.0443 71.3 92.6643 71.13L92.3243 72.04C92.8843 72.31 93.7543 72.46 94.7443 72.46C96.6643 72.46 97.8843 71.55 97.8843 69.99C97.8843 68.61 97.0343 68.03 95.4843 67.45C94.0543 66.92 93.5643 66.56 93.5643 65.68C93.5643 64.92 94.1343 64.4 95.2243 64.4C95.9843 64.4 96.7043 64.61 97.3143 64.87L97.6743 63.92C97.0043 63.63 96.2043 63.43 95.2443 63.43C93.5843 63.43 92.4343 64.3 92.4343 65.67C92.4343 67.04 93.1943 67.74 94.7043 68.28C96.2943 68.86 96.7743 69.22 96.7743 70.09C96.7743 70.96 96.0943 71.51 94.7943 71.51L94.7843 71.5Z" fill="#303336"/>
<path d="M103.404 61.81C102.884 61.81 102.254 61.11 101.534 61.11C100.754 61.11 100.274 61.71 100.174 62.69H100.804C100.914 62.21 101.084 61.98 101.484 61.98C102.024 61.98 102.664 62.68 103.354 62.68C104.134 62.68 104.594 62.06 104.694 61.1H104.084C103.964 61.58 103.794 61.81 103.404 61.81Z" fill="#303336"/>
<path d="M105.244 72.34H106.394L102.974 63.51H101.974L98.5344 72.34H99.6544L100.704 69.62H104.184L105.244 72.34ZM101.074 68.63L102.074 65.97C102.174 65.69 102.334 65.16 102.454 64.65C102.544 64.96 102.804 65.77 102.874 65.97L103.854 68.63H101.074Z" fill="#303336"/>
<path d="M114.904 67.92C114.904 65.19 113.624 63.4 110.864 63.4C108.104 63.4 106.784 65.19 106.784 67.91C106.784 70.63 108.104 72.45 110.844 72.46C113.494 72.46 114.894 70.66 114.894 67.93L114.904 67.92ZM110.854 71.49C108.874 71.49 107.964 70.13 107.964 67.92C107.964 65.71 108.884 64.37 110.874 64.37C112.864 64.37 113.744 65.7 113.744 67.92C113.744 70.14 112.854 71.49 110.864 71.49H110.854Z" fill="#303336"/>
<path d="M124.044 68.39C124.934 68.08 125.804 67.44 125.804 66.04C125.804 64.36 124.784 63.54 122.604 63.54H120.174V72.33H121.284V68.7H123.034L125.164 72.33H126.454L124.034 68.39H124.044ZM122.604 67.76H121.284V64.5H122.544C123.984 64.5 124.664 64.98 124.664 66.09C124.664 67.2 124.034 67.77 122.604 67.77V67.76Z" fill="#303336"/>
<path d="M130.244 64.51L130.614 63.54H127.434V64.51H128.464V71.35H127.804L127.434 72.34H130.614V71.35H129.574V64.51H130.244Z" fill="#303336"/>
<path d="M139.644 67.92C139.644 65.19 138.364 63.4 135.604 63.4C132.844 63.4 131.524 65.19 131.524 67.91C131.524 70.63 132.844 72.45 135.584 72.46C138.234 72.46 139.634 70.66 139.634 67.93L139.644 67.92ZM135.594 71.49C133.614 71.49 132.704 70.13 132.704 67.92C132.704 65.71 133.624 64.37 135.614 64.37C137.604 64.37 138.484 65.7 138.484 67.92C138.484 70.14 137.594 71.49 135.604 71.49H135.594Z" fill="#303336"/>
<path d="M148.964 64.39C149.804 64.39 150.654 64.64 151.284 64.91L151.654 63.94C150.904 63.62 150.014 63.42 149.034 63.42C146.154 63.42 144.474 65.16 144.474 67.94C144.474 70.72 145.954 72.46 148.684 72.46C149.914 72.46 150.824 72.31 151.774 72.01V67.7H149.094L148.724 68.68H150.654V71.29C150.214 71.4 149.704 71.5 148.934 71.5C146.564 71.5 145.624 70.13 145.624 67.94C145.624 65.75 146.854 64.39 148.964 64.39Z" fill="#303336"/>
<path d="M159.374 66.04C159.374 64.36 158.354 63.54 156.174 63.54H153.744V72.33H154.854V68.7H156.604L158.734 72.33H160.024L157.604 68.39C158.494 68.08 159.364 67.44 159.364 66.04H159.374ZM156.174 67.76H154.854V64.5H156.114C157.554 64.5 158.234 64.98 158.234 66.09C158.234 67.2 157.604 67.77 156.174 67.77V67.76Z" fill="#303336"/>
<path d="M168.634 72.34L165.214 63.51H164.214L160.774 72.34H161.894L162.944 69.62H166.424L167.484 72.34H168.634ZM163.314 68.63L164.314 65.97C164.414 65.69 164.574 65.16 164.694 64.65C164.784 64.96 165.044 65.77 165.114 65.97L166.104 68.63H163.324H163.314Z" fill="#303336"/>
<path d="M170.834 65.03L175.534 72.33H176.824V63.54H175.794V68.5C175.794 69.3 175.854 70.42 175.884 70.82H175.834L171.144 63.54H169.864V72.33H170.884V67.41C170.884 66.51 170.824 65.6 170.784 65.02H170.834V65.03Z" fill="#303336"/>
<path d="M181.714 63.54H179.004V72.33H181.454C184.354 72.33 186.054 70.81 186.054 67.85C186.054 64.89 184.364 63.54 181.714 63.54ZM181.304 71.38H180.104V64.48H181.544C183.664 64.48 184.874 65.56 184.874 67.88C184.874 70.2 183.674 71.38 181.304 71.38Z" fill="#303336"/>
<path d="M188.914 68.22H192.224V67.26H188.914V64.51H192.724V63.54H187.804V72.34H192.624L192.994 71.36H188.914V68.22Z" fill="#303336"/>
<path d="M73.7344 78.21H71.0244V87H73.4744C76.3744 87 78.0644 85.48 78.0644 82.52C78.0644 79.56 76.3744 78.21 73.7244 78.21H73.7344ZM73.3244 86.05H72.1344V79.15H73.5744C75.6944 79.15 76.8944 80.23 76.8944 82.55C76.8944 84.87 75.7044 86.05 73.3244 86.05Z" fill="#303336"/>
<path d="M83.5043 78.07C80.7443 78.07 79.4243 79.86 79.4243 82.58C79.4243 85.3 80.7443 87.12 83.4843 87.13C86.1343 87.13 87.5343 85.33 87.5343 82.6C87.5343 79.87 86.2543 78.08 83.4943 78.08L83.5043 78.07ZM83.4943 86.16C81.5143 86.16 80.6043 84.8 80.6043 82.59C80.6043 80.38 81.5243 79.04 83.5143 79.04C85.5043 79.04 86.3843 80.37 86.3843 82.59C86.3843 84.81 85.4943 86.16 83.5043 86.16H83.4943Z" fill="#303336"/>
<path d="M98.7543 83.17C98.7543 83.97 98.8143 85.09 98.8443 85.49H98.7943L94.1043 78.21H92.8243V87H93.8443V82.08C93.8443 81.18 93.7843 80.27 93.7443 79.69H93.7943L98.5043 86.99H99.7943V78.2H98.7643V83.16L98.7543 83.17Z" fill="#303336"/>
<path d="M105.644 78.07C102.884 78.07 101.564 79.86 101.564 82.58C101.564 85.3 102.884 87.12 105.624 87.13C108.274 87.13 109.674 85.33 109.674 82.6C109.674 79.87 108.394 78.08 105.634 78.08L105.644 78.07ZM105.634 86.16C103.654 86.16 102.744 84.8 102.744 82.59C102.744 80.38 103.664 79.04 105.654 79.04C107.644 79.04 108.524 80.37 108.524 82.59C108.524 84.81 107.634 86.16 105.644 86.16H105.634Z" fill="#303336"/>
<path d="M117.074 80.71C117.074 79.03 116.054 78.21 113.874 78.21H111.444V87H112.554V83.37H114.304L116.434 87H117.724L115.314 83.06C116.204 82.75 117.074 82.11 117.074 80.71ZM113.874 82.43H112.554V79.17H113.814C115.254 79.17 115.934 79.65 115.934 80.76C115.934 81.87 115.304 82.44 113.874 82.44V82.43Z" fill="#303336"/>
<path d="M118.024 79.18H120.764V87H121.874V79.18H124.614V78.21H118.394L118.024 79.18Z" fill="#303336"/>
<path d="M126.984 82.89H130.284V81.93H126.984V79.18H130.794V78.21H125.874V87H130.694L131.064 86.03H126.984V82.89Z" fill="#303336"/>
<path d="M131.734 82L132.104 82.96H135.084L134.714 82H131.734Z" fill="#303336"/>
<path d="M138.514 78.21H136.184V87H137.294V83.58H138.304C140.944 83.58 141.814 82.25 141.814 80.8C141.814 79.16 140.814 78.21 138.514 78.21ZM138.184 82.63H137.294V79.16H138.414C139.964 79.16 140.664 79.71 140.664 80.85C140.664 82.14 139.854 82.64 138.174 82.64L138.184 82.63Z" fill="#303336"/>
<path d="M145.064 78.17L141.634 87H142.754L143.804 84.28H147.284L148.344 87H149.484L146.064 78.17H145.064ZM144.164 83.29L145.164 80.63C145.264 80.35 145.424 79.82 145.544 79.31C145.634 79.62 145.894 80.43 145.964 80.63L146.954 83.29H144.174H144.164Z" fill="#303336"/>
<path d="M156.334 80.71C156.334 79.03 155.314 78.21 153.134 78.21H150.704V87H151.814V83.37H153.564L155.694 87H156.984L154.574 83.06C155.464 82.75 156.334 82.11 156.334 80.71ZM153.134 82.43H151.814V79.17H153.074C154.514 79.17 155.194 79.65 155.194 80.76C155.194 81.87 154.564 82.44 153.134 82.44V82.43Z" fill="#303336"/>
<path d="M161.174 78.17L157.734 87H158.854L159.904 84.28H163.384L164.444 87H165.594L162.174 78.17H161.174ZM160.274 83.29L161.274 80.63C161.374 80.35 161.534 79.82 161.654 79.31C161.744 79.62 162.004 80.43 162.074 80.63L163.054 83.29H160.274Z" fill="#303336"/>
<path d="M169.304 79.18L169.674 78.21H166.494V79.18H167.534V86.01H166.864L166.494 87H169.674V86.01H168.634V79.18H169.304Z" fill="#303336"/>
<path d="M167.364 77.2V77.35H168.074C168.654 76.91 169.524 75.96 169.834 75.5V75.38H168.524C168.244 75.94 167.714 76.75 167.354 77.2H167.364Z" fill="#303336"/>
<path d="M175.294 82.39V82.33C176.374 82.13 176.964 81.42 176.964 80.38C176.964 78.78 175.814 78.2 173.624 78.2H171.114V86.99H174.204C176.084 86.99 177.254 86.09 177.254 84.49C177.254 83.12 176.394 82.57 175.284 82.38L175.294 82.39ZM172.224 79.15H173.674C175.164 79.15 175.814 79.56 175.814 80.5C175.814 81.44 175.344 81.94 173.844 81.94H172.214V79.14L172.224 79.15ZM173.994 86.06H172.224V82.87H173.914C175.534 82.87 176.084 83.49 176.084 84.41C176.084 85.39 175.554 86.06 174.004 86.06H173.994Z" fill="#303336"/>
<path d="M181.304 78.17L177.864 87H178.984L180.034 84.28H183.524L184.584 87H185.734L182.314 78.17H181.314H181.304ZM180.404 83.29L181.404 80.63C181.504 80.35 181.664 79.82 181.784 79.31C181.874 79.62 182.134 80.43 182.204 80.63L183.184 83.29H180.404Z" fill="#303336"/>
<path d="M71.2643 26.59L70.6143 28.34H76.2543V26.59H74.4143V14.45H75.5943L76.2543 12.72H70.6143V14.45H72.4443V26.59H71.2643Z" fill="#303336"/>
<path d="M81.9044 33.6C85.9244 33.6 87.9444 32.27 87.9444 29.58C87.9444 27.48 86.4744 26.41 84.1144 26.41H82.1244C80.9844 26.41 80.3944 26.1 80.3944 25.51C80.3944 24.96 80.7444 24.48 81.4644 24.09C81.6844 24.13 81.9944 24.16 82.3844 24.16C84.9244 24.16 86.6944 22.82 86.6944 20.4C86.6944 19.5 86.4544 18.74 85.9944 18.12H87.5244L88.0944 16.63H84.0444C83.5844 16.48 83.0644 16.41 82.4444 16.41C79.7744 16.41 78.0644 17.72 78.0644 20.46C78.0644 21.81 78.7644 23.22 80.1044 23.76C79.1644 24.33 78.6844 25.01 78.6844 25.82C78.6844 26.56 79.0344 27.13 79.7144 27.46C78.0044 27.88 77.1544 28.84 77.1544 30.35C77.1544 32.67 79.1644 33.61 81.9044 33.61V33.6ZM79.9744 20.38C79.9744 18.67 80.7844 17.8 82.3844 17.8C83.9844 17.8 84.7944 18.65 84.7944 20.36C84.7944 22.07 84.0244 22.81 82.4044 22.81C80.7844 22.81 79.9744 22.09 79.9744 20.38ZM81.4444 28.15H83.4544C84.5044 28.15 85.2044 28.26 85.5744 28.48C85.9244 28.7 86.0944 29.11 86.0944 29.75C86.0944 31.35 84.6944 32.13 81.8744 32.13C79.9544 32.13 78.9844 31.5 78.9844 30.27C78.9844 28.85 79.7944 28.15 81.4344 28.15H81.4444Z" fill="#303336"/>
<path d="M91.8743 22.09C91.8743 19.73 93.4743 18.15 95.2843 18.15C95.6743 18.15 96.1843 18.22 96.5543 18.3L96.7943 16.53C96.4043 16.44 95.8543 16.4 95.4143 16.4C93.7743 16.4 92.5743 17.47 91.8243 18.76H91.7343L91.5143 16.62H89.9443V28.35H91.8643V22.09H91.8743Z" fill="#303336"/>
<path d="M102.664 28.56C104.264 28.56 105.314 28.32 106.514 27.79L105.964 26.35C105.044 26.7 103.884 26.92 102.744 26.92C100.404 26.92 99.0643 25.5 99.0043 22.85H107.034V21.69C107.034 18.49 105.304 16.39 102.194 16.39C99.0843 16.39 97.0043 18.64 97.0043 22.56C97.0043 26.48 99.3043 28.55 102.644 28.55L102.664 28.56ZM102.184 17.97C104.134 17.97 105.004 19.33 105.024 21.32H99.0543C99.2543 19.22 100.344 17.97 102.184 17.97Z" fill="#303336"/>
<path d="M111.124 28.63V16.62H109.204V28.52C109.204 30.6 108.924 31.43 107.674 32L108.284 33.6C110.514 32.75 111.124 30.93 111.124 28.63Z" fill="#303336"/>
<path d="M110.184 14.67C110.774 14.67 111.304 14.3 111.304 13.45C111.304 12.6 110.784 12.22 110.184 12.22C109.544 12.22 109.044 12.62 109.044 13.45C109.044 14.28 109.544 14.67 110.184 14.67Z" fill="#303336"/>
<path d="M116.814 28.56C118.784 28.56 119.724 27.97 120.754 26.68H120.844L121.214 28.34H122.614V20.35C122.614 17.61 121.254 16.41 118.414 16.41C116.884 16.41 115.434 16.87 114.404 17.42L114.994 18.86C115.954 18.4 117.074 17.96 118.294 17.96C119.824 17.96 120.724 18.62 120.724 20.56V21.26L118.734 21.33C114.904 21.44 113.114 22.69 113.114 25.07C113.114 27.45 114.694 28.55 116.814 28.55V28.56ZM118.974 22.68L120.704 22.61V23.66C120.704 25.94 119.214 27.01 117.244 27.01C115.974 27.01 115.104 26.42 115.104 25.11C115.104 23.62 116.044 22.79 118.974 22.68Z" fill="#303336"/>
<path d="M139.244 23.51L141.124 28.35H143.164L137.084 12.66H135.314L129.214 28.35H131.204L133.064 23.51H139.254H139.244ZM135.484 17.03C135.664 16.53 135.944 15.59 136.164 14.69C136.314 15.24 136.774 16.68 136.904 17.03L138.654 21.76H133.704L135.474 17.03H135.484Z" fill="#303336"/>
<path d="M148.344 28.56C150.184 28.56 151.294 27.77 152.004 26.77H152.094L152.374 28.34H153.924V11.71L152.004 12.45V16.39C152.004 16.83 152.094 17.75 152.134 18.12H152.004C151.284 17.16 150.184 16.39 148.374 16.39C145.464 16.39 143.534 18.47 143.534 22.5C143.534 26.53 145.444 28.56 148.354 28.56H148.344ZM148.624 17.99C151.234 17.99 152.014 19.61 152.014 22.52V22.87C152.014 25.61 151.114 26.96 148.644 26.96C146.544 26.96 145.514 25.32 145.514 22.54C145.514 19.76 146.544 17.99 148.624 17.99Z" fill="#303336"/>
<path d="M162.174 28.34L166.634 16.61H164.574L162.084 23.52C161.754 24.46 161.254 25.91 161.104 26.63H161.014C160.884 25.91 160.424 24.49 160.074 23.52L157.584 16.61H155.524L159.964 28.34H162.174Z" fill="#303336"/>
<path d="M172.984 28.56C174.584 28.56 175.634 28.32 176.834 27.79L176.284 26.35C175.364 26.7 174.204 26.92 173.064 26.92C170.724 26.92 169.384 25.5 169.324 22.85H177.354V21.69C177.354 18.49 175.624 16.39 172.514 16.39C169.404 16.39 167.324 18.64 167.324 22.56C167.324 26.48 169.624 28.55 172.974 28.55L172.984 28.56ZM172.504 17.97C174.454 17.97 175.324 19.33 175.344 21.32H169.374C169.574 19.22 170.664 17.97 172.504 17.97Z" fill="#303336"/>
<path d="M181.354 22.26C181.354 19.52 182.184 18.02 184.794 18.02C186.584 18.02 187.414 18.96 187.414 20.84V28.35H189.314V20.71C189.314 17.69 187.874 16.4 185.074 16.4C183.584 16.4 182.144 16.99 181.374 18.22H181.264L180.984 16.62H179.434V28.35H181.354V22.27V22.26Z" fill="#303336"/>
<path d="M195.534 28.56C196.434 28.56 197.264 28.34 197.674 28.08L197.144 26.7C196.884 26.83 196.294 26.98 195.854 26.98C194.784 26.98 194.014 26.3 194.014 24.88V18.1H197.404V16.61H194.014V13.92L192.084 14.64V24.92C192.084 27.76 193.684 28.55 195.524 28.55L195.534 28.56Z" fill="#303336"/>
<path d="M201.774 16.61H199.844V28.34H201.774V16.61Z" fill="#303336"/>
<path d="M200.834 14.67C201.424 14.67 201.954 14.28 201.954 13.45C201.954 12.62 201.434 12.22 200.834 12.22C200.204 12.22 199.694 12.62 199.694 13.45C199.694 14.28 200.194 14.67 200.834 14.67Z" fill="#303336"/>
<path d="M209.174 21.63C206.914 20.78 206.154 20.38 206.154 19.4C206.154 18.53 207.004 17.98 208.584 17.98C209.724 17.98 210.854 18.31 211.864 18.75L212.454 17.2C211.364 16.72 210.134 16.41 208.714 16.41C206.084 16.41 204.314 17.59 204.314 19.52C204.314 21.45 205.664 22.14 207.944 23.02C210.244 23.89 210.834 24.42 210.834 25.29C210.834 26.34 210.004 27.02 208.054 27.02C206.934 27.02 205.664 26.67 204.904 26.34L204.334 27.83C205.234 28.31 206.374 28.57 208.014 28.57C210.884 28.57 212.694 27.39 212.694 25.11C212.694 23.23 211.404 22.46 209.174 21.63Z" fill="#303336"/>
<path d="M220.104 26.7C219.844 26.83 219.244 26.98 218.814 26.98C217.744 26.98 216.974 26.3 216.974 24.88V18.1H220.364V16.61H216.974V13.92L215.054 14.64V24.92C215.054 27.76 216.654 28.55 218.494 28.55C219.394 28.55 220.224 28.33 220.634 28.07L220.114 26.69L220.104 26.7Z" fill="#303336"/>
<path d="M226.804 16.42C225.274 16.42 223.824 16.88 222.794 17.43L223.384 18.87C224.344 18.41 225.464 17.97 226.684 17.97C228.214 17.97 229.114 18.63 229.114 20.57V21.27L227.124 21.34C223.294 21.45 221.504 22.7 221.504 25.08C221.504 27.46 223.084 28.56 225.204 28.56C227.174 28.56 228.114 27.97 229.144 26.68H229.234L229.604 28.34H231.004V20.35C231.004 17.61 229.644 16.41 226.804 16.41V16.42ZM229.094 23.66C229.094 25.94 227.604 27.01 225.634 27.01C224.364 27.01 223.494 26.42 223.494 25.11C223.494 23.62 224.434 22.79 227.364 22.68L229.094 22.61V23.66Z" fill="#303336"/>
<path d="M75.3143 52.03C77.1543 52.03 78.2643 51.24 78.9643 50.24H79.0543L79.3343 51.81H80.8843V35.18L78.9543 35.92V39.86C78.9543 40.3 79.0443 41.22 79.0843 41.59H78.9543C78.2343 40.63 77.1343 39.86 75.3243 39.86C72.4143 39.86 70.4843 41.94 70.4843 45.97C70.4843 50 72.3843 52.03 75.2943 52.03H75.3143ZM75.5943 41.46C78.1943 41.46 78.9843 43.08 78.9843 45.99V46.34C78.9843 49.08 78.0843 50.43 75.6143 50.43C73.5143 50.43 72.4843 48.79 72.4843 46.01C72.4843 43.23 73.5143 41.46 75.5943 41.46Z" fill="#303336"/>
<path d="M88.3143 39.86C84.9443 39.86 82.8643 42.02 82.8643 45.92C82.8643 49.82 85.1343 52.03 88.2443 52.03C91.5943 52.03 93.7143 49.8 93.7143 45.92C93.7143 42.04 91.4843 39.86 88.3143 39.86ZM88.2943 50.43C85.9043 50.43 84.8543 48.7 84.8543 45.92C84.8543 43.14 85.8843 41.48 88.2643 41.48C90.6443 41.48 91.7243 43.14 91.7243 45.92C91.7243 48.7 90.6543 50.43 88.2843 50.43H88.2943Z" fill="#303336"/>
<path d="M111.564 47.63C111.564 45.18 110.054 44.15 107.294 43.12C104.754 42.18 103.884 41.55 103.884 39.97C103.884 38.62 104.894 37.7 106.834 37.7C108.194 37.7 109.464 38.07 110.554 38.53L111.194 36.84C110.014 36.31 108.594 35.96 106.884 35.96C103.934 35.96 101.894 37.51 101.894 39.94C101.894 42.37 103.254 43.61 105.924 44.58C108.744 45.61 109.604 46.24 109.604 47.8C109.604 49.36 108.404 50.32 106.084 50.32C104.424 50.32 102.994 49.97 102.324 49.66L101.714 51.28C102.704 51.76 104.254 52.02 106.004 52.02C109.414 52.02 111.584 50.4 111.584 47.63H111.564Z" fill="#303336"/>
<path d="M116.644 38.28V38.54H117.914C118.944 37.75 120.494 36.07 121.044 35.26V35.04H118.724C118.214 36.02 117.284 37.47 116.644 38.28Z" fill="#303336"/>
<path d="M118.564 52.02C120.164 52.02 121.214 51.78 122.414 51.25L121.874 49.81C120.954 50.16 119.794 50.38 118.654 50.38C116.314 50.38 114.974 48.96 114.914 46.31H122.944V45.15C122.944 41.95 121.214 39.85 118.104 39.85C114.994 39.85 112.914 42.1 112.914 46.02C112.914 49.94 115.214 52.01 118.564 52.01V52.02ZM118.084 41.43C120.034 41.43 120.904 42.79 120.924 44.78H114.954C115.154 42.68 116.244 41.43 118.084 41.43Z" fill="#303336"/>
<path d="M128.434 52.02C129.334 52.02 130.164 51.8 130.574 51.54L130.054 50.16C129.794 50.29 129.204 50.44 128.764 50.44C127.694 50.44 126.924 49.76 126.924 48.34V41.56H130.314V40.07H126.924V37.38L125.004 38.1V48.39C125.004 51.23 126.604 52.02 128.434 52.02Z" fill="#303336"/>
<path d="M134.664 40.08H132.744V51.81H134.664V40.08Z" fill="#303336"/>
<path d="M133.734 35.68C133.094 35.68 132.594 36.08 132.594 36.91C132.594 37.74 133.094 38.13 133.734 38.13C134.324 38.13 134.844 37.74 134.844 36.91C134.844 36.08 134.324 35.68 133.734 35.68Z" fill="#303336"/>
<path d="M139.814 41.67H139.704L139.414 40.07H137.864V51.8H139.784V45.72C139.784 42.98 140.554 41.48 142.914 41.48C144.554 41.48 145.324 42.42 145.324 44.26V51.81H147.224V45.33C147.224 42.84 148.124 41.48 150.394 41.48C152.014 41.48 152.784 42.42 152.784 44.26V51.81H154.684V44.17C154.684 41.15 153.374 39.86 150.724 39.86C149.194 39.86 147.744 40.49 146.964 41.83H146.854C146.284 40.49 145.064 39.86 143.264 39.86C141.864 39.86 140.534 40.45 139.804 41.68L139.814 41.67Z" fill="#303336"/>
<path d="M167.644 45.92C167.644 42.05 165.414 39.86 162.244 39.86C158.874 39.86 156.794 42.02 156.794 45.92C156.794 49.82 159.074 52.03 162.174 52.03C165.524 52.03 167.644 49.8 167.644 45.92ZM158.784 45.92C158.784 43.14 159.814 41.48 162.194 41.48C164.574 41.48 165.654 43.14 165.654 45.92C165.654 48.7 164.584 50.43 162.214 50.43C159.844 50.43 158.784 48.7 158.784 45.92Z" fill="#303336"/>
<path d="M181.014 36.18H176.204V51.8H180.564C185.704 51.8 188.724 49.11 188.724 43.84C188.724 38.57 185.724 36.18 181.024 36.18H181.014ZM180.294 50.12H178.174V37.87H180.734C184.494 37.87 186.644 39.79 186.644 43.91C186.644 48.03 184.524 50.12 180.304 50.12H180.294Z" fill="#303336"/>
<path d="M192.014 35.68C191.374 35.68 190.874 36.08 190.874 36.91C190.874 37.74 191.374 38.13 192.014 38.13C192.604 38.13 193.134 37.74 193.134 36.91C193.134 36.08 192.604 35.68 192.014 35.68Z" fill="#303336"/>
<path d="M192.954 40.08H191.034V51.81H192.954V40.08Z" fill="#303336"/>
<path d="M200.244 39.88C198.714 39.88 197.264 40.34 196.234 40.89L196.824 42.33C197.784 41.87 198.904 41.43 200.124 41.43C201.654 41.43 202.554 42.09 202.554 44.03V44.73L200.564 44.8C196.734 44.91 194.944 46.16 194.944 48.54C194.944 50.92 196.524 52.02 198.644 52.02C200.614 52.02 201.554 51.43 202.584 50.14H202.674L203.044 51.8H204.444V43.81C204.444 41.07 203.084 39.87 200.244 39.87V39.88ZM202.534 47.12C202.534 49.4 201.044 50.47 199.074 50.47C197.804 50.47 196.934 49.88 196.934 48.57C196.934 47.08 197.874 46.25 200.804 46.14L202.534 46.07V47.12Z" fill="#303336"/>
<path d="M206.934 36.51C206.934 36.16 206.734 35.99 206.294 35.99H205.794V37.72H206.104V37.04H206.344L206.734 37.72H207.084L206.624 36.95C206.774 36.88 206.934 36.75 206.934 36.51ZM206.294 36.79H206.094V36.24H206.294C206.514 36.24 206.624 36.33 206.624 36.5C206.624 36.67 206.494 36.78 206.294 36.78V36.79Z" fill="#303336"/>
<path d="M206.344 35.4C205.494 35.4 204.904 36.01 204.904 36.87C204.904 37.73 205.514 38.31 206.344 38.31C207.174 38.31 207.784 37.72 207.784 36.87C207.784 36.02 207.144 35.4 206.344 35.4ZM206.344 38.09C205.624 38.09 205.114 37.54 205.114 36.86C205.114 36.14 205.614 35.61 206.344 35.61C207.074 35.61 207.564 36.18 207.564 36.86C207.564 37.58 207.014 38.09 206.344 38.09Z" fill="#303336"/>
<path d="M33.4643 12.39C33.4643 12.18 33.2243 12.18 33.1743 12.39C32.5843 15.23 31.4543 16.34 29.1143 18.69L20.0443 27.75C15.5143 32.28 17.5943 36.66 20.2443 37.86C20.4743 37.96 20.5643 37.78 20.3943 37.62C18.2743 35.78 18.9143 32.69 21.5843 30.03L29.1143 22.5C31.4843 20.13 33.4643 18.09 33.4643 15.86V12.38V12.39Z" fill="#303336"/>
<path d="M27.6743 44.99H24.2543C24.1743 44.99 24.1143 44.93 24.1143 44.85V42.83C24.1143 42.75 24.1743 42.69 24.2543 42.69H27.6643C27.7443 42.69 27.8043 42.63 27.8043 42.55C27.8043 40.74 26.4243 39.5 20.9543 40.46L9.12433 42.49C9.12433 42.49 0.134335 51.49 0.0543346 51.58C-0.0656654 51.73 0.0243346 51.91 0.214335 51.9C0.374335 51.89 19.8843 48.51 19.8843 48.51C24.3643 47.75 26.8043 49.89 27.5343 51.88C27.6043 52.06 27.8043 52.03 27.8043 51.86V45.13C27.8043 45.05 27.7443 44.99 27.6643 44.99H27.6743Z" fill="#303336"/>
<path d="M48.7943 42.49L38.3743 40.7L34.4643 44.61C32.0943 46.98 30.1143 49.02 30.1143 51.25V51.87C30.1143 52.04 30.3243 52.07 30.3943 51.89C31.1243 49.89 33.5643 47.76 38.0443 48.52C38.0443 48.52 57.5543 51.89 57.7143 51.91C57.9043 51.93 57.9943 51.74 57.8743 51.59C57.8043 51.5 48.7943 42.5 48.7943 42.5V42.49Z" fill="#303336"/>
<path d="M15.1943 27.49C15.2643 27.72 15.4643 27.73 15.4643 27.49C15.4443 25.23 16.0943 23.29 20.2143 19.16L29.1043 10.27C31.4743 7.9 33.4543 5.86 33.4543 3.63V0.160002C33.4543 -0.0499976 33.2143 -0.0499976 33.1643 0.160002C32.5743 3 31.4443 4.12 29.1043 6.46L18.7943 16.77C14.8943 20.67 14.3543 24.79 15.1843 27.48L15.1943 27.49Z" fill="#303336"/>
<path d="M30.3843 42.52C30.9743 39.68 32.1043 38.54 34.4443 36.2L38.1543 32.5C42.6843 27.97 43.4743 23.58 41.1643 20.76C41.0143 20.57 40.8443 20.68 40.9443 20.91C42.4643 24.36 38.8143 28.01 37.0743 29.75L34.4543 32.37C32.0843 34.74 30.1043 36.78 30.1043 39.01V42.51C30.1043 42.72 30.3443 42.72 30.3943 42.51L30.3843 42.52Z" fill="#303336"/>
<path d="M30.1043 45.13V48.6C30.1043 48.81 30.3443 48.81 30.3943 48.6C30.7143 47.04 31.2043 46 31.9743 44.98H30.2543C30.1743 44.98 30.1143 45.05 30.1143 45.12L30.1043 45.13Z" fill="#303336"/>
<path d="M34.4643 38.49C32.9743 39.98 31.6443 41.33 30.8543 42.69H34.0743C34.1943 42.57 34.3243 42.44 34.4543 42.31L39.1343 37.62C43.0343 33.72 43.5743 29.6 42.7443 26.91C42.6743 26.68 42.4743 26.67 42.4743 26.91C42.4943 29.17 41.8443 31.11 37.7243 35.24L34.4643 38.5V38.49Z" fill="#303336"/>
<path d="M33.1843 6.23999C32.5943 9.07999 31.4643 10.22 29.1243 12.56L19.7843 21.89C15.2543 26.42 14.4643 30.81 16.7743 33.63C16.9243 33.82 17.0943 33.71 16.9943 33.48C15.4743 30.03 19.1243 26.38 20.8643 24.63L29.1143 16.38C31.4843 14.01 33.4643 11.97 33.4643 9.73999V6.23999C33.4643 6.02999 33.2243 6.02999 33.1743 6.23999H33.1843Z" fill="#303336"/>
<path d="M30.1143 36.37C30.1143 36.58 30.3543 36.58 30.4043 36.37C30.9843 33.53 32.1243 32.42 34.4643 30.07L37.9043 26.64C42.4343 22.11 40.3543 17.73 37.7043 16.53C37.4743 16.42 37.3843 16.61 37.5543 16.77C39.6743 18.61 39.0343 21.69 36.3643 24.36L34.4643 26.26C32.0943 28.63 30.1143 30.66 30.1143 32.9V36.38V36.37Z" fill="#303336"/>
<path d="M57.0643 44.96C57.0643 44.62 56.8743 44.45 56.4443 44.45H55.9343V46.18H56.2343V45.5H56.4843L56.8843 46.18H57.2243L56.7643 45.41C56.9243 45.35 57.0743 45.21 57.0743 44.96H57.0643ZM56.4343 45.25H56.2343V44.7H56.4243C56.6543 44.7 56.7543 44.78 56.7543 44.96C56.7543 45.13 56.6343 45.24 56.4243 45.24L56.4343 45.25Z" fill="#303336"/>
<path d="M56.4744 43.86C55.6344 43.86 55.0244 44.47 55.0244 45.31C55.0244 46.15 55.6344 46.76 56.4744 46.76C57.3144 46.76 57.9244 46.15 57.9244 45.31C57.9244 44.47 57.3144 43.86 56.4744 43.86ZM56.4744 46.55C55.7644 46.55 55.2444 45.99 55.2444 45.31C55.2444 44.59 55.7544 44.07 56.4744 44.07C57.1944 44.07 57.6944 44.63 57.6944 45.31C57.6944 46.03 57.1444 46.55 56.4744 46.55Z" fill="#303336"/>
</svg>
