<svg width="247" height="89" viewBox="0 0 247 89" fill="none" xmlns="http://www.w3.org/2000/svg">
<g clip-path="url(#clip0_403_124)">
<path d="M74.2953 65.5184H74.2445C74.2953 66.0305 74.3336 66.9796 74.3336 67.9288V73.3367H73.2786V64.4193H74.9689L77.7654 71.7255H77.816L80.6631 64.4193H82.3411V73.3367H81.2098V67.8538C81.2098 66.992 81.2606 66.0679 81.2989 65.531H81.2478L78.2229 73.3367H77.2822L74.2953 65.5184Z" fill="#303336"/>
<path d="M83.8997 73.3367L84.2809 72.3376H84.9673V65.406H83.8997V64.4193H87.1789L86.7976 65.406H86.1112V72.3376H87.1789V73.3367H83.8997Z" fill="#303336"/>
<path d="M90.9383 73.4615C89.9215 73.4615 89.0191 73.3116 88.447 73.037L88.803 72.1126C89.1971 72.2875 90.0233 72.4874 90.9892 72.4874C92.3365 72.4874 93.0355 71.9379 93.0355 71.0512C93.0355 70.177 92.5398 69.8022 90.9001 69.2153C89.3495 68.6657 88.5614 67.9537 88.5614 66.5674C88.5614 65.1561 89.7435 64.2943 91.4595 64.2943C92.4509 64.2943 93.277 64.4942 93.9634 64.7939L93.5948 65.7556C92.9593 65.4933 92.222 65.281 91.4339 65.281C90.3028 65.281 89.7181 65.8056 89.7181 66.58C89.7181 67.4791 90.2265 67.8414 91.7008 68.3785C93.3025 68.9654 94.1795 69.5523 94.1795 70.9512C94.1795 72.5374 92.921 73.4615 90.9383 73.4615Z" fill="#303336"/>
<path d="M95.3088 73.3367L95.6901 72.3376H96.3765V65.406H95.3088V64.4193H98.588L98.2068 65.406H97.5204V72.3376H98.588V73.3367H95.3088Z" fill="#303336"/>
<path d="M105.523 61.6716C105.205 62.1336 104.302 63.0953 103.705 63.5451H102.968V63.3952C103.336 62.933 103.883 62.1086 104.175 61.5467H105.523V61.6716ZM103.73 72.4872C105.789 72.4872 106.705 71.1135 106.705 68.8654C106.705 66.6174 105.789 65.2686 103.743 65.2686C101.684 65.2686 100.743 66.6174 100.743 68.8654C100.743 71.1135 101.684 72.4872 103.73 72.4872ZM103.73 73.4615C100.896 73.4615 99.536 71.6131 99.536 68.8531C99.536 66.1178 100.896 64.2819 103.743 64.2819C106.463 64.2819 107.912 66.0928 107.912 68.8654C107.912 71.6257 106.463 73.4615 103.73 73.4615Z" fill="#303336"/>
<path d="M115.595 73.3367L110.739 65.9306H110.689C110.727 66.5175 110.79 67.4416 110.79 68.3534V73.3367H109.735V64.4193H111.057L115.9 71.8004H115.951C115.925 71.4008 115.862 70.2642 115.862 69.4524V64.4193H116.929V73.3367H115.595Z" fill="#303336"/>
<path d="M123.97 72.3874H125.8C127.402 72.3874 127.948 71.713 127.948 70.7139C127.948 69.7771 127.389 69.1526 125.711 69.1526H123.97V72.3874ZM125.647 68.2159C127.198 68.2159 127.681 67.7164 127.681 66.7546C127.681 65.7807 127.007 65.3809 125.469 65.3809H123.97V68.2159H125.647ZM125.419 64.4192C127.681 64.4192 128.863 65.0063 128.863 66.6299C128.863 67.679 128.253 68.4034 127.135 68.6033V68.6657C128.279 68.853 129.168 69.4149 129.168 70.8012C129.168 72.425 127.961 73.3365 126.016 73.3365H122.826V64.4192H125.419Z" fill="#303336"/>
<path d="M134.648 72.4873C136.707 72.4873 137.623 71.1136 137.623 68.8655C137.623 66.6172 136.707 65.2685 134.661 65.2685C132.602 65.2685 131.661 66.6172 131.661 68.8655C131.661 71.1136 132.602 72.4873 134.648 72.4873ZM134.648 73.4614C131.814 73.4614 130.454 71.6132 130.454 68.8529C130.454 66.1177 131.814 64.2818 134.661 64.2818C137.381 64.2818 138.83 66.0927 138.83 68.8655C138.83 71.6255 137.381 73.4614 134.648 73.4614Z" fill="#303336"/>
<path d="M140.653 64.4193H141.797V72.3376H145.979L145.598 73.3367H140.653V64.4193Z" fill="#303336"/>
<path d="M146.788 73.3367L147.169 72.3376H147.856V65.406H146.788V64.4193H150.067L149.686 65.406H149V72.3376H150.067V73.3367H146.788Z" fill="#303336"/>
<path d="M155.269 73.3367H154.125L150.884 64.4193H152.079L154.125 70.1395C154.392 70.8763 154.57 71.5008 154.697 72.0877C154.812 71.5008 155.002 70.8639 155.269 70.1145L157.303 64.4193H158.51L155.269 73.3367Z" fill="#303336"/>
<path d="M159.383 73.3367L159.764 72.3376H160.45V65.406H159.383V64.4193H162.662L162.281 65.406H161.594V72.3376H162.662V73.3367H159.383Z" fill="#303336"/>
<path d="M168.056 66.8796C167.98 66.6799 167.713 65.8555 167.624 65.5432C167.497 66.0554 167.332 66.5923 167.23 66.8796L166.2 69.5772H169.073L168.056 66.8796ZM169.416 70.5765H165.819L164.739 73.3365H163.582L167.128 64.3818H168.158L171.691 73.3365H170.509L169.416 70.5765Z" fill="#303336"/>
<path d="M178.81 73.3367L173.954 65.9306H173.904C173.942 66.5175 174.005 67.4416 174.005 68.3534V73.3367H172.95V64.4193H174.272L179.115 71.8004H179.166C179.14 71.4008 179.076 70.2642 179.076 69.4524V64.4193H180.144V73.3367H178.81Z" fill="#303336"/>
<path d="M185.878 66.8796C185.802 66.6799 185.535 65.8555 185.446 65.5432C185.319 66.0554 185.154 66.5923 185.052 66.8796L184.022 69.5772H186.895L185.878 66.8796ZM187.238 70.5765H183.641L182.561 73.3365H181.404L184.95 64.3818H185.98L189.513 73.3365H188.331L187.238 70.5765Z" fill="#303336"/>
<path d="M77.0154 87.3544C79.0744 87.3544 79.9896 85.9807 79.9896 83.7326C79.9896 81.4843 79.0744 80.1356 77.0282 80.1356C74.969 80.1356 74.0285 81.4843 74.0285 83.7326C74.0285 85.9807 74.969 87.3544 77.0154 87.3544ZM77.0154 88.3285C74.1811 88.3285 72.8209 86.4802 72.8209 83.72C72.8209 80.9848 74.1811 79.1489 77.0282 79.1489C79.7482 79.1489 81.197 80.9598 81.197 83.7326C81.197 86.4926 79.7482 88.3285 77.0154 88.3285Z" fill="#303336"/>
<path d="M83.8096 83.745C83.8096 85.9557 84.852 87.342 86.9364 87.342C87.7243 87.342 88.6902 87.1671 89.2751 86.8924L89.6055 87.754C88.5887 88.2161 87.9149 88.3285 86.771 88.3285C83.9876 88.3285 82.6022 86.5426 82.6022 83.7326C82.6022 81.0349 84.1528 79.1615 86.9618 79.1615C87.8895 79.1615 88.703 79.3114 89.3894 79.6484L89.0082 80.6351C88.4487 80.3855 87.7626 80.148 86.949 80.148C85.0044 80.148 83.8096 81.5095 83.8096 83.745Z" fill="#303336"/>
<path d="M91.3944 83.745C91.3944 85.9557 92.4368 87.342 94.5212 87.342C95.3091 87.342 96.2751 87.1671 96.8599 86.8924L97.1903 87.754C96.1736 88.2161 95.4998 88.3285 94.3558 88.3285C91.5724 88.3285 90.187 86.5426 90.187 83.7326C90.187 81.0349 91.7376 79.1615 94.5467 79.1615C95.4743 79.1615 96.2879 79.3114 96.9743 79.6484L96.593 80.6351C96.0336 80.3855 95.3474 80.148 94.5338 80.148C92.5892 80.148 91.3944 81.5095 91.3944 83.745Z" fill="#303336"/>
<path d="M98.1799 88.2037L98.5612 87.2046H99.2476V80.2731H98.1799V79.2864H101.459L101.078 80.2731H100.391V87.2046H101.459V88.2037H98.1799Z" fill="#303336"/>
<path d="M105.635 80.2481H104.148V87.242H105.381C107.834 87.242 109.067 86.043 109.067 83.6952C109.067 81.3222 107.822 80.2481 105.635 80.2481ZM105.534 88.2037H103.004V79.2864H105.801C108.533 79.2864 110.275 80.7976 110.275 83.6576C110.275 86.6677 108.521 88.2037 105.534 88.2037Z" fill="#303336"/>
<path d="M112.09 88.2037V79.2864H117.162V80.2731H113.234V83.0581H116.641V84.0322H113.234V87.217H117.441L117.06 88.2037H112.09Z" fill="#303336"/>
<path d="M124.768 88.2037L119.913 80.7976H119.862C119.9 81.3845 119.964 82.3087 119.964 83.2204V88.2037H118.909V79.2864H120.231L125.073 86.6675H125.124C125.099 86.2679 125.035 85.1313 125.035 84.3195V79.2864H126.103V88.2037H124.768Z" fill="#303336"/>
<path d="M130.248 88.2037V80.2731H127.414L127.795 79.2864H134.214V80.2731H131.392V88.2037H130.248Z" fill="#303336"/>
<path d="M137.906 81.7466C137.829 81.5469 137.563 80.7226 137.474 80.4103C137.346 80.9225 137.181 81.4594 137.08 81.7466L136.05 84.4443H138.923L137.906 81.7466ZM139.266 85.4436H135.669L134.588 88.2036H133.432L136.978 79.2489H138.007L141.541 88.2036H140.359L139.266 85.4436Z" fill="#303336"/>
<path d="M142.8 79.2864H143.944V87.2046H148.125L147.744 88.2037H142.8V79.2864Z" fill="#303336"/>
<path d="M158.751 88.2037L153.895 80.7976H153.844C153.882 81.3845 153.946 82.3087 153.946 83.2204V88.2037H152.891V79.2864H154.213L159.055 86.6675H159.106C159.081 86.2679 159.017 85.1313 159.017 84.3195V79.2864H160.085V88.2037H158.751Z" fill="#303336"/>
<path d="M166.119 87.3544C168.178 87.3544 169.094 85.9807 169.094 83.7326C169.094 81.4843 168.178 80.1356 166.132 80.1356C164.073 80.1356 163.132 81.4843 163.132 83.7326C163.132 85.9807 164.073 87.3544 166.119 87.3544ZM166.119 88.3285C163.285 88.3285 161.925 86.4802 161.925 83.72C161.925 80.9848 163.285 79.1489 166.132 79.1489C168.852 79.1489 170.301 80.9598 170.301 83.7326C170.301 86.4926 168.852 88.3285 166.119 88.3285Z" fill="#303336"/>
<path d="M173.268 80.2605V83.5703H174.628C176.102 83.5703 176.751 82.9955 176.751 81.8717C176.751 80.7101 176.051 80.2605 174.564 80.2605H173.268ZM177.933 81.8217C177.933 83.2454 177.03 83.8949 176.115 84.2071L178.606 88.2037H177.272L175.073 84.5194H173.268V88.2037H172.124V79.2864H174.628C176.878 79.2864 177.933 80.1232 177.933 81.8217Z" fill="#303336"/>
<path d="M181.744 88.2037V80.2731H178.909L179.291 79.2864H185.71V80.2731H182.888V88.2037H181.744Z" fill="#303336"/>
<path d="M187.019 88.2037V79.2864H192.091V80.2731H188.163V83.0581H191.57V84.0322H188.163V87.217H192.37L191.989 88.2037H187.019Z" fill="#303336"/>
<path d="M72.85 28.7351L73.5269 26.9604H74.746V14.6486H72.85V12.8962H78.6742L77.9969 14.6486H76.7779V26.9604H78.6742V28.7351H72.85Z" fill="#303336"/>
<path d="M87.4781 20.6384C87.4781 18.9077 86.6428 18.0429 84.9947 18.0429C83.3465 18.0429 82.5112 18.9303 82.5112 20.6605C82.5112 22.302 83.3465 23.1227 85.017 23.1227C86.6652 23.1227 87.4781 22.28 87.4781 20.6384ZM88.8327 30.1548C88.8327 29.5114 88.6518 29.0901 88.2906 28.8682C87.9067 28.6464 87.1841 28.5353 86.1005 28.5353H84.0238C82.3307 28.5353 81.4955 29.2455 81.4955 30.6873C81.4955 31.9295 82.4887 32.5727 84.4753 32.5727C87.3875 32.5727 88.8327 31.7743 88.8327 30.1548ZM79.599 30.7537C79.599 29.2233 80.4795 28.247 82.24 27.8257C81.5403 27.4927 81.1794 26.9161 81.1794 26.162C81.1794 25.3413 81.6758 24.6532 82.6466 24.0767C81.2697 23.5219 80.5473 22.1023 80.5473 20.7269C80.5473 17.9541 82.3078 16.6231 85.0625 16.6231C85.6943 16.6231 86.2362 16.6897 86.7107 16.8449H90.8871L90.3 18.3533H88.7196C89.1937 18.9743 89.4418 19.751 89.4418 20.6605C89.4418 23.1227 87.6137 24.4759 84.9947 24.4759C84.5884 24.4759 84.2725 24.4537 84.0463 24.4093C83.3016 24.8084 82.9402 25.2966 82.9402 25.851C82.9402 26.4501 83.5497 26.7609 84.724 26.7609H86.7783C89.2164 26.7609 90.7288 27.8478 90.7288 29.9774C90.7288 32.7058 88.6518 34.059 84.4978 34.059C81.6758 34.059 79.599 33.105 79.599 30.7537Z" fill="#303336"/>
<path d="M92.8048 28.7351V12.6298L94.7914 11.8757V28.7351H92.8048Z" fill="#303336"/>
<path d="M99.5995 21.6144H105.763C105.74 19.5957 104.837 18.2201 102.828 18.2201C100.931 18.2201 99.8028 19.4846 99.5995 21.6144ZM107.84 21.9914V23.1669H99.5547C99.6225 25.8511 100.999 27.2933 103.415 27.2933C104.589 27.2933 105.786 27.0715 106.734 26.7163L107.298 28.1807C106.056 28.7131 104.972 28.9569 103.324 28.9569C99.8706 28.9569 97.5002 26.8496 97.5002 22.8788C97.5002 18.9742 99.6444 16.6232 102.85 16.6232C105.943 16.6232 107.84 18.7524 107.84 21.9914Z" fill="#303336"/>
<path d="M113.505 28.9569C111.812 28.9569 110.638 28.6906 109.712 28.2028L110.3 26.6944C111.09 27.027 112.399 27.3819 113.55 27.3819C115.56 27.3819 116.417 26.6944 116.417 25.6293C116.417 24.7423 115.808 24.2095 113.437 23.3225C111.09 22.4351 109.689 21.7251 109.689 19.773C109.689 17.7543 111.519 16.623 114.228 16.623C115.695 16.623 116.959 16.9336 118.088 17.4218L117.478 18.9968C116.44 18.5531 115.266 18.2201 114.092 18.2201C112.466 18.2201 111.586 18.7749 111.586 19.6623C111.586 20.6604 112.376 21.0596 114.701 21.9248C117.004 22.7677 118.337 23.5443 118.337 25.4519C118.337 27.7591 116.463 28.9569 113.505 28.9569Z" fill="#303336"/>
<path d="M122.738 28.7351H120.751V16.8448H122.738V28.7351ZM122.918 13.6283C122.918 14.4712 122.376 14.8704 121.767 14.8704C121.112 14.8704 120.593 14.4712 120.593 13.6283C120.593 12.7631 121.112 12.3861 121.767 12.3861C122.376 12.3861 122.918 12.7631 122.918 13.6283Z" fill="#303336"/>
<path d="M131.293 22.9897C128.268 23.1008 127.297 23.9437 127.297 25.4521C127.297 26.7831 128.2 27.382 129.51 27.382C131.542 27.382 133.077 26.2949 133.077 23.9877V22.923L131.293 22.9897ZM135.041 20.6384V28.7352H133.596L133.212 27.049H133.122C132.061 28.3581 131.09 28.957 129.058 28.957C126.868 28.957 125.243 27.8478 125.243 25.4299C125.243 23.0563 127.094 21.7472 131.045 21.6365L133.099 21.5698V20.8602C133.099 18.8858 132.174 18.2203 130.593 18.2203C129.33 18.2203 128.178 18.6639 127.184 19.1296L126.575 17.6659C127.636 17.1111 129.126 16.6452 130.706 16.6452C133.641 16.6452 135.041 17.8656 135.041 20.6384Z" fill="#303336"/>
<path d="M149.781 17.2666C149.646 16.9115 149.171 15.4474 149.013 14.893C148.788 15.8023 148.494 16.7563 148.313 17.2666L146.485 22.0581H151.587L149.781 17.2666ZM152.196 23.8324H145.808L143.889 28.7351H141.834L148.133 12.8298H149.962L156.237 28.7351H154.138L152.196 23.8324Z" fill="#303336"/>
<path d="M165.38 23.1894V22.8342C165.38 19.8841 164.567 18.2426 161.881 18.2426C159.736 18.2426 158.675 20.0395 158.675 22.8564C158.675 25.6958 159.736 27.3375 161.903 27.3375C164.454 27.3375 165.38 25.9622 165.38 23.1894ZM156.62 22.8123C156.62 18.7304 158.607 16.6231 161.61 16.6231C163.483 16.6231 164.612 17.3993 165.357 18.3753H165.493C165.448 17.9982 165.357 17.0668 165.357 16.6231V12.6299L167.344 11.8756V28.7352H165.741L165.448 27.138H165.357C164.635 28.1582 163.483 28.957 161.587 28.957C158.584 28.957 156.62 26.8938 156.62 22.8123Z" fill="#303336"/>
<path d="M168.99 16.8448H171.113L173.686 23.8548C174.048 24.8309 174.522 26.2727 174.657 27.0049H174.747C174.905 26.2727 175.424 24.8084 175.763 23.8548L178.337 16.8448H180.459L175.854 28.7351H173.573L168.99 16.8448Z" fill="#303336"/>
<path d="M183.28 21.6144H189.443C189.421 19.5957 188.518 18.2201 186.508 18.2201C184.612 18.2201 183.483 19.4846 183.28 21.6144ZM191.52 21.9914V23.1669H183.235C183.303 25.8511 184.68 27.2933 187.095 27.2933C188.269 27.2933 189.466 27.0715 190.414 26.7163L190.978 28.1807C189.737 28.7131 188.653 28.9569 187.005 28.9569C183.551 28.9569 181.181 26.8496 181.181 22.8788C181.181 18.9742 183.325 16.6232 186.531 16.6232C189.624 16.6232 191.52 18.7524 191.52 21.9914Z" fill="#303336"/>
<path d="M203.868 20.993V28.7351H201.904V21.1263C201.904 19.2187 201.046 18.2647 199.195 18.2647C196.509 18.2647 195.651 19.7952 195.651 22.568V28.7351H193.664V16.8448H195.267L195.56 18.4644H195.673C196.463 17.2221 197.953 16.623 199.488 16.623C202.378 16.623 203.868 17.9317 203.868 20.993Z" fill="#303336"/>
<path d="M211.949 27.0715L212.491 28.4687C212.062 28.7351 211.204 28.9569 210.278 28.9569C208.382 28.9569 206.734 28.1581 206.734 25.2746V14.8482L208.721 14.1163V16.845H212.22V18.3532H208.721V25.2301C208.721 26.6719 209.511 27.3599 210.617 27.3599C211.068 27.3599 211.679 27.2047 211.949 27.0715Z" fill="#303336"/>
<path d="M216.712 28.7351H214.725V16.8448H216.712V28.7351ZM216.893 13.6283C216.893 14.4712 216.351 14.8704 215.741 14.8704C215.087 14.8704 214.567 14.4712 214.567 13.6283C214.567 12.7631 215.087 12.3861 215.741 12.3861C216.351 12.3861 216.893 12.7631 216.893 13.6283Z" fill="#303336"/>
<path d="M235.629 27.0715L236.171 28.4687C235.742 28.7351 234.884 28.9569 233.958 28.9569C232.062 28.9569 230.414 28.1581 230.414 25.2746V14.8482L232.4 14.1163V16.845H235.9V18.3532H232.4V25.2301C232.4 26.6719 233.191 27.3599 234.297 27.3599C234.748 27.3599 235.358 27.2047 235.629 27.0715Z" fill="#303336"/>
<path d="M223.145 28.9569C221.452 28.9569 220.278 28.6906 219.353 28.2028L219.939 26.6944C220.73 27.027 222.039 27.3819 223.191 27.3819C225.2 27.3819 226.058 26.6944 226.058 25.6293C226.058 24.7423 225.448 24.2095 223.078 23.3225C220.73 22.4351 219.33 21.7251 219.33 19.773C219.33 17.7543 221.158 16.623 223.868 16.623C225.335 16.623 226.6 16.9336 227.728 17.4218L227.119 18.9968C226.08 18.5531 224.906 18.2201 223.732 18.2201C222.107 18.2201 221.226 18.7749 221.226 19.6623C221.226 20.6604 222.017 21.0596 224.342 21.9248C226.645 22.7677 227.976 23.5443 227.976 25.4519C227.976 27.7591 226.102 28.9569 223.145 28.9569Z" fill="#303336"/>
<path d="M243.123 22.9897C240.098 23.1008 239.127 23.9437 239.127 25.4521C239.127 26.7831 240.03 27.382 241.34 27.382C243.371 27.382 244.907 26.2949 244.907 23.9877V22.923L243.123 22.9897ZM246.871 20.6384V28.7352H245.426L245.042 27.049H244.952C243.891 28.3581 242.92 28.957 240.888 28.957C238.698 28.957 237.073 27.8478 237.073 25.4299C237.073 23.0563 238.924 21.7472 242.875 21.6365L244.929 21.5698V20.8602C244.929 18.8858 244.004 18.2203 242.423 18.2203C241.16 18.2203 240.008 18.6639 239.014 19.1296L238.405 17.6659C239.466 17.1111 240.956 16.6452 242.536 16.6452C245.471 16.6452 246.871 17.8656 246.871 20.6384Z" fill="#303336"/>
<path d="M81.4962 46.9767V46.6216C81.4962 43.6714 80.6837 42.03 77.9971 42.03C75.8525 42.03 74.7913 43.8268 74.7913 46.6437C74.7913 49.4832 75.8525 51.1249 78.0194 51.1249C80.5706 51.1249 81.4962 49.7495 81.4962 46.9767ZM72.7368 46.5997C72.7368 42.5177 74.7234 40.4104 77.7262 40.4104C79.5998 40.4104 80.7288 41.1867 81.4733 42.1626H81.6089C81.564 41.7856 81.4733 40.8541 81.4733 40.4104V36.4173L83.4603 35.663V52.5223H81.8576L81.564 50.9254H81.4733C80.7511 51.9456 79.5998 52.7444 77.7035 52.7444C74.7011 52.7444 72.7368 50.6812 72.7368 46.5997Z" fill="#303336"/>
<path d="M87.5908 45.4018H93.7539C93.7312 43.383 92.8281 42.0075 90.8189 42.0075C88.9227 42.0075 87.7938 43.2719 87.5908 45.4018ZM95.8309 45.7788V46.9542H87.5455C87.6133 49.6385 88.9903 51.0807 91.4057 51.0807C92.5798 51.0807 93.7764 50.8588 94.7248 50.5037L95.289 51.968C94.0471 52.5005 92.9635 52.7443 91.3157 52.7443C87.8614 52.7443 85.4911 50.637 85.4911 46.6662C85.4911 42.7616 87.6357 40.4105 90.8415 40.4105C93.9344 40.4105 95.8309 42.5397 95.8309 45.7788Z" fill="#303336"/>
<path d="M98.4482 52.5225V36.4172L100.435 35.6631V52.5225H98.4482Z" fill="#303336"/>
<path d="M113.799 52.7443C111.993 52.7443 110.39 52.4779 109.374 51.9902L110.006 50.3485C110.706 50.6589 112.173 51.014 113.889 51.014C116.282 51.014 117.524 50.0381 117.524 48.463C117.524 46.9102 116.643 46.2446 113.731 45.2018C110.976 44.2259 109.577 42.9615 109.577 40.4991C109.577 37.9926 111.676 36.4617 114.724 36.4617C116.485 36.4617 117.953 36.8168 119.172 37.349L118.517 39.0573C117.388 38.5915 116.079 38.2144 114.679 38.2144C112.67 38.2144 111.631 39.1459 111.631 40.521C111.631 42.1186 112.534 42.7616 115.153 43.7156C117.998 44.7582 119.556 45.8009 119.556 48.2853C119.556 51.1026 117.32 52.7443 113.799 52.7443Z" fill="#303336"/>
<path d="M129.33 35.752C128.765 36.5728 127.162 38.2807 126.102 39.0793H124.792V38.8133C125.447 37.9926 126.418 36.5283 126.937 35.5302H129.33V35.752ZM123.054 45.4018H129.217C129.194 43.383 128.292 42.0075 126.282 42.0075C124.386 42.0075 123.257 43.2719 123.054 45.4018ZM131.294 45.7788V46.9542H123.009C123.077 49.6385 124.454 51.0807 126.869 51.0807C128.043 51.0807 129.24 50.8588 130.188 50.5037L130.752 51.968C129.511 52.5003 128.427 52.7443 126.779 52.7443C123.325 52.7443 120.954 50.637 120.954 46.6662C120.954 42.7616 123.099 40.4103 126.305 40.4103C129.398 40.4103 131.294 42.5397 131.294 45.7788Z" fill="#303336"/>
<path d="M135.831 46.178V46.5551C135.831 49.4833 136.643 51.1248 139.285 51.1248C141.474 51.1248 142.513 49.1948 142.513 46.5331C142.513 43.8267 141.474 42.052 139.24 42.052C136.779 42.052 135.876 43.4052 135.831 46.178ZM144.568 46.5551C144.568 50.6144 142.581 52.7443 139.578 52.7443C137.705 52.7443 136.531 51.9457 135.831 51.014H135.695C135.74 51.5244 135.831 52.4117 135.831 52.9661V57.8464H133.844V40.6324H135.469L135.74 42.2517H135.831C136.553 41.2313 137.637 40.4103 139.601 40.4103C142.581 40.4103 144.568 42.4512 144.568 46.5551Z" fill="#303336"/>
<path d="M152.061 50.8588L152.603 52.2561C152.174 52.5224 151.316 52.7443 150.39 52.7443C148.494 52.7443 146.846 51.9457 146.846 49.0619V38.6356L148.833 37.9036V40.6324H152.332V42.1408H148.833V49.0174C148.833 50.4592 149.623 51.1473 150.729 51.1473C151.181 51.1473 151.79 50.9921 152.061 50.8588Z" fill="#303336"/>
<path d="M156.824 52.5226H154.837V40.6323H156.824V52.5226ZM157.005 37.4158C157.005 38.2587 156.463 38.6577 155.853 38.6577C155.199 38.6577 154.679 38.2587 154.679 37.4158C154.679 36.5504 155.199 36.1733 155.853 36.1733C156.463 36.1733 157.005 36.5504 157.005 37.4158Z" fill="#303336"/>
<path d="M177.48 44.7803V52.5225H175.516V44.8693C175.516 43.006 174.726 42.052 173.056 42.052C170.707 42.052 169.782 43.4272 169.782 45.9562V52.5225H167.818V44.8693C167.818 43.006 167.027 42.052 165.334 42.052C162.896 42.052 162.106 43.5826 162.106 46.3554V52.5225H160.119V40.6322H161.722L162.016 42.2517H162.129C162.874 41.0094 164.251 40.4104 165.695 40.4104C167.547 40.4104 168.811 41.0539 169.398 42.4071H169.511C170.323 41.0539 171.814 40.4104 173.394 40.4104C176.126 40.4104 177.48 41.7191 177.48 44.7803Z" fill="#303336"/>
<path d="M185.245 51.1247C187.683 51.1247 188.79 49.3724 188.79 46.555C188.79 43.7377 187.683 42.052 185.222 42.052C182.762 42.052 181.7 43.7377 181.7 46.555C181.7 49.3724 182.784 51.1247 185.245 51.1247ZM185.2 52.7443C181.994 52.7443 179.646 50.5037 179.646 46.555C179.646 42.6287 181.791 40.4103 185.268 40.4103C188.541 40.4103 190.844 42.6287 190.844 46.555C190.844 50.5037 188.654 52.7443 185.2 52.7443Z" fill="#303336"/>
<path d="M204.342 38.3917H201.701V50.8142H203.89C208.247 50.8142 210.437 48.6848 210.437 44.5143C210.437 40.2993 208.225 38.3917 204.342 38.3917ZM204.161 52.5223H199.669V36.6836H204.635C209.489 36.6836 212.582 39.3679 212.582 44.4477C212.582 49.7936 209.467 52.5223 204.161 52.5223Z" fill="#303336"/>
<path d="M214.974 40.6323H216.961V52.5226H214.974V40.6323ZM219.15 35.7522C218.586 36.5729 216.983 38.2806 215.922 39.0794H214.613V38.8135C215.267 37.9926 216.238 36.5284 216.757 35.5302H219.15V35.7522Z" fill="#303336"/>
<path d="M225.516 46.7769C222.491 46.888 221.52 47.7309 221.52 49.2393C221.52 50.5703 222.423 51.1692 223.733 51.1692C225.765 51.1692 227.299 50.0822 227.299 47.775V46.7103L225.516 46.7769ZM229.264 44.4256V52.5224H227.819L227.435 50.8363H227.345C226.284 52.1454 225.313 52.7443 223.281 52.7443C221.091 52.7443 219.466 51.6351 219.466 49.2171C219.466 46.8435 221.317 45.5344 225.268 45.4237L227.322 45.3571V44.6474C227.322 42.673 226.397 42.0075 224.816 42.0075C223.552 42.0075 222.401 42.4512 221.407 42.9168L220.798 41.4531C221.859 40.8983 223.349 40.4325 224.929 40.4325C227.864 40.4325 229.264 41.6528 229.264 44.4256Z" fill="#303336"/>
<path d="M31.0627 49.2784C31.0627 49.493 31.3129 49.4938 31.358 49.2784C31.6904 47.6937 32.1955 46.6375 32.9853 45.6115L31.2095 45.6128C31.1285 45.6128 31.0627 45.6772 31.0627 45.7568V49.2784ZM44.1028 27.281C44.0298 27.0494 43.8258 27.0339 43.8279 27.2767C43.8479 29.5678 43.1772 31.5368 38.9214 35.7189L35.5549 39.0239C34.0229 40.5293 32.6456 41.904 31.8314 43.2777H35.1559C35.2832 43.1522 35.4139 43.0238 35.5491 42.8909L40.3785 38.1406C44.4008 34.1885 44.9617 30.0079 44.1028 27.281ZM39.5894 41.256L35.5549 45.2233C33.113 47.623 31.0627 49.6902 31.0627 51.9513L31.065 52.5809C31.065 52.7519 31.2815 52.7787 31.3478 52.6C32.1018 50.5758 34.6208 48.415 39.2416 49.1809C39.2416 49.1809 59.3708 52.5987 59.5401 52.6134C59.7366 52.6304 59.8339 52.4403 59.707 52.292C59.6309 52.203 50.3383 43.0726 50.3383 43.0726L39.5894 41.256ZM25.0268 45.6115C24.9457 45.6115 24.88 45.5471 24.88 45.4673V43.4208C24.88 43.3411 24.9457 43.2765 25.0268 43.2765L28.5499 43.2773C28.631 43.2773 28.6967 43.2129 28.6967 43.1331C28.6874 41.2948 27.2772 40.0456 21.6266 41.012L9.42572 43.0726C9.42572 43.0726 0.133102 52.203 0.0570197 52.292C-0.0697156 52.4403 0.0274548 52.6304 0.22407 52.6134C0.393189 52.5987 20.5226 49.1809 20.5226 49.1809C25.1432 48.415 27.6622 50.5758 28.4162 52.6C28.4827 52.7787 28.6992 52.7519 28.6992 52.5809C28.6992 52.4576 28.6996 45.7558 28.6996 45.7558C28.6996 45.6762 28.6339 45.6115 28.5528 45.6115H25.0268ZM19.4029 17.0066C15.3808 20.9589 14.8199 25.1393 15.6785 27.8664C15.7515 28.098 15.9558 28.1135 15.9537 27.8707C15.9335 25.5794 16.6042 23.6106 20.8602 19.4285L30.0352 10.4157C32.4771 8.01629 34.5274 5.94882 34.5274 3.68774V0.16123C34.5274 -0.053298 34.2772 -0.0541106 34.2321 0.16123C33.6285 3.03908 32.457 4.17469 30.0412 6.54852L19.4029 17.0066ZM34.5361 9.88102V6.33054C34.5361 6.11601 34.2859 6.1154 34.2408 6.33054C33.6373 9.20859 32.4688 10.3619 30.0528 12.7359L20.4168 22.1965C15.7404 26.7916 14.9312 31.2388 17.3098 34.0965C17.4681 34.2869 17.6389 34.1729 17.5353 33.9429C15.963 30.4471 19.7337 26.7404 21.529 24.9762L30.0439 16.609C32.4858 14.2096 34.5361 12.1421 34.5361 9.88102ZM20.6812 28.1358C16.0044 32.7313 18.155 37.1694 20.8828 38.3911C21.122 38.4982 21.2171 38.3074 21.0341 38.1516C18.8465 36.2897 19.5108 33.1575 22.2616 30.4546L30.034 22.8171C32.476 20.4177 34.5263 18.3502 34.5263 16.0891V12.5626C34.5263 12.3481 34.2762 12.3473 34.2309 12.5626C33.6274 15.4405 32.4585 16.5712 30.0426 18.945L20.6812 28.1358ZM31.054 39.5584V43.1089C31.054 43.3235 31.3042 43.3243 31.3493 43.1089C31.953 40.2311 33.1215 39.0776 35.5373 36.7038L39.3648 32.9507C44.041 28.3558 44.8502 23.9086 42.4718 21.0509C42.3132 20.8604 42.1427 20.9743 42.246 21.2045C43.8186 24.7003 40.0479 28.407 38.2525 30.1712L35.5462 32.8305C33.1043 35.2301 31.054 37.2974 31.054 39.5584ZM35.5475 30.4944C33.1316 32.8682 31.9627 33.9992 31.3592 36.877C31.3139 37.0924 31.0638 37.0916 31.0638 36.877V33.3505C31.0638 31.0895 33.1141 29.022 35.5562 26.6226L37.5198 24.6928C40.2706 21.9899 40.9349 18.8577 38.7475 16.9956C38.5645 16.84 38.6594 16.649 38.8988 16.7563C41.6266 17.9778 43.777 22.4161 39.1004 27.0116L35.5475 30.4944Z" fill="#303336"/>
<path d="M231.182 37.3046C231.385 37.3046 231.52 37.1939 231.52 37.0161C231.52 36.8388 231.408 36.7502 231.182 36.7502H230.979V37.3046H231.182ZM230.662 36.4838H231.182C231.633 36.4838 231.836 36.6614 231.836 37.0161C231.836 37.2605 231.679 37.3936 231.52 37.4598L231.995 38.2364H231.633L231.227 37.549H230.979V38.2364H230.662V36.4838ZM232.491 37.3712C232.491 36.6835 231.972 36.1068 231.227 36.1068C230.482 36.1068 229.963 36.6391 229.963 37.3712C229.963 38.0587 230.482 38.6135 231.227 38.6135C231.927 38.6135 232.491 38.1034 232.491 37.3712ZM229.737 37.3712C229.737 36.5062 230.347 35.8848 231.227 35.8848C232.063 35.8848 232.717 36.5062 232.717 37.3712C232.717 38.2145 232.085 38.8353 231.227 38.8353C230.347 38.8353 229.737 38.2145 229.737 37.3712Z" fill="#303336"/>
<path d="M58.2234 45.8745C58.4354 45.8745 58.5619 45.7583 58.5619 45.5899C58.5619 45.4018 58.4558 45.3217 58.2195 45.3217H58.0198V45.8745H58.2234ZM57.7101 45.0653H58.2317C58.6758 45.0653 58.8755 45.2376 58.8755 45.5822C58.8755 45.8343 58.7207 45.9744 58.5575 46.0386L59.0304 46.8157H58.6801L58.2722 46.1227H58.0198V46.8157H57.7101V45.0653ZM59.5319 45.9383C59.5319 45.2457 59.006 44.6808 58.2683 44.6808C57.5308 44.6808 57.0007 45.2055 57.0007 45.9383C57.0007 46.6314 57.5308 47.1958 58.2683 47.1958C58.9655 47.1958 59.5319 46.6712 59.5319 45.9383ZM56.7727 45.9383C56.7727 45.0854 57.4004 44.4687 58.2683 44.4687C59.0957 44.4687 59.7641 45.0854 59.7641 45.9383C59.7641 46.7917 59.1364 47.4081 58.2683 47.4081C57.4004 47.4081 56.7727 46.7917 56.7727 45.9383Z" fill="#303336"/>
</g>
<defs>
<clipPath id="clip0_403_124">
<rect width="246.871" height="88.3285" fill="white"/>
</clipPath>
</defs>
</svg>
