<svg width="243" height="89" viewBox="0 0 243 89" fill="none" xmlns="http://www.w3.org/2000/svg">
<g clip-path="url(#clip0_403_2)">
<path d="M72.8504 65.3806H72.8005C72.8504 65.8917 72.8879 66.8388 72.8879 67.786V73.1825H71.8534V64.2839H73.5109L76.2529 71.5747H76.3026L79.0943 64.2839H80.7396V73.1825H79.6303V67.7112C79.6303 66.8512 79.6802 65.929 79.7177 65.3932H79.6676L76.7016 73.1825H75.7792L72.8504 65.3806Z" fill="#303336"/>
<path d="M82.2678 73.1825L82.6416 72.1855H83.3147V65.2685H82.2678V64.2839H85.4832L85.1094 65.2685H84.4364V72.1855H85.4832V73.1825H82.2678Z" fill="#303336"/>
<path d="M89.1696 73.3071C88.1726 73.3071 87.2877 73.1575 86.7268 72.8834L87.0759 71.961C87.4623 72.1356 88.2724 72.3351 89.2195 72.3351C90.5407 72.3351 91.2261 71.7867 91.2261 70.9018C91.2261 70.0295 90.7399 69.6554 89.1321 69.0698C87.6117 68.5214 86.8389 67.8109 86.8389 66.4275C86.8389 65.0191 87.9981 64.1592 89.6807 64.1592C90.6528 64.1592 91.4629 64.3587 92.1359 64.6577L91.7745 65.6174C91.1513 65.3557 90.4284 65.1438 89.6556 65.1438C88.5465 65.1438 87.9732 65.6672 87.9732 66.44C87.9732 67.3373 88.4717 67.6987 89.9173 68.2348C91.4878 68.8204 92.3478 69.4061 92.3478 70.8021C92.3478 72.3849 91.1138 73.3071 89.1696 73.3071Z" fill="#303336"/>
<path d="M93.4551 73.1825L93.8289 72.1855H94.5019V65.2685H93.4551V64.2839H96.6705L96.2967 65.2685H95.6236V72.1855H96.6705V73.1825H93.4551Z" fill="#303336"/>
<path d="M103.47 61.542C103.158 62.003 102.274 62.9627 101.688 63.4115H100.965V63.2619C101.326 62.8007 101.862 61.9781 102.149 61.4173H103.47V61.542ZM101.713 72.3349C103.732 72.3349 104.629 70.964 104.629 68.7207C104.629 66.4773 103.732 65.1314 101.725 65.1314C99.7063 65.1314 98.7839 66.4773 98.7839 68.7207C98.7839 70.964 99.7063 72.3349 101.713 72.3349ZM101.713 73.3071C98.9335 73.3071 97.6 71.4625 97.6 68.7083C97.6 65.9788 98.9335 64.1468 101.725 64.1468C104.392 64.1468 105.813 65.9539 105.813 68.7207C105.813 71.4751 104.392 73.3071 101.713 73.3071Z" fill="#303336"/>
<path d="M113.346 73.1825L108.585 65.792H108.536C108.573 66.3776 108.635 67.2998 108.635 68.2097V73.1825H107.601V64.2839H108.897L113.645 71.6495H113.695C113.67 71.2507 113.608 70.1165 113.608 69.3064V64.2839H114.655V73.1825H113.346Z" fill="#303336"/>
<path d="M121.559 72.2352H123.353C124.924 72.2352 125.46 71.5622 125.46 70.5652C125.46 69.6304 124.911 69.0073 123.266 69.0073H121.559V72.2352ZM123.204 68.0725C124.724 68.0725 125.198 67.574 125.198 66.6143C125.198 65.6424 124.537 65.2435 123.029 65.2435H121.559V68.0725H123.204ZM122.979 64.2838C125.198 64.2838 126.357 64.8696 126.357 66.4898C126.357 67.5367 125.759 68.2596 124.662 68.4591V68.5213C125.784 68.7082 126.656 69.269 126.656 70.6524C126.656 72.2727 125.472 73.1824 123.565 73.1824H120.437V64.2838H122.979Z" fill="#303336"/>
<path d="M132.029 72.3349C134.048 72.3349 134.946 70.9641 134.946 68.7208C134.946 66.4772 134.048 65.1313 132.042 65.1313C130.023 65.1313 129.101 66.4772 129.101 68.7208C129.101 70.9641 130.023 72.3349 132.029 72.3349ZM132.029 73.307C129.25 73.307 127.917 71.4626 127.917 68.7082C127.917 65.9787 129.25 64.1467 132.042 64.1467C134.709 64.1467 136.13 65.9538 136.13 68.7208C136.13 71.475 134.709 73.307 132.029 73.307Z" fill="#303336"/>
<path d="M137.917 64.2839H139.039V72.1855H143.139L142.766 73.1825H137.917V64.2839Z" fill="#303336"/>
<path d="M143.933 73.1825L144.307 72.1855H144.98V65.2685H143.933V64.2839H147.148L146.774 65.2685H146.101V72.1855H147.148V73.1825H143.933Z" fill="#303336"/>
<path d="M152.249 73.1825H151.128L147.949 64.2839H149.121L151.128 69.992C151.389 70.7273 151.564 71.3505 151.688 71.9361C151.801 71.3505 151.988 70.7149 152.249 69.9671L154.243 64.2839H155.427L152.249 73.1825Z" fill="#303336"/>
<path d="M156.283 73.1825L156.657 72.1855H157.33V65.2685H156.283V64.2839H159.498L159.124 65.2685H158.451V72.1855H159.498V73.1825H156.283Z" fill="#303336"/>
<path d="M164.787 66.739C164.713 66.5397 164.451 65.717 164.364 65.4054C164.239 65.9165 164.077 66.4523 163.977 66.739L162.968 69.431H165.784L164.787 66.739ZM166.121 70.4282H162.594L161.534 73.1824H160.4L163.877 64.2465H164.887L168.352 73.1824H167.193L166.121 70.4282Z" fill="#303336"/>
<path d="M175.332 73.1825L170.571 65.792H170.521C170.558 66.3776 170.621 67.2998 170.621 68.2097V73.1825H169.586V64.2839H170.882L175.631 71.6495H175.681C175.656 71.2507 175.593 70.1165 175.593 69.3064V64.2839H176.64V73.1825H175.332Z" fill="#303336"/>
<path d="M182.263 66.739C182.188 66.5397 181.926 65.717 181.839 65.4054C181.715 65.9165 181.553 66.4523 181.453 66.739L180.443 69.431H183.26L182.263 66.739ZM183.596 70.4282H180.069L179.01 73.1824H177.876L181.353 64.2465H182.363L185.827 73.1824H184.668L183.596 70.4282Z" fill="#303336"/>
<path d="M75.5174 87.1708C77.5364 87.1708 78.4338 85.7999 78.4338 83.5566C78.4338 81.313 77.5364 79.9671 75.53 79.9671C73.5109 79.9671 72.5887 81.313 72.5887 83.5566C72.5887 85.7999 73.5109 87.1708 75.5174 87.1708ZM75.5174 88.1428C72.7383 88.1428 71.4045 86.2984 71.4045 83.544C71.4045 80.8145 72.7383 78.9825 75.53 78.9825C78.197 78.9825 79.6177 80.7896 79.6177 83.5566C79.6177 86.3108 78.197 88.1428 75.5174 88.1428Z" fill="#303336"/>
<path d="M82.1794 83.5689C82.1794 85.775 83.2015 87.1584 85.2454 87.1584C86.018 87.1584 86.9651 86.9838 87.5386 86.7098L87.8626 87.5695C86.8656 88.0307 86.2049 88.1428 85.0832 88.1428C82.3539 88.1428 80.9955 86.3607 80.9955 83.5566C80.9955 80.8646 82.5159 78.9951 85.2703 78.9951C86.18 78.9951 86.9777 79.1447 87.6507 79.481L87.2769 80.4656C86.7283 80.2165 86.0555 79.9795 85.2578 79.9795C83.3509 79.9795 82.1794 81.3382 82.1794 83.5689Z" fill="#303336"/>
<path d="M89.6168 83.5689C89.6168 85.775 90.6389 87.1584 92.6828 87.1584C93.4554 87.1584 94.4025 86.9838 94.976 86.7098L95.3 87.5695C94.303 88.0307 93.6423 88.1428 92.5206 88.1428C89.7913 88.1428 88.4329 86.3607 88.4329 83.5566C88.4329 80.8646 89.9533 78.9951 92.7077 78.9951C93.6173 78.9951 94.4151 79.1447 95.0881 79.481L94.7143 80.4656C94.1657 80.2165 93.4929 79.9795 92.6952 79.9795C90.7883 79.9795 89.6168 81.3382 89.6168 83.5689Z" fill="#303336"/>
<path d="M96.2703 88.0183L96.6441 87.0213H97.3171V80.1043H96.2703V79.1197H99.4857L99.1119 80.1043H98.4388V87.0213H99.4857V88.0183H96.2703Z" fill="#303336"/>
<path d="M103.581 80.0794H102.123V87.0586H103.332C105.737 87.0586 106.946 85.8621 106.946 83.5192C106.946 81.1512 105.724 80.0794 103.581 80.0794ZM103.481 88.0183H101.001V79.1197H103.743C106.422 79.1197 108.13 80.6278 108.13 83.4817C108.13 86.4855 106.41 88.0183 103.481 88.0183Z" fill="#303336"/>
<path d="M109.91 88.0183V79.1197H114.883V80.1043H111.032V82.8835H114.372V83.8556H111.032V87.0337H115.157L114.783 88.0183H109.91Z" fill="#303336"/>
<path d="M122.341 88.0183L117.581 80.6278H117.531C117.568 81.2134 117.63 82.1356 117.63 83.0455V88.0183H116.596V79.1197H117.892L122.641 86.4853H122.69C122.665 86.0865 122.603 84.9523 122.603 84.1422V79.1197H123.65V88.0183H122.341Z" fill="#303336"/>
<path d="M127.715 88.0183V80.1043H124.936L125.31 79.1197H131.603V80.1043H128.837V88.0183H127.715Z" fill="#303336"/>
<path d="M135.224 81.5749C135.149 81.3756 134.887 80.553 134.8 80.2414C134.675 80.7525 134.513 81.2883 134.413 81.5749L133.404 84.2669H136.221L135.224 81.5749ZM136.557 85.2641H133.03L131.971 88.0183H130.837L134.314 79.0824H135.323L138.788 88.0183H137.629L136.557 85.2641Z" fill="#303336"/>
<path d="M140.022 79.1197H141.144V87.0213H145.244L144.871 88.0183H140.022V79.1197Z" fill="#303336"/>
<path d="M151.911 88.1429C150.914 88.1429 150.029 87.9933 149.469 87.7192L149.818 86.7969C150.204 86.9714 151.014 87.1709 151.961 87.1709C153.282 87.1709 153.968 86.6225 153.968 85.7376C153.968 84.8653 153.482 84.4913 151.874 83.9056C150.353 83.3572 149.581 82.6467 149.581 81.2633C149.581 79.8549 150.74 78.995 152.422 78.995C153.394 78.995 154.205 79.1945 154.878 79.4935L154.516 80.4532C153.893 80.1915 153.17 79.9796 152.397 79.9796C151.288 79.9796 150.715 80.5031 150.715 81.2758C150.715 82.1731 151.213 82.5346 152.659 83.0706C154.229 83.6562 155.089 84.2419 155.089 85.6379C155.089 87.2207 153.855 88.1429 151.911 88.1429Z" fill="#303336"/>
<path d="M163.445 84.8777C163.445 86.7222 162.336 88.1429 159.981 88.1429C157.762 88.1429 156.591 86.8344 156.591 84.8527V79.1197H157.712V84.8902C157.712 86.3359 158.485 87.1709 160.043 87.1709C161.651 87.1709 162.336 86.2235 162.336 84.8777V79.1197H163.445V84.8777Z" fill="#303336"/>
<path d="M166.714 80.0919V83.3947H168.047C169.493 83.3947 170.129 82.8212 170.129 81.6997C170.129 80.5405 169.443 80.0919 167.985 80.0919H166.714ZM171.288 81.6498C171.288 83.0705 170.403 83.7186 169.506 84.0302L171.948 88.0184H170.64L168.483 84.3418H166.714V88.0184H165.592V79.1198H168.047C170.253 79.1198 171.288 79.9549 171.288 81.6498Z" fill="#303336"/>
<path d="M71.433 28.6747L72.0967 26.9037H73.2922V14.6177H71.433V12.869H77.1439L76.4798 14.6177H75.2846V26.9037H77.1439V28.6747H71.433Z" fill="#303336"/>
<path d="M85.7766 20.5949C85.7766 18.8679 84.9576 18.0049 83.3415 18.0049C81.7254 18.0049 80.9064 18.8904 80.9064 20.617C80.9064 22.255 81.7254 23.074 83.3634 23.074C84.9795 23.074 85.7766 22.2331 85.7766 20.5949ZM87.1049 30.0913C87.1049 29.4493 86.9275 29.0289 86.5733 28.8075C86.1969 28.5861 85.4883 28.4752 84.4259 28.4752H82.3895C80.7294 28.4752 79.9104 29.1839 79.9104 30.6227C79.9104 31.8623 80.8843 32.5042 82.8322 32.5042C85.6878 32.5042 87.1049 31.7075 87.1049 30.0913ZM78.0508 30.689C78.0508 29.1618 78.9142 28.1876 80.6404 27.7671C79.9544 27.4348 79.6004 26.8595 79.6004 26.107C79.6004 25.288 80.0872 24.6013 81.0391 24.026C79.689 23.4724 78.9807 22.0557 78.9807 20.6833C78.9807 17.9163 80.7069 16.588 83.408 16.588C84.0275 16.588 84.5589 16.6545 85.0241 16.8094H89.1194L88.5436 18.3146H86.994C87.4588 18.9344 87.7021 19.7094 87.7021 20.617C87.7021 23.074 85.9096 24.4244 83.3415 24.4244C82.9431 24.4244 82.6334 24.4023 82.4116 24.3579C81.6814 24.7562 81.327 25.2434 81.327 25.7966C81.327 26.3945 81.9246 26.7046 83.0761 26.7046H85.0904C87.4811 26.7046 88.9641 27.7892 88.9641 29.9144C88.9641 32.637 86.9275 33.9873 82.8543 33.9873C80.0872 33.9873 78.0508 33.0353 78.0508 30.689Z" fill="#303336"/>
<path d="M90.9998 28.6747V12.6033L92.9477 11.8508V28.6747H90.9998Z" fill="#303336"/>
<path d="M97.6623 21.5689H103.706C103.683 19.5544 102.798 18.1818 100.828 18.1818C98.9683 18.1818 97.8616 19.4435 97.6623 21.5689ZM105.743 21.9452V23.1181H97.6184C97.6849 25.7967 99.0346 27.2359 101.403 27.2359C102.554 27.2359 103.728 27.0145 104.658 26.6601L105.211 28.1214C103.993 28.6527 102.931 28.896 101.315 28.896C97.9281 28.896 95.6039 26.7931 95.6039 22.8307C95.6039 18.9343 97.7063 16.5882 100.85 16.5882C103.883 16.5882 105.743 18.7129 105.743 21.9452Z" fill="#303336"/>
<path d="M111.297 28.896C109.637 28.896 108.486 28.6302 107.578 28.1435L108.154 26.6382C108.929 26.9701 110.213 27.3243 111.341 27.3243C113.312 27.3243 114.153 26.6383 114.153 25.5754C114.153 24.6903 113.555 24.1585 111.231 23.2734C108.929 22.3879 107.556 21.6794 107.556 19.7314C107.556 17.7169 109.349 16.588 112.006 16.588C113.445 16.588 114.684 16.8979 115.791 17.3851L115.193 18.9568C114.175 18.5141 113.024 18.1818 111.873 18.1818C110.279 18.1818 109.416 18.7354 109.416 19.6209C109.416 20.6169 110.191 21.0153 112.47 21.8787C114.729 22.7198 116.035 23.4948 116.035 25.3984C116.035 27.7007 114.197 28.896 111.297 28.896Z" fill="#303336"/>
<path d="M120.35 28.6747H118.402V16.8094H120.35V28.6747ZM120.527 13.5997C120.527 14.4408 119.996 14.8391 119.398 14.8391C118.756 14.8391 118.247 14.4408 118.247 13.5997C118.247 12.7363 118.756 12.36 119.398 12.36C119.996 12.36 120.527 12.7363 120.527 13.5997Z" fill="#303336"/>
<path d="M128.74 22.9413C125.773 23.0522 124.821 23.8933 124.821 25.3985C124.821 26.7268 125.707 27.3244 126.991 27.3244C128.983 27.3244 130.488 26.2396 130.488 23.9373V22.8748L128.74 22.9413ZM132.414 20.5949V28.6747H130.997L130.621 26.9921H130.533C129.492 28.2985 128.54 28.8961 126.548 28.8961C124.401 28.8961 122.807 27.7892 122.807 25.3764C122.807 23.0078 124.622 21.7014 128.496 21.5909L130.511 21.5244V20.8163C130.511 18.846 129.603 18.1819 128.053 18.1819C126.814 18.1819 125.685 18.6247 124.711 19.0893L124.113 17.6287C125.153 17.075 126.615 16.6102 128.164 16.6102C131.042 16.6102 132.414 17.828 132.414 20.5949Z" fill="#303336"/>
<path d="M146.868 17.2303C146.735 16.8759 146.27 15.4149 146.115 14.8616C145.894 15.769 145.606 16.721 145.429 17.2303L143.636 22.0117H148.639L146.868 17.2303ZM149.236 23.7823H142.972L141.09 28.6747H139.076L145.252 12.8028H147.045L153.199 28.6747H151.14L149.236 23.7823Z" fill="#303336"/>
<path d="M162.163 23.1406V22.7862C162.163 19.8422 161.366 18.2042 158.732 18.2042C156.629 18.2042 155.589 19.9973 155.589 22.8083C155.589 25.6418 156.629 27.28 158.754 27.28C161.256 27.28 162.163 25.9075 162.163 23.1406ZM153.574 22.7643C153.574 18.691 155.522 16.5881 158.466 16.5881C160.304 16.5881 161.41 17.3627 162.141 18.3366H162.274C162.23 17.9603 162.141 17.0308 162.141 16.5881V12.6033L164.089 11.8506V28.6747H162.518L162.23 27.0809H162.141C161.433 28.099 160.304 28.8961 158.444 28.8961C155.5 28.8961 153.574 26.8372 153.574 22.7643Z" fill="#303336"/>
<path d="M165.704 16.8094H167.785L170.308 23.8046C170.662 24.7787 171.127 26.2175 171.26 26.9481H171.348C171.504 26.2175 172.012 24.7562 172.345 23.8046L174.868 16.8094H176.949L172.433 28.6747H170.197L165.704 16.8094Z" fill="#303336"/>
<path d="M179.715 21.5689H185.759C185.736 19.5544 184.851 18.1818 182.881 18.1818C181.021 18.1818 179.914 19.4435 179.715 21.5689ZM187.795 21.9452V23.1181H179.671C179.737 25.7967 181.088 27.2359 183.456 27.2359C184.607 27.2359 185.781 27.0145 186.711 26.6601L187.264 28.1214C186.046 28.6527 184.984 28.896 183.368 28.896C179.981 28.896 177.656 26.7931 177.656 22.8307C177.656 18.9343 179.759 16.5882 182.903 16.5882C185.936 16.5882 187.795 18.7129 187.795 21.9452Z" fill="#303336"/>
<path d="M199.903 20.9488V28.6747H197.977V21.0818C197.977 19.1782 197.136 18.2262 195.321 18.2262C192.686 18.2262 191.845 19.7536 191.845 22.5206V28.6747H189.897V16.8094H191.469L191.757 18.4255H191.867C192.642 17.1859 194.103 16.588 195.608 16.588C198.442 16.588 199.903 17.894 199.903 20.9488Z" fill="#303336"/>
<path d="M207.827 27.0145L208.358 28.4088C207.937 28.6746 207.096 28.896 206.188 28.896C204.329 28.896 202.713 28.0989 202.713 25.2214V14.817L204.661 14.0865V16.8095H208.092V18.3146H204.661V25.177C204.661 26.6157 205.436 27.3024 206.52 27.3024C206.963 27.3024 207.561 27.1475 207.827 27.0145Z" fill="#303336"/>
<path d="M212.497 28.6747H210.549V16.8094H212.497V28.6747ZM212.674 13.5997C212.674 14.4408 212.143 14.8391 211.545 14.8391C210.903 14.8391 210.394 14.4408 210.394 13.5997C210.394 12.7363 210.903 12.36 211.545 12.36C212.143 12.36 212.674 12.7363 212.674 13.5997Z" fill="#303336"/>
<path d="M218.805 28.896C217.145 28.896 215.994 28.6302 215.086 28.1435L215.662 26.6382C216.437 26.9701 217.721 27.3243 218.85 27.3243C220.82 27.3243 221.661 26.6383 221.661 25.5754C221.661 24.6903 221.063 24.1585 218.739 23.2734C216.437 22.3879 215.064 21.6794 215.064 19.7314C215.064 17.7169 216.857 16.588 219.513 16.588C220.952 16.588 222.192 16.8979 223.299 17.3851L222.701 18.9568C221.683 18.5141 220.532 18.1818 219.381 18.1818C217.787 18.1818 216.923 18.7354 216.923 19.6209C216.923 20.6169 217.698 21.0153 219.979 21.8787C222.236 22.7198 223.542 23.4948 223.542 25.3984C223.542 27.7007 221.705 28.896 218.805 28.896Z" fill="#303336"/>
<path d="M231.046 27.0145L231.577 28.4088C231.156 28.6746 230.315 28.896 229.408 28.896C227.548 28.896 225.932 28.0989 225.932 25.2214V14.817L227.88 14.0865V16.8095H231.312V18.3146H227.88V25.177C227.88 26.6157 228.655 27.3024 229.74 27.3024C230.182 27.3024 230.78 27.1475 231.046 27.0145Z" fill="#303336"/>
<path d="M238.394 22.9413C235.428 23.0522 234.476 23.8933 234.476 25.3985C234.476 26.7268 235.362 27.3244 236.646 27.3244C238.638 27.3244 240.143 26.2396 240.143 23.9373V22.8748L238.394 22.9413ZM242.069 20.5949V28.6747H240.652L240.276 26.9921H240.188C239.147 28.2985 238.195 28.8961 236.203 28.8961C234.056 28.8961 232.462 27.7892 232.462 25.3764C232.462 23.0078 234.277 21.7014 238.151 21.5909L240.165 21.5244V20.8163C240.165 18.846 239.258 18.1819 237.708 18.1819C236.469 18.1819 235.34 18.6247 234.365 19.0893L233.768 17.6287C234.808 17.075 236.269 16.6102 237.819 16.6102C240.697 16.6102 242.069 17.828 242.069 20.5949Z" fill="#303336"/>
<path d="M79.9111 46.878V46.5236C79.9111 43.5797 79.1144 41.9416 76.4799 41.9416C74.3771 41.9416 73.3365 43.7347 73.3365 46.5457C73.3365 49.3792 74.3771 51.0174 76.5018 51.0174C79.0035 51.0174 79.9111 49.645 79.9111 46.878ZM71.322 46.5017C71.322 42.4284 73.27 40.3255 76.2144 40.3255C78.0515 40.3255 79.1586 41.1001 79.8886 42.074H80.0216C79.9776 41.6978 79.8886 40.7683 79.8886 40.3255V36.3408L81.837 35.588V52.412H80.2654L79.9776 50.8183H79.8886C79.1804 51.8364 78.0515 52.6335 76.1921 52.6335C73.2481 52.6335 71.322 50.5747 71.322 46.5017Z" fill="#303336"/>
<path d="M85.8871 45.3062H91.9303C91.908 43.2917 91.0225 41.9191 89.0525 41.9191C87.1931 41.9191 86.0862 43.1809 85.8871 45.3062ZM93.9669 45.6825V46.8554H85.8427C85.9092 49.534 87.2594 50.9732 89.6278 50.9732C90.7791 50.9732 91.9524 50.7518 92.8823 50.3974L93.4356 51.8587C92.2178 52.39 91.1553 52.6333 89.5396 52.6333C86.1525 52.6333 83.8282 50.5304 83.8282 46.568C83.8282 42.6716 85.9311 40.3255 89.0746 40.3255C92.1073 40.3255 93.9669 42.4502 93.9669 45.6825Z" fill="#303336"/>
<path d="M96.5334 52.412V36.3406L98.4814 35.5881V52.412H96.5334Z" fill="#303336"/>
<path d="M111.585 52.6334C109.814 52.6334 108.242 52.3677 107.246 51.8809L107.866 50.2427C108.552 50.5525 109.992 50.9068 111.674 50.9068C114.02 50.9068 115.238 49.9329 115.238 48.3612C115.238 46.8116 114.374 46.1474 111.519 45.1069C108.818 44.133 107.445 42.8712 107.445 40.414C107.445 37.9128 109.504 36.385 112.493 36.385C114.219 36.385 115.659 36.7394 116.854 37.2705L116.212 38.9752C115.105 38.5104 113.821 38.1341 112.449 38.1341C110.478 38.1341 109.46 39.0636 109.46 40.4359C109.46 42.0301 110.345 42.6717 112.913 43.6237C115.703 44.6641 117.23 45.7047 117.23 48.1838C117.23 50.9952 115.038 52.6334 111.585 52.6334Z" fill="#303336"/>
<path d="M126.814 35.6769C126.261 36.4959 124.689 38.2002 123.649 38.9971H122.365V38.7318C123.007 37.9128 123.959 36.4515 124.468 35.4555H126.814V35.6769ZM120.66 45.3063H126.704C126.681 43.2919 125.796 41.9192 123.826 41.9192C121.966 41.9192 120.86 43.181 120.66 45.3063ZM128.74 45.6826V46.8556H120.616C120.683 49.5342 122.033 50.9733 124.402 50.9733C125.553 50.9733 126.726 50.7519 127.655 50.3976L128.209 51.8588C126.992 52.39 125.929 52.6334 124.313 52.6334C120.926 52.6334 118.602 50.5306 118.602 46.5681C118.602 42.6717 120.705 40.3254 123.848 40.3254C126.881 40.3254 128.74 42.4504 128.74 45.6826Z" fill="#303336"/>
<path d="M133.189 46.0809V46.4572C133.189 49.3793 133.986 51.0173 136.576 51.0173C138.723 51.0173 139.741 49.0914 139.741 46.4353C139.741 43.7346 138.723 41.9636 136.532 41.9636C134.118 41.9636 133.233 43.314 133.189 46.0809ZM141.756 46.4572C141.756 50.5081 139.808 52.6334 136.863 52.6334C135.026 52.6334 133.875 51.8365 133.189 50.9068H133.056C133.1 51.4161 133.189 52.3016 133.189 52.8548V57.7249H131.241V40.547H132.834L133.1 42.1629H133.189C133.897 41.1446 134.96 40.3254 136.885 40.3254C139.808 40.3254 141.756 42.362 141.756 46.4572Z" fill="#303336"/>
<path d="M149.103 50.7519L149.635 52.1463C149.214 52.412 148.373 52.6334 147.465 52.6334C145.606 52.6334 143.99 51.8365 143.99 48.9588V38.5544L145.938 37.824V40.547H149.369V42.0522H145.938V48.9144C145.938 50.3532 146.713 51.0398 147.797 51.0398C148.24 51.0398 148.838 50.8849 149.103 50.7519Z" fill="#303336"/>
<path d="M153.773 52.4121H151.825V40.5468H153.773V52.4121ZM153.951 37.3371C153.951 38.1782 153.42 38.5763 152.822 38.5763C152.18 38.5763 151.671 38.1782 151.671 37.3371C151.671 36.4735 152.18 36.0972 152.822 36.0972C153.42 36.0972 153.951 36.4735 153.951 37.3371Z" fill="#303336"/>
<path d="M174.028 44.6863V52.4121H172.102V44.7751C172.102 42.9157 171.328 41.9637 169.69 41.9637C167.387 41.9637 166.48 43.3359 166.48 45.8596V52.4121H164.554V44.7751C164.554 42.9157 163.779 41.9637 162.119 41.9637C159.728 41.9637 158.953 43.491 158.953 46.258V52.4121H157.005V40.5468H158.577L158.864 42.163H158.975C159.706 40.9233 161.056 40.3255 162.473 40.3255C164.288 40.3255 165.528 40.9677 166.104 42.318H166.214C167.011 40.9677 168.472 40.3255 170.021 40.3255C172.7 40.3255 174.028 41.6314 174.028 44.6863Z" fill="#303336"/>
<path d="M181.642 51.0173C184.032 51.0173 185.117 49.2686 185.117 46.4572C185.117 43.6458 184.032 41.9636 181.619 41.9636C179.207 41.9636 178.166 43.6458 178.166 46.4572C178.166 49.2686 179.229 51.0173 181.642 51.0173ZM181.598 52.6334C178.454 52.6334 176.152 50.3976 176.152 46.4572C176.152 42.5391 178.255 40.3254 181.664 40.3254C184.874 40.3254 187.132 42.5391 187.132 46.4572C187.132 50.3976 184.984 52.6334 181.598 52.6334Z" fill="#303336"/>
<path d="M200.367 38.3111H197.777V50.7075H199.925C204.197 50.7075 206.344 48.5825 206.344 44.4208C206.344 40.2146 204.175 38.3111 200.367 38.3111ZM200.19 52.412H195.785V36.6065H200.655C205.415 36.6065 208.448 39.2852 208.448 44.3543C208.448 49.689 205.392 52.412 200.19 52.412Z" fill="#303336"/>
<path d="M210.793 40.5468H212.741V52.4121H210.793V40.5468ZM214.888 35.677C214.335 36.496 212.763 38.2001 211.722 38.9972H210.438V38.7318C211.08 37.9126 212.032 36.4516 212.541 35.4554H214.888V35.677Z" fill="#303336"/>
<path d="M221.13 46.6786C218.163 46.7895 217.212 47.6306 217.212 49.1358C217.212 50.4641 218.097 51.0617 219.381 51.0617C221.373 51.0617 222.878 49.9769 222.878 47.6746V46.6121L221.13 46.6786ZM224.805 44.3322V52.412H223.388L223.011 50.7294H222.923C221.882 52.0358 220.931 52.6334 218.938 52.6334C216.791 52.6334 215.197 51.5265 215.197 49.1137C215.197 46.7451 217.013 45.4387 220.886 45.3282L222.901 45.2617V44.5536C222.901 42.5833 221.993 41.9192 220.444 41.9192C219.204 41.9192 218.075 42.362 217.101 42.8266L216.503 41.366C217.544 40.8123 219.005 40.3475 220.554 40.3475C223.432 40.3475 224.805 41.5653 224.805 44.3322Z" fill="#303336"/>
<path d="M226.685 37.2261C226.884 37.2261 227.017 37.1156 227.017 36.9383C227.017 36.7613 226.907 36.6729 226.685 36.6729H226.486V37.2261H226.685ZM226.176 36.4071H226.685C227.128 36.4071 227.327 36.5843 227.327 36.9383C227.327 37.1821 227.172 37.3149 227.017 37.381L227.482 38.156H227.128L226.73 37.47H226.486V38.156H226.176V36.4071ZM227.969 37.2926C227.969 36.6064 227.46 36.0309 226.73 36.0309C225.999 36.0309 225.49 36.562 225.49 37.2926C225.49 37.9786 225.999 38.5323 226.73 38.5323C227.416 38.5323 227.969 38.0232 227.969 37.2926ZM225.268 37.2926C225.268 36.4294 225.866 35.8093 226.73 35.8093C227.549 35.8093 228.19 36.4294 228.19 37.2926C228.19 38.1341 227.571 38.7537 226.73 38.7537C225.866 38.7537 225.268 38.1341 225.268 37.2926Z" fill="#303336"/>
<path d="M30.4586 49.1748C30.4586 49.3889 30.7038 49.3897 30.748 49.1748C31.074 47.5934 31.5693 46.5394 32.3437 45.5157L30.6025 45.5169C30.523 45.5169 30.4586 45.5811 30.4586 45.6606V49.1748ZM43.245 27.2236C43.1734 26.9925 42.9734 26.9771 42.9754 27.2193C42.9951 29.5057 42.3374 31.4705 38.1643 35.6438L34.8634 38.9419C33.3612 40.4441 32.0106 41.8159 31.2123 43.1867H34.4721C34.597 43.0615 34.7251 42.9333 34.8577 42.8008L39.5931 38.0604C43.5371 34.1166 44.0871 29.9448 43.245 27.2236ZM38.8193 41.1692L34.8634 45.1282C32.469 47.5228 30.4586 49.5858 30.4586 51.8421L30.4608 52.4703C30.4608 52.641 30.673 52.6678 30.7381 52.4894C31.4774 50.4694 33.9474 48.3133 38.4783 49.0775C38.4783 49.0775 58.216 52.4882 58.3821 52.5028C58.5747 52.5198 58.6701 52.33 58.5457 52.1821C58.4711 52.0933 49.3592 42.982 49.3592 42.982L38.8193 41.1692ZM24.54 45.5157C24.4605 45.5157 24.3961 45.4514 24.3961 45.3717V43.3295C24.3961 43.25 24.4605 43.1855 24.54 43.1855L27.9946 43.1863C28.0741 43.1863 28.1386 43.1221 28.1386 43.0424C28.1294 41.208 26.7467 39.9614 21.206 40.9258L9.24239 42.982C9.24239 42.982 0.130513 52.0933 0.0559107 52.1821C-0.0683596 52.33 0.0269208 52.5198 0.219712 52.5028C0.385541 52.4882 20.1234 49.0775 20.1234 49.0775C24.6541 48.3133 27.1241 50.4694 27.8635 52.4894C27.9287 52.6678 28.141 52.641 28.141 52.4703C28.141 52.3473 28.1414 45.6596 28.1414 45.6596C28.1414 45.5801 28.0769 45.5157 27.9975 45.5157H24.54ZM19.0255 16.9708C15.0817 20.9148 14.5317 25.0865 15.3736 27.8078C15.4452 28.0389 15.6454 28.0544 15.6434 27.8121C15.6236 25.5256 16.2812 23.561 20.4545 19.3877L29.451 10.3938C31.8454 7.9994 33.8558 5.93627 33.8558 3.67994V0.160846C33.8558 -0.0532316 33.6105 -0.0540424 33.5663 0.160846C32.9744 3.03265 31.8257 4.16587 29.4569 6.53471L19.0255 16.9708ZM33.8643 9.86021V6.31719C33.8643 6.10311 33.619 6.1025 33.5748 6.31719C32.9831 9.18919 31.8373 10.3401 29.4682 12.7091L20.0196 22.1498C15.4342 26.7352 14.6407 31.1731 16.9731 34.0248C17.1284 34.2148 17.2958 34.101 17.1943 33.8715C15.6525 30.3831 19.3498 26.6841 21.1103 24.9237L29.4595 16.5741C31.8539 14.1797 33.8643 12.1165 33.8643 9.86021ZM20.2789 28.0767C15.6931 32.6625 17.8018 37.0912 20.4766 38.3104C20.7111 38.4172 20.8044 38.2269 20.625 38.0714C18.4799 36.2134 19.1313 33.0878 21.8286 30.3906L29.4498 22.7691C31.8444 20.3747 33.8548 18.3116 33.8548 16.0553V12.5362C33.8548 12.3221 33.6095 12.3213 33.5651 12.5362C32.9733 15.408 31.8271 16.5363 29.4583 18.9052L20.2789 28.0767ZM30.45 39.4753V43.0183C30.45 43.2324 30.6953 43.2332 30.7395 43.0183C31.3315 40.1465 32.4773 38.9954 34.8461 36.6266L38.5992 32.8814C43.1844 28.2962 43.9779 23.8584 41.6457 21.0066C41.4902 20.8165 41.323 20.9302 41.4243 21.1599C42.9663 24.6484 39.269 28.3473 37.5085 30.1078L34.8548 32.7614C32.4605 35.156 30.45 37.2189 30.45 39.4753ZM34.8561 30.4303C32.4872 32.7991 31.341 33.9277 30.7493 36.7995C30.7049 37.0144 30.4596 37.0136 30.4596 36.7995V33.2804C30.4596 31.0241 32.47 28.9609 34.8646 26.5666L36.7901 24.6409C39.4873 21.9436 40.1387 18.818 37.9938 16.9598C37.8144 16.8045 37.9075 16.614 38.1422 16.721C40.817 17.94 42.9255 22.3689 38.3399 26.9548L34.8561 30.4303Z" fill="#303336"/>
<path d="M57.091 45.7781C57.2988 45.7781 57.4228 45.6621 57.4228 45.4941C57.4228 45.3064 57.3188 45.2265 57.0871 45.2265H56.8913V45.7781H57.091ZM56.5876 44.9706H57.0991C57.5345 44.9706 57.7304 45.1426 57.7304 45.4864C57.7304 45.738 57.5785 45.8778 57.4186 45.9419L57.8822 46.7173H57.5388L57.1388 46.0258H56.8913V46.7173H56.5876V44.9706ZM58.374 45.8418C58.374 45.1507 57.8583 44.5869 57.135 44.5869C56.4118 44.5869 55.8921 45.1105 55.8921 45.8418C55.8921 46.5335 56.4118 47.0966 57.135 47.0966C57.8186 47.0966 58.374 46.5732 58.374 45.8418ZM55.6685 45.8418C55.6685 44.9907 56.2839 44.3752 57.135 44.3752C57.9463 44.3752 58.6017 44.9907 58.6017 45.8418C58.6017 46.6934 57.9862 47.3085 57.135 47.3085C56.2839 47.3085 55.6685 46.6934 55.6685 45.8418Z" fill="#303336"/>
</g>
<defs>
<clipPath id="clip0_403_2">
<rect width="242.069" height="88.143" fill="white"/>
</clipPath>
</defs>
</svg>
