<svg width="448" height="281" viewBox="0 0 448 281" fill="none" xmlns="http://www.w3.org/2000/svg">
<path opacity="0.1" d="M0.00541446 168.731C-0.0882745 185.792 1.0363 201.446 3.19175 215.32C3.37919 216.351 3.47291 217.382 3.66032 218.413C4.78492 225.162 6.09696 231.443 7.69014 237.255C7.97126 238.286 8.25242 239.223 8.53355 240.161C14.4377 260.877 22.8721 274.844 31.7751 280H408.325C408.325 280 440.469 252.159 446.842 212.414C447.029 211.383 447.123 210.352 447.31 209.32C449.841 189.541 445.811 166.95 428.474 143.515C420.601 132.829 410.199 125.424 398.203 120.268C397.266 119.893 396.329 119.518 395.392 119.143C377.68 112.206 356.875 110.05 335.976 109.675C334.945 109.675 333.821 109.675 332.79 109.675C320.326 109.582 307.955 110.144 296.241 110.613C295.116 110.706 293.992 110.706 292.961 110.8C273.936 111.644 256.88 112.206 244.416 109.956C243.291 109.769 242.167 109.488 241.136 109.207C227.36 105.832 220.612 98.0516 225.485 81.2722C234.951 48.7446 225.298 24.841 204.212 11.7174C203.181 11.0613 202.056 10.4051 200.932 9.74891C188.936 3.37462 173.848 0 156.885 0C155.667 0 154.449 0 153.231 0.0937395C138.798 0.562437 122.96 3.37462 106.56 8.81152C97.7509 11.7174 89.5039 15.3733 81.9129 19.4978C80.9758 19.9665 80.0386 20.529 79.1015 21.0914C64.2007 29.7154 51.5491 40.5892 41.1466 52.9628C40.3969 53.8065 39.7409 54.6502 39.0849 55.4938C12.0948 88.7713 0.286573 131.892 0.00541446 168.731Z" fill="url(#paint0_linear)"/>
<path d="M298.918 276.613C298.918 278.078 297.939 279.144 296.851 279.144H67.0672C65.9792 279.144 65 277.945 65 276.613L66.088 268.619C66.088 267.154 67.0672 266.088 68.1552 266.088H295.763C296.959 266.088 297.83 267.287 297.83 268.619L298.918 276.613Z" fill="#DFE9F3"/>
<path d="M294.239 269.134C294.239 269.026 294.239 269.026 294.239 268.917V265.87C294.239 265.435 293.804 265 293.151 265H280.639C280.313 265 279.443 265.653 279.225 265.87C279.007 265.979 279.551 265.653 279.551 265.87V268.917C279.551 269.026 279.551 269.026 279.551 269.134L293.804 269.787L294.239 269.134Z" fill="#EBE9E8"/>
<path d="M278.355 269.134C278.355 269.026 278.355 269.026 278.355 268.917V265.87C278.355 265.435 277.919 265 277.267 265H264.755C264.428 265 263.558 265.653 263.34 265.87C263.123 265.979 263.667 265.653 263.667 265.87V268.917C263.667 269.026 263.667 269.026 263.667 269.134L277.919 269.787L278.355 269.134Z" fill="#EBE9E8"/>
<path d="M262.36 269.134C262.36 269.026 262.36 269.026 262.36 268.917V265.87C262.36 265.435 261.925 265 261.272 265H248.76C248.434 265 247.564 265.653 247.346 265.87C247.128 265.979 247.672 265.653 247.672 265.87V268.917C247.672 269.026 247.672 269.026 247.672 269.134L261.925 269.896L262.36 269.134Z" fill="#EBE9E8"/>
<path d="M246.259 269.134C246.259 269.026 246.259 269.026 246.259 268.917V265.87C246.259 265.435 245.715 265 245.171 265H232.659C232.333 265 231.462 265.653 231.245 265.87C231.027 265.979 231.571 265.653 231.571 265.87V268.917C231.571 269.026 231.571 269.026 231.571 269.134L245.824 269.787L246.259 269.134Z" fill="#EBE9E8"/>
<path d="M230.374 269.134C230.374 269.026 230.374 269.026 230.374 268.917V265.87C230.374 265.435 229.83 265 229.286 265H216.775C216.448 265 215.578 265.653 215.36 265.87C215.143 265.979 215.687 265.653 215.687 265.87V268.917C215.687 269.026 215.687 269.026 215.687 269.134L229.939 269.787L230.374 269.134Z" fill="#EBE9E8"/>
<path d="M214.49 269.134C214.49 269.026 214.49 269.026 214.49 268.917V265.87C214.49 265.435 214.054 265 213.402 265H200.89C200.563 265 199.693 265.653 199.475 265.87C199.258 265.979 199.802 265.653 199.802 265.87V268.917C199.802 269.026 199.802 269.026 199.802 269.134L214.055 269.896L214.49 269.134Z" fill="#EBE9E8"/>
<path d="M198.387 269.134C198.387 269.026 198.387 269.026 198.387 268.917V265.87C198.387 265.435 197.843 265 197.299 265H184.678C184.352 265 183.481 265.653 183.264 265.87C183.046 265.979 183.59 265.653 183.59 265.87V268.917C183.59 269.026 183.59 269.026 183.59 269.134L197.843 269.787L198.387 269.134Z" fill="#EBE9E8"/>
<path d="M182.394 269.134C182.394 269.026 182.394 269.026 182.394 268.917V265.87C182.394 265.435 181.959 265 181.306 265H168.794C168.468 265 167.597 265.653 167.38 265.87C167.162 265.979 167.706 265.653 167.706 265.87V268.917C167.706 269.026 167.706 269.026 167.706 269.134L181.959 269.787L182.394 269.134Z" fill="#EBE9E8"/>
<path d="M166.183 269.134C166.183 269.026 166.183 269.026 166.183 268.917V265.87C166.183 265.435 165.748 265 165.095 265H152.583C152.257 265 151.386 265.653 151.169 265.87C150.951 265.979 151.495 265.653 151.495 265.87V268.917C151.495 269.026 151.495 269.026 151.495 269.134L165.748 269.787L166.183 269.134Z" fill="#EBE9E8"/>
<path d="M150.407 269.134C150.407 269.026 150.407 269.026 150.407 268.917V265.87C150.407 265.435 149.972 265 149.319 265H136.807C136.481 265 135.611 265.653 135.393 265.87C135.175 265.979 135.719 265.653 135.719 265.87V268.917C135.719 269.026 135.719 269.026 135.719 269.134L149.972 269.787L150.407 269.134Z" fill="#EBE9E8"/>
<path d="M134.306 269.134C134.306 269.026 134.306 269.026 134.306 268.917V265.87C134.306 265.435 133.871 265 133.218 265H120.706C120.38 265 119.509 265.653 119.292 265.87C119.074 265.979 119.618 265.653 119.618 265.87V268.917C119.618 269.026 119.618 269.026 119.618 269.134L133.871 269.787L134.306 269.134Z" fill="#EBE9E8"/>
<path d="M118.312 269.134C118.312 269.026 118.312 269.026 118.312 268.917V265.87C118.312 265.435 117.876 265 117.224 265H104.712C104.385 265 103.515 265.653 103.297 265.87C103.08 265.979 103.624 265.653 103.624 265.87V268.917C103.624 269.026 103.624 269.026 103.624 269.134L117.876 269.787L118.312 269.134Z" fill="#EBE9E8"/>
<path d="M102.317 269.134C102.317 269.026 102.317 269.026 102.317 268.917V265.87C102.317 265.435 101.882 265 101.229 265H88.7177C88.3913 265 87.5209 265.653 87.3033 265.87C87.0857 265.979 87.6297 265.653 87.6297 265.87V268.917C87.6297 269.026 87.6297 269.026 87.6297 269.134L101.991 269.896L102.317 269.134Z" fill="#EBE9E8"/>
<path d="M69.8965 272.943L71.0933 269.135L293.913 269.897L292.391 272.943H69.8965Z" fill="#CCCAC9"/>
<path d="M86.3253 269.134C86.3253 269.026 86.3253 269.026 86.3253 268.917V265.87C86.3253 265.435 85.8901 265 85.2373 265H72.7255C72.3991 265 71.5287 265.653 71.3111 265.87C71.0935 265.979 71.6375 265.653 71.6375 265.87V268.917C71.6375 269.026 71.6375 269.026 71.6375 269.134L85.8901 269.787L86.3253 269.134Z" fill="#EBE9E8"/>
<path d="M85.7798 269.897C85.7798 269.897 85.7798 269.788 85.7798 269.897V266.415C85.7798 265.98 85.3446 265.545 84.6918 265.545H71.8536C71.3096 265.545 70.7656 265.871 70.7656 266.415V269.897C70.7656 269.897 70.7656 269.897 70.7656 270.006H85.7798V269.897Z" fill="white"/>
<path d="M101.774 269.897C101.774 269.897 101.774 269.788 101.774 269.897V266.415C101.774 265.98 101.339 265.545 100.686 265.545H87.8478C87.3038 265.545 86.7598 265.871 86.7598 266.415V269.897C86.7598 269.897 86.7598 269.897 86.7598 270.006H101.774V269.897Z" fill="white"/>
<path d="M117.768 269.897C117.768 269.897 117.768 269.788 117.768 269.897V266.415C117.768 265.98 117.333 265.545 116.68 265.545H103.842C103.298 265.545 102.754 265.871 102.754 266.415V269.897C102.754 269.897 102.754 269.897 102.754 270.006H117.768V269.897Z" fill="white"/>
<path d="M133.76 269.897C133.76 269.897 133.76 269.788 133.76 269.897V266.415C133.76 265.98 133.325 265.545 132.672 265.545H119.943C119.399 265.545 118.855 265.871 118.855 266.415V269.897C118.855 269.897 118.855 269.897 118.855 270.006H133.76V269.897Z" fill="white"/>
<path d="M149.755 269.897C149.755 269.897 149.864 269.788 149.755 269.897V266.415C149.755 265.98 149.32 265.545 148.667 265.545H135.938C135.394 265.545 134.85 265.871 134.85 266.415V269.897C134.85 269.897 134.85 269.897 134.85 270.006H149.755V269.897Z" fill="white"/>
<path d="M165.857 269.897C165.857 269.897 165.857 269.788 165.857 269.897V266.415C165.857 265.98 165.421 265.545 164.769 265.545H151.93C151.386 265.545 150.842 265.871 150.842 266.415V269.897C150.842 269.897 150.842 269.897 150.842 270.006H165.857V269.897Z" fill="white"/>
<path d="M181.85 269.897C181.85 269.897 181.85 269.788 181.85 269.897V266.415C181.85 265.98 181.415 265.545 180.762 265.545H167.924C167.38 265.545 166.836 265.871 166.836 266.415V269.897C166.836 269.897 166.836 269.897 166.836 270.006H181.85V269.897Z" fill="white"/>
<path d="M197.843 269.897C197.843 269.897 197.843 269.788 197.843 269.897V266.415C197.843 265.98 197.407 265.545 196.755 265.545H183.916C183.372 265.545 182.828 265.871 182.828 266.415V269.897C182.828 269.897 182.828 269.897 182.828 270.006H197.843V269.897Z" fill="white"/>
<path d="M213.836 269.897C213.836 269.897 213.836 269.788 213.836 269.897V266.415C213.836 265.98 213.401 265.545 212.748 265.545H199.91C199.366 265.545 198.822 265.871 198.822 266.415V269.897C198.822 269.897 198.822 269.897 198.822 270.006H213.836V269.897Z" fill="white"/>
<path d="M229.83 269.897C229.83 269.897 229.939 269.788 229.83 269.897V266.415C229.83 265.98 229.395 265.545 228.742 265.545H215.904C215.36 265.545 214.816 265.871 214.816 266.415V269.897C214.816 269.897 214.816 269.897 214.816 270.006H229.83V269.897Z" fill="white"/>
<path d="M245.933 269.897C245.933 269.897 245.933 269.788 245.933 269.897V266.415C245.933 265.98 245.497 265.545 244.845 265.545H232.006C231.462 265.545 230.918 265.871 230.918 266.415V269.897C230.918 269.897 230.918 269.897 230.918 270.006H245.933V269.897Z" fill="white"/>
<path d="M261.926 269.897C261.926 269.897 261.926 269.788 261.926 269.897V266.415C261.926 265.98 261.491 265.545 260.838 265.545H248C247.456 265.545 246.912 265.871 246.912 266.415V269.897C246.912 269.897 246.912 269.897 246.912 270.006H261.926V269.897Z" fill="white"/>
<path d="M277.919 269.897C277.919 269.897 277.919 269.788 277.919 269.897V266.415C277.919 265.98 277.484 265.545 276.831 265.545H264.102C263.558 265.545 263.014 265.871 263.014 266.415V269.897C263.014 269.897 263.014 269.897 263.014 270.006H277.919V269.897Z" fill="white"/>
<path d="M293.912 269.897C293.912 269.897 293.912 269.788 293.912 269.897V266.415C293.912 265.98 293.477 265.545 292.824 265.545H279.986C279.442 265.545 278.898 265.871 278.898 266.415V269.897C278.898 269.897 278.898 269.897 278.898 270.006H293.912V269.897Z" fill="white"/>
<path d="M292.825 272.289C292.825 272.18 292.825 272.18 292.825 272.071V269.025C292.825 268.589 292.39 268.154 291.846 268.154H280.095C279.769 268.154 279.007 268.807 278.79 269.025C278.681 269.133 279.007 268.807 279.007 269.025V272.071C279.007 272.18 279.007 272.18 279.007 272.289L292.39 272.941L292.825 272.289Z" fill="#F7F5F4"/>
<path d="M276.723 272.289C276.723 272.18 276.723 272.18 276.723 272.071V269.025C276.723 268.589 276.288 268.154 275.744 268.154H263.993C263.667 268.154 262.905 268.807 262.688 269.025C262.579 269.133 262.905 268.807 262.905 269.025V272.071C262.905 272.18 262.905 272.18 262.905 272.289L276.288 272.941L276.723 272.289Z" fill="#F7F5F4"/>
<path d="M261.166 272.289C261.166 272.18 261.166 272.18 261.166 272.071V269.025C261.166 268.589 260.73 268.154 260.186 268.154H248.436C248.11 268.154 247.348 268.807 247.131 269.025C247.022 269.133 247.457 268.807 247.457 269.025V272.071C247.457 272.18 247.457 272.18 247.457 272.289L260.839 272.941L261.166 272.289Z" fill="#F7F5F4"/>
<path d="M260.837 272.943C260.837 272.835 260.837 272.835 260.837 272.726V269.679C260.837 269.244 260.402 268.809 259.749 268.809H247.781C247.237 268.809 246.693 269.244 246.693 269.679V272.726C246.693 272.835 246.693 272.835 246.693 272.943H260.837Z" fill="white"/>
<path d="M276.288 272.943C276.288 272.835 276.288 272.835 276.288 272.726V269.679C276.288 269.244 275.853 268.809 275.2 268.809H263.233C262.689 268.809 262.145 269.244 262.145 269.679V272.726C262.145 272.835 262.145 272.835 262.145 272.943H276.288Z" fill="white"/>
<path d="M292.39 272.943C292.39 272.835 292.39 272.835 292.39 272.726V269.679C292.39 269.244 291.955 268.809 291.302 268.809H279.334C278.79 268.809 278.246 269.244 278.246 269.679V272.726C278.246 272.835 278.246 272.835 278.246 272.943H292.39Z" fill="white"/>
<path d="M229.939 272.941C229.939 272.833 230.592 272.18 230.592 272.18V269.242C230.592 268.698 230.157 268.154 229.504 268.154H131.15C130.606 268.154 129.518 269.242 129.518 269.569L130.062 272.18C130.062 272.289 130.062 272.289 130.062 272.397L229.939 272.941Z" fill="#EBE9E8"/>
<path d="M229.938 272.942C229.938 272.834 229.938 272.834 229.938 272.725V269.787C229.938 269.243 229.503 268.699 228.85 268.699H130.496C129.952 268.699 129.408 269.134 129.408 269.787V272.725C129.408 272.834 129.408 272.834 129.408 272.942H229.938Z" fill="white"/>
<path d="M114.176 272.289C114.176 272.18 114.176 272.18 114.176 272.071V269.025C114.176 268.589 113.741 268.154 113.197 268.154H101.447C101.12 268.154 100.359 268.807 100.141 269.025C100.032 269.133 100.359 268.807 100.359 269.025V272.071C100.359 272.18 100.359 272.18 100.359 272.289L113.741 272.941L114.176 272.289Z" fill="#F7F5F4"/>
<path d="M128.973 272.289C128.973 272.18 128.973 272.18 128.973 272.071V269.025C128.973 268.589 128.538 268.154 127.994 268.154H116.243C115.917 268.154 115.155 268.807 114.938 269.025C114.829 269.133 115.155 268.807 115.155 269.025V272.071C115.155 272.18 115.155 272.18 115.155 272.289L128.538 272.941L128.973 272.289Z" fill="#F7F5F4"/>
<path d="M246.477 272.289C246.477 272.18 246.477 272.18 246.477 272.071V269.025C246.477 268.589 246.041 268.154 245.497 268.154H233.747C233.421 268.154 232.006 268.916 231.789 269.025C231.68 269.133 232.115 269.351 232.115 269.569L232.768 272.071C232.768 272.18 232.768 272.18 232.768 272.289L246.15 272.941L246.477 272.289Z" fill="#F7F5F4"/>
<path d="M99.5977 272.289C99.5977 272.18 99.5977 272.18 99.5977 272.071V269.025C99.5977 268.589 99.1625 268.154 98.6185 268.154H86.7594C86.433 268.154 85.6714 268.807 85.4538 269.025C85.345 269.133 85.6714 268.807 85.6714 269.025V272.071C85.6714 272.18 85.6714 272.18 85.6714 272.289L99.0537 272.941L99.5977 272.289Z" fill="#F7F5F4"/>
<path d="M84.4753 272.289C84.4753 272.18 84.4753 272.18 84.4753 272.071V269.025C84.4753 268.589 84.0401 268.154 83.4961 268.154H71.7458C71.4194 268.154 70.6578 268.807 70.4402 269.025C70.3314 269.133 70.6578 268.807 70.6578 269.025V272.071C70.6578 272.18 70.6578 272.18 70.6578 272.289L84.0401 272.941L84.4753 272.289Z" fill="#F7F5F4"/>
<path d="M113.741 272.943C113.741 272.835 113.741 272.835 113.741 272.726V269.679C113.741 269.244 113.306 268.809 112.653 268.809H100.685C100.141 268.809 99.5977 269.244 99.5977 269.679V272.726C99.5977 272.835 99.5977 272.835 99.5977 272.943H113.741Z" fill="white"/>
<path d="M83.931 272.943C83.931 272.835 83.931 272.835 83.931 272.726V269.679C83.931 269.244 83.4958 268.809 82.843 268.809H70.8751C70.3311 268.809 69.7871 269.244 69.7871 269.679V272.726C69.7871 272.835 69.7871 272.835 69.7871 272.943H83.931Z" fill="white"/>
<path d="M292.39 271.527H69.3516V275.879H292.39V271.527Z" fill="url(#paint1_linear)" fill-opacity="0.2"/>
<path d="M99.0541 272.943C99.0541 272.835 99.0541 272.835 99.0541 272.726V269.679C99.0541 269.244 98.6189 268.809 97.9661 268.809H85.9982C85.4542 268.809 84.9102 269.244 84.9102 269.679V272.726C84.9102 272.835 84.9102 272.835 84.9102 272.943H99.0541Z" fill="white"/>
<path d="M128.539 272.943C128.539 272.835 128.539 272.835 128.539 272.726V269.679C128.539 269.244 128.103 268.809 127.451 268.809H115.483C114.939 268.809 114.395 269.244 114.395 269.679V272.726C114.395 272.835 114.395 272.835 114.395 272.943H128.539Z" fill="white"/>
<path d="M245.497 272.943C245.497 272.835 245.497 272.835 245.497 272.726V269.679C245.497 269.244 245.062 268.809 244.409 268.809H232.442C231.898 268.809 231.354 269.244 231.354 269.679V272.726C231.354 272.835 231.354 272.835 231.354 272.943H245.497Z" fill="white"/>
<path d="M298.918 276.983C298.918 278.28 298.156 279.145 297.286 279.145H66.632C65.6528 279.145 65 278.064 65 276.983C65 275.685 65.7616 274.821 66.632 274.821H297.177C298.156 274.604 298.918 275.685 298.918 276.983Z" fill="#DFE9F3"/>
<path d="M251.229 239.535H193.457L220.548 152.713C222.397 146.621 229.36 143.466 235.888 145.533L264.72 154.454C271.248 156.521 275.165 163.158 273.206 169.142L251.229 239.535Z" fill="#DFE9F3"/>
<path d="M166.91 240.623C166.91 243.234 169.086 245.41 171.697 245.41H274.947C277.558 245.301 279.734 243.234 279.734 240.623C279.734 238.012 277.558 235.836 274.947 235.836H171.697C169.086 235.836 166.91 237.903 166.91 240.623Z" fill="#DFE9F3"/>
<path d="M170.283 237.685C170.283 238.664 171.153 239.535 172.132 239.535H273.206C274.185 239.535 275.056 238.664 275.056 237.685C275.056 236.706 274.185 235.836 273.206 235.836H172.132C171.153 235.836 170.283 236.597 170.283 237.685Z" fill="white"/>
<path opacity="0.35" d="M340.713 181.635C356.054 180.656 367.695 167.382 366.716 152.041L358.882 33.7771C357.903 18.4364 344.63 6.79497 329.289 7.88296L131.275 20.83C115.934 21.8092 104.293 35.0827 105.272 50.4233L112.997 168.688C113.976 184.028 127.25 195.67 142.59 194.691L340.713 181.635Z" fill="#DFE9F3"/>
<path d="M121.594 168.036C122.247 178.698 131.494 186.749 142.048 185.988L340.171 173.149C350.833 172.497 358.884 163.249 358.123 152.695L350.398 34.322C349.745 23.6598 340.497 15.6086 329.944 16.3702L131.93 29.3173C121.267 29.9701 113.216 39.218 113.978 49.7715L121.594 168.036Z" fill="#DFE9F3"/>
<path d="M339.626 165.641C346.154 165.206 351.05 159.548 350.614 153.129L342.89 34.8652C342.454 28.3372 336.797 23.4413 330.378 23.8765L132.364 36.8235C125.836 37.2587 120.94 42.9163 121.375 49.3354L129.1 167.6C129.535 174.128 135.193 179.023 141.612 178.588L339.626 165.641Z" fill="white"/>
<path d="M141.613 178.698L339.627 165.751C346.155 165.316 351.16 159.658 350.724 153.13L343 34.8661C342.564 28.3381 336.907 23.3334 330.379 23.7686L132.365 36.7157C125.837 37.1509 120.832 42.8084 121.267 49.3363L128.992 167.601C129.319 174.129 135.085 179.133 141.613 178.698ZM330.379 23.9862C336.798 23.551 342.347 28.4469 342.782 34.8661L350.507 153.13C350.942 159.55 346.046 165.098 339.627 165.533L141.613 178.48C135.194 178.916 129.645 174.02 129.21 167.601L121.485 49.3363C121.05 42.9172 125.946 37.3685 132.365 36.9333L330.379 23.9862Z" fill="white"/>
<path d="M373.987 275.637C373.987 271.938 366.806 269 357.993 269C349.181 269 342 271.938 342 275.637C342 279.336 349.072 279.989 357.885 279.989C366.806 279.989 373.987 279.336 373.987 275.637Z" fill="#DFE9F3"/>
<mask id="mask0" mask-type="alpha" maskUnits="userSpaceOnUse" x="342" y="269" width="32" height="11">
<path d="M373.987 275.637C373.987 271.938 366.806 269 357.993 269C349.181 269 342 271.938 342 275.637C342 279.336 349.072 279.989 357.885 279.989C366.806 279.989 373.987 279.336 373.987 275.637Z" fill="#DFE9F3"/>
</mask>
<g mask="url(#mask0)">
<path opacity="0.6" d="M343.523 272.808C346.787 274.549 352.009 276.29 358.102 276.29C364.086 276.29 369.308 274.549 372.572 272.808C370.07 270.632 364.521 269 357.993 269C351.574 269 346.134 270.523 343.523 272.808Z" fill="white"/>
</g>
<path opacity="0.3" d="M206.079 94.3337C209.436 94.3337 212.158 91.612 212.158 88.2547C212.158 84.8974 209.436 82.1758 206.079 82.1758C202.722 82.1758 200 84.8974 200 88.2547C200 91.612 202.722 94.3337 206.079 94.3337Z" fill="#003366"/>
<path opacity="0.3" d="M270.921 88.9294C274.278 88.9294 277 86.2077 277 82.8504C277 79.4931 274.278 76.7715 270.921 76.7715C267.563 76.7715 264.842 79.4931 264.842 82.8504C264.842 86.2077 267.563 88.9294 270.921 88.9294Z" fill="#003366"/>
<path opacity="0.3" d="M209.553 124.729C220.009 118 247.874 107.79 275.683 120.775" stroke="#003366" stroke-width="5.40351" stroke-linecap="round"/>
<path opacity="0.7" d="M150 246H295" stroke="#DFE9F3" stroke-width="2" stroke-linecap="round"/>
<path opacity="0.7" d="M20 280H419" stroke="#DFE9F3" stroke-width="2" stroke-linecap="round"/>
<defs>
<linearGradient id="paint0_linear" x1="154" y1="13" x2="334.5" y2="313.5" gradientUnits="userSpaceOnUse">
<stop stop-color="#EAB57E"/>
<stop offset="1" stop-color="#EAB57E" stop-opacity="0"/>
</linearGradient>
<linearGradient id="paint1_linear" x1="181.414" y1="275.879" x2="181.414" y2="271.527" gradientUnits="userSpaceOnUse">
<stop stop-color="#4066B3"/>
<stop offset="1" stop-color="#4066B3" stop-opacity="0.15"/>
</linearGradient>
</defs>
</svg>
