<svg xmlns="http://www.w3.org/2000/svg" xmlns:xlink="http://www.w3.org/1999/xlink" width="1316.098" height="253.358" viewBox="0 0 1316.098 253.358"><defs><linearGradient id="a" x1="0.5" x2="0.5" y2="1" gradientUnits="objectBoundingBox"><stop offset="0" stop-color="#f5801f"/><stop offset="1" stop-color="#f05026"/></linearGradient></defs><path d="M196.079,0a126.649,126.649,0,1,0,48.482,9.635A126.681,126.681,0,0,0,196.079,0Zm76.45,84.22v5.145a.347.347,0,0,1-.027.142.36.36,0,0,1-.341.226l-.368.368L209.007,199.435a13.042,13.042,0,0,1-11.449,6.648,15.047,15.047,0,0,1-6.648-1.847,13.27,13.27,0,0,1-4.8-18.1l51.7-89.733H156.571l11.818,20.311a13.175,13.175,0,1,1-22.528,13.665L121.844,90.854a13.164,13.164,0,0,1,4.433-18.1c.368-.368.74-.368,1.478-.739a15.479,15.479,0,0,1,5.541-1.479H259.606a8.126,8.126,0,0,1,2.955.368h2.954l1.473,1.473h.368l1.105,1.1a3.683,3.683,0,0,1,1.478,1.847l.737.737a12.411,12.411,0,0,1,1.852,5.172V82.72C271.793,82.36,272.529,84.22,272.529,84.22Z" transform="translate(480.068 0)" fill="url(#a)"/><path d="M25.483,34.436V65.459h49.86A15.046,15.046,0,0,1,89.365,79.127c0,6.277-7.016,11.818-14.036,11.818H25.483v40.994A11.837,11.837,0,0,1,14.4,144.125h-.739C5.17,144.128,0,138.958,0,131.939V21.14C0,14.123,5.17,8.954,14.036,8.954H82.36c8.495,0,13.665,5.17,13.665,12.186a13.56,13.56,0,0,1-13.665,13.3Z" transform="translate(0 61.938)" fill="url(#a)"/><path d="M26.976,143.806a12.222,12.222,0,0,1-12.187-11.818V20.818A11.591,11.591,0,0,1,26.239,9H96.78a12.557,12.557,0,0,1,0,25.115H41.012V63.291H90.132A12.755,12.755,0,1,1,91.24,88.774H41.012v29.179h59.462a12.807,12.807,0,1,1,2.587,25.482h-2.215Z" transform="translate(102.287 62.259)" fill="url(#a)"/><path d="M29.943,20.772a11.818,11.818,0,1,1,23.635,0v97.489h53.186c19.205,0,19.573,25.482,0,25.482H42.5a11.666,11.666,0,0,1-12.187-11.449V20.772Z" transform="translate(207.132 61.938)" fill="url(#a)"/><path d="M44.169,21.1c0-15.88,25.854-16.619,25.854,0v111.17c0,16.248-25.854,16.619-25.854,0Z" transform="translate(305.535 61.61)" fill="url(#a)"/><path d="M63.058,145.427c-12.186,0-16.991-11.818-10.343-20.311L122.15,32.773H64.534c-16.99,0-15.512-24.007,0-24.007H143.57c14.772,0,19.205,14.036,8.495,25.483l-66.48,86.435H148.74a12.374,12.374,0,0,1-.368,24.746h-85.3Z" transform="translate(343.885 60.636)" fill="url(#a)"/><path d="M107.645,22.157a13.243,13.243,0,0,1,13.293-13.3H166c25.486,0,48.019,16.99,48.019,49.489,0,30.656-22.905,48.014-48.019,48.014H133.131v25.854a12.339,12.339,0,0,1-11.076,13.3h-1.481a13.174,13.174,0,0,1-13.3-12.928v-.368ZM133.5,33.233V81.617H166a24.372,24.372,0,0,0,0-48.744Z" transform="translate(742.054 61.291)" fill="url(#a)"/><path d="M123.365,20.866a11.856,11.856,0,0,1,.974-4.582A11.979,11.979,0,0,1,135.55,9.049,11.83,11.83,0,0,1,147,20.866v97.489H200.18c19.208,0,19.572,25.483,0,25.483H135.55a11.663,11.663,0,0,1-8.511-3.153,11.671,11.671,0,0,1-3.674-8.3Z" transform="translate(853.369 62.581)" fill="url(#a)"/><path d="M144.464,144.852a13.605,13.605,0,0,1-6.279-18.466v-.368L193.956,16.7a13.144,13.144,0,0,1,24.006,0l55.026,109.691c8.123,15.144-15.51,27.329-22.525,12.187l-8.5-16.99H170.315l-8.5,16.99C158.494,144.852,151.479,146.331,144.464,144.852ZM228.3,95.363,206.141,47.35,182.135,95.363Z" transform="translate(945.616 61.581)" fill="url(#a)"/><path d="M153.766,28.19C144.534,15.632,165.586.121,175.554,15.264l33.982,50.967,34.346-50.6c10.34-14.4,31.757,0,21.789,12.926L221.729,92.083v40.258c0,16.99-25.858,16.619-25.858,0V92.083Z" transform="translate(1047.848 62.275)" fill="url(#a)"/></svg>