<svg xmlns="http://www.w3.org/2000/svg" width="634.25" height="569.416" viewBox="0 0 634.25 569.416">
  <path id="Path_1" data-name="Path 1" d="M329.655,532.222c0,2.317,2.656,2.325,3.134,0,3.528-17.116,8.888-28.524,17.269-39.6l-18.846.012a1.558,1.558,0,0,0-1.558,1.558Zm138.388-237.58c-.774-2.5-2.94-2.667-2.917-.046.213,24.746-6.9,46.011-52.071,91.178l-35.725,35.7c-16.259,16.259-30.877,31.105-39.518,45.942h35.282c1.352-1.356,2.738-2.741,4.172-4.175l51.255-51.305C471.205,369.246,477.157,324.094,468.043,294.642Zm-47.9,150.934L377.33,488.426c-25.915,25.916-47.675,48.244-47.675,72.665l.025,6.8c0,1.846,2.3,2.137,3,.2,8-21.86,34.734-45.2,83.771-36.926,0,0,213.624,36.914,215.42,37.073a2.034,2.034,0,0,0,1.772-3.471c-.809-.962-99.425-99.574-99.425-99.574ZM265.6,492.619a1.558,1.558,0,0,1-1.558-1.558v-22.1A1.558,1.558,0,0,1,265.6,467.4l37.39.009a1.558,1.558,0,0,0,1.558-1.557c-.1-19.856-15.065-33.345-75.032-22.908L100.032,465.2S1.413,563.808.605,564.77a2.034,2.034,0,0,0,1.773,3.471c1.8-.158,215.419-37.073,215.419-37.073,49.036-8.272,75.77,15.066,83.771,36.926.707,1.933,3,1.642,3-.2,0-1.333.005-73.714.005-73.714a1.557,1.557,0,0,0-1.558-1.558ZM205.915,183.676c-42.686,42.685-48.637,87.837-39.524,117.289.774,2.5,2.94,2.668,2.918.046-.214-24.746,6.9-46.011,52.07-91.177l97.37-97.342c25.915-25.916,47.674-48.245,47.674-72.665V1.741c0-2.317-2.655-2.325-3.134,0-6.405,31.083-18.839,43.348-44.478,68.986Zm160.6-76.957V68.372c0-2.317-2.655-2.325-3.134,0-6.406,31.083-18.807,43.54-44.446,69.179L216.673,239.729c-49.627,49.627-58.214,97.658-32.973,128.522,1.682,2.058,3.493.827,2.394-1.658-16.687-37.757,23.33-77.791,42.383-96.843l90.364-90.367C344.758,153.468,366.517,131.139,366.517,106.719ZM219.479,303.875c-49.632,49.633-26.81,97.566,2.14,110.76,2.539,1.158,3.548-.9,1.606-2.586-23.214-20.11-16.165-53.938,13.027-83.131l82.486-82.487c25.915-25.916,47.674-48.244,47.674-72.665V135.679c0-2.317-2.655-2.325-3.134,0-6.406,31.083-18.811,43.3-44.45,68.934ZM329.563,427.244v38.346c0,2.318,2.655,2.326,3.134,0,6.405-31.082,18.807-43.54,44.445-69.179l40.62-40.533c49.627-49.626,58.215-97.657,32.973-128.522-1.682-2.057-3.493-.826-2.394,1.658,16.687,37.756-23.33,77.79-42.383,96.843l-28.719,28.722C351.322,380.495,329.563,402.824,329.563,427.244Zm47.687-97.895c-25.639,25.639-38.044,37.852-44.449,68.934-.48,2.326-3.134,2.317-3.134,0V360.2c0-24.42,21.76-46.749,47.674-72.665l20.842-20.841c29.192-29.192,36.241-63.02,13.027-83.13-1.942-1.682-.933-3.744,1.606-2.586,28.949,13.194,51.771,61.129,2.14,110.76Z" fill="#fff" fill-rule="evenodd"/>
</svg>
