<svg xmlns="http://www.w3.org/2000/svg" width="192" height="43.378" viewBox="0 0 192 43.378">
  <g id="Grupo_77" data-name="Grupo 77" transform="translate(-402.655 -413.19)">
    <g id="Grupo_71" data-name="Grupo 71" transform="translate(461.261 423.066)">
      <path id="Caminho_91" data-name="Caminho 91" d="M749.864,489.549l.545-1.455h.982V478h-1.527v-1.437h4.692L754.01,478h-.982v10.093h1.527v1.455Z" transform="translate(-749.773 -475.729)" fill="#303235"/>
      <path id="Caminho_92" data-name="Caminho 92" d="M782,506.208a2.367,2.367,0,0,1,2.128-2.4,1.43,1.43,0,0,1-.855-1.364,2.027,2.027,0,0,1,1.182-1.71,2.915,2.915,0,0,1-1.691-2.746c0-2.273,1.418-3.364,3.637-3.364a4.184,4.184,0,0,1,1.328.182h3.364l-.473,1.237h-1.273a3.082,3.082,0,0,1,.582,1.892c0,2.018-1.473,3.128-3.583,3.128a4.148,4.148,0,0,1-.764-.054,1.4,1.4,0,0,0-.891,1.182c0,.491.491.746,1.437.746h1.655c1.964,0,3.182.891,3.182,2.637,0,2.237-1.673,3.346-5.019,3.346C783.671,508.918,782,508.136,782,506.208Zm7.438-.491a1.14,1.14,0,0,0-.437-1.055,3.853,3.853,0,0,0-1.764-.273h-1.673c-1.364,0-2.036.582-2.036,1.764,0,1.018.8,1.546,2.4,1.546C788.272,507.7,789.436,507.044,789.436,505.717Zm-1.091-7.8c0-1.419-.673-2.128-2-2.128s-2,.727-2,2.146a2,2,0,1,0,4-.018Z" transform="translate(-776.471 -490.732)" fill="#303235"/>
      <path id="Caminho_93" data-name="Caminho 93" d="M850.566,494.733l-.2,1.473a5.083,5.083,0,0,0-1.055-.127,3.019,3.019,0,0,0-2.837,3.273v5.2h-1.6v-9.747h1.309l.182,1.782h.073a3.5,3.5,0,0,1,2.982-1.964A5.831,5.831,0,0,1,850.566,494.733Z" transform="translate(-828.709 -490.732)" fill="#303235"/>
      <path id="Caminho_94" data-name="Caminho 94" d="M887.92,499.025v.964h-6.674c.054,2.2,1.164,3.382,3.109,3.382a7.775,7.775,0,0,0,2.673-.473l.455,1.2a7.288,7.288,0,0,1-3.2.636c-2.782,0-4.692-1.727-4.692-4.983,0-3.2,1.727-5.128,4.31-5.128C886.392,494.624,887.92,496.37,887.92,499.025Zm-6.638-.309h4.965c-.018-1.655-.746-2.782-2.364-2.782C882.355,495.933,881.446,496.97,881.282,498.716Z" transform="translate(-857.553 -490.732)" fill="#303235"/>
      <path id="Caminho_95" data-name="Caminho 95" d="M931.931,490.532c1.037-.473,1.273-1.164,1.273-2.891v-9.893h1.6v9.984c0,1.91-.509,3.419-2.364,4.128Zm2.092-16.439a.9.9,0,0,1,.927,1.018.94.94,0,1,1-1.873,0A.9.9,0,0,1,934.023,474.093Z" transform="translate(-901.038 -473.675)" fill="#303235"/>
      <path id="Caminho_96" data-name="Caminho 96" d="M966.586,498.005v6.638h-1.164l-.309-1.382h-.073a3.6,3.6,0,0,1-3.273,1.564c-1.764,0-3.073-.909-3.073-2.891,0-1.946,1.491-3.019,4.674-3.11l1.655-.054v-.582c0-1.619-.746-2.164-2.019-2.164a6.415,6.415,0,0,0-2.746.746l-.491-1.2a7.3,7.3,0,0,1,3.328-.836C965.459,494.732,966.586,495.732,966.586,498.005Zm-3.019,1.928c-2.437.091-3.219.782-3.219,2.018,0,1.091.728,1.582,1.782,1.582A2.6,2.6,0,0,0,965,500.751v-.873Z" transform="translate(-923.273 -490.822)" fill="#303235"/>
      <path id="Caminho_97" data-name="Caminho 97" d="M1046.036,485.262h-5.147l-1.546,4.019h-1.655l5.074-13.039h1.473l5.056,13.039H1047.6Zm-1.946-5.383c-.109-.291-.491-1.491-.618-1.946-.182.746-.418,1.528-.564,1.946l-1.473,3.928h4.11Z" transform="translate(-988.904 -475.46)" fill="#303235"/>
      <path id="Caminho_98" data-name="Caminho 98" d="M1108.091,480.586c0-3.346,1.6-5.074,4.019-5.074a3.521,3.521,0,0,1,3.019,1.436h.109c-.036-.309-.109-1.073-.109-1.436v-3.273l1.6-.618v13.821h-1.291l-.236-1.31h-.073a3.453,3.453,0,0,1-3.037,1.491C1109.673,485.624,1108.091,483.932,1108.091,480.586Zm7.056.309V480.6c0-2.419-.655-3.765-2.819-3.765-1.728,0-2.582,1.473-2.582,3.783,0,2.328.855,3.673,2.6,3.673C1114.4,484.3,1115.147,483.168,1115.147,480.9Z" transform="translate(-1047.395 -471.621)" fill="#303235"/>
      <path id="Caminho_99" data-name="Caminho 99" d="M1166.987,495.7h1.71l2.073,5.747a20.85,20.85,0,0,1,.782,2.582h.073c.127-.6.545-1.8.818-2.582l2.073-5.747h1.71l-3.71,9.748h-1.837Z" transform="translate(-1096.327 -491.625)" fill="#303235"/>
      <path id="Caminho_100" data-name="Caminho 100" d="M1233.356,499.025v.964h-6.674c.055,2.2,1.164,3.382,3.11,3.382a7.777,7.777,0,0,0,2.673-.473l.454,1.2a7.286,7.286,0,0,1-3.2.636c-2.782,0-4.692-1.727-4.692-4.983,0-3.2,1.728-5.128,4.31-5.128C1231.828,494.624,1233.356,496.37,1233.356,499.025Zm-6.638-.309h4.965c-.018-1.655-.745-2.782-2.364-2.782C1227.791,495.933,1226.882,496.97,1226.718,498.716Z" transform="translate(-1144.548 -490.732)" fill="#303235"/>
      <path id="Caminho_101" data-name="Caminho 101" d="M1292.683,498.206v6.347H1291.1v-6.238c0-1.564-.691-2.346-2.183-2.346-2.164,0-2.855,1.255-2.855,3.528v5.055h-1.6v-9.747h1.291l.237,1.328h.091a3.535,3.535,0,0,1,3.073-1.509C1291.483,494.624,1292.683,495.7,1292.683,498.206Z" transform="translate(-1193.928 -490.732)" fill="#303235"/>
      <path id="Caminho_102" data-name="Caminho 102" d="M1350.9,493.1l.436,1.146a3.683,3.683,0,0,1-1.782.4c-1.527,0-2.855-.655-2.855-3.019v-8.547l1.6-.6v2.237h2.819v1.237H1348.3v5.638c0,1.182.636,1.746,1.528,1.746A2.924,2.924,0,0,0,1350.9,493.1Z" transform="translate(-1245.632 -480.64)" fill="#303235"/>
      <path id="Caminho_103" data-name="Caminho 103" d="M1385.865,475.111a.94.94,0,1,1-1.873,0,.94.94,0,1,1,1.873,0Zm-.146,12.384h-1.6v-9.748h1.6Z" transform="translate(-1276.619 -473.675)" fill="#303235"/>
      <path id="Caminho_104" data-name="Caminho 104" d="M1409.741,504.735a6.291,6.291,0,0,1-3.055-.618l.473-1.237a7.331,7.331,0,0,0,2.619.564c1.619,0,2.309-.564,2.309-1.436,0-.727-.491-1.164-2.4-1.891-1.891-.727-3.019-1.309-3.019-2.91,0-1.655,1.473-2.582,3.655-2.582a7.584,7.584,0,0,1,3.11.655l-.491,1.291a6.972,6.972,0,0,0-2.728-.636c-1.309,0-2.019.455-2.019,1.182,0,.819.636,1.146,2.51,1.855,1.855.691,2.928,1.327,2.928,2.891C1413.633,503.753,1412.124,504.735,1409.741,504.735Z" transform="translate(-1295.458 -490.732)" fill="#303235"/>
      <path id="Caminho_105" data-name="Caminho 105" d="M1463.641,493.1l.436,1.146a3.682,3.682,0,0,1-1.782.4c-1.527,0-2.855-.655-2.855-3.019v-8.547l1.6-.6v2.237h2.818v1.237h-2.818v5.638c0,1.182.636,1.746,1.528,1.746A2.926,2.926,0,0,0,1463.641,493.1Z" transform="translate(-1339.302 -480.64)" fill="#303235"/>
      <path id="Caminho_106" data-name="Caminho 106" d="M1499.039,498.005v6.638h-1.164l-.309-1.382h-.073a3.6,3.6,0,0,1-3.273,1.564c-1.765,0-3.074-.909-3.074-2.891,0-1.946,1.491-3.019,4.673-3.11l1.655-.054v-.582c0-1.619-.745-2.164-2.019-2.164a6.413,6.413,0,0,0-2.746.746l-.491-1.2a7.3,7.3,0,0,1,3.328-.836C1497.912,494.732,1499.039,495.732,1499.039,498.005Zm-3.019,1.928c-2.437.091-3.219.782-3.219,2.018,0,1.091.727,1.582,1.782,1.582a2.6,2.6,0,0,0,2.873-2.782v-.873Z" transform="translate(-1365.645 -490.822)" fill="#303235"/>
      <path id="Caminho_107" data-name="Caminho 107" d="M749.327,595.847c0-3.346,1.6-5.074,4.019-5.074a3.522,3.522,0,0,1,3.019,1.437h.109c-.036-.309-.109-1.073-.109-1.437V587.5l1.6-.618V600.7h-1.291l-.236-1.31h-.073a3.454,3.454,0,0,1-3.037,1.491C750.909,600.885,749.327,599.193,749.327,595.847Zm7.056.309v-.291c0-2.419-.655-3.765-2.819-3.765-1.728,0-2.582,1.473-2.582,3.783,0,2.328.855,3.673,2.6,3.673C755.637,599.557,756.383,598.429,756.383,596.156Z" transform="translate(-749.327 -567.382)" fill="#303235"/>
      <path id="Caminho_108" data-name="Caminho 108" d="M814.526,619.995c-2.582,0-4.473-1.836-4.473-5.074,0-3.219,1.727-5.037,4.528-5.037,2.637,0,4.492,1.819,4.492,5.037C819.073,618.159,817.309,619.995,814.526,619.995Zm.036-1.327c1.964,0,2.855-1.437,2.855-3.746s-.891-3.692-2.873-3.692-2.837,1.382-2.837,3.692S812.581,618.668,814.563,618.668Z" transform="translate(-799.779 -586.492)" fill="#303235"/>
      <path id="Caminho_109" data-name="Caminho 109" d="M906.156,604.1a8.657,8.657,0,0,1-3.565-.618l.51-1.346a8.387,8.387,0,0,0,3.128.546c1.928,0,2.928-.8,2.928-2.092,0-1.273-.709-1.818-3.055-2.673-2.219-.8-3.346-1.837-3.346-3.856,0-2.055,1.691-3.31,4.146-3.31a8.713,8.713,0,0,1,3.583.728l-.527,1.4a8.037,8.037,0,0,0-3.092-.691c-1.619,0-2.455.764-2.455,1.891,0,1.31.727,1.837,2.837,2.619,2.292.855,3.546,1.709,3.546,3.746C910.793,602.752,908.992,604.1,906.156,604.1Z" transform="translate(-876.662 -570.595)" fill="#303235"/>
      <path id="Caminho_110" data-name="Caminho 110" d="M966.059,594.638v.964h-6.674c.054,2.2,1.164,3.382,3.11,3.382a7.775,7.775,0,0,0,2.673-.472l.455,1.2a7.286,7.286,0,0,1-3.2.637c-2.782,0-4.692-1.727-4.692-4.983,0-3.2,1.727-5.128,4.31-5.128C964.531,590.238,966.059,591.983,966.059,594.638Zm-6.638-.309h4.965c-.018-1.655-.746-2.783-2.364-2.783C960.494,591.547,959.585,592.584,959.421,594.329Zm5.055-7.911a15.68,15.68,0,0,1-2.6,2.728h-1.055v-.218a20.018,20.018,0,0,0,1.728-2.691h1.928Z" transform="translate(-922.472 -566.846)" fill="#303235"/>
      <path id="Caminho_111" data-name="Caminho 111" d="M1021.259,608.357l.437,1.146a3.685,3.685,0,0,1-1.782.4c-1.527,0-2.855-.655-2.855-3.019v-8.547l1.6-.6v2.237h2.818v1.236h-2.818v5.638c0,1.182.636,1.746,1.528,1.746A2.925,2.925,0,0,0,1021.259,608.357Z" transform="translate(-971.763 -576.401)" fill="#303235"/>
      <path id="Caminho_112" data-name="Caminho 112" d="M1056.227,590.372a.94.94,0,1,1-1.873,0,.94.94,0,1,1,1.873,0Zm-.146,12.384h-1.6v-9.747h1.6Z" transform="translate(-1002.749 -569.436)" fill="#303235"/>
      <path id="Caminho_113" data-name="Caminho 113" d="M1094.241,613.466v6.347h-1.582v-6.274c0-1.527-.636-2.309-1.983-2.309-1.891,0-2.637,1.127-2.637,3.2v5.383h-1.582v-6.274c0-1.527-.637-2.309-2-2.309-1.964,0-2.6,1.255-2.6,3.528v5.056h-1.6v-9.747h1.291l.236,1.328h.092a3.234,3.234,0,0,1,2.873-1.51,2.9,2.9,0,0,1,2.983,1.636h.091a3.511,3.511,0,0,1,3.128-1.636C1093.15,609.884,1094.241,610.957,1094.241,613.466Z" transform="translate(-1024.269 -586.492)" fill="#303235"/>
      <path id="Caminho_114" data-name="Caminho 114" d="M1177.7,619.995c-2.583,0-4.474-1.836-4.474-5.074,0-3.219,1.728-5.037,4.528-5.037,2.637,0,4.492,1.819,4.492,5.037C1182.246,618.159,1180.482,619.995,1177.7,619.995Zm.036-1.327c1.964,0,2.855-1.437,2.855-3.746s-.891-3.692-2.873-3.692-2.837,1.382-2.837,3.692S1175.754,618.668,1177.736,618.668Z" transform="translate(-1101.51 -586.492)" fill="#303235"/>
      <path id="Caminho_115" data-name="Caminho 115" d="M1272.18,604.81h-3.619V591.826h4c3.91,0,6.4,2.2,6.4,6.365C1278.963,602.573,1276.454,604.81,1272.18,604.81Zm.146-11.584H1270.2V603.41h1.764c3.51,0,5.274-1.746,5.274-5.165C1277.235,594.79,1275.453,593.226,1272.326,593.226Z" transform="translate(-1180.717 -571.49)" fill="#303235"/>
      <path id="Caminho_116" data-name="Caminho 116" d="M1342.554,590.372a.94.94,0,1,1-1.873,0,.94.94,0,1,1,1.873,0Zm-.146,12.384h-1.6v-9.747h1.6Z" transform="translate(-1240.635 -569.436)" fill="#303235"/>
      <path id="Caminho_117" data-name="Caminho 117" d="M1368.562,613.266V619.9H1367.4l-.309-1.382h-.073a3.6,3.6,0,0,1-3.273,1.564c-1.764,0-3.073-.909-3.073-2.891,0-1.946,1.491-3.019,4.674-3.11l1.655-.054v-.582c0-1.619-.746-2.164-2.019-2.164a6.418,6.418,0,0,0-2.746.746l-.491-1.2a7.3,7.3,0,0,1,3.328-.837C1367.435,609.992,1368.562,610.992,1368.562,613.266Zm-3.018,1.928c-2.437.091-3.219.782-3.219,2.018,0,1.091.728,1.582,1.783,1.582a2.6,2.6,0,0,0,2.873-2.782v-.873Z" transform="translate(-1257.242 -586.582)" fill="#303235"/>
      <path id="Caminho_118" data-name="Caminho 118" d="M1409.572,589.174a1.16,1.16,0,0,1,1.2-1.218,1.181,1.181,0,0,1,1.2,1.218,1.2,1.2,0,1,1-2.4,0Zm2.219,0a1.009,1.009,0,0,0-1.018-1.036,1.028,1.028,0,1,0,1.018,1.036Zm-1.473-.727h.418c.364,0,.527.146.527.436a.384.384,0,0,1-.255.364l.382.636h-.291l-.327-.564h-.2v.564h-.255Zm.418.673a.24.24,0,0,0,.273-.237c0-.145-.091-.218-.273-.218h-.164v.455Z" transform="translate(-1297.871 -568.274)" fill="#303235"/>
    </g>
    <g id="Grupo_74" data-name="Grupo 74" transform="translate(402.655 413.19)">
      <g id="Grupo_73" data-name="Grupo 73">
        <path id="Caminho_119" data-name="Caminho 119" d="M431.289,438.183c-1.946,1.946-2.888,2.872-3.374,5.231-.036.176-.238.176-.238,0v-2.89c0-1.853,1.652-3.547,3.618-5.514l1.582-1.582c2.216-2.215,2.751-4.782.989-6.308-.147-.128-.071-.284.122-.2,2.2,1,3.93,4.639.162,8.4Zm-3.62,7.429v2.91c0,.176.2.176.238,0,.486-2.359,1.427-3.3,3.373-5.25l3.083-3.076c3.767-3.766,4.419-7.411,2.5-9.753-.128-.156-.265-.063-.182.126,1.267,2.865-1.771,5.9-3.217,7.349l-2.18,2.18C429.321,442.064,427.67,443.758,427.67,445.611Zm-8.356-9.362c-3.767,3.766-2.035,7.4.162,8.405.193.088.269-.069.122-.2-1.762-1.526-1.227-4.093.989-6.308l6.261-6.259c1.967-1.967,3.619-3.661,3.619-5.514v-2.89c0-.176-.2-.176-.238,0-.486,2.359-1.428,3.286-3.374,5.231Zm11.16-14.961v-2.91c0-.176-.2-.176-.238,0-.486,2.359-1.427,3.3-3.373,5.25l-7.762,7.754c-3.767,3.766-4.419,7.411-2.5,9.753.128.156.265.063.182-.126-1.267-2.865,1.771-5.9,3.217-7.349l6.859-6.857C428.823,424.836,430.475,423.142,430.475,421.289Zm-12.19,5.84c-3.24,3.239-3.692,6.666-3,8.9.059.19.223.2.221,0-.016-1.878.524-3.492,3.952-6.919l7.391-7.387c1.967-1.967,3.619-3.661,3.619-5.514v-2.89c0-.176-.2-.176-.238,0-.486,2.359-1.43,3.29-3.376,5.235Zm4.53,23.444a.118.118,0,0,1-.118-.118v-1.677a.118.118,0,0,1,.118-.118h2.838a.118.118,0,0,0,.118-.118c-.007-1.507-1.143-2.53-5.695-1.738l-9.828,1.689s-7.485,7.483-7.547,7.556a.154.154,0,0,0,.134.263c.136-.012,16.351-2.813,16.351-2.813,3.722-.628,5.751,1.143,6.358,2.8.054.147.228.125.228-.015,0-.1,0-5.594,0-5.594a.118.118,0,0,0-.118-.118Zm11.73-3.57-3.25,3.252c-1.967,1.967-3.619,3.661-3.619,5.514l0,.516c0,.14.174.162.228.015.607-1.659,2.636-3.43,6.358-2.8,0,0,16.214,2.8,16.351,2.813a.154.154,0,0,0,.135-.263c-.061-.073-7.547-7.556-7.547-7.556Zm3.636-11.454c-.059-.19-.223-.2-.222,0,.016,1.878-.524,3.491-3.952,6.919l-2.712,2.709a19.114,19.114,0,0,0-3,3.486h2.678l.317-.317,3.89-3.893C438.421,441.21,438.872,437.784,438.181,435.549Zm-10.5,18.029c0,.176.2.176.238,0a6.951,6.951,0,0,1,1.311-3.005h-1.43a.118.118,0,0,0-.118.118Z" transform="translate(-402.655 -413.19)" fill="#303235"/>
        <g id="Grupo_72" data-name="Grupo 72" transform="translate(45.731 36.444)">
          <path id="Caminho_120" data-name="Caminho 120" d="M672.965,629.869a1.164,1.164,0,0,1,1.2-1.2,1.183,1.183,0,0,1,1.2,1.2,1.2,1.2,0,0,1-2.41,0Zm2.223,0a1,1,0,0,0-1.018-1.031.989.989,0,0,0-1.021,1.031,1.019,1.019,0,1,0,2.039,0Zm-1.468-.716h.42c.358,0,.519.141.519.424a.385.385,0,0,1-.256.374l.381.637H674.5l-.328-.568h-.2v.568h-.25Zm.414.663c.171,0,.273-.1.273-.233,0-.154-.085-.22-.276-.22h-.161v.453Z" transform="translate(-672.965 -628.664)" fill="#303235"/>
        </g>
      </g>
    </g>
  </g>
</svg>
