<svg width="231" height="56" viewBox="0 0 231 56" fill="none" xmlns="http://www.w3.org/2000/svg">
<path d="M68.1646 27.3614L68.7998 25.6674H69.9452V13.9442H68.1646V12.2791H73.6123L72.9867 13.9442H71.8413V25.6674H73.6123V27.3614H68.1646Z" fill="#303336"/>
<path d="M74.4786 29.2864C74.4786 27.8234 75.3063 26.8994 76.9522 26.4952C76.6522 26.356 76.4004 26.1306 76.229 25.8477C76.0576 25.5649 75.9743 25.2374 75.9897 24.907C76.0182 24.4829 76.1613 24.0745 76.4037 23.7253C76.6461 23.3761 76.9787 23.0993 77.3661 22.9243C76.7685 22.6401 76.2675 22.1867 75.9252 21.6204C75.583 21.054 75.4147 20.3996 75.4411 19.7384C75.4411 17.0916 77.087 15.8307 79.6568 15.8307C80.1815 15.8145 80.7053 15.8861 81.2064 16.0424H85.1142L84.5656 17.4765H83.0159C83.4766 18.1136 83.7135 18.8852 83.6897 19.671C83.6897 22.0195 81.9861 23.3093 79.5317 23.3093C79.2351 23.3131 78.9388 23.2906 78.6462 23.2419C78.3607 23.3498 78.1116 23.5364 77.9276 23.7799C77.7437 24.0235 77.6324 24.3141 77.6067 24.6183C77.6067 25.1862 78.1746 25.4845 79.2814 25.4845H81.2064C83.4876 25.4845 84.9024 26.5144 84.9024 28.5453C84.9024 31.144 82.9774 32.3953 79.1274 32.3953C76.4228 32.4338 74.4786 31.5194 74.4786 29.2864ZM83.1411 28.7089C83.1704 28.4783 83.1388 28.2441 83.0492 28.0296C82.9597 27.8151 82.8155 27.6278 82.6309 27.4865C81.9822 27.2205 81.2797 27.1117 80.5808 27.1689H78.6558C77.0677 27.1689 76.2881 27.8427 76.2881 29.219C76.2881 30.4029 77.2506 31.0189 79.0697 31.0189C81.8128 31.0189 83.1218 30.2585 83.1218 28.7089H83.1411ZM81.8128 19.6518C81.8128 18.0059 81.0332 17.1782 79.4932 17.1782C77.9532 17.1782 77.1639 18.0252 77.1639 19.671C77.1435 19.9889 77.1884 20.3075 77.296 20.6073C77.4035 20.9071 77.5714 21.1816 77.7893 21.4139C78.0071 21.6463 78.2703 21.8314 78.5625 21.958C78.8548 22.0846 79.1699 22.1499 79.4884 22.1499C79.8069 22.1499 80.122 22.0846 80.4142 21.958C80.7065 21.8314 80.9696 21.6463 81.1875 21.4139C81.4053 21.1816 81.5732 20.9071 81.6808 20.6073C81.7883 20.3075 81.8333 19.9889 81.8128 19.671V19.6518Z" fill="#303336"/>
<path d="M86.8371 27.3614V12.0288L88.6947 11.3069V27.3614H86.8371Z" fill="#303336"/>
<path d="M100.909 20.9415V22.058H93.1511C93.2184 24.6183 94.5082 25.985 96.7701 25.985C97.8273 25.9852 98.8764 25.7995 99.8693 25.4364L100.399 26.832C99.2326 27.358 97.962 27.6115 96.6834 27.5732C93.4494 27.5732 91.2357 25.5615 91.2357 21.7982C91.2357 18.0348 93.2377 15.8403 96.2407 15.8403C99.2437 15.8403 100.909 17.8519 100.909 20.9415ZM93.2088 20.5758H98.9838C98.9838 18.6508 98.1175 17.3514 96.2407 17.3514C94.3638 17.3514 93.3628 18.5546 93.1992 20.5758H93.2088Z" fill="#303336"/>
<path d="M106.212 27.5732C104.986 27.638 103.764 27.3896 102.661 26.8513L103.209 25.4172C104.174 25.8206 105.205 26.0425 106.251 26.0717C108.176 26.0717 108.936 25.4172 108.936 24.4065C108.936 23.5595 108.359 23.0494 106.145 22.2024C103.931 21.3554 102.641 20.6817 102.641 18.824C102.641 16.9664 104.345 15.8307 106.886 15.8307C108.13 15.8221 109.361 16.0814 110.495 16.5911L109.927 18.0829C108.931 17.6313 107.854 17.3826 106.761 17.3514C105.24 17.3514 104.412 17.8808 104.412 18.7182C104.412 19.5555 105.153 20.056 107.3 20.8742C109.446 21.6923 110.697 22.4142 110.697 24.2333C110.688 26.4278 108.975 27.5732 106.212 27.5732Z" fill="#303336"/>
<path d="M115.019 12.9721C115.019 13.2605 114.904 13.5372 114.7 13.7411C114.496 13.9451 114.22 14.0597 113.931 14.0597C113.643 14.0597 113.366 13.9451 113.162 13.7411C112.958 13.5372 112.844 13.2605 112.844 12.9721C112.844 12.6836 112.958 12.407 113.162 12.203C113.366 11.999 113.643 11.8844 113.931 11.8844C114.22 11.8844 114.496 11.999 114.7 12.203C114.904 12.407 115.019 12.6836 115.019 12.9721V12.9721ZM114.846 27.4095H112.988V16.0424H114.846V27.4095Z" fill="#303336"/>
<path d="M126.357 19.6518V27.3518H125.01L124.644 25.7444H124.567C124.151 26.3574 123.58 26.849 122.912 27.1686C122.244 27.4883 121.503 27.6246 120.765 27.5635C118.715 27.5635 117.194 26.5048 117.194 24.2044C117.194 21.9041 118.927 20.7009 122.623 20.5951L124.548 20.5277V19.8539C124.548 17.9289 123.681 17.3418 122.199 17.3418C121.083 17.3888 119.991 17.6848 119.004 18.2081L118.436 16.8124C119.625 16.1909 120.944 15.861 122.286 15.8499C125.048 15.8499 126.357 17.0146 126.357 19.6518ZM122.854 21.8944C120.024 22.0003 119.11 22.7992 119.11 24.2333C119.11 25.5038 119.957 26.0717 121.189 26.0717C121.629 26.1181 122.074 26.0671 122.493 25.9224C122.911 25.7777 123.293 25.5427 123.611 25.2342C123.928 24.9257 124.174 24.5511 124.331 24.137C124.488 23.7228 124.552 23.2793 124.519 22.8377V21.8271L122.854 21.8944Z" fill="#303336"/>
<path d="M142.45 22.6933H136.473L134.673 27.3614H132.748L138.6 12.2117H140.313L146.185 27.3614H144.26L142.45 22.6933ZM140.188 16.4371C140.063 16.1002 139.62 14.7046 139.476 14.1752C139.264 15.0414 138.985 15.9558 138.822 16.4371L137.108 20.9993H141.921L140.188 16.4371Z" fill="#303336"/>
<path d="M146.55 21.7212C146.55 17.8712 148.408 15.8307 151.219 15.8307C151.896 15.7959 152.572 15.9298 153.185 16.2204C153.798 16.511 154.33 16.9492 154.732 17.4958H154.857C154.857 17.1397 154.732 16.2542 154.732 15.8307V12.0288L156.589 11.3069V27.3614H155.088L154.809 25.8407H154.732C154.34 26.407 153.809 26.8636 153.191 27.1669C152.573 27.4702 151.887 27.61 151.199 27.5732C148.389 27.5732 146.55 25.6097 146.55 21.7212ZM154.751 22.0773V21.7404C154.751 18.9299 153.991 17.3707 151.478 17.3707C149.467 17.3707 148.475 19.0839 148.475 21.7597C148.475 24.4354 149.438 26.0332 151.498 26.0332C153.885 26.0332 154.751 24.7242 154.751 22.0773Z" fill="#303336"/>
<path d="M158.129 16.0424H160.112L162.518 22.7125C162.9 23.6931 163.221 24.696 163.481 25.7155H163.558C163.712 25.0129 164.193 23.6173 164.52 22.7125L166.927 16.0424H168.919L164.588 27.3614H162.451L158.129 16.0424Z" fill="#303336"/>
<path d="M179.208 20.9415V22.058H171.46C171.518 24.6183 172.807 25.985 175.069 25.985C176.126 25.9852 177.176 25.7995 178.168 25.4364L178.698 26.832C177.532 27.359 176.261 27.6125 174.983 27.5732C171.749 27.5732 169.535 25.5615 169.535 21.7982C169.535 18.0348 171.537 15.8403 174.54 15.8403C177.543 15.8403 179.208 17.8519 179.208 20.9415ZM171.508 20.5758H177.283C177.283 18.6508 176.417 17.3514 174.54 17.3514C172.663 17.3514 171.691 18.5546 171.498 20.5758H171.508Z" fill="#303336"/>
<path d="M190.758 19.9887V27.3614H188.92V20.1138C188.92 18.2947 188.121 17.3899 186.388 17.3899C183.876 17.3899 183.077 18.8433 183.077 21.4902V27.3614H181.21V16.0424H182.711L182.991 17.5824H183.096C183.494 17.0114 184.031 16.551 184.655 16.2446C185.28 15.9381 185.972 15.7957 186.667 15.8307C189.372 15.8307 190.758 17.0723 190.758 19.9887Z" fill="#303336"/>
<path d="M198.323 25.7733L198.833 27.1112C198.192 27.4342 197.481 27.593 196.764 27.5732C194.983 27.5732 193.443 26.8128 193.443 24.0697V14.1367L195.301 13.4437V16.0424H198.573V17.4766H195.301V24.06C195.301 25.4364 196.042 26.0909 197.082 26.0909C197.512 26.0689 197.935 25.9609 198.323 25.7733V25.7733Z" fill="#303336"/>
<path d="M202.953 12.9721C202.953 13.2605 202.838 13.5372 202.634 13.7411C202.43 13.9451 202.154 14.0597 201.865 14.0597C201.577 14.0597 201.3 13.9451 201.096 13.7411C200.892 13.5372 200.778 13.2605 200.778 12.9721C200.778 12.6836 200.892 12.407 201.096 12.203C201.3 11.999 201.577 11.8844 201.865 11.8844C202.154 11.8844 202.43 11.999 202.634 12.203C202.838 12.407 202.953 12.6836 202.953 12.9721V12.9721ZM202.78 27.4095H200.922V16.0424H202.78V27.4095Z" fill="#303336"/>
<path d="M208.795 27.5732C207.572 27.6372 206.353 27.3888 205.253 26.8513L205.802 25.4172C206.767 25.8206 207.798 26.0425 208.843 26.0717C210.768 26.0717 211.529 25.4172 211.529 24.4065C211.529 23.5595 210.951 23.0494 208.737 22.2024C206.524 21.3554 205.234 20.6817 205.234 18.824C205.234 16.9664 206.938 15.8307 209.479 15.8307C210.722 15.8239 211.953 16.0831 213.088 16.5911L212.52 18.0829C211.524 17.6313 210.447 17.3826 209.353 17.3514C207.833 17.3514 207.005 17.8808 207.005 18.7182C207.005 19.5555 207.746 20.056 209.892 20.8742C212.039 21.6923 213.29 22.4142 213.29 24.2333C213.319 26.4278 211.567 27.5732 208.795 27.5732Z" fill="#303336"/>
<path d="M220.48 25.7733L220.99 27.1112C220.349 27.4342 219.638 27.593 218.921 27.5732C217.14 27.5732 215.6 26.8128 215.6 24.0697V14.1367L217.458 13.4437V16.0424H220.73V17.4766H217.458V24.06C217.458 25.4364 218.199 26.0909 219.238 26.0909C219.669 26.0689 220.091 25.9609 220.48 25.7733V25.7733Z" fill="#303336"/>
<path d="M231 19.6518V27.3518H229.643L229.287 25.7444H229.2C228.785 26.3582 228.214 26.8502 227.546 27.17C226.878 27.4897 226.136 27.6256 225.398 27.5635C223.348 27.5635 221.827 26.5048 221.827 24.2044C221.827 21.904 223.56 20.7009 227.266 20.5951L229.19 20.5277V19.8539C229.19 17.9289 228.324 17.3418 226.852 17.3418C225.735 17.3888 224.643 17.6848 223.656 18.2081L223.088 16.8124C224.277 16.1909 225.597 15.861 226.938 15.8499C229.691 15.8499 231 17.0146 231 19.6518ZM227.497 21.8944C224.667 22.0003 223.752 22.7992 223.752 24.2333C223.752 25.5038 224.599 26.0717 225.822 26.0717C226.263 26.1196 226.709 26.0698 227.129 25.9257C227.549 25.7817 227.932 25.547 228.25 25.2383C228.569 24.9296 228.816 24.5544 228.974 24.1396C229.131 23.7247 229.195 23.2802 229.162 22.8377V21.8271L227.497 21.8944Z" fill="#303336"/>
<path d="M68.0587 44.3687C68.0587 40.5188 69.9163 38.4783 72.7268 38.4783C73.4041 38.446 74.0789 38.5811 74.6916 38.8715C75.3043 39.1619 75.8361 39.5987 76.2399 40.1434H76.3651C76.3651 39.7873 76.2399 38.9018 76.2399 38.4783V34.6475L78.0976 33.9256V50.0475H76.5961L76.317 48.5267H76.2399C75.8481 49.0931 75.3177 49.5497 74.6994 49.853C74.081 50.1562 73.3953 50.2961 72.7076 50.2592C69.8971 50.2207 68.0587 48.2572 68.0587 44.3687ZM76.2592 44.7345V44.3976C76.2592 41.5871 75.4988 40.0183 72.9867 40.0183C70.9751 40.0183 69.9837 41.7315 69.9837 44.4169C69.9837 47.1022 70.9462 48.6807 73.006 48.6807C75.393 48.6807 76.2592 47.3717 76.2592 44.7345V44.7345Z" fill="#303336"/>
<path d="M89.6668 43.5891V44.7152H81.9668C82.0246 47.2659 83.3143 48.6422 85.5762 48.6422C86.6187 48.6461 87.6541 48.4702 88.6369 48.1225L89.1663 49.5181C87.9949 50.0371 86.7221 50.2871 85.4414 50.2496C82.217 50.2496 79.9937 48.2476 79.9937 44.4746C79.9937 40.7016 82.0053 38.4975 84.9987 38.4975C87.992 38.4975 89.6668 40.5091 89.6668 43.5891ZM81.9668 43.233H87.7418C87.7418 41.308 86.8755 39.999 84.9987 39.999C83.1218 39.999 82.1497 41.2021 81.9572 43.233H81.9668Z" fill="#303336"/>
<path d="M92.1212 50.0475V34.6475L93.9788 33.9256V50.0475H92.1212Z" fill="#303336"/>
<path d="M106.482 50.2207C105.067 50.2752 103.658 50.0325 102.343 49.5085L102.93 47.9396C104.091 48.3824 105.326 48.598 106.568 48.5749C108.811 48.5749 109.966 47.6124 109.966 46.1494C109.966 44.6864 109.148 44.0319 106.424 43.0405C103.844 42.078 102.574 40.9038 102.574 38.5649C102.574 36.226 104.499 34.7149 107.386 34.7149C108.819 34.7036 110.239 34.9921 111.554 35.5619L110.938 37.1885C109.806 36.6871 108.586 36.4155 107.348 36.3896C105.423 36.3896 104.46 37.2751 104.46 38.5841C104.46 40.1049 105.307 40.7209 107.762 41.6256C110.418 42.5881 111.881 43.6084 111.881 45.9761C111.872 48.6615 109.783 50.2207 106.482 50.2207Z" fill="#303336"/>
<path d="M122.854 43.5891V44.7153H115.154C115.211 47.2659 116.501 48.6422 118.763 48.6422C119.82 48.6425 120.869 48.4567 121.862 48.0936L122.392 49.4892C121.224 50.0081 119.954 50.2581 118.676 50.2207C115.442 50.2207 113.229 48.2187 113.229 44.4458C113.229 40.6728 115.231 38.4879 118.234 38.4879C121.237 38.4879 122.854 40.5091 122.854 43.5891ZM115.154 43.233H120.929C120.929 41.308 120.062 39.999 118.186 39.999C116.309 39.999 115.337 41.2021 115.144 43.233H115.154ZM121.025 34.0412C120.147 35.2132 119.133 36.2763 118.003 37.2078H116.78V36.9575C117.534 35.9724 118.203 34.9261 118.782 33.8294H121.025V34.0412Z" fill="#303336"/>
<path d="M135.27 44.3302C135.27 48.1802 133.412 50.2207 130.602 50.2207C129.928 50.2536 129.256 50.1207 128.645 49.8338C128.035 49.5468 127.503 49.1146 127.098 48.5749H126.973C126.973 49.0657 127.098 49.9031 127.098 50.4325V55.0814H125.241V38.7189H126.761L127.012 40.2589H127.098C127.481 39.681 128.008 39.214 128.628 38.9048C129.249 38.5956 129.939 38.4551 130.631 38.4975C133.412 38.4975 135.27 40.4225 135.27 44.3302ZM127.098 43.9741V44.3302C127.098 47.1215 127.859 48.6807 130.332 48.6807C132.382 48.6807 133.355 46.8424 133.355 44.311C133.355 41.7796 132.392 40.0471 130.284 40.0471C128.013 40.0471 127.137 41.3273 127.098 43.9741V43.9741Z" fill="#303336"/>
<path d="M142.287 48.4305L142.797 49.7587C142.152 50.0818 141.438 50.2406 140.718 50.2207C138.947 50.2207 137.407 49.4604 137.407 46.7172V36.7939L139.264 36.0913V38.69H142.537V40.1241H139.264V46.6787C139.264 48.0455 140.005 48.7 141.035 48.7C141.466 48.6891 141.89 48.5977 142.287 48.4305V48.4305Z" fill="#303336"/>
<path d="M146.907 35.61C146.907 35.8985 146.792 36.1751 146.588 36.3791C146.384 36.5831 146.107 36.6976 145.819 36.6976C145.53 36.6976 145.254 36.5831 145.05 36.3791C144.846 36.1751 144.731 35.8985 144.731 35.61C144.731 35.3216 144.846 35.0449 145.05 34.841C145.254 34.637 145.53 34.5224 145.819 34.5224C146.107 34.5224 146.384 34.637 146.588 34.841C146.792 35.0449 146.907 35.3216 146.907 35.61V35.61ZM146.743 50.0475H144.885V38.69H146.743V50.0475Z" fill="#303336"/>
<path d="M166.07 42.6363V50.0475H164.232V42.7229C164.232 40.9519 163.49 40.0471 161.931 40.0471C159.737 40.0471 158.87 41.3561 158.87 43.7624V50.0475H157.032V42.7229C157.032 40.9519 156.291 40.0471 154.703 40.0471C152.422 40.0471 151.681 41.5005 151.681 44.1378V50.0475H149.823V38.69H151.324L151.604 40.23H151.709C152.063 39.6736 152.557 39.2205 153.142 38.9162C153.726 38.612 154.381 38.4676 155.04 38.4975C156.772 38.4975 157.927 39.1135 158.505 40.4225H158.611C158.992 39.808 159.53 39.306 160.169 38.9677C160.808 38.6295 161.526 38.4672 162.249 38.4975C164.799 38.4975 166.07 39.7295 166.07 42.6363Z" fill="#303336"/>
<path d="M173.298 50.2207C170.295 50.2207 168.101 48.0936 168.101 44.3303C168.101 40.5669 170.103 38.4975 173.356 38.4975C176.417 38.4975 178.573 40.615 178.573 44.3495C178.573 48.084 176.523 50.2207 173.298 50.2207ZM173.298 48.6807C175.579 48.6807 176.609 47.0156 176.609 44.3303C176.609 41.6449 175.579 40.0471 173.279 40.0471C170.979 40.0471 169.978 41.6449 169.978 44.3303C169.978 47.0156 171.036 48.6807 173.337 48.6807H173.298Z" fill="#303336"/>
<path d="M191.037 50.0475H186.831V34.9267H191.48C196.023 34.9267 198.92 37.4869 198.92 42.3283C198.92 47.4102 196.004 50.0475 191.037 50.0475ZM191.201 36.5725H188.737V48.3824H190.787C194.858 48.3824 196.908 46.3611 196.908 42.386C196.908 38.4109 194.839 36.5725 191.201 36.5725V36.5725Z" fill="#303336"/>
<path d="M205.061 34.0412C204.183 35.2132 203.168 36.2763 202.038 37.2078H200.816V36.9575C201.569 35.9724 202.239 34.9261 202.818 33.8294H205.061V34.0412ZM201.163 50.0475V38.69H203.02V50.0475H201.163Z" fill="#303336"/>
<path d="M214.522 42.3475V50.0475H213.175L212.818 48.4497H212.713C212.291 49.0678 211.712 49.5617 211.034 49.8799C210.357 50.1981 209.607 50.3291 208.863 50.2592C206.812 50.2592 205.292 49.2101 205.292 46.9001C205.292 44.5901 207.024 43.3966 210.72 43.2908L212.645 43.233V42.5496C212.645 40.6246 211.779 40.0375 210.297 40.0375C209.183 40.0834 208.094 40.3794 207.111 40.9038L206.533 39.5081C207.722 38.8866 209.042 38.5567 210.383 38.5456C213.213 38.4975 214.522 39.6621 214.522 42.3475ZM211.019 44.5901C208.189 44.696 207.274 45.4949 207.274 46.9386C207.274 48.1995 208.121 48.777 209.353 48.777C209.8 48.8291 210.254 48.7807 210.679 48.6353C211.105 48.49 211.494 48.2513 211.815 47.9368C212.137 47.6222 212.385 47.2397 212.54 46.8173C212.695 46.3948 212.754 45.943 212.713 45.4949V44.4746L211.019 44.5901Z" fill="#303336"/>
<path d="M214.965 35.61C214.957 35.4237 214.987 35.2378 215.054 35.0637C215.121 34.8897 215.224 34.7314 215.354 34.5987C215.485 34.4659 215.642 34.3615 215.815 34.2921C215.988 34.2227 216.174 34.1897 216.36 34.1951C216.546 34.1925 216.73 34.2274 216.902 34.2978C217.074 34.3682 217.23 34.4726 217.36 34.6048C217.49 34.737 217.593 34.8942 217.661 35.0669C217.729 35.2397 217.761 35.4244 217.756 35.61C217.756 35.9802 217.609 36.3351 217.347 36.5969C217.086 36.8586 216.731 37.0056 216.36 37.0056C215.99 37.0056 215.635 36.8586 215.374 36.5969C215.112 36.3351 214.965 35.9802 214.965 35.61V35.61ZM217.525 35.61C217.53 35.4522 217.503 35.295 217.446 35.148C217.389 35.0009 217.302 34.867 217.191 34.7545C217.08 34.642 216.948 34.5531 216.802 34.4934C216.656 34.4336 216.499 34.4042 216.341 34.4069C216.105 34.405 215.874 34.4731 215.677 34.6027C215.479 34.7323 215.325 34.9174 215.233 35.1348C215.141 35.3521 215.115 35.5919 215.159 35.8238C215.203 36.0556 215.315 36.2692 215.481 36.4375C215.646 36.6057 215.858 36.7211 216.089 36.769C216.32 36.8169 216.561 36.7952 216.779 36.7067C216.998 36.6181 217.186 36.4666 217.319 36.2714C217.451 36.0762 217.523 35.8461 217.525 35.61V35.61ZM215.812 34.7726H216.303C216.726 34.7726 216.909 34.9363 216.909 35.2731C216.911 35.365 216.884 35.4551 216.832 35.5309C216.78 35.6068 216.706 35.6647 216.62 35.6966L217.063 36.4378H216.726L216.341 35.7833H216.11V36.4378H215.812V34.7726ZM216.303 35.5523C216.342 35.5563 216.382 35.5521 216.42 35.5399C216.458 35.5278 216.492 35.5081 216.522 35.4819C216.552 35.4557 216.576 35.4236 216.593 35.3877C216.61 35.3518 216.619 35.3128 216.62 35.2731C216.62 35.1095 216.514 35.0229 216.303 35.0229H216.11V35.5523H216.303Z" fill="#303336"/>
<path d="M33.2644 29.0362C31.0026 31.298 29.9053 32.376 29.3471 35.1191C29.3471 35.3213 29.0679 35.3213 29.0679 35.1191V31.76C29.0679 29.604 30.9929 27.6309 33.274 25.3498L35.1124 23.5114C37.6823 20.9416 38.3079 17.9578 36.2578 16.1868C36.0845 16.0328 36.1712 15.8499 36.4022 15.9558C38.9528 17.1204 40.9644 21.3458 36.585 25.7155L33.2644 29.0362ZM29.0583 37.6986V41.077C29.0583 41.2791 29.2893 41.2791 29.3374 41.077C29.8957 38.3339 30.9929 37.227 33.2548 34.9748L36.8353 31.4039C41.2147 27.0245 41.9654 22.7414 39.7228 20.0753C39.5784 19.8924 39.4148 19.9983 39.511 20.2197C40.9837 23.5499 37.4513 27.0823 35.7765 28.757L33.2452 31.2884C30.9737 33.5503 29.0583 35.5138 29.0583 37.6698V37.6986ZM19.3563 26.7935C14.977 31.1633 16.9886 35.3886 19.5392 36.5533C19.7606 36.6591 19.8568 36.4763 19.6836 36.3319C17.6335 34.5513 18.2591 31.5772 20.8289 28.9977L28.1054 21.7212C30.3866 19.4401 32.3115 17.4766 32.3115 15.3206V11.9614C32.3115 11.7593 32.0709 11.7593 32.0324 11.9614C31.4645 14.7046 30.3769 15.8114 28.1151 18.0348L19.3563 26.7935ZM32.3115 9.41082V6.02283C32.3115 5.82071 32.0805 5.82071 32.042 6.02283C31.4742 8.76595 30.3866 9.87282 28.1247 12.1251L19.1061 21.1725C14.7267 25.5519 13.976 29.835 16.2186 32.5012C16.363 32.684 16.5266 32.5782 16.4303 32.3568C14.9577 29.0265 18.4805 25.5038 20.1648 23.8194L28.1343 15.8499C30.3962 13.5303 32.3115 11.5476 32.3115 9.41082ZM18.1532 16.1483C14.3898 19.9117 13.8701 23.8483 14.669 26.4855C14.7363 26.7069 14.9288 26.7165 14.9288 26.4855C14.9288 24.3103 15.5352 22.4334 19.52 18.4487L28.1054 9.87282C30.3866 7.58208 32.3115 5.61858 32.3115 3.46259V0.151593C32.3115 -0.0505311 32.0709 -0.0505311 32.0324 0.151593C31.4645 2.89471 30.3673 4.00159 28.1151 6.23458L18.1532 16.1483ZM23.4181 43.387C23.3815 43.3846 23.3472 43.3683 23.3221 43.3415C23.2971 43.3146 23.2832 43.2793 23.2833 43.2426V41.385C23.2833 41.3493 23.2975 41.315 23.3228 41.2897C23.3481 41.2645 23.3823 41.2503 23.4181 41.2503H26.7194C26.756 41.2478 26.7903 41.2315 26.8154 41.2047C26.8404 41.1779 26.8543 41.1426 26.8542 41.1059C26.8542 39.3638 25.5259 38.1703 20.2322 39.0943L8.81697 41.0193C8.81697 41.0193 0.15449 49.6817 0.0582399 49.8069C0.0294438 49.8324 0.00998301 49.8669 0.00293087 49.9047C-0.00412126 49.9426 0.00163713 49.9817 0.0192967 50.0159C0.0369562 50.0501 0.0655105 50.0775 0.10045 50.0936C0.13539 50.1098 0.174723 50.1139 0.21224 50.1052C0.366239 50.0475 19.2505 46.8327 19.2505 46.8327C23.5239 46.1012 25.8821 48.1225 26.5943 50.0475C26.6521 50.2207 26.8542 50.1919 26.8542 50.0475V43.5699C26.8542 43.5341 26.84 43.4999 26.8147 43.4746C26.7894 43.4493 26.7552 43.4351 26.7194 43.4351L23.4181 43.387ZM37.047 39.2386L33.274 43.0116C30.9833 45.3024 29.0679 47.2659 29.0679 49.4219V50.0475C29.0679 50.2111 29.2701 50.24 29.3374 50.0475C30.0401 48.1225 32.3982 46.0627 36.7198 46.7942C36.7198 46.7942 55.5559 50.0475 55.7099 50.0571C55.7482 50.0695 55.7897 50.0681 55.8271 50.0532C55.8645 50.0383 55.8956 50.0109 55.915 49.9755C55.9343 49.9402 55.9408 49.8992 55.9332 49.8597C55.9257 49.8201 55.9045 49.7844 55.8735 49.7587L47.1051 40.9711L37.047 39.2386ZM41.2724 25.985C41.1954 25.7637 41.0125 25.754 41.0125 25.985C41.0125 28.1603 40.4062 30.0372 36.4214 34.0219L33.274 37.1693C31.9708 38.3741 30.8171 39.7314 29.8379 41.2118H32.9468C33.0623 41.0866 33.1874 40.9711 33.3125 40.846L37.8267 36.3223C41.5419 32.5589 42.0713 28.5742 41.2724 25.985ZM29.0679 46.9194C29.0679 47.1311 29.2989 47.1311 29.3471 46.9194C29.5666 45.6526 30.0882 44.4574 30.8678 43.4351H29.2027C29.1669 43.4351 29.1327 43.4493 29.1074 43.4746C29.0821 43.4999 29.0679 43.5341 29.0679 43.5699V46.9194Z" fill="#303336"/>
<path d="M53.1207 43.7431C53.1154 43.5576 53.1481 43.3729 53.2169 43.2005C53.2858 43.0281 53.3893 42.8716 53.521 42.7408C53.6527 42.61 53.8098 42.5076 53.9827 42.44C54.1556 42.3723 54.3405 42.3408 54.526 42.3475C54.71 42.3449 54.8926 42.3792 55.0631 42.4485C55.2336 42.5177 55.3885 42.6204 55.5186 42.7505C55.6487 42.8806 55.7514 43.0355 55.8207 43.206C55.8899 43.3765 55.9242 43.5591 55.9216 43.7431C55.8925 44.0945 55.7323 44.4221 55.4729 44.6609C55.2135 44.8996 54.8738 45.0322 54.5212 45.0322C54.1686 45.0322 53.8289 44.8996 53.5695 44.6609C53.3101 44.4221 53.1499 44.0945 53.1207 43.7431V43.7431ZM55.7099 43.7431C55.7138 43.5861 55.6859 43.43 55.6279 43.284C55.5699 43.1381 55.483 43.0054 55.3725 42.8939C55.2619 42.7824 55.1299 42.6945 54.9844 42.6353C54.8389 42.5761 54.683 42.547 54.526 42.5496C54.3678 42.5443 54.2102 42.5715 54.063 42.6295C53.9158 42.6876 53.782 42.7753 53.6701 42.8873C53.5582 42.9992 53.4705 43.1329 53.4124 43.2801C53.3543 43.4274 53.3271 43.585 53.3325 43.7431C53.3176 43.9082 53.3373 44.0746 53.3903 44.2317C53.4433 44.3887 53.5284 44.533 53.6402 44.6554C53.752 44.7777 53.8881 44.8755 54.0398 44.9423C54.1915 45.0092 54.3554 45.0437 54.5212 45.0437C54.6869 45.0437 54.8509 45.0092 55.0026 44.9423C55.1542 44.8755 55.2903 44.7777 55.4022 44.6554C55.514 44.533 55.5991 44.3887 55.6521 44.2317C55.7051 44.0746 55.7247 43.9082 55.7099 43.7431V43.7431ZM53.9966 42.9154H54.4875C54.9014 42.9154 55.0939 43.079 55.0939 43.4063C55.097 43.5009 55.0697 43.594 55.016 43.6719C54.9623 43.7499 54.885 43.8086 54.7955 43.8394L55.2382 44.5805H54.911L54.526 43.9164H54.295V44.5805H53.9966V42.9154ZM54.4779 43.6854C54.68 43.6854 54.7955 43.5699 54.7955 43.4159C54.7955 43.2619 54.6992 43.156 54.4779 43.156H54.295V43.6854H54.4779Z" fill="#303336"/>
</svg>
