<svg id="default" xmlns="http://www.w3.org/2000/svg" width="231" height="55.081" viewBox="0 0 231 55.081">
  <path id="Caminho_4159" data-name="Caminho 4159" d="M68.165,27.361l.635-1.694h1.145V13.944H68.165V12.279h5.448l-.626,1.665H71.841V25.667h1.771v1.694Z" fill="#303336"/>
  <path id="Caminho_4160" data-name="Caminho 4160" d="M74.479,29.286c0-1.463.828-2.387,2.474-2.791a1.665,1.665,0,0,1-.963-1.588,2.348,2.348,0,0,1,1.376-1.983,3.378,3.378,0,0,1-1.925-3.186c0-2.647,1.646-3.908,4.216-3.908a4.716,4.716,0,0,1,1.55.212h3.908l-.549,1.434h-1.55a3.561,3.561,0,0,1,.674,2.194c0,2.349-1.7,3.638-4.158,3.638a5,5,0,0,1-.885-.067,1.617,1.617,0,0,0-1.04,1.376c0,.568.568.866,1.675.866h1.925c2.281,0,3.7,1.03,3.7,3.061,0,2.6-1.925,3.85-5.775,3.85C76.423,32.434,74.479,31.519,74.479,29.286Zm8.662-.577a1.329,1.329,0,0,0-.51-1.222,4.447,4.447,0,0,0-2.05-.318H78.656c-1.588,0-2.368.674-2.368,2.05,0,1.184.963,1.8,2.782,1.8,2.743,0,4.052-.76,4.052-2.31Zm-1.328-9.057c0-1.646-.78-2.474-2.32-2.474s-2.329.847-2.329,2.493a2.329,2.329,0,1,0,4.649,0Z" fill="#303336"/>
  <path id="Caminho_4161" data-name="Caminho 4161" d="M86.837,27.361V12.029l1.858-.722V27.361Z" fill="#303336"/>
  <path id="Caminho_4162" data-name="Caminho 4162" d="M100.909,20.941v1.117H93.151c.067,2.56,1.357,3.927,3.619,3.927a9.019,9.019,0,0,0,3.1-.549l.53,1.4a8.425,8.425,0,0,1-3.716.741c-3.234,0-5.448-2.012-5.448-5.775s2-5.958,5-5.958S100.909,17.852,100.909,20.941Zm-7.7-.366h5.775c0-1.925-.866-3.224-2.743-3.224s-2.878,1.2-3.041,3.224Z" fill="#303336"/>
  <path id="Caminho_4163" data-name="Caminho 4163" d="M106.212,27.573a7.226,7.226,0,0,1-3.551-.722l.548-1.434a8.5,8.5,0,0,0,3.042.654c1.925,0,2.685-.654,2.685-1.665,0-.847-.577-1.357-2.791-2.2s-3.5-1.521-3.5-3.378,1.7-2.993,4.245-2.993a8.657,8.657,0,0,1,3.609.76l-.568,1.492a8.239,8.239,0,0,0-3.166-.731c-1.521,0-2.349.529-2.349,1.367s.741,1.338,2.888,2.156,3.4,1.54,3.4,3.359C110.688,26.428,108.975,27.573,106.212,27.573Z" fill="#303336"/>
  <path id="Caminho_4164" data-name="Caminho 4164" d="M115.019,12.972a1.088,1.088,0,1,1-.319-.769,1.088,1.088,0,0,1,.319.769Zm-.173,14.437h-1.858V16.042h1.858Z" fill="#303336"/>
  <path id="Caminho_4165" data-name="Caminho 4165" d="M126.357,19.652v7.7H125.01l-.366-1.607h-.077a4.178,4.178,0,0,1-3.8,1.819c-2.05,0-3.571-1.059-3.571-3.359s1.733-3.5,5.429-3.609l1.925-.067v-.674c0-1.925-.867-2.512-2.349-2.512a7.5,7.5,0,0,0-3.195.866l-.568-1.4a8.46,8.46,0,0,1,3.85-.963C125.048,15.85,126.357,17.015,126.357,19.652Zm-3.5,2.243c-2.83.106-3.744.9-3.744,2.339,0,1.271.847,1.838,2.079,1.838a3.023,3.023,0,0,0,3.33-3.234V21.827Z" fill="#303336"/>
  <path id="Caminho_4166" data-name="Caminho 4166" d="M142.45,22.693h-5.977l-1.8,4.668h-1.925l5.852-15.15h1.713l5.872,15.15H144.26Zm-2.262-6.256c-.125-.337-.568-1.732-.712-2.262-.212.866-.491,1.781-.654,2.262L137.108,21h4.813Z" fill="#303336"/>
  <path id="Caminho_4167" data-name="Caminho 4167" d="M146.55,21.721c0-3.85,1.858-5.891,4.669-5.891a4.1,4.1,0,0,1,3.513,1.665h.125c0-.356-.125-1.242-.125-1.665v-3.8l1.857-.722V27.361h-1.5l-.279-1.521h-.077a4.034,4.034,0,0,1-3.533,1.733C148.389,27.573,146.55,25.61,146.55,21.721Zm8.2.356V21.74c0-2.811-.76-4.37-3.273-4.37-2.011,0-3,1.713-3,4.389s.963,4.273,3.023,4.273C153.885,26.033,154.751,24.724,154.751,22.077Z" fill="#303336"/>
  <path id="Caminho_4168" data-name="Caminho 4168" d="M158.129,16.042h1.983l2.406,6.67a25.917,25.917,0,0,1,.963,3h.077c.154-.7.635-2.1.962-3l2.407-6.67h1.992l-4.331,11.319h-2.137Z" fill="#303336"/>
  <path id="Caminho_4169" data-name="Caminho 4169" d="M179.208,20.941v1.117H171.46c.058,2.56,1.347,3.927,3.609,3.927a9.015,9.015,0,0,0,3.1-.549l.53,1.4a8.4,8.4,0,0,1-3.715.741c-3.234,0-5.448-2.012-5.448-5.775s2-5.958,5-5.958S179.208,17.852,179.208,20.941Zm-7.7-.366h5.775c0-1.925-.866-3.224-2.743-3.224s-2.849,1.2-3.042,3.224Z" fill="#303336"/>
  <path id="Caminho_4170" data-name="Caminho 4170" d="M190.758,19.989v7.373H188.92V20.114c0-1.819-.8-2.724-2.532-2.724-2.512,0-3.311,1.453-3.311,4.1v5.871H181.21V16.042h1.5l.28,1.54h.1a4.1,4.1,0,0,1,3.571-1.752C189.372,15.831,190.758,17.072,190.758,19.989Z" fill="#303336"/>
  <path id="Caminho_4171" data-name="Caminho 4171" d="M198.323,25.773l.51,1.338a4.332,4.332,0,0,1-2.069.462c-1.781,0-3.321-.76-3.321-3.5V14.137l1.858-.693v2.6h3.272v1.434H195.3V24.06c0,1.376.741,2.031,1.781,2.031a3.234,3.234,0,0,0,1.241-.318Z" fill="#303336"/>
  <path id="Caminho_4172" data-name="Caminho 4172" d="M202.953,12.972a1.088,1.088,0,1,1-.319-.769,1.088,1.088,0,0,1,.319.769ZM202.78,27.41h-1.858V16.042h1.858Z" fill="#303336"/>
  <path id="Caminho_4173" data-name="Caminho 4173" d="M208.795,27.573a7.21,7.21,0,0,1-3.542-.722l.549-1.434a8.5,8.5,0,0,0,3.041.654c1.925,0,2.686-.654,2.686-1.665,0-.847-.578-1.357-2.792-2.2s-3.5-1.521-3.5-3.378,1.7-2.993,4.245-2.993a8.719,8.719,0,0,1,3.609.76l-.568,1.492a8.239,8.239,0,0,0-3.167-.731c-1.52,0-2.348.529-2.348,1.367s.741,1.338,2.887,2.156,3.4,1.54,3.4,3.359C213.319,26.428,211.567,27.573,208.795,27.573Z" fill="#303336"/>
  <path id="Caminho_4174" data-name="Caminho 4174" d="M220.48,25.773l.51,1.338a4.332,4.332,0,0,1-2.069.462c-1.781,0-3.321-.76-3.321-3.5V14.137l1.858-.693v2.6h3.272v1.434h-3.272V24.06c0,1.376.741,2.031,1.78,2.031a3.239,3.239,0,0,0,1.242-.318Z" fill="#303336"/>
  <path id="Caminho_4175" data-name="Caminho 4175" d="M231,19.652v7.7h-1.357l-.356-1.607H229.2a4.167,4.167,0,0,1-3.8,1.819c-2.05,0-3.571-1.059-3.571-3.359s1.733-3.5,5.439-3.609l1.924-.067v-.674c0-1.925-.866-2.512-2.338-2.512a7.5,7.5,0,0,0-3.2.866l-.568-1.4a8.463,8.463,0,0,1,3.85-.963C229.691,15.85,231,17.015,231,19.652Zm-3.5,2.243c-2.83.106-3.745.9-3.745,2.339,0,1.271.847,1.838,2.07,1.838a3.022,3.022,0,0,0,3.34-3.234V21.827Z" fill="#303336"/>
  <path id="Caminho_4176" data-name="Caminho 4176" d="M68.059,44.369c0-3.85,1.858-5.89,4.668-5.89a4.129,4.129,0,0,1,3.513,1.665h.125c0-.356-.125-1.242-.125-1.665V34.647l1.858-.722V50.048H76.6l-.279-1.521H76.24a4.032,4.032,0,0,1-3.532,1.733C69.9,50.221,68.059,48.257,68.059,44.369Zm8.2.366V44.4c0-2.81-.76-4.379-3.272-4.379-2.012,0-3,1.713-3,4.4s.962,4.264,3.022,4.264c2.387,0,3.253-1.309,3.253-3.946Z" fill="#303336"/>
  <path id="Caminho_4177" data-name="Caminho 4177" d="M89.667,43.589v1.126h-7.7c.058,2.551,1.348,3.927,3.609,3.927a9.075,9.075,0,0,0,3.061-.52l.529,1.4a8.576,8.576,0,0,1-3.725.731c-3.224,0-5.448-2-5.448-5.775S82.005,38.5,85,38.5,89.667,40.509,89.667,43.589Zm-7.7-.356h5.775C87.742,41.308,86.876,40,85,40s-2.849,1.2-3.042,3.234Z" fill="#303336"/>
  <path id="Caminho_4178" data-name="Caminho 4178" d="M92.121,50.048v-15.4l1.858-.722V50.048Z" fill="#303336"/>
  <path id="Caminho_4179" data-name="Caminho 4179" d="M106.482,50.221a10.125,10.125,0,0,1-4.139-.712l.587-1.569a9.7,9.7,0,0,0,3.638.635c2.243,0,3.4-.963,3.4-2.426s-.818-2.118-3.542-3.109c-2.58-.963-3.85-2.137-3.85-4.476s1.925-3.85,4.812-3.85a10.28,10.28,0,0,1,4.168.847l-.616,1.627a9.346,9.346,0,0,0-3.59-.8c-1.925,0-2.888.886-2.888,2.194,0,1.521.847,2.137,3.3,3.042,2.656.963,4.119,1.983,4.119,4.351C111.872,48.661,109.783,50.221,106.482,50.221Z" fill="#303336"/>
  <path id="Caminho_4180" data-name="Caminho 4180" d="M122.854,43.589v1.126h-7.7c.057,2.551,1.347,3.927,3.609,3.927a9.017,9.017,0,0,0,3.1-.549l.53,1.4a8.538,8.538,0,0,1-3.716.731c-3.234,0-5.447-2-5.447-5.775s2-5.958,5.005-5.958S122.854,40.509,122.854,43.589Zm-7.7-.356h5.775c0-1.925-.867-3.234-2.743-3.234s-2.849,1.2-3.042,3.234Zm5.871-9.192A18.4,18.4,0,0,1,118,37.208H116.78v-.25a22.19,22.19,0,0,0,2-3.128h2.243Z" fill="#303336"/>
  <path id="Caminho_4181" data-name="Caminho 4181" d="M135.27,44.33c0,3.85-1.858,5.89-4.668,5.89a4.129,4.129,0,0,1-3.5-1.646h-.125c0,.491.125,1.328.125,1.858v4.649h-1.857V38.719h1.52l.251,1.54h.086a3.946,3.946,0,0,1,3.533-1.761C133.412,38.5,135.27,40.423,135.27,44.33Zm-8.172-.356v.356c0,2.791.761,4.35,3.234,4.35,2.05,0,3.023-1.838,3.023-4.37s-.963-4.264-3.071-4.264c-2.271,0-3.147,1.28-3.186,3.927Z" fill="#303336"/>
  <path id="Caminho_4182" data-name="Caminho 4182" d="M142.287,48.431l.51,1.328a4.372,4.372,0,0,1-2.079.462c-1.771,0-3.311-.76-3.311-3.5V36.794l1.857-.7v2.6h3.273v1.434h-3.273v6.555c0,1.367.741,2.021,1.771,2.021a3.448,3.448,0,0,0,1.252-.27Z" fill="#303336"/>
  <path id="Caminho_4183" data-name="Caminho 4183" d="M146.907,35.61a1.088,1.088,0,1,1-.319-.769,1.088,1.088,0,0,1,.319.769Zm-.164,14.438h-1.858V38.69h1.858Z" fill="#303336"/>
  <path id="Caminho_4184" data-name="Caminho 4184" d="M166.07,42.636v7.411h-1.838V42.723c0-1.771-.742-2.676-2.3-2.676-2.194,0-3.061,1.309-3.061,3.715v6.285h-1.838V42.723c0-1.771-.741-2.676-2.329-2.676-2.281,0-3.022,1.453-3.022,4.091v5.91h-1.858V38.69h1.5l.28,1.54h.1A3.746,3.746,0,0,1,155.04,38.5c1.732,0,2.887.616,3.465,1.925h.106a4.079,4.079,0,0,1,3.638-1.925C164.8,38.5,166.07,39.729,166.07,42.636Z" fill="#303336"/>
  <path id="Caminho_4185" data-name="Caminho 4185" d="M173.3,50.221c-3,0-5.2-2.127-5.2-5.89s2-5.833,5.255-5.833c3.061,0,5.217,2.118,5.217,5.852S176.523,50.221,173.3,50.221Zm0-1.54c2.281,0,3.311-1.665,3.311-4.35s-1.03-4.283-3.33-4.283-3.3,1.6-3.3,4.283,1.058,4.35,3.359,4.35Z" fill="#303336"/>
  <path id="Caminho_4186" data-name="Caminho 4186" d="M191.037,50.048h-4.206V34.927h4.649c4.543,0,7.44,2.56,7.44,7.4C198.92,47.41,196,50.048,191.037,50.048Zm.164-13.475h-2.464v11.81h2.05c4.071,0,6.121-2.021,6.121-6s-2.069-5.814-5.707-5.814Z" fill="#303336"/>
  <path id="Caminho_4187" data-name="Caminho 4187" d="M205.061,34.041a18.405,18.405,0,0,1-3.023,3.167h-1.222v-.25a22.279,22.279,0,0,0,2-3.128h2.243Zm-3.9,16.006V38.69h1.857V50.048Z" fill="#303336"/>
  <path id="Caminho_4188" data-name="Caminho 4188" d="M214.522,42.347v7.7h-1.347l-.357-1.6h-.1a4.189,4.189,0,0,1-3.85,1.81c-2.051,0-3.571-1.049-3.571-3.359s1.732-3.5,5.428-3.609l1.925-.058V42.55c0-1.925-.866-2.512-2.348-2.512a7.417,7.417,0,0,0-3.186.866l-.578-1.4a8.463,8.463,0,0,1,3.85-.962C213.213,38.5,214.522,39.662,214.522,42.347Zm-3.5,2.243c-2.83.106-3.745.9-3.745,2.348,0,1.261.847,1.838,2.079,1.838a3.024,3.024,0,0,0,3.36-3.282v-1.02Z" fill="#303336"/>
  <path id="Caminho_4189" data-name="Caminho 4189" d="M214.965,35.61a1.356,1.356,0,0,1,1.4-1.415,1.376,1.376,0,0,1,1.4,1.415,1.4,1.4,0,0,1-2.791,0Zm2.56,0a1.175,1.175,0,0,0-.079-.462,1.155,1.155,0,0,0-.255-.393,1.164,1.164,0,0,0-.85-.348,1.194,1.194,0,1,0,1.184,1.2Zm-1.713-.837h.491c.423,0,.606.164.606.5a.439.439,0,0,1-.077.258.444.444,0,0,1-.212.166l.443.741h-.337l-.385-.655h-.231v.655h-.3Zm.491.78a.289.289,0,0,0,.29-.165.284.284,0,0,0,.027-.115c0-.164-.106-.25-.317-.25h-.193v.529Z" fill="#303336"/>
  <path id="Caminho_4190" data-name="Caminho 4190" d="M33.264,29.036C31,31.3,29.905,32.376,29.347,35.119a.14.14,0,1,1-.279,0V31.76c0-2.156,1.925-4.129,4.206-6.41l1.838-1.838c2.57-2.57,3.2-5.554,1.145-7.325-.173-.154-.087-.337.144-.231,2.551,1.165,4.562,5.39.183,9.76ZM29.058,37.7v3.378c0,.2.231.2.279,0,.558-2.743,1.656-3.85,3.917-6.1L36.835,31.4c4.379-4.379,5.13-8.663,2.888-11.329-.144-.183-.308-.077-.212.144,1.473,3.33-2.06,6.863-3.735,8.537l-2.531,2.531c-2.272,2.262-4.187,4.225-4.187,6.381Zm-9.7-10.905c-4.379,4.37-2.368,8.6.183,9.76.221.106.318-.077.144-.221-2.05-1.781-1.424-4.755,1.145-7.334l7.277-7.276c2.281-2.281,4.206-4.245,4.206-6.4V11.961c0-.2-.241-.2-.279,0-.568,2.743-1.655,3.85-3.917,6.073ZM32.312,9.411V6.023c0-.2-.231-.2-.27,0-.568,2.743-1.655,3.85-3.917,6.1l-9.019,9.047c-4.379,4.379-5.13,8.662-2.888,11.329.144.183.308.077.212-.144-1.473-3.33,2.05-6.853,3.735-8.537l7.969-7.97C30.4,13.53,32.312,11.548,32.312,9.411ZM18.153,16.148c-3.763,3.763-4.283,7.7-3.484,10.337.067.221.26.231.26,0,0-2.175.606-4.052,4.591-8.037l8.585-8.576c2.281-2.291,4.206-4.254,4.206-6.41V.152c0-.2-.241-.2-.279,0C31.465,2.895,30.367,4,28.115,6.235Zm5.265,27.239a.144.144,0,0,1-.135-.144V41.385a.135.135,0,0,1,.135-.135h3.3a.144.144,0,0,0,.135-.144c0-1.742-1.328-2.936-6.622-2.012L8.817,41.019S.154,49.682.058,49.807a.173.173,0,0,0,.154.3c.154-.058,19.038-3.273,19.038-3.273,4.273-.731,6.632,1.29,7.344,3.215.058.173.26.144.26,0V43.57a.135.135,0,0,0-.135-.135Zm13.629-4.148-3.773,3.773c-2.291,2.291-4.206,4.254-4.206,6.41v.626c0,.164.2.193.27,0,.7-1.925,3.061-3.985,7.382-3.253,0,0,18.836,3.253,18.99,3.263a.173.173,0,0,0,.164-.3l-8.768-8.788Zm4.225-13.254c-.077-.221-.26-.231-.26,0,0,2.175-.606,4.052-4.591,8.037l-3.147,3.147a22.138,22.138,0,0,0-3.436,4.042h3.109c.116-.125.241-.241.366-.366l4.514-4.524C41.542,32.559,42.071,28.574,41.272,25.985Zm-12.2,20.934c0,.212.231.212.279,0a8,8,0,0,1,1.521-3.484H29.2a.135.135,0,0,0-.135.135Z" fill="#303336"/>
  <path id="Caminho_4191" data-name="Caminho 4191" d="M53.121,43.743a1.357,1.357,0,0,1,1.405-1.4,1.376,1.376,0,0,1,1.4,1.4,1.405,1.405,0,0,1-2.8,0Zm2.589,0a1.189,1.189,0,1,0-2.377,0,1.194,1.194,0,1,0,2.377,0ZM54,42.915h.491c.414,0,.606.164.606.491a.443.443,0,0,1-.3.433l.443.741h-.327l-.385-.664h-.231v.664H54Zm.481.77c.2,0,.318-.115.318-.269s-.1-.26-.318-.26h-.183v.529Z" fill="#303336"/>
</svg>
