<svg xmlns="http://www.w3.org/2000/svg" xmlns:xlink="http://www.w3.org/1999/xlink" width="168" height="103.714" viewBox="0 0 168 103.714">
  <defs>
    <clipPath id="clip-path">
      <rect id="Retângulo_1" data-name="Retângulo 1" width="168" height="103.714" fill="#fff"/>
    </clipPath>
  </defs>
  <g id="logo-iasd-vertical" clip-path="url(#clip-path)">
    <path id="Caminho_4306" data-name="Caminho 4306" d="M0,75.169l.653-1.741H1.826V61.357H0V59.638H5.62l-.651,1.719H3.794V73.428H5.62v1.741Z" fill="#303336"/>
    <path id="Caminho_4307" data-name="Caminho 4307" d="M6.512,77.148q0-2.253,2.545-2.871a1.71,1.71,0,0,1-1.022-1.632A2.423,2.423,0,0,1,9.449,70.6a3.488,3.488,0,0,1-2.024-3.285c0-2.718,1.7-4.024,4.352-4.024a5.022,5.022,0,0,1,1.587.218h4.024l-.565,1.48H15.3a3.681,3.681,0,0,1,.7,2.262c0,2.415-1.76,3.745-4.281,3.745a4.96,4.96,0,0,1-.913-.066,1.686,1.686,0,0,0-1.07,1.414c0,.587.587.892,1.719.892h1.978c2.351,0,3.808,1.07,3.808,3.153,0,2.675-2,4-6,4C8.5,80.389,6.512,79.455,6.512,77.148Zm8.9-.587a1.378,1.378,0,0,0-.521-1.263,4.54,4.54,0,0,0-2.11-.326h-2.01c-1.632,0-2.436.7-2.436,2.11,0,1.218.956,1.85,2.87,1.85q4.2,0,4.2-2.37ZM14.1,67.23c0-1.7-.8-2.545-2.392-2.545s-2.394.87-2.394,2.566a2.135,2.135,0,0,0,2.415,2.415,2.125,2.125,0,0,0,2.361-2.436Z" fill="#303336"/>
    <path id="Caminho_4308" data-name="Caminho 4308" d="M19.226,75.169V59.377l1.91-.738v16.53Z" fill="#303336"/>
    <path id="Caminho_4309" data-name="Caminho 4309" d="M33.712,68.557v1.152H25.731c.064,2.633,1.391,4.045,3.719,4.045a9.3,9.3,0,0,0,3.2-.565l.544,1.427a8.711,8.711,0,0,1-3.829.762c-3.326,0-5.611-2.067-5.611-5.961,0-3.827,2.067-6.133,5.154-6.133C31.886,63.292,33.712,65.381,33.712,68.557Zm-7.939-.371h5.939c-.023-1.978-.892-3.328-2.829-3.328C27.058,64.858,25.97,66.1,25.774,68.186Z" fill="#303336"/>
    <path id="Caminho_4310" data-name="Caminho 4310" d="M39.172,75.386a7.506,7.506,0,0,1-3.653-.74l.565-1.479a8.76,8.76,0,0,0,3.132.674c1.935,0,2.763-.674,2.763-1.718,0-.87-.589-1.393-2.871-2.263S35.5,68.3,35.5,66.381c0-1.98,1.762-3.089,4.373-3.089a9.1,9.1,0,0,1,3.719.783L43,65.62a8.337,8.337,0,0,0-3.264-.762c-1.566,0-2.413.535-2.413,1.414,0,.979.762,1.37,3,2.219s3.5,1.587,3.5,3.458C43.827,74.211,42.022,75.386,39.172,75.386Z" fill="#303336"/>
    <path id="Caminho_4311" data-name="Caminho 4311" d="M48.246,60.356a1.124,1.124,0,1,1-1.109-1.218A1.094,1.094,0,0,1,48.246,60.356Zm-.178,14.8H46.154V63.51h1.914Z" fill="#303336"/>
    <path id="Caminho_4312" data-name="Caminho 4312" d="M59.923,67.23v7.938H58.53l-.369-1.66h-.087a4.313,4.313,0,0,1-3.924,1.871c-2.11,0-3.676-1.088-3.676-3.458,0-2.319,1.784-3.612,5.59-3.72l1.98-.064v-.692c0-1.937-.892-2.59-2.415-2.59a7.666,7.666,0,0,0-3.284.892l-.588-1.427a8.74,8.74,0,0,1,3.981-1C58.575,63.315,59.923,64.51,59.923,67.23Zm-3.612,2.3c-2.914.109-3.849.936-3.849,2.415,0,1.305.868,1.892,2.14,1.892a3.113,3.113,0,0,0,3.437-3.328V69.47Z" fill="#303336"/>
    <path id="Caminho_4313" data-name="Caminho 4313" d="M76.453,70.362H70.3l-1.849,4.807h-1.98l6.064-15.6h1.76l6.057,15.6H78.324Zm-2.319-6.438c-.13-.357-.587-1.784-.74-2.319-.218.892-.5,1.828-.674,2.319l-1.762,4.7h4.917Z" fill="#303336"/>
    <path id="Caminho_4314" data-name="Caminho 4314" d="M81.347,69.362c0-4,1.914-6.064,4.807-6.064a4.209,4.209,0,0,1,3.61,1.719h.13c-.043-.371-.13-1.284-.13-1.719V59.374l1.914-.738v16.53H90.134L89.851,73.6h-.087a4.13,4.13,0,0,1-3.631,1.784C83.239,75.386,81.347,73.364,81.347,69.362Zm8.438.369v-.357c0-2.893-.783-4.5-3.371-4.5-2.065,0-3.089,1.76-3.089,4.523s1.024,4.395,3.111,4.395c2.458.009,3.349-1.339,3.349-4.059Z" fill="#303336"/>
    <path id="Caminho_4315" data-name="Caminho 4315" d="M93.309,63.51h2.044l2.475,6.874a23.446,23.446,0,0,1,.935,3.089h.087c.152-.713.653-2.155.979-3.089l2.479-6.874h2.044L99.915,75.169h-2.2Z" fill="#303336"/>
    <path id="Caminho_4316" data-name="Caminho 4316" d="M115.081,68.557v1.152H107.1c.064,2.633,1.391,4.045,3.719,4.045a9.3,9.3,0,0,0,3.2-.565l.535,1.427a8.712,8.712,0,0,1-3.83.762c-3.328,0-5.611-2.067-5.611-5.961,0-3.827,2.067-6.133,5.155-6.133C113.254,63.292,115.081,65.381,115.081,68.557Zm-7.939-.371h5.938c-.022-1.978-.892-3.328-2.827-3.328C108.426,64.858,107.338,66.1,107.142,68.186Z" fill="#303336"/>
    <path id="Caminho_4317" data-name="Caminho 4317" d="M127.435,67.578v7.591h-1.892V67.708c0-1.871-.826-2.805-2.609-2.805-2.588,0-3.416,1.5-3.416,4.22v6.046H117.6V63.51h1.545l.282,1.589h.109a4.229,4.229,0,0,1,3.675-1.807C126.008,63.292,127.435,64.576,127.435,67.578Z" fill="#303336"/>
    <path id="Caminho_4318" data-name="Caminho 4318" d="M135.222,73.537l.523,1.371a4.419,4.419,0,0,1-2.132.478c-1.828,0-3.415-.783-3.415-3.61V61.559l1.914-.713v2.675h3.372V65h-3.372v6.724c0,1.414.761,2.089,1.828,2.089a3.458,3.458,0,0,0,1.282-.276Z" fill="#303336"/>
    <path id="Caminho_4319" data-name="Caminho 4319" d="M139.551,60.356a1.124,1.124,0,1,1-1.11-1.218A1.082,1.082,0,0,1,139.551,60.356Zm-.178,14.8h-1.914V63.51h1.926Z" fill="#303336"/>
    <path id="Caminho_4320" data-name="Caminho 4320" d="M145.576,75.386a7.512,7.512,0,0,1-3.655-.74l.566-1.479a8.756,8.756,0,0,0,3.131.674c1.937,0,2.763-.674,2.763-1.718,0-.87-.587-1.393-2.871-2.263s-3.61-1.566-3.61-3.48c0-1.98,1.762-3.089,4.371-3.089a9.1,9.1,0,0,1,3.721.783L149.4,65.62a8.333,8.333,0,0,0-3.262-.761c-1.566,0-2.415.535-2.415,1.414,0,.979.762,1.37,3,2.219s3.5,1.587,3.5,3.458C150.231,74.211,148.426,75.386,145.576,75.386Z" fill="#303336"/>
    <path id="Caminho_4321" data-name="Caminho 4321" d="M157.169,73.537l.522,1.371a4.455,4.455,0,0,1-2.14.478c-1.828,0-3.416-.783-3.416-3.61V61.559l1.914-.713v2.675h3.371V65h-3.371v6.724c0,1.414.762,2.089,1.827,2.089a3.473,3.473,0,0,0,1.293-.276Z" fill="#303336"/>
    <path id="Caminho_4322" data-name="Caminho 4322" d="M168,67.23v7.938h-1.391l-.371-1.653h-.086a4.315,4.315,0,0,1-3.924,1.871c-2.109,0-3.675-1.088-3.675-3.458,0-2.319,1.783-3.612,5.591-3.72l1.978-.064v-.7c0-1.937-.892-2.59-2.413-2.59a7.677,7.677,0,0,0-3.285.892l-.587-1.427a8.737,8.737,0,0,1,3.981-1C166.652,63.315,168,64.51,168,67.23Zm-3.61,2.3c-2.914.109-3.851.936-3.851,2.415,0,1.305.871,1.892,2.141,1.892a3.113,3.113,0,0,0,3.437-3.328V69.47Z" fill="#303336"/>
    <path id="Caminho_4323" data-name="Caminho 4323" d="M9.809,92.687c0-4,1.914-6.064,4.816-6.064a4.215,4.215,0,0,1,3.612,1.719h.13c-.045-.369-.13-1.284-.13-1.719V82.7l1.914-.738V98.49H18.606l-.284-1.566h-.086A4.135,4.135,0,0,1,14.6,98.708C11.7,98.712,9.809,96.694,9.809,92.687Zm8.44.369V92.7c0-2.893-.783-4.5-3.373-4.5-2.065,0-3.087,1.762-3.087,4.523s1.022,4.395,3.11,4.395c2.458.009,3.349-1.339,3.349-4.059Z" fill="#303336"/>
    <path id="Caminho_4324" data-name="Caminho 4324" d="M32.278,91.879v1.152H24.3c.066,2.632,1.391,4.045,3.719,4.045a9.251,9.251,0,0,0,3.2-.56l.535,1.427a8.708,8.708,0,0,1-3.828.762c-3.328,0-5.613-2.065-5.613-5.959,0-3.829,2.067-6.135,5.154-6.135C30.45,86.617,32.278,88.706,32.278,91.879Zm-7.931-.367h5.939c-.023-1.978-.892-3.326-2.829-3.326C25.622,88.185,24.534,89.425,24.347,91.511Z" fill="#303336"/>
    <path id="Caminho_4325" data-name="Caminho 4325" d="M34.157,98.494V82.7l1.915-.738v16.53Z" fill="#303336"/>
    <path id="Caminho_4326" data-name="Caminho 4326" d="M47.633,98.712a10.363,10.363,0,0,1-4.263-.738l.608-1.605a10.035,10.035,0,0,0,3.745.653c2.306,0,3.5-.958,3.5-2.5s-.849-2.174-3.654-3.2c-2.654-.958-4-2.2-4-4.612,0-2.458,2.022-3.958,4.958-3.958a10.414,10.414,0,0,1,4.281.87L52.177,85.3a9.577,9.577,0,0,0-3.7-.828c-1.935,0-2.936.913-2.936,2.262,0,1.568.869,2.2,3.389,3.134,2.741,1.022,4.241,2.044,4.241,4.48C53.18,97.1,51.027,98.712,47.633,98.712Z" fill="#303336"/>
    <path id="Caminho_4327" data-name="Caminho 4327" d="M65.144,91.879v1.152H57.164c.064,2.632,1.391,4.045,3.719,4.045a9.26,9.26,0,0,0,3.194-.56l.535,1.427a8.711,8.711,0,0,1-3.829.762c-3.326,0-5.611-2.065-5.611-5.959,0-3.829,2.067-6.135,5.154-6.135C63.315,86.617,65.144,88.706,65.144,91.879Zm-7.94-.371h5.939c-.023-1.978-.892-3.326-2.829-3.326-1.826,0-2.914,1.243-3.111,3.33Zm6.048-9.462a18.724,18.724,0,0,1-3.111,3.264H58.878v-.262a24.044,24.044,0,0,0,2.067-3.21h2.306Z" fill="#303336"/>
    <path id="Caminho_4328" data-name="Caminho 4328" d="M78,92.644c0,3.979-1.914,6.064-4.807,6.064a4.251,4.251,0,0,1-3.612-1.7h-.13c.043.5.13,1.37.13,1.914v4.785H67.665V86.835h1.566l.26,1.589h.087a4.066,4.066,0,0,1,3.633-1.807C76.084,86.617,78,88.618,78,92.644Zm-8.418-.371v.371c0,2.87.783,4.48,3.328,4.48,2.11,0,3.11-1.892,3.11-4.5,0-2.652-1-4.393-3.153-4.393-2.372,0-3.241,1.332-3.285,4.045Z" fill="#303336"/>
    <path id="Caminho_4329" data-name="Caminho 4329" d="M85.219,96.873l.521,1.37a4.45,4.45,0,0,1-2.14.478c-1.826,0-3.416-.783-3.416-3.61V84.878l1.916-.713V86.84h3.371v1.471H82.1v6.742c0,1.414.76,2.089,1.826,2.089a3.514,3.514,0,0,0,1.293-.269Z" fill="#303336"/>
    <path id="Caminho_4330" data-name="Caminho 4330" d="M89.546,83.674a1.124,1.124,0,1,1-1.109-1.218A1.092,1.092,0,0,1,89.546,83.674Zm-.178,14.812H87.459V86.835h1.914Z" fill="#303336"/>
    <path id="Caminho_4331" data-name="Caminho 4331" d="M109.361,90.9v7.591h-1.892V90.987c0-1.828-.762-2.763-2.371-2.763-2.261,0-3.153,1.348-3.153,3.827V98.49h-1.892v-7.5c0-1.828-.762-2.763-2.394-2.763-2.349,0-3.111,1.5-3.111,4.22V98.49H92.635V86.835h1.544l.282,1.589h.109a3.867,3.867,0,0,1,3.437-1.807c1.783,0,3,.631,3.567,1.962h.109a4.2,4.2,0,0,1,3.745-1.962C108.055,86.617,109.361,87.9,109.361,90.9Z" fill="#303336"/>
    <path id="Caminho_4332" data-name="Caminho 4332" d="M116.147,98.711c-3.089,0-5.35-2.2-5.35-6.064s2.067-6.026,5.416-6.026c3.154,0,5.372,2.176,5.372,6.026S119.475,98.711,116.147,98.711Zm.043-1.587c2.351,0,3.416-1.719,3.416-4.48s-1.071-4.416-3.437-4.416-3.389,1.653-3.389,4.416,1.04,4.48,3.419,4.48Z" fill="#303336"/>
    <path id="Caminho_4333" data-name="Caminho 4333" d="M132.9,98.494h-4.329V82.961h4.785c4.677,0,7.657,2.631,7.657,7.612C141.008,95.819,138.006,98.494,132.9,98.494Zm.178-13.854h-2.545v12.18h2.11c4.2,0,6.308-2.089,6.308-6.176,0-4.132-2.136-6-5.877-6Z" fill="#303336"/>
    <path id="Caminho_4334" data-name="Caminho 4334" d="M147.12,82.05a18.721,18.721,0,0,1-3.11,3.264h-1.261v-.262a24.056,24.056,0,0,0,2.065-3.21h2.306ZM143.1,98.494V86.835h1.913V98.494Z" fill="#303336"/>
    <path id="Caminho_4335" data-name="Caminho 4335" d="M156.213,90.555v7.938H154.82l-.37-1.653h-.083a4.313,4.313,0,0,1-3.924,1.871c-2.11,0-3.676-1.088-3.676-3.458,0-2.319,1.784-3.61,5.59-3.719l1.979-.066v-.7c0-1.937-.891-2.588-2.415-2.588a7.675,7.675,0,0,0-3.283.892l-.589-1.427a8.744,8.744,0,0,1,3.981-1C154.862,86.641,156.213,87.836,156.213,90.555ZM152.6,92.862c-2.914.109-3.849.935-3.849,2.413,0,1.306.869,1.892,2.14,1.892a3.113,3.113,0,0,0,3.437-3.328V92.8Z" fill="#303336"/>
    <path id="Caminho_4336" data-name="Caminho 4336" d="M157.32,83.639a1.414,1.414,0,0,1,.088-.562,1.388,1.388,0,0,1,1.339-.9,1.414,1.414,0,0,1,1.436,1.457,1.436,1.436,0,0,1-2.872,0Zm2.654,0a1.2,1.2,0,0,0-.346-.879,1.2,1.2,0,0,0-.4-.269,1.21,1.21,0,0,0-.473-.092,1.229,1.229,0,1,0,1.218,1.24Zm-1.762-.87h.5c.435,0,.63.178.63.522a.455.455,0,0,1-.3.433l.456.762h-.357l-.392-.674h-.239v.674h-.3Zm.5.8a.287.287,0,0,0,.227-.067.284.284,0,0,0,.073-.1.3.3,0,0,0,.027-.118q0-.262-.327-.262h-.2v.535Z" fill="#303336"/>
    <path id="Caminho_4337" data-name="Caminho 4337" d="M89.906,29.9c-2.329,2.328-3.455,3.435-4.036,6.258-.045.211-.285.211-.285,0V32.7c0-2.217,1.976-4.245,4.329-6.6l1.892-1.892c2.65-2.65,3.291-5.722,1.182-7.548-.178-.153-.084-.341.146-.235,2.629,1.2,4.7,5.55.194,10.057Zm-4.33,8.887v3.481c0,.21.241.21.285,0,.581-2.821,1.707-3.952,4.034-6.282l3.688-3.681c4.505-4.505,5.285-8.866,2.993-11.668-.152-.178-.317-.077-.218.15,1.516,3.428-2.117,7.063-3.847,8.793L89.9,32.191C87.552,34.545,85.576,36.573,85.576,38.79Zm-9.988-11.2c-4.505,4.505-2.435,8.857.194,10.056.23.105.323-.082.146-.235-2.108-1.825-1.468-4.9,1.183-7.546L84.6,22.373c2.353-2.354,4.329-4.38,4.329-6.6V12.319c0-.21-.241-.212-.285,0-.581,2.821-1.707,3.924-4.034,6.258Zm13.35-17.9V6.207c0-.21-.241-.21-.284,0-.581,2.823-1.709,3.954-4.036,6.282l-9.285,9.274c-4.505,4.507-5.285,8.868-2.993,11.67.152.187.317.075.217-.15-1.516-3.43,2.117-7.063,3.847-8.793l8.2-8.2c2.34-2.347,4.322-4.378,4.322-6.6Zm-14.58,6.988c-3.876,3.876-4.416,7.974-3.588,10.649.07.226.266.241.264,0-.02-2.247.628-4.177,4.728-8.277L84.6,10.209c2.353-2.352,4.327-4.38,4.327-6.6V.157c0-.209-.241-.21-.284,0-.581,2.823-1.71,3.936-4.038,6.264Zm5.418,28.05a.141.141,0,0,1-.141-.141V42.576a.141.141,0,0,1,.087-.13.142.142,0,0,1,.054-.011h3.389a.143.143,0,0,0,.143-.143c-.009-1.8-1.368-3.032-6.813-2.08L64.739,42.234s-8.955,8.953-9.028,9.041a.178.178,0,0,0,.162.314c.162-.014,19.558-3.365,19.558-3.365,4.459-.751,6.879,1.368,7.605,3.353.064.178.273.15.273-.018V44.867a.141.141,0,0,0-.141-.141Zm14.031-4.272-3.886,3.89c-2.354,2.354-4.329,4.38-4.329,6.6v.619c0,.168.209.193.273.018.726-1.985,3.153-4.1,7.605-3.353,0,0,19.4,3.351,19.558,3.366a.179.179,0,0,0,.124,0,.177.177,0,0,0,.105-.207.176.176,0,0,0-.069-.1c-.073-.087-9.026-9.041-9.026-9.041Zm4.348-13.7c-.069-.228-.266-.243-.264,0,.02,2.247-.628,4.179-4.728,8.279l-3.25,3.235a22.849,22.849,0,0,0-3.589,4.172h3.21l.378-.38L94.568,37.4c3.867-3.874,4.407-7.974,3.58-10.648Zm-12.57,21.57c0,.21.241.21.284,0a8.343,8.343,0,0,1,1.568-3.6h-1.71a.141.141,0,0,0-.131.088.139.139,0,0,0-.01.055Z" fill="#303336"/>
    <path id="Caminho_4338" data-name="Caminho 4338" d="M110.356,45.047a1.393,1.393,0,0,1,1.441-1.441,1.414,1.414,0,0,1,1.441,1.441,1.441,1.441,0,1,1-2.882,0Zm2.659,0a1.18,1.18,0,0,0-.084-.473,1.2,1.2,0,0,0-1.134-.761,1.183,1.183,0,0,0-1.221,1.234,1.22,1.22,0,1,0,2.439,0Zm-1.755-.856h.5c.428,0,.62.168.62.507a.459.459,0,0,1-.08.274.467.467,0,0,1-.227.174l.457.762h-.337l-.394-.68h-.239v.68h-.3Zm.494.792c.2,0,.327-.112.327-.278s-.1-.262-.33-.262h-.189v.535Z" fill="#303336"/>
  </g>
</svg>
