<svg width="168" height="104" viewBox="0 0 168 104" fill="none" xmlns="http://www.w3.org/2000/svg">
<g clip-path="url(#clip0_1:69)">
<path d="M-1.14441e-05 75.1689L0.652763 73.4281H1.82633V61.3571H-1.14441e-05V59.6378H5.61991L4.96891 61.3571H3.79357V73.4281H5.61991V75.1689H-1.14441e-05Z" fill="#303336"/>
<path d="M6.51167 77.1485C6.51167 75.6468 7.36004 74.6896 9.05678 74.2771C8.74228 74.1391 8.47661 73.9096 8.29433 73.6186C8.11206 73.3275 8.02162 72.9883 8.0348 72.6451C8.0348 71.8407 8.51279 71.1666 9.44914 70.6012C8.1222 70.0572 7.42484 68.6661 7.42484 67.3159C7.42484 64.5978 9.12277 63.2923 11.7767 63.2923C12.314 63.2794 12.8499 63.3529 13.364 63.5099H17.3877L16.8223 64.9902H15.2991C15.7736 65.647 16.018 66.4419 15.9947 67.2517C15.9947 69.6666 14.2344 70.9971 11.7142 70.9971C11.4085 71.0033 11.1028 70.9812 10.8011 70.9311C10.0877 71.3217 9.73095 71.8015 9.73095 72.3455C9.73095 72.9323 10.3177 73.2372 11.4503 73.2372H13.4282C15.7789 73.2372 17.2361 74.3074 17.2361 76.3905C17.2361 79.0658 15.2349 80.3928 11.2327 80.3928C8.50387 80.3892 6.51167 79.4546 6.51167 77.1485ZM15.4079 76.5618C15.4079 75.9304 15.2296 75.5166 14.8871 75.299C14.5447 75.0814 13.817 74.9726 12.7772 74.9726H10.7672C9.13525 74.9726 8.33088 75.67 8.33088 77.0825C8.33088 78.3007 9.28684 78.9321 11.2006 78.9321C14.0025 78.9321 15.399 78.1455 15.399 76.5618H15.4079ZM14.1024 67.2303C14.1024 65.5324 13.298 64.6852 11.7107 64.6852C10.1233 64.6852 9.31716 65.5556 9.31716 67.2517C9.31716 68.8605 10.1221 69.6654 11.7321 69.6666C13.3105 69.6666 14.0935 68.8391 14.0935 67.2303H14.1024Z" fill="#303336"/>
<path d="M19.2265 75.1689V59.3774L21.1367 58.639V75.1689H19.2265Z" fill="#303336"/>
<path d="M33.7124 68.5573V69.7094H25.731C25.7953 72.3419 27.1222 73.7545 29.4497 73.7545C30.5406 73.755 31.623 73.5636 32.6476 73.1891L33.1916 74.6159C31.9948 75.1385 30.9514 75.3775 29.3623 75.3775C26.036 75.3775 23.7513 73.3104 23.7513 69.4169C23.7513 65.5895 25.8184 63.2834 28.9057 63.2834C31.886 63.2923 33.7124 65.3808 33.7124 68.5573ZM25.7738 68.1863H31.713C31.6898 66.2083 30.8212 64.8582 28.8843 64.8582C27.058 64.8582 25.97 66.0996 25.7738 68.1863Z" fill="#303336"/>
<path d="M39.1718 75.3864C37.5416 75.3864 36.4108 75.126 35.5191 74.6463L36.0845 73.1677C37.0781 73.583 38.1398 73.8116 39.2163 73.8419C41.1515 73.8419 41.979 73.1677 41.979 72.1243C41.979 71.254 41.3905 70.7314 39.1076 69.861C36.8246 68.9907 35.4959 68.2951 35.4959 66.3814C35.4959 64.4017 37.258 63.2923 39.8691 63.2923C41.15 63.2886 42.4172 63.5554 43.5878 64.0753L43.001 65.6198C41.9758 65.1476 40.8654 64.8885 39.7371 64.8582C38.1712 64.8582 37.324 65.3933 37.324 66.2726C37.324 67.2517 38.0856 67.6423 40.3257 68.4913C42.5658 69.3403 43.8268 70.0786 43.8268 71.9496C43.8268 74.2111 42.0218 75.3864 39.1718 75.3864Z" fill="#303336"/>
<path d="M48.2464 60.3565C48.2464 61.1823 47.7238 61.5747 47.137 61.5747C46.5057 61.5747 46.0063 61.1823 46.0063 60.3565C46.0063 59.5308 46.5057 59.1384 47.137 59.1384C47.7202 59.1384 48.2464 59.5076 48.2464 60.3565ZM48.068 75.1599H46.1543V63.5098H48.068V75.1599Z" fill="#303336"/>
<path d="M59.9232 67.2303V75.1688H58.5302L58.1611 73.5084H58.0737C57.0517 74.7925 56.1118 75.3793 54.1499 75.3793C52.04 75.3793 50.474 74.2913 50.474 71.921C50.474 69.6024 52.2576 68.3094 56.0636 68.2006L58.0433 68.1364V67.4443C58.0433 65.5074 57.1516 64.8546 55.6284 64.8546C54.4103 64.8546 53.3009 65.2898 52.3449 65.7464L51.7564 64.3196C52.9851 63.6748 54.3497 63.3318 55.7372 63.319C58.5748 63.3155 59.9232 64.5104 59.9232 67.2303ZM56.3115 69.5346C53.3972 69.6434 52.4627 70.471 52.4627 71.9496C52.4627 73.2551 53.3312 73.8419 54.6029 73.8419C56.5648 73.8419 58.0398 72.7718 58.0398 70.5138V69.4704L56.3115 69.5346Z" fill="#303336"/>
<path d="M76.453 70.3622H70.298L68.4485 75.1689H66.4688L72.5328 59.5736H74.2931L80.35 75.1689H78.3239L76.453 70.3622ZM74.1344 63.9237C74.0042 63.567 73.5476 62.1401 73.3942 61.6051C73.1766 62.4968 72.8948 63.4332 72.72 63.9237L70.9579 68.6215H75.8751L74.1344 63.9237Z" fill="#303336"/>
<path d="M81.347 69.3616C81.347 65.3594 83.2607 63.2976 86.1536 63.2976C87.9586 63.2976 89.0465 64.0592 89.7635 65.0169H89.8937C89.8509 64.646 89.7635 63.7328 89.7635 63.2976V59.3738L91.6772 58.6355V75.1652H90.1345L89.8509 73.5993H89.7635C89.0679 74.5999 87.9586 75.3828 86.1322 75.3828C83.2393 75.3864 81.347 73.3639 81.347 69.3616ZM89.7849 69.7308V69.3741C89.7849 66.4812 89.0019 64.8725 86.414 64.8725C84.3487 64.8725 83.3249 66.6328 83.3249 69.3955C83.3249 72.1582 84.3487 73.7901 86.4354 73.7901C88.8931 73.7991 89.7849 72.4507 89.7849 69.7308V69.7308Z" fill="#303336"/>
<path d="M93.3092 63.5099H95.3531L97.8286 70.3836C98.1853 71.3414 98.633 72.754 98.7632 73.4727H98.8506C99.0022 72.7593 99.5034 71.3182 99.8298 70.3836L102.309 63.5099H104.353L99.9154 75.1689H97.7198L93.3092 63.5099Z" fill="#303336"/>
<path d="M115.081 68.5573V69.7094H107.103C107.167 72.3419 108.494 73.7545 110.822 73.7545C111.913 73.755 112.995 73.5636 114.02 73.1891L114.555 74.6159C113.358 75.1385 112.315 75.3775 110.725 75.3775C107.397 75.3775 105.114 73.3104 105.114 69.4169C105.114 65.5895 107.181 63.2834 110.269 63.2834C113.254 63.2923 115.081 65.3808 115.081 68.5573ZM107.142 68.1863H113.08C113.058 66.2083 112.188 64.8582 110.253 64.8582C108.426 64.8582 107.338 66.0996 107.142 68.1863Z" fill="#303336"/>
<path d="M127.435 67.5781V75.1689H125.543V67.7083C125.543 65.8374 124.717 64.9028 122.934 64.9028C120.346 64.9028 119.518 66.4028 119.518 69.1227V75.1689H117.604V63.5099H119.149L119.431 65.099H119.54C120.301 63.8809 121.737 63.2923 123.215 63.2923C126.008 63.2923 127.435 64.5765 127.435 67.5781Z" fill="#303336"/>
<path d="M135.222 73.5369L135.745 74.9084C135.331 75.1688 134.505 75.3864 133.613 75.3864C131.785 75.3864 130.198 74.6034 130.198 71.7765V61.5587L132.112 60.8453V63.5206H135.484V65.0009H132.112V71.7248C132.112 73.1392 132.873 73.8133 133.94 73.8133C134.381 73.8038 134.816 73.71 135.222 73.5369V73.5369Z" fill="#303336"/>
<path d="M139.551 60.3565C139.551 61.1823 139.028 61.5747 138.441 61.5747C137.81 61.5747 137.311 61.1823 137.311 60.3565C137.311 59.5308 137.81 59.1384 138.441 59.1384C139.028 59.1384 139.551 59.5076 139.551 60.3565ZM139.373 75.1599H137.459V63.5098H139.385L139.373 75.1599Z" fill="#303336"/>
<path d="M145.576 75.3864C143.944 75.3864 142.813 75.126 141.921 74.6463L142.487 73.1677C143.48 73.583 144.542 73.8116 145.618 73.8419C147.555 73.8419 148.381 73.1677 148.381 72.1243C148.381 71.254 147.794 70.7314 145.51 69.861C143.225 68.9907 141.9 68.2951 141.9 66.3814C141.9 64.4017 143.662 63.2923 146.271 63.2923C147.553 63.2883 148.821 63.5551 149.992 64.0753L149.403 65.6198C148.378 65.1478 147.269 64.8887 146.141 64.8583C144.575 64.8583 143.726 65.3933 143.726 66.2726C143.726 67.2517 144.488 67.6423 146.728 68.4913C148.968 69.3403 150.231 70.0786 150.231 71.9496C150.231 74.2111 148.426 75.3864 145.576 75.3864Z" fill="#303336"/>
<path d="M157.169 73.5369L157.691 74.9084C157.277 75.1688 156.443 75.3864 155.551 75.3864C153.723 75.3864 152.135 74.6034 152.135 71.7765V61.5587L154.049 60.8453V63.5206H157.42V65.0009H154.049V71.7248C154.049 73.1392 154.811 73.8133 155.876 73.8133C156.32 73.805 156.759 73.7111 157.169 73.5369V73.5369Z" fill="#303336"/>
<path d="M168 67.2303V75.1688H166.609L166.238 73.5155H166.152C165.128 74.7996 164.19 75.3864 162.228 75.3864C160.119 75.3864 158.553 74.2985 158.553 71.9282C158.553 69.6096 160.336 68.3165 164.144 68.2077L166.122 68.1435V67.4443C166.122 65.5074 165.23 64.8546 163.709 64.8546C162.491 64.8546 161.381 65.2898 160.424 65.7464L159.837 64.3196C161.065 63.6748 162.43 63.3318 163.818 63.319C166.652 63.3155 168 64.5104 168 67.2303ZM164.39 69.5346C161.476 69.6434 160.539 70.471 160.539 71.9496C160.539 73.2551 161.41 73.8419 162.68 73.8419C164.642 73.8419 166.117 72.7718 166.117 70.5138V69.4704L164.39 69.5346Z" fill="#303336"/>
<path d="M9.80942 92.6867C9.80942 88.6845 11.7232 86.6227 14.625 86.6227C16.4299 86.6227 17.5179 87.3843 18.2366 88.342H18.3668C18.3222 87.9728 18.2366 87.0579 18.2366 86.6227V82.6989L20.1503 81.9605V98.4903H18.6058L18.3222 96.9244H18.2366C17.5393 97.9249 16.4299 98.7079 14.6036 98.7079C11.7018 98.7115 9.80942 96.6943 9.80942 92.6867ZM18.2491 93.0559V92.6992C18.2491 89.8063 17.4661 88.1975 14.8764 88.1975C12.8111 88.1975 11.7892 89.9597 11.7892 92.7206C11.7892 95.4815 12.8111 97.1152 14.8996 97.1152C17.3573 97.1241 18.2491 95.7758 18.2491 93.0559V93.0559Z" fill="#303336"/>
<path d="M32.2784 91.8788V93.0309H24.2953C24.3613 95.6634 25.6865 97.076 28.014 97.076C29.1046 97.0793 30.1872 96.8897 31.2118 96.516L31.7469 97.9428C30.5501 98.4654 29.5068 98.7044 27.9194 98.7044C24.5914 98.7044 22.3067 96.639 22.3067 92.7456C22.3067 88.9163 24.3738 86.6102 27.4611 86.6102C30.4503 86.6173 32.2784 88.7059 32.2784 91.8788ZM24.347 91.5114H30.2862C30.263 89.5334 29.3944 88.1851 27.4575 88.1851C25.6222 88.1851 24.5343 89.4246 24.347 91.5114Z" fill="#303336"/>
<path d="M34.1565 98.4939V82.7025L36.072 81.9641V98.4939H34.1565Z" fill="#303336"/>
<path d="M47.6329 98.7115C45.8939 98.7115 44.3494 98.4511 43.3702 97.9731L43.9784 96.3679C44.6543 96.6729 46.0669 97.0207 47.7238 97.0207C50.0299 97.0207 51.2267 96.0629 51.2267 94.5238C51.2267 92.9846 50.3777 92.3496 47.5722 91.3277C44.9183 90.3699 43.57 89.1304 43.57 86.7155C43.57 84.2577 45.5925 82.7578 48.5282 82.7578C50.0005 82.7421 51.4594 83.0387 52.8087 83.6282L52.1773 85.3029C51.0123 84.7836 49.7553 84.5022 48.48 84.4753C46.5449 84.4753 45.5443 85.3885 45.5443 86.7369C45.5443 88.3046 46.4129 88.9342 48.933 89.8705C51.6743 90.8925 53.1743 91.9144 53.1743 94.3507C53.1797 97.1027 51.0269 98.7115 47.6329 98.7115Z" fill="#303336"/>
<path d="M65.1436 91.8788V93.031H57.1641C57.2283 95.6635 58.5552 97.076 60.8827 97.076C61.9721 97.0787 63.0535 96.8891 64.077 96.516L64.6121 97.9428C63.4153 98.4654 62.372 98.7044 60.7828 98.7044C57.4566 98.7044 55.1719 96.639 55.1719 92.7456C55.1719 88.9163 57.239 86.6102 60.3263 86.6102C63.3155 86.6173 65.1436 88.7059 65.1436 91.8788ZM57.2033 91.5078H63.1425C63.1193 89.5299 62.2507 88.1815 60.3138 88.1815C58.4874 88.1851 57.3995 89.4246 57.2033 91.5114V91.5078ZM63.2513 82.0461C62.3497 83.2554 61.3053 84.3513 60.1408 85.31H58.878V85.0478C59.6511 84.0342 60.3423 82.9607 60.9452 81.8375H63.2513V82.0461Z" fill="#303336"/>
<path d="M77.9975 92.6439C77.9975 96.623 76.0838 98.7079 73.1909 98.7079C71.3842 98.7079 70.2534 97.925 69.5792 97.0118H69.449C69.4918 97.5112 69.5792 98.3815 69.5792 98.9255V103.711H67.6655V86.8349H69.2314L69.4918 88.4241H69.5792C70.2766 87.4235 71.32 86.6173 73.2123 86.6173C76.0838 86.6173 77.9975 88.6185 77.9975 92.6439ZM69.5792 92.2729V92.6439C69.5792 95.5136 70.3622 97.1241 72.9073 97.1241C75.0172 97.1241 76.0178 95.2318 76.0178 92.6207C76.0178 89.9686 75.0172 88.2279 72.8645 88.2279C70.4924 88.2279 69.6238 89.5602 69.5792 92.2729V92.2729Z" fill="#303336"/>
<path d="M85.2191 96.8726L85.7399 98.2424C85.3279 98.5028 84.4914 98.7204 83.5996 98.7204C81.7733 98.7204 80.1841 97.9374 80.1841 95.1105V84.8784L82.0997 84.165V86.8403H85.4706V88.3117H82.0997V95.0534C82.0997 96.4678 82.8594 97.1419 83.926 97.1419C84.3702 97.1347 84.8089 97.0433 85.2191 96.8726V96.8726Z" fill="#303336"/>
<path d="M89.5459 83.6745C89.5459 84.5021 89.0251 84.8927 88.4365 84.8927C87.807 84.8927 87.3058 84.5021 87.3058 83.6745C87.3058 82.8469 87.807 82.4563 88.4365 82.4563C89.0251 82.4635 89.5459 82.8345 89.5459 83.6745ZM89.3675 98.4867H87.4592V86.8349H89.3729L89.3675 98.4867Z" fill="#303336"/>
<path d="M109.361 90.9032V98.4939H107.469V90.987C107.469 89.1589 106.707 88.2243 105.098 88.2243C102.837 88.2243 101.945 89.5726 101.945 92.0517V98.4903H100.053V90.987C100.053 89.1589 99.2911 88.2243 97.6592 88.2243C95.3103 88.2243 94.5487 89.7242 94.5487 92.4441V98.4903H92.635V86.8349H94.1795L94.4613 88.424H94.5701C95.2835 87.2059 96.6158 86.6173 98.007 86.6173C99.7905 86.6173 101.009 87.2487 101.574 88.5792H101.683C102.466 87.2523 103.902 86.6173 105.428 86.6173C108.055 86.6173 109.361 87.9015 109.361 90.9032Z" fill="#303336"/>
<path d="M116.147 98.7114C113.058 98.7114 110.797 96.5141 110.797 92.6474C110.797 88.7808 112.864 86.6209 116.213 86.6209C119.367 86.6209 121.585 88.7968 121.585 92.6474C121.585 96.4981 119.475 98.7114 116.147 98.7114ZM116.19 97.1241C118.541 97.1241 119.606 95.4048 119.606 92.6439C119.606 89.883 118.535 88.2279 116.169 88.2279C113.802 88.2279 112.78 89.8812 112.78 92.6439C112.78 95.4066 113.82 97.1241 116.199 97.1241H116.19Z" fill="#303336"/>
<path d="M132.895 98.4939H128.566V82.9611H133.351C138.028 82.9611 141.008 85.5918 141.008 90.5732C141.008 95.8186 138.006 98.4939 132.895 98.4939ZM133.073 84.6394H130.528V96.8191H132.638C136.836 96.8191 138.946 94.7306 138.946 90.6428C138.943 86.5103 136.81 84.6394 133.069 84.6394H133.073Z" fill="#303336"/>
<path d="M147.12 82.0497C146.219 83.259 145.174 84.3548 144.01 85.3136H142.749V85.0514C143.521 84.0377 144.212 82.9642 144.814 81.841H147.12V82.0497ZM143.097 98.4939V86.8349H145.01V98.4939H143.097Z" fill="#303336"/>
<path d="M156.213 90.5554V98.4939H154.82L154.45 96.8405H154.367C153.345 98.1247 152.405 98.7115 150.443 98.7115C148.333 98.7115 146.767 97.6235 146.767 95.2532C146.767 92.9346 148.551 91.6433 152.357 91.5345L154.336 91.4685V90.773C154.336 88.836 153.445 88.1851 151.921 88.1851C150.703 88.1851 149.603 88.6185 148.638 89.0768L148.049 87.65C149.278 87.0052 150.643 86.6622 152.03 86.6494C154.862 86.6405 156.213 87.8355 156.213 90.5554ZM152.601 92.8615C149.687 92.9703 148.752 93.7961 148.752 95.2746C148.752 96.5801 149.621 97.1669 150.892 97.1669C152.854 97.1669 154.329 96.0968 154.329 93.8389V92.7955L152.601 92.8615Z" fill="#303336"/>
<path d="M157.32 83.6388C157.311 83.4475 157.341 83.2562 157.408 83.0771C157.476 82.8979 157.581 82.7347 157.715 82.5979C157.849 82.461 158.01 82.3533 158.187 82.2817C158.365 82.2101 158.556 82.176 158.747 82.1817C158.938 82.1784 159.128 82.2141 159.305 82.2864C159.482 82.3588 159.643 82.4664 159.777 82.6026C159.911 82.7389 160.017 82.901 160.086 83.0791C160.156 83.2572 160.189 83.4476 160.183 83.6388C160.183 84.0196 160.032 84.3848 159.762 84.654C159.493 84.9233 159.128 85.0745 158.747 85.0745C158.366 85.0745 158.001 84.9233 157.732 84.654C157.463 84.3848 157.311 84.0196 157.311 83.6388H157.32ZM159.974 83.6388C159.978 83.4767 159.95 83.3153 159.891 83.1644C159.831 83.0134 159.742 82.876 159.628 82.7603C159.515 82.6446 159.379 82.553 159.229 82.491C159.079 82.429 158.918 82.3978 158.756 82.3993C158.513 82.3972 158.275 82.4672 158.071 82.6004C157.868 82.7337 157.709 82.9242 157.614 83.148C157.519 83.3717 157.493 83.6185 157.538 83.8573C157.583 84.0961 157.698 84.3161 157.869 84.4894C158.039 84.6627 158.257 84.7817 158.495 84.8312C158.733 84.8807 158.98 84.8585 159.206 84.7674C159.431 84.6764 159.624 84.5206 159.761 84.3197C159.898 84.1188 159.972 83.8818 159.974 83.6388V83.6388ZM158.212 82.7685H158.713C159.148 82.7685 159.343 82.9468 159.343 83.291C159.344 83.3859 159.315 83.4786 159.261 83.5563C159.206 83.634 159.129 83.6928 159.04 83.7244L159.496 84.486H159.139L158.747 83.8118H158.508V84.486H158.203L158.212 82.7685ZM158.713 83.5728C158.754 83.5784 158.795 83.5753 158.834 83.5637C158.873 83.5522 158.909 83.5324 158.94 83.5057C158.971 83.4791 158.996 83.4461 159.013 83.4091C159.03 83.3721 159.039 83.3318 159.04 83.291C159.04 83.1162 158.931 83.0289 158.713 83.0289H158.517V83.5639L158.713 83.5728Z" fill="#303336"/>
<path d="M89.9062 29.9027C87.5769 32.2302 86.4515 33.3378 85.87 36.1611C85.8254 36.3716 85.5847 36.3716 85.5847 36.1611V32.7029C85.5847 30.4859 87.5608 28.4581 89.9133 26.1038L91.8056 24.2115C94.456 21.5611 95.0963 18.4899 92.9881 16.6635C92.8098 16.5102 92.9043 16.3229 93.1344 16.4281C95.7633 17.6267 97.834 21.9785 93.3288 26.4855L89.9062 29.9027ZM85.5757 38.7901V42.2715C85.5757 42.482 85.8165 42.482 85.8611 42.2715C86.4426 39.45 87.568 38.3192 89.8955 35.9899L93.5838 32.3087C98.089 27.8035 98.8684 23.4428 96.5766 20.6408C96.425 20.4625 96.2591 20.5641 96.359 20.7906C97.875 24.2186 94.2419 27.8534 92.5119 29.5835L89.9044 32.191C87.5519 34.5453 85.5757 36.5731 85.5757 38.7901ZM75.588 27.5895C71.0828 32.0947 73.1534 36.4465 75.7824 37.645C76.0124 37.7503 76.1052 37.563 75.9286 37.4096C73.8205 35.5851 74.4608 32.5138 77.1111 29.8635L84.6019 22.3726C86.9544 20.0184 88.9306 17.9923 88.9306 15.7736V12.3189C88.9306 12.1084 88.6898 12.1066 88.6452 12.3189C88.0638 15.1404 86.9384 16.2426 84.6109 18.5773L75.588 27.5895ZM88.9377 9.68815V6.20669C88.9377 5.99623 88.6969 5.99623 88.6541 6.20669C88.0727 9.03002 86.9455 10.1608 84.618 12.4883L75.3329 21.7627C70.8277 26.2697 70.0483 30.6304 72.3402 33.4323C72.4918 33.6196 72.6576 33.5072 72.5577 33.2825C71.0417 29.8528 74.6748 26.2197 76.4048 24.4897L84.6091 16.2854C86.9491 13.9383 88.9306 11.9069 88.9306 9.68815H88.9377ZM74.3573 16.676C70.4817 20.5517 69.9413 24.6502 70.7689 27.3255C70.8384 27.552 71.0346 27.5663 71.0328 27.3255C71.0132 25.0783 71.6606 23.1485 75.761 19.0481L84.6019 10.2089C86.9544 7.85645 88.9288 5.82858 88.9288 3.60986V0.156938C88.9288 -0.0517353 88.688 -0.0535189 88.6452 0.156938C88.0638 2.98027 86.9348 4.0932 84.6073 6.42071L74.3573 16.676ZM79.7757 44.7257C79.7383 44.7257 79.7025 44.7108 79.6761 44.6844C79.6496 44.658 79.6348 44.6221 79.6348 44.5848V42.5765C79.6348 42.558 79.6384 42.5397 79.6455 42.5226C79.6526 42.5055 79.663 42.49 79.6761 42.4769C79.6892 42.4638 79.7047 42.4534 79.7218 42.4463C79.7389 42.4393 79.7572 42.4356 79.7757 42.4356H83.1644C83.2023 42.4356 83.2386 42.4206 83.2653 42.3938C83.2921 42.3671 83.3071 42.3308 83.3071 42.2929C83.2982 40.4916 81.9391 39.2609 76.494 40.2133L64.7387 42.2341C64.7387 42.2341 55.7836 51.1874 55.7105 51.2748C55.6752 51.2996 55.6502 51.3364 55.64 51.3782C55.6297 51.4201 55.635 51.4642 55.6548 51.5025C55.6746 51.5408 55.7076 51.5706 55.7476 51.5865C55.7877 51.6023 55.8322 51.6031 55.8728 51.5887C56.0351 51.5744 75.431 48.2232 75.431 48.2232C79.8898 47.4723 82.3101 49.5912 83.036 51.5762C83.1002 51.7546 83.3089 51.726 83.3089 51.5584V44.8666C83.3089 44.8292 83.294 44.7934 83.2676 44.7669C83.2412 44.7405 83.2053 44.7257 83.168 44.7257H79.7757ZM93.8068 40.4541L89.9204 44.344C87.5662 46.6983 85.5918 48.7244 85.5918 50.9431V51.562C85.5918 51.7296 85.8005 51.7546 85.8647 51.5798C86.5906 49.5947 89.018 47.4777 93.4697 48.2267C93.4697 48.2267 112.866 51.578 113.028 51.5923C113.068 51.6057 113.112 51.6042 113.152 51.588C113.191 51.5719 113.223 51.5421 113.243 51.5042C113.262 51.4663 113.267 51.4226 113.257 51.3812C113.247 51.3398 113.223 51.3033 113.188 51.2784C113.115 51.191 104.162 42.2376 104.162 42.2376L93.8068 40.4541ZM98.155 26.7512C98.0855 26.5229 97.8893 26.5087 97.891 26.7512C97.9107 28.9985 97.2633 30.93 93.1629 35.0304L89.9133 38.2657C88.4365 39.7425 87.1096 41.089 86.3248 42.4374H89.5352L89.9133 42.0575L94.5683 37.3989C98.435 33.5251 98.9754 29.4247 98.1479 26.7512H98.155ZM85.5847 48.3213C85.5847 48.5317 85.8254 48.5317 85.8683 48.3213C86.1893 46.7678 86.6762 45.7316 87.436 44.7257H85.7256C85.7069 44.7257 85.6884 44.7294 85.6712 44.7366C85.654 44.7438 85.6384 44.7543 85.6253 44.7676C85.6122 44.7808 85.6019 44.7966 85.5949 44.8139C85.5879 44.8312 85.5844 44.8497 85.5847 44.8684V48.3213Z" fill="#303336"/>
<path d="M110.356 45.0467C110.349 44.8557 110.382 44.6653 110.452 44.4874C110.522 44.3095 110.628 44.1479 110.763 44.0127C110.898 43.8776 111.06 43.7716 111.238 43.7016C111.416 43.6316 111.606 43.5989 111.797 43.6056C111.987 43.602 112.177 43.6368 112.353 43.7079C112.53 43.7791 112.69 43.8851 112.824 44.0196C112.959 44.1542 113.065 44.3145 113.136 44.491C113.207 44.6675 113.242 44.8565 113.238 45.0467C113.238 45.4289 113.087 45.7955 112.816 46.0657C112.546 46.336 112.179 46.4878 111.797 46.4878C111.415 46.4878 111.049 46.336 110.778 46.0657C110.508 45.7955 110.356 45.4289 110.356 45.0467V45.0467ZM113.015 45.0467C113.02 44.8849 112.991 44.7239 112.931 44.5734C112.872 44.4228 112.782 44.2858 112.669 44.1706C112.555 44.0554 112.419 43.9643 112.27 43.9028C112.12 43.8412 111.959 43.8105 111.797 43.8125C111.634 43.8072 111.472 43.8356 111.321 43.8959C111.169 43.9562 111.032 44.0472 110.917 44.163C110.802 44.2789 110.713 44.4172 110.654 44.5692C110.595 44.7213 110.569 44.8839 110.576 45.0467C110.576 45.3703 110.704 45.6806 110.933 45.9094C111.162 46.1381 111.472 46.2667 111.795 46.2667C112.119 46.2667 112.429 46.1381 112.658 45.9094C112.887 45.6806 113.015 45.3703 113.015 45.0467V45.0467ZM111.26 44.1906H111.762C112.19 44.1906 112.382 44.3583 112.382 44.6972C112.385 44.7946 112.357 44.8904 112.302 44.9708C112.246 45.0512 112.167 45.1121 112.075 45.1448L112.532 45.9064H112.195L111.801 45.2269H111.562V45.9064H111.264L111.26 44.1906ZM111.754 44.9825C111.958 44.9825 112.081 44.8702 112.081 44.7043C112.081 44.5384 111.979 44.4421 111.751 44.4421H111.562V44.9772L111.754 44.9825Z" fill="#303336"/>
</g>
<defs>
<clipPath id="clip0_1:69">
<rect width="168" height="103.714" fill="white"/>
</clipPath>
</defs>
</svg>
