<svg xmlns="http://www.w3.org/2000/svg" viewBox="0 0 240 72.91"><defs><style>.cls-1{fill:#003767;}</style></defs><g id="ES"><path class="cls-1" d="M70.82,28.43l.66-1.76h1.19V14.49H70.82V12.76h5.66l-.65,1.73H74.64V26.67h1.84v1.76Z" transform="translate(0)"/><path class="cls-1" d="M77.38,30.43c0-1.52.86-2.48,2.57-2.9a1.73,1.73,0,0,1-1-1.65,2.44,2.44,0,0,1,1.43-2.06,3.51,3.51,0,0,1-2-3.31c0-2.75,1.71-4.06,4.38-4.06a4.9,4.9,0,0,1,1.61.22h4.06l-.57,1.49H86.25a3.7,3.7,0,0,1,.7,2.28c0,2.44-1.77,3.78-4.32,3.78a5.2,5.2,0,0,1-.92-.07,1.68,1.68,0,0,0-1.08,1.43c0,.59.59.9,1.74.9h2c2.37,0,3.84,1.07,3.84,3.18,0,2.7-2,4-6,4C79.4,33.7,77.38,32.75,77.38,30.43Zm9-.6a1.38,1.38,0,0,0-.53-1.27,4.62,4.62,0,0,0-2.13-.33h-2c-1.65,0-2.46.7-2.46,2.13,0,1.23,1,1.87,2.89,1.87C85,32.23,86.36,31.44,86.36,29.83ZM85,20.42c0-1.71-.81-2.57-2.41-2.57s-2.42.88-2.42,2.59a2.42,2.42,0,1,0,4.83,0Z" transform="translate(0)"/><path class="cls-1" d="M90.22,28.43V12.5l1.93-.75V28.43Z" transform="translate(0)"/><path class="cls-1" d="M104.84,21.76v1.16H96.78c.07,2.66,1.41,4.08,3.76,4.08a9.37,9.37,0,0,0,3.22-.57l.55,1.45a8.75,8.75,0,0,1-3.86.77c-3.36,0-5.66-2.09-5.66-6s2.08-6.19,5.2-6.19S104.84,18.55,104.84,21.76Zm-8-.38h6c0-2-.9-3.35-2.85-3.35S97,19.28,96.83,21.38Z" transform="translate(0)"/><path class="cls-1" d="M110.35,28.65a7.51,7.51,0,0,1-3.69-.75l.57-1.49a8.83,8.83,0,0,0,3.16.68c2,0,2.79-.68,2.79-1.73,0-.88-.6-1.41-2.9-2.29s-3.64-1.58-3.64-3.51,1.77-3.11,4.41-3.11a9,9,0,0,1,3.75.79l-.59,1.55a8.56,8.56,0,0,0-3.29-.76c-1.58,0-2.44.55-2.44,1.42s.77,1.39,3,2.24,3.53,1.6,3.53,3.49C115,27.46,113.22,28.65,110.35,28.65Z" transform="translate(0)"/><path class="cls-1" d="M119.5,13.48a1.13,1.13,0,1,1-2.26,0,1.13,1.13,0,1,1,2.26,0Zm-.18,15h-1.93V16.67h1.93Z" transform="translate(0)"/><path class="cls-1" d="M131.28,20.42v8h-1.4l-.38-1.67h-.08a4.34,4.34,0,0,1-3.95,1.89c-2.13,0-3.71-1.1-3.71-3.49s1.8-3.64,5.64-3.75l2-.07v-.7c0-2-.9-2.61-2.44-2.61a7.79,7.79,0,0,0-3.32.9l-.59-1.45a8.79,8.79,0,0,1,4-1C129.92,16.47,131.28,17.68,131.28,20.42Zm-3.64,2.33c-2.94.11-3.89.94-3.89,2.43,0,1.32.88,1.91,2.16,1.91a3.14,3.14,0,0,0,3.46-3.36V22.68Z" transform="translate(0)"/><path class="cls-1" d="M148,23.58h-6.21l-1.87,4.85h-2L144,12.69h1.78l6.1,15.74h-2Zm-2.35-6.5c-.13-.35-.59-1.8-.74-2.35-.22.9-.51,1.85-.68,2.35l-1.78,4.74h5Z" transform="translate(0)"/><path class="cls-1" d="M152.26,22.57c0-4,1.93-6.12,4.85-6.12a4.26,4.26,0,0,1,3.65,1.73h.13c0-.37-.13-1.29-.13-1.73V12.5l1.93-.75V28.43h-1.56l-.29-1.58h-.08a4.19,4.19,0,0,1-3.67,1.8C154.17,28.65,152.26,26.61,152.26,22.57Zm8.52.37v-.35c0-2.92-.79-4.54-3.4-4.54-2.09,0-3.12,1.78-3.12,4.56s1,4.44,3.14,4.44C159.88,27.05,160.78,25.69,160.78,22.94Z" transform="translate(0)"/><path class="cls-1" d="M164.29,16.67h2.06l2.5,6.93a27,27,0,0,1,1,3.12h.08c.16-.73.66-2.18,1-3.12l2.5-6.93h2.07L171,28.43h-2.22Z" transform="translate(0)"/><path class="cls-1" d="M186.19,21.76v1.16h-8.05c.06,2.66,1.4,4.08,3.75,4.08a9.37,9.37,0,0,0,3.22-.57l.55,1.45a8.72,8.72,0,0,1-3.86.77c-3.36,0-5.66-2.09-5.66-6s2.08-6.19,5.2-6.19S186.19,18.55,186.19,21.76Zm-8-.38h6c0-2-.9-3.35-2.85-3.35S178.38,19.28,178.18,21.38Z" transform="translate(0)"/><path class="cls-1" d="M198.19,20.77v7.66h-1.91V20.9c0-1.89-.83-2.83-2.63-2.83-2.61,0-3.44,1.51-3.44,4.26v6.1h-1.94V16.67h1.56l.29,1.6h.11a4.26,4.26,0,0,1,3.71-1.82C196.75,16.45,198.19,17.74,198.19,20.77Z" transform="translate(0)"/><path class="cls-1" d="M206.05,26.78l.53,1.39a4.5,4.5,0,0,1-2.15.48c-1.85,0-3.45-.79-3.45-3.64V14.69l1.93-.72v2.7h3.4v1.49h-3.4V25c0,1.43.77,2.11,1.85,2.11A3.36,3.36,0,0,0,206.05,26.78Z" transform="translate(0)"/><path class="cls-1" d="M210.86,13.48a1.13,1.13,0,1,1-2.26,0,1.13,1.13,0,1,1,2.26,0Zm-.18,15h-1.93V16.67h1.93Z" transform="translate(0)"/><path class="cls-1" d="M216.93,28.65a7.49,7.49,0,0,1-3.68-.75l.57-1.49a8.83,8.83,0,0,0,3.16.68c2,0,2.79-.68,2.79-1.73,0-.88-.6-1.41-2.9-2.29s-3.64-1.58-3.64-3.51,1.77-3.11,4.41-3.11a9.06,9.06,0,0,1,3.75.79l-.59,1.55a8.56,8.56,0,0,0-3.29-.76c-1.58,0-2.44.55-2.44,1.42s.77,1.39,3,2.24,3.53,1.6,3.53,3.49C221.63,27.46,219.81,28.65,216.93,28.65Z" transform="translate(0)"/><path class="cls-1" d="M229.07,26.78l.53,1.39a4.5,4.5,0,0,1-2.15.48c-1.85,0-3.45-.79-3.45-3.64V14.69l1.93-.72v2.7h3.4v1.49h-3.4V25c0,1.43.77,2.11,1.85,2.11A3.36,3.36,0,0,0,229.07,26.78Z" transform="translate(0)"/><path class="cls-1" d="M240,20.42v8h-1.41l-.37-1.67h-.09a4.33,4.33,0,0,1-3.95,1.89c-2.13,0-3.71-1.1-3.71-3.49s1.8-3.64,5.65-3.75l2-.07v-.7c0-2-.9-2.61-2.43-2.61a7.79,7.79,0,0,0-3.32.9l-.59-1.45a8.79,8.79,0,0,1,4-1C238.64,16.47,240,17.68,240,20.42Zm-3.64,2.33c-2.94.11-3.89.94-3.89,2.43,0,1.32.88,1.91,2.15,1.91a3.14,3.14,0,0,0,3.47-3.36V22.68Z" transform="translate(0)"/><path class="cls-1" d="M70.71,46.1c0-4,1.93-6.12,4.85-6.12a4.29,4.29,0,0,1,3.65,1.73h.13c0-.37-.13-1.29-.13-1.73V36l1.93-.75V52H79.58l-.29-1.58h-.08a4.19,4.19,0,0,1-3.67,1.8C72.62,52.18,70.71,50.14,70.71,46.1Zm8.52.38v-.35c0-2.92-.79-4.55-3.4-4.55-2.09,0-3.12,1.78-3.12,4.57s1,4.43,3.14,4.43C78.33,50.58,79.23,49.22,79.23,46.48Z" transform="translate(0)"/><path class="cls-1" d="M93.16,45.29v1.17h-8c.06,2.65,1.4,4.08,3.75,4.08A9.43,9.43,0,0,0,92.09,50l.55,1.45a8.91,8.91,0,0,1-3.87.76c-3.35,0-5.66-2.08-5.66-6S85.2,40,88.31,40,93.16,42.09,93.16,45.29Zm-8-.37h6c0-2-.9-3.36-2.85-3.36S85.35,42.81,85.15,44.92Z" transform="translate(0)"/><path class="cls-1" d="M95.71,52V36l1.93-.75V52Z" transform="translate(0)"/><path class="cls-1" d="M110.63,52.18a10.52,10.52,0,0,1-4.3-.74l.61-1.63a10.08,10.08,0,0,0,3.78.66c2.33,0,3.53-1,3.53-2.52s-.85-2.2-3.68-3.23c-2.68-1-4-2.22-4-4.65s2-4,5-4a10.68,10.68,0,0,1,4.33.88l-.64,1.69a9.71,9.71,0,0,0-3.73-.83c-2,0-3,.92-3,2.28,0,1.58.88,2.22,3.43,3.16,2.76,1,4.28,2.06,4.28,4.52C116.23,50.56,114.06,52.18,110.63,52.18Z" transform="translate(0)"/><path class="cls-1" d="M127.64,45.29v1.17h-8c.06,2.65,1.4,4.08,3.75,4.08a9.37,9.37,0,0,0,3.22-.57l.55,1.45a8.87,8.87,0,0,1-3.86.76c-3.36,0-5.66-2.08-5.66-6s2.08-6.19,5.2-6.19S127.64,42.09,127.64,45.29Zm-8-.37h6c0-2-.9-3.36-2.85-3.36S119.83,42.81,119.63,44.92Zm6.1-9.55a19.11,19.11,0,0,1-3.14,3.29h-1.27V38.4a23.12,23.12,0,0,0,2.08-3.25h2.33Z" transform="translate(0)"/><path class="cls-1" d="M140.54,46.06c0,4-1.93,6.12-4.85,6.12a4.29,4.29,0,0,1-3.64-1.71h-.13c0,.51.13,1.38.13,1.93v4.83h-1.93v-17h1.58l.26,1.6h.09A4.1,4.1,0,0,1,135.72,40C138.61,40,140.54,42,140.54,46.06Zm-8.49-.37v.37c0,2.9.79,4.52,3.36,4.52,2.13,0,3.14-1.91,3.14-4.54s-1-4.43-3.19-4.43C133,41.61,132.09,42.94,132.05,45.69Z" transform="translate(0)"/><path class="cls-1" d="M147.83,50.32l.53,1.38a4.54,4.54,0,0,1-2.16.48c-1.84,0-3.44-.79-3.44-3.64V38.23l1.93-.73v2.7h3.4v1.49h-3.4V48.5c0,1.42.77,2.1,1.84,2.1A3.58,3.58,0,0,0,147.83,50.32Z" transform="translate(0)"/><path class="cls-1" d="M152.63,37a1.13,1.13,0,1,1-2.26,0,1.13,1.13,0,1,1,2.26,0ZM152.46,52h-1.93V40.2h1.93Z" transform="translate(0)"/><path class="cls-1" d="M172.54,44.3V52h-1.91V44.39c0-1.84-.77-2.78-2.39-2.78-2.28,0-3.18,1.36-3.18,3.86V52h-1.91V44.39c0-1.84-.77-2.78-2.42-2.78-2.37,0-3.14,1.51-3.14,4.25V52h-1.93V40.2h1.56l.29,1.6h.11A3.89,3.89,0,0,1,161.08,40c1.8,0,3,.64,3.6,2h.11a4.24,4.24,0,0,1,3.78-2C171.22,40,172.54,41.28,172.54,44.3Z" transform="translate(0)"/><path class="cls-1" d="M180.05,52.18c-3.12,0-5.4-2.21-5.4-6.12S176.73,40,180.11,40c3.18,0,5.42,2.2,5.42,6.08S183.4,52.18,180.05,52.18Zm0-1.6c2.37,0,3.44-1.73,3.44-4.52s-1.07-4.45-3.46-4.45-3.43,1.66-3.43,4.45S177.7,50.58,180.09,50.58Z" transform="translate(0)"/><path class="cls-1" d="M198.48,52h-4.37V36.29h4.83c4.72,0,7.73,2.66,7.73,7.69C206.67,49.26,203.64,52,198.48,52Zm.17-14h-2.56V50.27h2.13c4.23,0,6.36-2.1,6.36-6.23S202.43,38,198.65,38Z" transform="translate(0)"/><path class="cls-1" d="M213.05,35.37a19.11,19.11,0,0,1-3.14,3.29h-1.27V38.4a23.12,23.12,0,0,0,2.08-3.25h2.33ZM209,52V40.2h1.93V52Z" transform="translate(0)"/><path class="cls-1" d="M222.88,44v8h-1.4l-.37-1.66H221a4.35,4.35,0,0,1-4,1.88c-2.13,0-3.71-1.09-3.71-3.49s1.8-3.64,5.64-3.75l2-.06v-.71c0-2-.9-2.61-2.44-2.61a7.71,7.71,0,0,0-3.31.9l-.6-1.45a8.79,8.79,0,0,1,4-1C221.52,40,222.88,41.21,222.88,44Zm-3.64,2.33c-2.94.11-3.89.94-3.89,2.44,0,1.31.88,1.91,2.16,1.91A3.14,3.14,0,0,0,221,47.27V46.21Z" transform="translate(0)"/><path class="cls-1" d="M223.34,37a1.41,1.41,0,0,1,1.45-1.47A1.43,1.43,0,0,1,226.24,37a1.45,1.45,0,0,1-2.9,0ZM226,37a1.21,1.21,0,0,0-1.23-1.25A1.24,1.24,0,1,0,226,37Zm-1.78-.87h.51c.44,0,.63.17.63.52a.46.46,0,0,1-.3.44l.46.77h-.35l-.4-.68h-.24v.68h-.31Zm.51.81a.3.3,0,0,0,.33-.29c0-.17-.11-.26-.33-.26h-.2v.55Z" transform="translate(0)"/><path class="cls-1" d="M34.56,30.17c-2.35,2.35-3.49,3.47-4.07,6.32,0,.21-.29.21-.29,0V33c0-2.24,2-4.29,4.37-6.66l1.91-1.91c2.67-2.67,3.32-5.77,1.19-7.61-.18-.16-.09-.35.15-.24,2.65,1.21,4.74,5.6.19,10.14Zm-4.37,9v3.51c0,.21.24.21.29,0,.58-2.85,1.72-4,4.07-6.34l3.72-3.71c4.55-4.55,5.33-9,3-11.77-.15-.19-.32-.08-.22.15,1.53,3.46-2.14,7.13-3.88,8.87l-2.63,2.63C32.18,34.86,30.19,36.9,30.19,39.14ZM20.11,27.84c-4.55,4.54-2.46,8.93.19,10.14.23.11.33-.08.15-.23-2.13-1.85-1.48-4.94,1.19-7.62l7.56-7.56c2.37-2.37,4.37-4.41,4.37-6.65V12.43c0-.21-.25-.21-.29,0-.59,2.85-1.72,4-4.07,6.31ZM33.57,9.78V6.26c0-.21-.24-.21-.28,0-.59,2.85-1.72,4-4.07,6.34L19.85,22c-4.55,4.55-5.33,9-3,11.77.15.19.32.08.22-.15-1.53-3.46,2.13-7.12,3.88-8.87l8.28-8.28C31.58,14.06,33.57,12,33.57,9.78Zm-14.71,7c-3.91,3.91-4.45,8-3.62,10.74.07.23.27.24.27,0,0-2.26.63-4.21,4.77-8.35l8.92-8.91c2.37-2.38,4.37-4.42,4.37-6.66V.16c0-.21-.25-.21-.29,0-.59,2.85-1.73,4-4.07,6.32Zm5.47,28.3a.15.15,0,0,1-.14-.15V43a.14.14,0,0,1,.14-.14h3.43a.15.15,0,0,0,.14-.15c0-1.81-1.38-3.05-6.88-2.09l-11.86,2s-9,9-9.1,9.13a.18.18,0,0,0,.16.31C.38,52,20,48.66,20,48.66,24.44,47.9,26.89,50,27.63,52c.06.18.27.15.27,0V45.27a.14.14,0,0,0-.14-.14Zm14.16-4.31-3.92,3.92c-2.38,2.38-4.37,4.42-4.37,6.66V52c0,.17.21.2.28,0,.73-2,3.18-4.14,7.67-3.38,0,0,19.57,3.38,19.73,3.39a.18.18,0,0,0,.17-.31l-9.11-9.13ZM42.88,27c-.08-.23-.27-.24-.27,0,0,2.26-.63,4.21-4.77,8.35l-3.27,3.27A23,23,0,0,0,31,42.82h3.23c.12-.13.25-.25.38-.38l4.69-4.7C43.16,33.83,43.71,29.69,42.88,27ZM30.2,48.75c0,.22.24.22.29,0a8.31,8.31,0,0,1,1.58-3.62H30.34a.14.14,0,0,0-.14.14Z" transform="translate(0)"/><path class="cls-1" d="M55.19,45.45A1.41,1.41,0,0,1,56.65,44a1.43,1.43,0,0,1,1.45,1.45,1.46,1.46,0,0,1-2.91,0Zm2.69,0a1.21,1.21,0,0,0-1.23-1.24,1.2,1.2,0,0,0-1.24,1.24,1.24,1.24,0,1,0,2.47,0Zm-1.78-.86h.51c.43,0,.63.17.63.51a.46.46,0,0,1-.31.45l.46.77h-.34l-.4-.69h-.24v.69H56.1Zm.5.8c.21,0,.33-.12.33-.28s-.1-.27-.33-.27h-.19v.55Z" transform="translate(0)"/></g><g id="Layer_3" data-name="Layer 3"><path class="cls-1" d="M79,69.58c0,1.88-1.13,3.33-3.53,3.33A3.11,3.11,0,0,1,72,69.56V63.72h1.14v5.87a2.36,2.36,0,0,0,4.71,0V63.72H79Z" transform="translate(0)"/><path class="cls-1" d="M87,72.78l-4.85-7.53h0c0,.6.1,1.54.1,2.47v5.06H81.13V63.72h1.32l4.83,7.5h0c0-.41-.08-1.56-.08-2.39V63.72h1.06v9.06Z" transform="translate(0)"/><path class="cls-1" d="M89.79,72.78l.38-1h.69v-7H89.79v-1h3.28l-.38,1H92v7h1.07v1Z" transform="translate(0)"/><path class="cls-1" d="M98.3,72.91c-2.83,0-4.19-1.88-4.19-4.69s1.36-4.64,4.2-4.64,4.16,1.84,4.16,4.66S101,72.91,98.3,72.91Zm0-1c2,0,3-1.4,3-3.68s-.92-3.66-3-3.66-3,1.37-3,3.66S96.25,71.92,98.3,71.92Zm1.79-11a11.08,11.08,0,0,1-1.82,1.91h-.73v-.15a14.72,14.72,0,0,0,1.2-1.88h1.35Z" transform="translate(0)"/><path class="cls-1" d="M110.07,72.78l-4.84-7.53h-.06c0,.6.11,1.54.11,2.47v5.06h-1.06V63.72h1.32l4.84,7.5h.05c0-.41-.09-1.56-.09-2.39V63.72h1.07v9.06Z" transform="translate(0)"/><path class="cls-1" d="M119.25,63.72c2.26,0,3.44.59,3.44,2.24A1.92,1.92,0,0,1,121,68V68a2.08,2.08,0,0,1,2,2.17c0,1.65-1.2,2.58-3.15,2.58h-3.18V63.72Zm.23,3.86c1.55,0,2-.51,2-1.49s-.68-1.4-2.21-1.4h-1.5v2.89Zm-1.68,4.24h1.83c1.6,0,2.14-.69,2.14-1.7s-.55-1.59-2.23-1.59H117.8Z" transform="translate(0)"/><path class="cls-1" d="M128.39,72.91c-2.84,0-4.19-1.88-4.19-4.69s1.35-4.64,4.2-4.64,4.16,1.84,4.16,4.66S131.11,72.91,128.39,72.91Zm0-1c2.05,0,3-1.4,3-3.68s-.92-3.66-3-3.66-3,1.37-3,3.66S126.34,71.92,128.39,71.92Z" transform="translate(0)"/><path class="cls-1" d="M134.31,63.72h1.14v8h4.18l-.38,1h-4.94Z" transform="translate(0)"/><path class="cls-1" d="M140,72.78l.38-1h.69v-7H140v-1h3.28l-.38,1h-.69v7h1.07v1Z" transform="translate(0)"/><path class="cls-1" d="M147.9,72.78h-1.14l-3.24-9.06h1.19l2,5.81a15.62,15.62,0,0,1,.57,2,13.38,13.38,0,0,1,.57-2l2-5.79h1.21Z" transform="translate(0)"/><path class="cls-1" d="M151.39,72.78l.38-1h.69v-7h-1.07v-1h3.27l-.38,1h-.68v7h1.06v1Z" transform="translate(0)"/><path class="cls-1" d="M160.76,70h-3.6l-1.08,2.8h-1.15l3.54-9.1h1l3.53,9.1h-1.18Zm-1.36-3.76c-.08-.21-.34-1-.43-1.36-.13.52-.3,1.07-.4,1.36l-1,2.74h2.87Z" transform="translate(0)"/><path class="cls-1" d="M169.87,72.78,165,65.25H165c0,.6.1,1.54.1,2.47v5.06h-1V63.72h1.32l4.83,7.5h.05c0-.41-.09-1.56-.09-2.39V63.72h1.07v9.06Z" transform="translate(0)"/><path class="cls-1" d="M178,70h-3.59l-1.08,2.8h-1.16l3.55-9.1h1l3.52,9.1h-1.18Zm-1.36-3.76c-.07-.21-.34-1-.43-1.36-.13.52-.29,1.07-.39,1.36l-1,2.74h2.87Z" transform="translate(0)"/></g></svg>