<svg xmlns="http://www.w3.org/2000/svg" width="240" height="53.976" viewBox="0 0 240 53.976">
  <g id="logo-iasd" transform="translate(-0.001 -0.002)">
    <g id="Grupo_11" data-name="Grupo 11" transform="translate(73.245 12.152)">
      <path id="Caminho_66" data-name="Caminho 66" d="M741.91,437.955l.682-1.816h1.228V423.546h-1.91v-1.793h5.864l-.682,1.793h-1.227V436.14h1.909v1.816Z" transform="translate(-741.796 -420.709)" fill="#303336"/>
      <path id="Caminho_67" data-name="Caminho 67" d="M773.8,454.126q0-2.349,2.659-3a1.784,1.784,0,0,1-1.068-1.7,2.529,2.529,0,0,1,1.477-2.133,3.637,3.637,0,0,1-2.114-3.427c0-2.837,1.773-4.2,4.546-4.2a5.237,5.237,0,0,1,1.659.227h4.205l-.591,1.543h-1.591a3.838,3.838,0,0,1,.727,2.36c0,2.519-1.841,3.9-4.478,3.9a5.151,5.151,0,0,1-.955-.068,1.746,1.746,0,0,0-1.114,1.475c0,.613.614.93,1.8.93h2.068c2.455,0,3.978,1.112,3.978,3.29,0,2.791-2.091,4.175-6.274,4.175C775.891,457.507,773.8,456.531,773.8,454.126Zm9.3-.613a1.423,1.423,0,0,0-.545-1.316,4.82,4.82,0,0,0-2.2-.34h-2.091c-1.7,0-2.546.726-2.546,2.2,0,1.271,1,1.929,3,1.929C781.642,455.987,783.1,455.17,783.1,453.513Zm-1.364-9.735c0-1.77-.841-2.655-2.5-2.655s-2.5.908-2.5,2.678a2.5,2.5,0,0,0,5-.023Z" transform="translate(-766.89 -434.815)" fill="#303336"/>
      <path id="Caminho_68" data-name="Caminho 68" d="M843.309,439.807l-.25,1.838a6.341,6.341,0,0,0-1.318-.159c-1.887,0-3.546,1.634-3.546,4.085v6.49h-2V439.9h1.637l.227,2.224h.091a4.374,4.374,0,0,1,3.728-2.451,7.3,7.3,0,0,1,1.431.134Z" transform="translate(-815.986 -434.815)" fill="#303336"/>
      <path id="Caminho_69" data-name="Caminho 69" d="M881.055,445.163v1.2h-8.342c.068,2.746,1.455,4.221,3.887,4.221a9.726,9.726,0,0,0,3.341-.59l.568,1.5a9.122,9.122,0,0,1-4,.794c-3.478,0-5.864-2.156-5.864-6.218,0-3.994,2.159-6.4,5.387-6.4C879.145,439.671,881.055,441.85,881.055,445.163Zm-8.3-.386h6.205c-.023-2.065-.932-3.472-2.955-3.472-1.905-.005-3.042,1.295-3.247,3.472Z" transform="translate(-843.094 -434.815)" fill="#303336"/>
      <path id="Caminho_70" data-name="Caminho 70" d="M922.585,439.814c1.3-.59,1.591-1.452,1.591-3.608V423.861h2v12.458c0,2.383-.636,4.266-2.955,5.151ZM925.2,419.3a1.13,1.13,0,0,1,1.159,1.271,1.175,1.175,0,1,1-2.341,0A1.124,1.124,0,0,1,925.2,419.3Z" transform="translate(-883.965 -418.778)" fill="#303336"/>
      <path id="Caminho_71" data-name="Caminho 71" d="M959.009,443.863v8.283h-1.455l-.386-1.725h-.091a4.5,4.5,0,0,1-4.091,1.951c-2.2,0-3.841-1.134-3.841-3.608,0-2.428,1.864-3.767,5.841-3.88l2.068-.068v-.726c0-2.02-.932-2.7-2.523-2.7a8.027,8.027,0,0,0-3.432.93l-.614-1.5a9.136,9.136,0,0,1,4.16-1.044C957.6,439.778,959.009,441.026,959.009,443.863Zm-3.773,2.406c-3.046.113-4.023.976-4.023,2.519,0,1.362.909,1.974,2.227,1.974a3.251,3.251,0,0,0,3.592-3.472V446.2Z" transform="translate(-904.864 -434.899)" fill="#303336"/>
      <path id="Caminho_72" data-name="Caminho 72" d="M1037.967,432.688h-6.433L1029.6,437.7h-2.069l6.342-16.27h1.841l6.319,16.27h-2.114Zm-2.432-6.717c-.136-.363-.614-1.861-.773-2.428-.227.93-.523,1.906-.7,2.428l-1.841,4.9h5.137Z" transform="translate(-966.547 -420.457)" fill="#303336"/>
      <path id="Caminho_73" data-name="Caminho 73" d="M1097.4,428.034c0-4.175,2-6.331,5.023-6.331a4.4,4.4,0,0,1,3.773,1.793h.136c-.046-.386-.136-1.339-.136-1.793v-4.085l2-.771v17.246h-1.614l-.3-1.634h-.091a4.32,4.32,0,0,1-3.8,1.861C1099.373,434.32,1097.4,432.21,1097.4,428.034Zm8.819.386v-.363c0-3.018-.818-4.7-3.523-4.7-2.159,0-3.228,1.838-3.228,4.72,0,2.9,1.068,4.584,3.25,4.584,2.565,0,3.5-1.4,3.5-4.241Z" transform="translate(-1021.52 -416.847)" fill="#303336"/>
      <path id="Caminho_74" data-name="Caminho 74" d="M1155.842,440.738h2.137l2.591,7.171a25.991,25.991,0,0,1,.977,3.222h.091c.159-.749.682-2.247,1.023-3.222l2.591-7.171h2.137l-4.637,12.163h-2.3Z" transform="translate(-1067.509 -435.655)" fill="#303336"/>
      <path id="Caminho_75" data-name="Caminho 75" d="M1223.849,445.163v1.2h-8.342c.068,2.746,1.455,4.221,3.887,4.221a9.725,9.725,0,0,0,3.341-.59l.568,1.5a9.122,9.122,0,0,1-4,.794c-3.478,0-5.864-2.156-5.864-6.218,0-3.994,2.159-6.4,5.387-6.4C1221.94,439.671,1223.849,441.85,1223.849,445.163Zm-8.3-.386h6.2c-.023-2.065-.932-3.472-2.955-3.472-1.9-.005-3.042,1.295-3.246,3.472Z" transform="translate(-1112.831 -434.815)" fill="#303336"/>
      <path id="Caminho_76" data-name="Caminho 76" d="M1282.694,444.141v7.92h-1.977v-7.783c0-1.951-.864-2.927-2.728-2.927-2.7,0-3.569,1.566-3.569,4.4v6.309h-2V439.9h1.614l.3,1.656h.114a4.422,4.422,0,0,1,3.841-1.883C1281.194,439.671,1282.694,441.01,1282.694,444.141Z" transform="translate(-1159.242 -434.815)" fill="#303336"/>
      <path id="Caminho_77" data-name="Caminho 77" d="M1339.425,440.871l.546,1.43a4.613,4.613,0,0,1-2.228.5c-1.909,0-3.569-.817-3.569-3.767V428.368l2-.749v2.791h3.523v1.543h-3.523v7.034c0,1.475.8,2.179,1.91,2.179a3.66,3.66,0,0,0,1.341-.295Z" transform="translate(-1207.834 -425.327)" fill="#303336"/>
      <path id="Caminho_78" data-name="Caminho 78" d="M1373.525,420.571a1.175,1.175,0,1,1-.553-1.1,1.175,1.175,0,0,1,.553,1.1Zm-.182,15.453h-2V423.861h2Z" transform="translate(-1236.957 -418.778)" fill="#303336"/>
      <path id="Caminho_79" data-name="Caminho 79" d="M1397.529,452.288a7.871,7.871,0,0,1-3.819-.771l.591-1.543a9.17,9.17,0,0,0,3.273.7c2.023,0,2.887-.7,2.887-1.793,0-.908-.614-1.452-3-2.36-2.364-.908-3.773-1.634-3.773-3.631,0-2.065,1.841-3.222,4.569-3.222a9.5,9.5,0,0,1,3.887.817l-.614,1.611a8.727,8.727,0,0,0-3.409-.794c-1.637,0-2.523.567-2.523,1.475,0,1.021.8,1.43,3.137,2.315,2.319.862,3.66,1.657,3.66,3.608C1402.393,451.063,1400.506,452.288,1397.529,452.288Z" transform="translate(-1254.664 -434.815)" fill="#303336"/>
      <path id="Caminho_80" data-name="Caminho 80" d="M1451.308,440.871l.546,1.43a4.613,4.613,0,0,1-2.228.5c-1.909,0-3.568-.817-3.568-3.767V428.368l2-.749v2.791h3.523v1.543h-3.523v7.034c0,1.475.8,2.179,1.91,2.179A3.661,3.661,0,0,0,1451.308,440.871Z" transform="translate(-1295.872 -425.327)" fill="#303336"/>
      <path id="Caminho_81" data-name="Caminho 81" d="M1487.386,443.863v8.283h-1.455l-.386-1.725h-.091a4.5,4.5,0,0,1-4.092,1.951c-2.2,0-3.841-1.134-3.841-3.608,0-2.428,1.864-3.767,5.842-3.88l2.068-.068v-.726c0-2.02-.932-2.7-2.523-2.7a8.026,8.026,0,0,0-3.432.93l-.614-1.5a9.136,9.136,0,0,1,4.16-1.044C1485.977,439.778,1487.386,441.026,1487.386,443.863Zm-3.773,2.406c-3.046.113-4.023.976-4.023,2.519,0,1.362.909,1.974,2.227,1.974a3.251,3.251,0,0,0,3.591-3.472V446.2Z" transform="translate(-1320.631 -434.899)" fill="#303336"/>
      <path id="Caminho_82" data-name="Caminho 82" d="M741.377,542.414c0-4.175,2-6.331,5.023-6.331a4.405,4.405,0,0,1,3.773,1.793h.136c-.045-.386-.136-1.339-.136-1.793V532l2-.772v17.246H750.56l-.3-1.634h-.091a4.32,4.32,0,0,1-3.8,1.861C743.354,548.7,741.377,546.59,741.377,542.414Zm8.819.386v-.363c0-3.018-.818-4.7-3.523-4.7-2.159,0-3.228,1.838-3.228,4.72,0,2.9,1.068,4.584,3.25,4.584,2.569,0,3.505-1.4,3.505-4.241Z" transform="translate(-741.377 -506.891)" fill="#303336"/>
      <path id="Caminho_83" data-name="Caminho 83" d="M807.23,566.668c-3.228,0-5.592-2.292-5.592-6.331,0-4.017,2.159-6.286,5.66-6.286,3.3,0,5.615,2.269,5.615,6.286C812.913,564.376,810.707,566.668,807.23,566.668Zm.046-1.657c2.455,0,3.568-1.793,3.568-4.674s-1.114-4.607-3.591-4.607-3.546,1.725-3.546,4.607,1.093,4.674,3.568,4.674Z" transform="translate(-788.795 -524.859)" fill="#303336"/>
      <path id="Caminho_84" data-name="Caminho 84" d="M897.924,551.723a10.832,10.832,0,0,1-4.455-.771l.636-1.679a10.493,10.493,0,0,0,3.91.681c2.41,0,3.66-1,3.66-2.609,0-1.589-.886-2.269-3.819-3.336-2.773-1-4.182-2.292-4.182-4.811,0-2.564,2.114-4.13,5.182-4.13a10.908,10.908,0,0,1,4.478.907l-.659,1.747a10.049,10.049,0,0,0-3.864-.862c-2.023,0-3.069.953-3.069,2.36,0,1.634.909,2.292,3.546,3.268,2.864,1.067,4.432,2.133,4.432,4.675C903.72,550.044,901.47,551.723,897.924,551.723Z" transform="translate(-861.054 -509.914)" fill="#303336"/>
      <path id="Caminho_85" data-name="Caminho 85" d="M958.595,541.071v1.2h-8.342c.068,2.746,1.455,4.221,3.887,4.221a9.729,9.729,0,0,0,3.341-.59l.568,1.5a9.122,9.122,0,0,1-4,.794c-3.478,0-5.864-2.156-5.864-6.218,0-3.994,2.16-6.4,5.387-6.4C956.685,535.579,958.595,537.758,958.595,541.071Zm-8.3-.386H956.5c-.023-2.065-.932-3.472-2.955-3.472-1.906,0-3.045,1.294-3.245,3.472Zm6.319-9.871a19.586,19.586,0,0,1-3.25,3.4h-1.318v-.272a24.984,24.984,0,0,0,2.159-3.359h2.41Z" transform="translate(-904.108 -506.387)" fill="#303336"/>
      <path id="Caminho_86" data-name="Caminho 86" d="M1012.31,555.251l.546,1.43a4.611,4.611,0,0,1-2.228.5c-1.909,0-3.568-.817-3.568-3.767V542.748l2-.749v2.791h3.523v1.543h-3.523v7.034c0,1.475.8,2.179,1.91,2.179a3.661,3.661,0,0,0,1.34-.3Z" transform="translate(-950.436 -515.371)" fill="#303336"/>
      <path id="Caminho_87" data-name="Caminho 87" d="M1046.41,534.951a1.175,1.175,0,1,1-.554-1.1A1.175,1.175,0,0,1,1046.41,534.951Zm-.182,15.453h-2V538.241h2Z" transform="translate(-979.558 -508.822)" fill="#303336"/>
      <path id="Caminho_88" data-name="Caminho 88" d="M1087.253,558.521v7.92h-1.978v-7.829c0-1.906-.8-2.882-2.478-2.882-2.364,0-3.3,1.407-3.3,3.994v6.717h-1.978v-7.829c0-1.906-.8-2.882-2.5-2.882-2.455,0-3.251,1.566-3.251,4.4v6.308h-2v-12.16h1.614l.3,1.657h.114a4.045,4.045,0,0,1,3.591-1.883c1.864,0,3.137.658,3.728,2.042h.114a4.389,4.389,0,0,1,3.909-2.042C1085.889,554.051,1087.253,555.39,1087.253,558.521Z" transform="translate(-999.784 -524.859)" fill="#303336"/>
      <path id="Caminho_89" data-name="Caminho 89" d="M1167.624,566.668c-3.228,0-5.592-2.292-5.592-6.331,0-4.017,2.16-6.286,5.66-6.286,3.3,0,5.615,2.269,5.615,6.286C1173.307,564.376,1171.1,566.668,1167.624,566.668Zm.046-1.657c2.455,0,3.568-1.793,3.568-4.674s-1.114-4.607-3.591-4.607-3.546,1.725-3.546,4.607,1.091,4.674,3.569,4.674Z" transform="translate(-1072.38 -524.859)" fill="#303336"/>
      <path id="Caminho_90" data-name="Caminho 90" d="M1261.16,552.335h-4.523v-16.2h5c4.887,0,8,2.746,8,7.942C1269.639,549.544,1266.5,552.335,1261.16,552.335Zm.182-14.455h-2.659v12.708h2.2c4.387,0,6.592-2.178,6.592-6.445C1267.479,539.832,1265.252,537.88,1261.342,537.88Z" transform="translate(-1146.823 -510.753)" fill="#303336"/>
      <path id="Caminho_91" data-name="Caminho 91" d="M1330.545,534.951a1.175,1.175,0,1,1-.554-1.1A1.175,1.175,0,0,1,1330.545,534.951Zm-.182,15.453h-2V538.241h2Z" transform="translate(-1203.137 -508.822)" fill="#303336"/>
      <path id="Caminho_92" data-name="Caminho 92" d="M1357.908,558.242v8.283h-1.455l-.386-1.724h-.091a4.5,4.5,0,0,1-4.091,1.951c-2.2,0-3.841-1.135-3.841-3.608,0-2.428,1.864-3.767,5.842-3.88l2.068-.068v-.726c0-2.02-.932-2.7-2.523-2.7a8.029,8.029,0,0,0-3.432.93l-.614-1.5a9.143,9.143,0,0,1,4.16-1.044C1356.5,554.157,1357.908,555.405,1357.908,558.242Zm-3.773,2.405c-3.046.113-4.024.976-4.024,2.519,0,1.361.909,1.974,2.228,1.974a3.251,3.251,0,0,0,3.592-3.472v-1.089Z" transform="translate(-1218.748 -524.942)" fill="#303336"/>
      <path id="Caminho_93" data-name="Caminho 93" d="M1396.572,533.813a1.449,1.449,0,0,1,1.5-1.52,1.475,1.475,0,0,1,1.5,1.52,1.5,1.5,0,1,1-3,0Zm2.773,0a1.26,1.26,0,0,0-1.273-1.293,1.282,1.282,0,1,0,1.273,1.293Zm-1.841-.908h.523c.454,0,.659.182.659.545a.479.479,0,0,1-.318.454l.477.794h-.364l-.409-.7h-.25v.7h-.318Zm.523.84a.3.3,0,0,0,.341-.295q0-.272-.341-.272h-.2v.567Z" transform="translate(-1256.934 -507.73)" fill="#303336"/>
    </g>
    <path id="Caminho_94" data-name="Caminho 94" d="M433.5,390.932c-2.433,2.429-3.61,3.586-4.218,6.53-.045.22-.3.22-.3,0v-3.608c0-2.313,2.065-4.428,4.524-6.883L435.487,385c2.77-2.765,3.439-5.97,1.236-7.875-.184-.159-.088-.355.152-.245,2.747,1.25,4.912,5.79.2,10.492Zm-4.525,9.273v3.632c0,.219.252.22.3,0,.608-2.944,1.784-4.124,4.217-6.553l3.854-3.84c4.709-4.7,5.524-9.251,3.129-12.175-.16-.2-.331-.078-.227.157,1.583,3.577-2.214,7.369-4.021,9.174l-2.725,2.721c-2.461,2.456-4.525,4.571-4.525,6.885ZM418.53,388.519c-4.709,4.7-2.544,9.242.2,10.492.241.11.337-.086.152-.245-2.2-1.9-1.534-5.109,1.236-7.875l7.827-7.814c2.459-2.455,4.524-4.57,4.524-6.883v-3.608c0-.219-.252-.22-.3,0-.608,2.944-1.785,4.1-4.218,6.53Zm13.952-18.676v-3.632c0-.22-.252-.22-.3,0-.608,2.944-1.784,4.124-4.217,6.553l-9.7,9.679c-4.709,4.7-5.524,9.251-3.128,12.175.16.2.331.078.227-.157-1.583-3.576,2.214-7.369,4.021-9.173l8.574-8.56c2.459-2.456,4.524-4.571,4.524-6.885Zm-15.239,7.29c-4.05,4.043-4.615,8.321-3.75,11.11.074.237.279.253.277,0-.02-2.344.655-4.359,4.941-8.637l9.239-9.221c2.459-2.455,4.524-4.57,4.524-6.883v-3.6c0-.219-.252-.22-.3,0-.608,2.944-1.787,4.106-4.22,6.535Zm5.663,29.265a.148.148,0,0,1-.148-.148v-2.094a.148.148,0,0,1,.148-.148h3.548a.148.148,0,0,0,.148-.148c-.009-1.881-1.43-3.159-7.119-2.17L407.2,403.8s-9.357,9.341-9.434,9.432a.193.193,0,0,0,.168.329c.17-.015,20.44-3.512,20.44-3.512,4.653-.783,7.189,1.427,7.948,3.5.067.183.285.156.285-.019v-6.983a.147.147,0,0,0-.148-.147Zm14.664-4.456L433.509,406c-2.459,2.455-4.524,4.57-4.524,6.883v.644c0,.175.218.2.285.019.759-2.071,3.3-4.281,7.949-3.5,0,0,20.27,3.5,20.44,3.512a.193.193,0,0,0,.168-.329c-.077-.091-9.434-9.432-9.434-9.432Zm4.545-14.3c-.073-.237-.279-.253-.277,0,.02,2.344-.655,4.359-4.941,8.637l-3.39,3.381a23.881,23.881,0,0,0-3.75,4.352H433.1l.4-.4,4.863-4.86c4.048-4.04,4.613-8.317,3.748-11.107Zm-13.131,22.5c0,.22.252.22.3,0a8.671,8.671,0,0,1,1.639-3.751h-1.788a.148.148,0,0,0-.148.147Z" transform="translate(-397.706 -359.734)" fill="#303336"/>
    <g id="Grupo_12" data-name="Grupo 12" transform="translate(57.169 45.495)">
      <path id="Caminho_95" data-name="Caminho 95" d="M665.948,575.063a1.454,1.454,0,0,1,1.506-1.5,1.478,1.478,0,0,1,1.506,1.5,1.506,1.506,0,0,1-3.012,0Zm2.779,0a1.256,1.256,0,0,0-1.272-1.286,1.235,1.235,0,0,0-1.276,1.286,1.275,1.275,0,1,0,2.549,0Zm-1.835-.893h.525c.447,0,.648.176.648.529a.481.481,0,0,1-.32.467l.476.8h-.353l-.411-.709H667.2v.709h-.312Zm.517.828c.213,0,.341-.119.341-.291,0-.193-.107-.274-.345-.274h-.2V575Z" transform="translate(-665.948 -573.559)" fill="#303336"/>
    </g>
  </g>
</svg>
