<svg xmlns="http://www.w3.org/2000/svg" width="240" height="75.156" viewBox="0 0 240 75.156"><g transform="translate(73.789 63.364)"><path d="M746.479,678.617h-2.547v-9.122h2.815c2.752,0,4.5,1.546,4.5,4.471C751.252,677.045,749.486,678.617,746.479,678.617Zm.1-8.138h-1.5v7.154h1.241c2.47,0,3.711-1.226,3.711-3.628C750.037,671.578,748.783,670.479,746.581,670.479Z" transform="translate(-743.932 -666.953)" fill="#303336"/><path d="M783.006,678.617l.384-1.022h.691V670.5h-1.075v-1.009h3.3l-.384,1.009h-.691v7.09h1.075v1.022Z" transform="translate(-774.678 -666.953)" fill="#303336"/><path d="M807.568,678.617h-1.152l-3.263-9.122h1.2l2.06,5.851a15.44,15.44,0,0,1,.576,1.993,14.347,14.347,0,0,1,.576-2.018l2.048-5.826h1.216Z" transform="translate(-790.532 -666.953)" fill="#303336"/><path d="M843.834,678.617l.384-1.022h.691V670.5h-1.075v-1.009h3.3l-.384,1.009h-.691v7.09h1.075v1.022Z" transform="translate(-822.542 -666.953)" fill="#303336"/><path d="M868.2,678.272a6.1,6.1,0,0,1-2.508-.434l.358-.946a5.907,5.907,0,0,0,2.2.383c1.357,0,2.06-.562,2.06-1.469s-.5-1.277-2.15-1.878c-1.561-.562-2.355-1.29-2.355-2.708,0-1.444,1.19-2.325,2.918-2.325a6.138,6.138,0,0,1,2.521.511l-.371.984a5.66,5.66,0,0,0-2.176-.486c-1.139,0-1.728.537-1.728,1.329,0,.92.512,1.29,2,1.84,1.612.6,2.5,1.2,2.5,2.632C871.462,677.327,870.2,678.272,868.2,678.272Z" transform="translate(-839.741 -666.48)" fill="#303336"/><path d="M902.186,666.387h-3.622l-1.088,2.823h-1.164l3.57-9.16h1.037l3.557,9.16h-1.19Zm-2.752-8.828c.755,0,1.408.728,1.945.728.4,0,.576-.243.7-.741h.64c-.1,1-.589,1.635-1.395,1.635-.717,0-1.382-.728-1.945-.728-.409,0-.589.243-.7.741h-.653C898.129,658.185,898.628,657.559,899.434,657.559Zm1.382,5.046c-.077-.2-.346-1.048-.435-1.367-.128.524-.294,1.073-.4,1.367l-1.037,2.76h2.892Z" transform="translate(-863.836 -657.546)" fill="#303336"/><path d="M941.234,678.225c-2.854,0-4.223-1.891-4.223-4.714,0-2.8,1.37-4.676,4.236-4.676,2.738,0,4.2,1.852,4.2,4.688S943.986,678.225,941.234,678.225Zm0-1c2.073,0,2.994-1.405,2.994-3.705s-.922-3.679-2.982-3.679-3.02,1.38-3.02,3.679S939.174,677.229,941.234,677.229Z" transform="translate(-895.861 -666.433)" fill="#303336"/><path d="M1002.629,678.272a6.1,6.1,0,0,1-2.508-.434l.358-.946a5.906,5.906,0,0,0,2.2.383c1.357,0,2.06-.562,2.06-1.469s-.5-1.277-2.15-1.878c-1.561-.562-2.355-1.29-2.355-2.708,0-1.444,1.19-2.325,2.918-2.325a6.138,6.138,0,0,1,2.521.511l-.371.984a5.66,5.66,0,0,0-2.176-.486c-1.139,0-1.728.537-1.728,1.329,0,.92.512,1.29,2,1.84,1.613.6,2.5,1.2,2.5,2.632C1005.893,677.327,1004.626,678.272,1002.629,678.272Z" transform="translate(-945.521 -666.48)" fill="#303336"/><path d="M1041.893,675.4c0,1.891-1.139,3.347-3.558,3.347a3.141,3.141,0,0,1-3.481-3.373v-5.877h1.152v5.915a2.374,2.374,0,0,0,4.748-.013v-5.9h1.139Z" transform="translate(-972.852 -666.953)" fill="#303336"/><path d="M1078.624,669.495h1.152v8.1h4.21l-.384,1.022h-4.978Z" transform="translate(-1007.293 -666.953)" fill="#303336"/><path d="M1098.205,687.989h3.1l.384,1h-3.1Z" transform="translate(-1022.701 -681.512)" fill="#303336"/><path d="M1120.678,675.652h-3.622l-1.088,2.823H1114.8l3.57-9.16h1.037l3.557,9.16h-1.19Zm-1.37-3.782c-.077-.2-.346-1.048-.435-1.367-.128.524-.294,1.073-.4,1.367l-1.037,2.76h2.892Z" transform="translate(-1035.762 -666.811)" fill="#303336"/><path d="M1160.449,670.619h-.051c.051.524.089,1.495.089,2.466v5.532h-1.062v-9.122h1.7l2.815,7.474h.051l2.867-7.474h1.689v9.122h-1.139v-5.608c0-.882.051-1.827.09-2.376h-.052l-3.046,7.985h-.947Z" transform="translate(-1070.873 -666.953)" fill="#303336"/><path d="M1213.289,678.617v-9.122h5.106V670.5h-3.954v2.849h3.43v1h-3.43v3.258h4.236l-.384,1.009Z" transform="translate(-1113.257 -666.953)" fill="#303336"/><path d="M1251.755,672.088a2.438,2.438,0,0,1-1.83,2.44l2.508,4.088h-1.344l-2.214-3.769h-1.817v3.769h-1.152v-9.122h2.521C1250.692,669.495,1251.755,670.351,1251.755,672.088Zm-4.7-1.6v3.386h1.369c1.484,0,2.137-.588,2.137-1.738,0-1.188-.7-1.648-2.2-1.648Z" transform="translate(-1138.923 -666.953)" fill="#303336"/><path d="M1281.618,678.617l.384-1.022h.691V670.5h-1.075v-1.009h3.3l-.384,1.009h-.691v7.09h1.075v1.022Z" transform="translate(-1167.024 -666.953)" fill="#303336"/><path d="M1303.226,673.584c0,2.261,1.049,3.679,3.148,3.679a6.135,6.135,0,0,0,2.355-.46l.333.882a5.879,5.879,0,0,1-2.854.588c-2.8,0-4.2-1.827-4.2-4.7,0-2.759,1.561-4.676,4.39-4.676a5.426,5.426,0,0,1,2.444.5l-.384,1.009a4.952,4.952,0,0,0-2.073-.5C1304.429,669.9,1303.226,671.3,1303.226,673.584Z" transform="translate(-1183.07 -666.48)" fill="#303336"/><path d="M1344.833,675.652h-3.621l-1.088,2.823h-1.164l3.57-9.16h1.037l3.557,9.16h-1.19Zm-1.369-3.782c-.077-.2-.346-1.048-.435-1.367-.128.524-.294,1.073-.4,1.367l-1.037,2.76h2.892Z" transform="translate(-1212.144 -666.811)" fill="#303336"/><path d="M1389.48,678.617l-4.888-7.576h-.052c.039.6.1,1.546.1,2.479v5.1h-1.062v-9.122h1.331l4.876,7.55h.051c-.025-.409-.089-1.571-.089-2.4v-5.149h1.075v9.122Z" transform="translate(-1247.255 -666.953)" fill="#303336"/><path d="M1429.76,675.652h-3.621l-1.088,2.823h-1.165l3.57-9.16h1.037l3.558,9.16h-1.19Zm-1.369-3.782c-.077-.2-.346-1.048-.435-1.367-.128.524-.294,1.073-.4,1.367l-1.037,2.76h2.892Z" transform="translate(-1278.971 -666.811)" fill="#303336"/></g><g transform="translate(73.245 12.152)"><path d="M741.91,437.955l.682-1.816h1.228V423.546H741.91v-1.793h5.864l-.682,1.793h-1.227V436.14h1.909v1.816Z" transform="translate(-741.796 -420.709)" fill="#303336"/><path d="M773.8,454.126q0-2.349,2.659-3a1.784,1.784,0,0,1-1.068-1.7,2.529,2.529,0,0,1,1.477-2.133,3.637,3.637,0,0,1-2.114-3.427c0-2.837,1.773-4.2,4.546-4.2a5.236,5.236,0,0,1,1.659.227h4.205l-.591,1.543h-1.591a3.839,3.839,0,0,1,.727,2.36c0,2.519-1.841,3.9-4.478,3.9a5.148,5.148,0,0,1-.955-.068,1.746,1.746,0,0,0-1.114,1.475c0,.613.614.93,1.8.93h2.068c2.455,0,3.978,1.112,3.978,3.29,0,2.791-2.091,4.175-6.274,4.175C775.891,457.507,773.8,456.531,773.8,454.126Zm9.3-.613a1.423,1.423,0,0,0-.545-1.316,4.82,4.82,0,0,0-2.2-.34h-2.091c-1.7,0-2.546.726-2.546,2.2,0,1.271,1,1.929,3,1.929C781.642,455.987,783.1,455.17,783.1,453.513Zm-1.364-9.735c0-1.77-.841-2.655-2.5-2.655s-2.5.908-2.5,2.678a2.5,2.5,0,1,0,5-.023Z" transform="translate(-766.89 -434.815)" fill="#303336"/><path d="M843.309,439.807l-.25,1.838a6.343,6.343,0,0,0-1.318-.159c-1.887,0-3.546,1.634-3.546,4.085v6.49h-2V439.9h1.637l.227,2.224h.091a4.374,4.374,0,0,1,3.728-2.451A7.3,7.3,0,0,1,843.309,439.807Z" transform="translate(-815.986 -434.815)" fill="#303336"/><path d="M881.055,445.163v1.2h-8.342c.068,2.746,1.455,4.221,3.887,4.221a9.725,9.725,0,0,0,3.341-.59l.568,1.5a9.122,9.122,0,0,1-4,.794c-3.478,0-5.864-2.156-5.864-6.218,0-3.994,2.159-6.4,5.387-6.4C879.145,439.671,881.055,441.85,881.055,445.163Zm-8.3-.386h6.205c-.023-2.065-.932-3.472-2.955-3.472C874.1,441.3,872.963,442.6,872.758,444.777Z" transform="translate(-843.094 -434.815)" fill="#303336"/><path d="M922.585,439.814c1.3-.59,1.591-1.452,1.591-3.608V423.861h2v12.458c0,2.383-.636,4.266-2.955,5.151ZM925.2,419.3a1.13,1.13,0,0,1,1.159,1.271,1.175,1.175,0,1,1-2.341,0A1.124,1.124,0,0,1,925.2,419.3Z" transform="translate(-883.965 -418.778)" fill="#303336"/><path d="M959.009,443.863v8.283h-1.455l-.386-1.725h-.091a4.5,4.5,0,0,1-4.091,1.951c-2.2,0-3.841-1.134-3.841-3.608,0-2.428,1.864-3.767,5.841-3.88l2.068-.068v-.726c0-2.02-.932-2.7-2.523-2.7a8.027,8.027,0,0,0-3.432.93l-.614-1.5a9.136,9.136,0,0,1,4.16-1.044C957.6,439.778,959.009,441.026,959.009,443.863Zm-3.773,2.406c-3.046.113-4.023.976-4.023,2.519,0,1.362.909,1.974,2.227,1.974a3.251,3.251,0,0,0,3.592-3.472V446.2Z" transform="translate(-904.864 -434.899)" fill="#303336"/><path d="M1037.967,432.688h-6.433L1029.6,437.7h-2.069l6.342-16.27h1.841l6.319,16.27h-2.114Zm-2.432-6.717c-.136-.363-.614-1.861-.773-2.428-.227.93-.523,1.906-.7,2.428l-1.841,4.9h5.137Z" transform="translate(-966.547 -420.457)" fill="#303336"/><path d="M1097.4,428.034c0-4.175,2-6.331,5.023-6.331a4.4,4.4,0,0,1,3.773,1.793h.136c-.046-.386-.136-1.339-.136-1.793v-4.085l2-.771v17.246h-1.614l-.3-1.634h-.091a4.32,4.32,0,0,1-3.8,1.861C1099.373,434.32,1097.4,432.21,1097.4,428.034Zm8.819.386v-.363c0-3.018-.818-4.7-3.523-4.7-2.159,0-3.228,1.838-3.228,4.72,0,2.9,1.068,4.584,3.25,4.584C1105.283,432.664,1106.215,431.257,1106.215,428.42Z" transform="translate(-1021.52 -416.847)" fill="#303336"/><path d="M1155.842,440.738h2.137l2.591,7.171a26,26,0,0,1,.977,3.222h.091c.159-.749.682-2.247,1.023-3.222l2.591-7.171h2.137l-4.637,12.163h-2.3Z" transform="translate(-1067.509 -435.655)" fill="#303336"/><path d="M1223.849,445.163v1.2h-8.342c.068,2.746,1.455,4.221,3.887,4.221a9.726,9.726,0,0,0,3.341-.59l.568,1.5a9.121,9.121,0,0,1-4,.794c-3.478,0-5.864-2.156-5.864-6.218,0-3.994,2.159-6.4,5.387-6.4C1221.94,439.671,1223.849,441.85,1223.849,445.163Zm-8.3-.386h6.205c-.023-2.065-.932-3.472-2.955-3.472C1216.894,441.3,1215.757,442.6,1215.553,444.777Z" transform="translate(-1112.831 -434.815)" fill="#303336"/><path d="M1282.694,444.141v7.92h-1.977v-7.783c0-1.951-.864-2.927-2.728-2.927-2.705,0-3.569,1.566-3.569,4.4v6.309h-2V439.9h1.614l.3,1.656h.114a4.422,4.422,0,0,1,3.841-1.883C1281.194,439.671,1282.694,441.01,1282.694,444.141Z" transform="translate(-1159.242 -434.815)" fill="#303336"/><path d="M1339.425,440.871l.546,1.43a4.613,4.613,0,0,1-2.228.5c-1.909,0-3.569-.817-3.569-3.767V428.368l2-.749v2.791h3.523v1.543h-3.523v7.034c0,1.475.8,2.179,1.91,2.179A3.661,3.661,0,0,0,1339.425,440.871Z" transform="translate(-1207.834 -425.327)" fill="#303336"/><path d="M1373.525,420.571a1.175,1.175,0,1,1-2.341,0,1.175,1.175,0,1,1,2.341,0Zm-.182,15.453h-2V423.861h2Z" transform="translate(-1236.957 -418.778)" fill="#303336"/><path d="M1397.529,452.288a7.871,7.871,0,0,1-3.819-.771l.591-1.543a9.17,9.17,0,0,0,3.273.7c2.023,0,2.887-.7,2.887-1.793,0-.908-.614-1.452-3-2.36-2.364-.908-3.773-1.634-3.773-3.631,0-2.065,1.841-3.222,4.569-3.222a9.5,9.5,0,0,1,3.887.817l-.614,1.611a8.726,8.726,0,0,0-3.409-.794c-1.637,0-2.523.567-2.523,1.475,0,1.021.8,1.43,3.137,2.315,2.319.862,3.66,1.657,3.66,3.608C1402.393,451.063,1400.506,452.288,1397.529,452.288Z" transform="translate(-1254.664 -434.815)" fill="#303336"/><path d="M1451.308,440.871l.546,1.43a4.613,4.613,0,0,1-2.228.5c-1.909,0-3.568-.817-3.568-3.767V428.368l2-.749v2.791h3.523v1.543h-3.523v7.034c0,1.475.8,2.179,1.91,2.179A3.661,3.661,0,0,0,1451.308,440.871Z" transform="translate(-1295.872 -425.327)" fill="#303336"/><path d="M1487.386,443.863v8.283h-1.455l-.386-1.725h-.091a4.5,4.5,0,0,1-4.092,1.951c-2.2,0-3.841-1.134-3.841-3.608,0-2.428,1.864-3.767,5.842-3.88l2.068-.068v-.726c0-2.02-.932-2.7-2.523-2.7a8.026,8.026,0,0,0-3.432.93l-.614-1.5a9.137,9.137,0,0,1,4.16-1.044C1485.977,439.778,1487.386,441.026,1487.386,443.863Zm-3.773,2.406c-3.046.113-4.023.976-4.023,2.519,0,1.362.909,1.974,2.227,1.974a3.251,3.251,0,0,0,3.591-3.472V446.2Z" transform="translate(-1320.631 -434.899)" fill="#303336"/><path d="M741.377,542.414c0-4.175,2-6.331,5.023-6.331a4.405,4.405,0,0,1,3.773,1.793h.136c-.045-.386-.136-1.339-.136-1.793V532l2-.772v17.246H750.56l-.3-1.634h-.091a4.32,4.32,0,0,1-3.8,1.861C743.354,548.7,741.377,546.59,741.377,542.414Zm8.819.386v-.363c0-3.018-.818-4.7-3.523-4.7-2.159,0-3.228,1.838-3.228,4.72,0,2.9,1.068,4.584,3.25,4.584C749.264,547.043,750.2,545.637,750.2,542.8Z" transform="translate(-741.377 -506.891)" fill="#303336"/><path d="M807.23,566.668c-3.228,0-5.592-2.292-5.592-6.331,0-4.017,2.159-6.286,5.66-6.286,3.3,0,5.615,2.269,5.615,6.286C812.913,564.376,810.707,566.668,807.23,566.668Zm.046-1.657c2.455,0,3.568-1.793,3.568-4.674s-1.114-4.607-3.591-4.607-3.546,1.725-3.546,4.607S804.8,565.011,807.275,565.011Z" transform="translate(-788.795 -524.859)" fill="#303336"/><path d="M897.924,551.723a10.833,10.833,0,0,1-4.455-.771l.636-1.679a10.493,10.493,0,0,0,3.91.681c2.41,0,3.66-1,3.66-2.609,0-1.589-.886-2.269-3.819-3.336-2.773-1-4.182-2.292-4.182-4.811,0-2.564,2.114-4.13,5.182-4.13a10.908,10.908,0,0,1,4.478.907l-.659,1.747a10.05,10.05,0,0,0-3.864-.862c-2.023,0-3.069.953-3.069,2.36,0,1.634.909,2.292,3.546,3.268,2.864,1.067,4.432,2.133,4.432,4.675C903.72,550.044,901.47,551.723,897.924,551.723Z" transform="translate(-861.054 -509.914)" fill="#303336"/><path d="M958.595,541.071v1.2h-8.342c.068,2.746,1.455,4.221,3.887,4.221a9.731,9.731,0,0,0,3.341-.59l.568,1.5a9.122,9.122,0,0,1-4,.794c-3.478,0-5.864-2.156-5.864-6.218,0-3.994,2.16-6.4,5.387-6.4C956.685,535.579,958.595,537.758,958.595,541.071Zm-8.3-.386H956.5c-.023-2.065-.932-3.472-2.955-3.472C951.639,537.213,950.5,538.507,950.3,540.685Zm6.319-9.871a19.591,19.591,0,0,1-3.25,3.4h-1.318v-.272a24.993,24.993,0,0,0,2.159-3.359h2.41Z" transform="translate(-904.108 -506.387)" fill="#303336"/><path d="M1012.31,555.251l.546,1.43a4.612,4.612,0,0,1-2.228.5c-1.909,0-3.568-.817-3.568-3.767V542.748l2-.749v2.791h3.523v1.543h-3.523v7.034c0,1.475.8,2.179,1.91,2.179A3.661,3.661,0,0,0,1012.31,555.251Z" transform="translate(-950.436 -515.371)" fill="#303336"/><path d="M1046.41,534.951a1.175,1.175,0,1,1-2.341,0,1.175,1.175,0,1,1,2.341,0Zm-.182,15.453h-2V538.241h2Z" transform="translate(-979.558 -508.822)" fill="#303336"/><path d="M1087.253,558.521v7.92h-1.978v-7.829c0-1.906-.8-2.882-2.478-2.882-2.364,0-3.3,1.407-3.3,3.994v6.717h-1.978v-7.829c0-1.906-.8-2.882-2.5-2.882-2.455,0-3.251,1.566-3.251,4.4v6.308h-2V554.278h1.614l.3,1.657h.114a4.046,4.046,0,0,1,3.591-1.883c1.864,0,3.137.658,3.728,2.042h.114a4.389,4.389,0,0,1,3.909-2.042C1085.889,554.051,1087.253,555.39,1087.253,558.521Z" transform="translate(-999.784 -524.859)" fill="#303336"/><path d="M1167.624,566.668c-3.228,0-5.592-2.292-5.592-6.331,0-4.017,2.16-6.286,5.66-6.286,3.3,0,5.615,2.269,5.615,6.286C1173.307,564.376,1171.1,566.668,1167.624,566.668Zm.046-1.657c2.455,0,3.568-1.793,3.568-4.674s-1.114-4.607-3.591-4.607-3.546,1.725-3.546,4.607S1165.192,565.011,1167.67,565.011Z" transform="translate(-1072.38 -524.859)" fill="#303336"/><path d="M1261.16,552.335h-4.523v-16.2h5c4.887,0,8,2.746,8,7.942C1269.639,549.544,1266.5,552.335,1261.16,552.335Zm.182-14.455h-2.659v12.708h2.2c4.387,0,6.592-2.178,6.592-6.445C1267.479,539.832,1265.252,537.88,1261.342,537.88Z" transform="translate(-1146.823 -510.753)" fill="#303336"/><path d="M1330.545,534.951a1.175,1.175,0,1,1-2.341,0,1.175,1.175,0,1,1,2.341,0Zm-.182,15.453h-2V538.241h2Z" transform="translate(-1203.137 -508.822)" fill="#303336"/><path d="M1357.908,558.242v8.283h-1.455l-.386-1.724h-.091a4.5,4.5,0,0,1-4.091,1.951c-2.2,0-3.841-1.135-3.841-3.608,0-2.428,1.864-3.767,5.842-3.88l2.068-.068v-.726c0-2.02-.932-2.7-2.523-2.7a8.029,8.029,0,0,0-3.432.93l-.614-1.5a9.141,9.141,0,0,1,4.16-1.044C1356.5,554.157,1357.908,555.405,1357.908,558.242Zm-3.773,2.405c-3.046.113-4.024.976-4.024,2.519,0,1.361.909,1.974,2.228,1.974a3.251,3.251,0,0,0,3.592-3.472v-1.089Z" transform="translate(-1218.748 -524.942)" fill="#303336"/><path d="M1396.572,533.813a1.449,1.449,0,0,1,1.5-1.52,1.475,1.475,0,0,1,1.5,1.52,1.5,1.5,0,0,1-3,0Zm2.773,0a1.26,1.26,0,0,0-1.273-1.293,1.282,1.282,0,1,0,1.273,1.293Zm-1.841-.908h.523c.454,0,.659.182.659.545a.479.479,0,0,1-.318.454l.477.794h-.364l-.409-.7h-.25v.7h-.318Zm.523.84a.3.3,0,0,0,.341-.295q0-.272-.341-.272h-.2v.567Z" transform="translate(-1256.934 -507.73)" fill="#303336"/></g><path d="M433.5,390.932c-2.433,2.429-3.61,3.586-4.218,6.53-.045.22-.3.22-.3,0v-3.608c0-2.313,2.065-4.428,4.524-6.883L435.487,385c2.77-2.765,3.439-5.97,1.236-7.875-.184-.159-.088-.355.152-.245,2.747,1.25,4.912,5.79.2,10.492Zm-4.525,9.273v3.632c0,.219.252.22.3,0,.608-2.944,1.784-4.124,4.217-6.553l3.854-3.84c4.709-4.7,5.524-9.251,3.129-12.175-.16-.195-.331-.078-.227.157,1.583,3.577-2.214,7.369-4.021,9.174l-2.725,2.721C431.041,395.777,428.977,397.892,428.977,400.206Zm-10.445-11.686c-4.709,4.7-2.544,9.242.2,10.492.241.11.337-.086.152-.245-2.2-1.9-1.534-5.109,1.236-7.875l7.827-7.814c2.459-2.455,4.524-4.57,4.524-6.883v-3.608c0-.219-.252-.22-.3,0-.608,2.944-1.785,4.1-4.218,6.53Zm13.952-18.676v-3.632c0-.22-.252-.22-.3,0-.608,2.944-1.784,4.124-4.217,6.553l-9.7,9.679c-4.709,4.7-5.524,9.251-3.128,12.175.16.195.331.078.227-.157-1.583-3.576,2.214-7.369,4.021-9.173l8.574-8.56C430.418,374.272,432.483,372.157,432.483,369.843Zm-15.239,7.29c-4.05,4.043-4.615,8.321-3.75,11.11.074.237.279.253.277,0-.02-2.344.655-4.359,4.941-8.637l9.239-9.221c2.459-2.455,4.524-4.57,4.524-6.883V359.9c0-.219-.252-.22-.3,0-.608,2.944-1.787,4.106-4.22,6.535Zm5.663,29.265a.148.148,0,0,1-.148-.148v-2.094a.148.148,0,0,1,.148-.148h3.548a.148.148,0,0,0,.148-.148c-.009-1.881-1.43-3.159-7.119-2.17L407.2,403.8s-9.357,9.341-9.434,9.432a.193.193,0,0,0,.168.329c.17-.015,20.44-3.512,20.44-3.512,4.653-.783,7.189,1.427,7.948,3.5.067.183.285.156.285-.019,0-.126,0-6.983,0-6.983a.147.147,0,0,0-.148-.147Zm14.664-4.456L433.509,406c-2.459,2.455-4.524,4.57-4.524,6.883l0,.644c0,.175.218.2.285.019.759-2.071,3.3-4.281,7.949-3.5,0,0,20.27,3.5,20.44,3.512a.193.193,0,0,0,.168-.329c-.077-.091-9.434-9.432-9.434-9.432Zm4.545-14.3c-.073-.237-.279-.253-.277,0,.02,2.344-.655,4.359-4.941,8.637l-3.39,3.381a23.879,23.879,0,0,0-3.75,4.352h3.348l.4-.4,4.863-4.86C442.416,394.712,442.981,390.435,442.116,387.645Zm-13.131,22.5c0,.22.252.22.3,0a8.67,8.67,0,0,1,1.639-3.751h-1.788a.148.148,0,0,0-.148.147Z" transform="translate(-397.706 -359.734)" fill="#303336"/><g transform="translate(57.169 45.495)"><path d="M665.948,575.063a1.454,1.454,0,0,1,1.506-1.5,1.478,1.478,0,0,1,1.506,1.5,1.506,1.506,0,0,1-3.012,0Zm2.779,0a1.256,1.256,0,0,0-1.272-1.286,1.235,1.235,0,0,0-1.276,1.286,1.274,1.274,0,1,0,2.549,0Zm-1.835-.893h.525c.447,0,.648.176.648.529a.481.481,0,0,1-.32.467l.476.8h-.353l-.411-.709H667.2v.709h-.312Zm.517.828c.213,0,.341-.119.341-.291,0-.193-.107-.274-.345-.274h-.2V575Z" transform="translate(-665.948 -573.559)" fill="#303336"/></g></svg>